<?xml version="1.0" encoding="utf-8" ?>
<svg baseProfile="full" height="200mm" version="1.1" viewBox="0,0,200,200" width="200mm" xmlns="http://www.w3.org/2000/svg" xmlns:ev="http://www.w3.org/2001/xml-events" xmlns:xlink="http://www.w3.org/1999/xlink"><defs /><rect fill="#1a1a1a" height="200" width="200" x="0" y="0" /><text alignment-baseline="middle" fill="#e1ed5e" style="dominant-baseline: central; font-size:9.0px; font-family:Arial;" text-anchor="middle" x="100.0" y="100.0">2019</text><line stroke="#e1ed5e" stroke-width="0.3" x1="100.0" x2="100.0" y1="15.0" y2="10.0" /><path d="M 100.0 14.0 a86.0,86.0 0 0,1 42.46469731375804,11.215312516191453" fill="none" id="id1" stroke="none" /><text fill="#e1ed5e" style="font-size:6.75px; font-family:Arial;" text-anchor="middle"><textPath startOffset="22.20632615414155" xlink:href="#id1">January</textPath></text><line stroke="#e1ed5e" stroke-width="0.3" x1="143.23703022742887" x2="145.7803849466894" y1="26.81831364943548" y2="22.513508569990506" /><path d="M 143.74570117128098 25.957352633546492 a86.0,86.0 0 0,1 28.547481713284135,27.462654790039103" fill="none" id="id2" stroke="none" /><text fill="#e1ed5e" style="font-size:6.75px; font-family:Arial;" text-anchor="middle"><textPath startOffset="19.985693538727396" xlink:href="#id2">February</textPath></text><line stroke="#e1ed5e" stroke-width="0.3" x1="172.23445277983987" x2="176.4835382374775" y1="55.19839476539836" y2="52.563006222186495" /><path d="M 173.08426987136738 54.67131705675599 a86.0,86.0 0 0,1 12.851231095245387,41.99856678651699" fill="none" id="id3" stroke="none" /><text fill="#e1ed5e" style="font-size:6.75px; font-family:Arial;" text-anchor="middle"><textPath startOffset="22.20632615414155" xlink:href="#id3">March</textPath></text><line stroke="#e1ed5e" stroke-width="0.3" x1="184.98032266829074" x2="189.97916517819016" y1="98.17113171792111" y2="98.06355123074" /><path d="M 185.9800911702706 98.14961562048488 a86.0,86.0 0 0,1 -9.607161424134198,41.387399972396054" fill="none" id="id4" stroke="none" /><text fill="#e1ed5e" style="font-size:6.75px; font-family:Arial;" text-anchor="middle"><textPath startOffset="21.466115282336823" xlink:href="#id4">April</textPath></text><path d="M 120.49622156327973 104.57218783832717 l 7.236575424491211 1.61429666657553 a28.41444384981551,28.41444384981551 0 0,0 -0.11059907427057158,0.4764579173109213 l -7.207715784290087 -1.7386232412350162" fill="#ff4c07" stroke="none" /><path d="M 120.02730092923936 106.31721596034902 l 7.131655127676775 2.249539553804255 a28.478030025631636,28.478030025631636 0 0,0 -0.15148650617404955,0.466227526156073 l -7.091876370486479 -2.371965979938123" fill="#ff4d07" stroke="none" /><path d="M 119.79798401119884 107.00284435728193 l 6.932891198468568 2.4522677653130027 a28.35381517054897,28.35381517054897 0 0,0 -0.16671468007165463,0.45872719845119014 l -6.889652257391687 -2.571242760770324" fill="#ff4c07" stroke="none" /><path d="M 119.67450827220406 107.3425965602758 l 6.837006613759899 2.5515952190632514 a28.29762273610681,28.29762273610681 0 0,0 -0.17424021398492634,0.4548862166836319 l -6.792072120181466 -2.668905002580027" fill="#ff4b07" stroke="none" /><path d="M 118.64920377521936 109.65438752849418 l 6.48727337475591 3.3583552369349965 a28.305016477480777,28.305016477480777 0 0,0 -0.22771721612016427,0.4307551554258292 l -6.428503650410853 -3.4695254074469597" fill="#ff4b07" stroke="none" /><line stroke="#e1ed5e" stroke-width="0.3" x1="174.80103733775053" x2="179.2010983576182" y1="140.37084112569926" y2="142.7455964860345" /><path d="M 175.68104954172406 140.8457921977663 a86.0,86.0 0 0,1 -30.038265399797805,32.042727171017184" fill="none" id="id5" stroke="none" /><text fill="#e1ed5e" style="font-size:6.75px; font-family:Arial;" text-anchor="middle"><textPath startOffset="22.206326154141568" xlink:href="#id5">May</textPath></text><path d="M 118.30583269289576 110.29060199501025 l 6.407789082358167 3.6021309830997317 a28.35085767399938,28.35085767399938 0 0,0 -0.2428021504779419,0.4233460152124617 l -6.344834935727846 -3.7118968441705085" fill="#ff4c07" stroke="none" /><path d="M 117.75023020441432 111.22182372390056 l 6.289550065389751 3.976298973232374 a28.441061318761797,28.441061318761797 0 0,0 -0.2651724517432693,0.4115535338133898 l -6.220172750269431 -4.083974106967217" fill="#ff4d07" stroke="none" /><path d="M 117.55443506779139 111.5257021239791 l 6.100268784296431 4.005248850930687 a28.29762273610681,28.29762273610681 0 0,0 -0.27084449020078305,0.40487576418717003 l -6.030421188684928 -4.109661529323663" fill="#ff4b07" stroke="none" /><path d="M 116.27256486870786 113.27417163493432 l 7.83538000818412 6.3916278652283545 a31.11168070303918,31.11168070303918 0 0,0 -0.34208626306507633,0.4120649409438611 l -7.7241977452255 -6.525554063285986" fill="#ff720a" stroke="none" /><path d="M 115.80600337817218 113.82643327865902 l 5.632917154672096 4.927441260125434 a28.48394501873081,28.48394501873081 0 0,0 -0.3259935291597737,0.3662571858446808 l -5.547264775863985 -5.023672615710981" fill="#ff4d07" stroke="none" /><path d="M 115.56566222782051 114.09645910891815 l 5.309415248821407 4.80827309830152 a28.16305664310058,28.16305664310058 0 0,0 -0.32850675650225863,0.35652920331082005 l -5.225862084323426 -4.898953556413675" fill="#ff4906" stroke="none" /><path d="M 115.07121518719521 114.62390073753431 l 5.351951820200083 5.1931056121585195 a28.457327549784527,28.457327549784527 0 0,0 -0.344143100815865,0.34861514419466616 l -5.261768094328682 -5.28446125033385" fill="#ff4d07" stroke="none" /><path d="M 114.81725581225074 114.88116024355365 l 5.3640193878532125 5.387153537173571 a28.602244880714306,28.602244880714306 0 0,0 -0.35187577748055887,0.34438450829866685 l -5.270493657996859 -5.47868814839481" fill="#ff4f07" stroke="none" /><path d="M 114.0293411484842 115.62618273729858 l 4.9404793315754665 5.5028124291771245 a28.39522012224319,28.39522012224319 0 0,0 -0.3665115026207026,0.3234037875010672 l -4.845025476048176 -5.587039358450481" fill="#ff4c07" stroke="none" /><path d="M 113.20401910651253 116.32954008644616 l 4.635892689707312 5.733254011704685 a28.373038898121287,28.373038898121287 0 0,0 -0.3824179080453512,0.30381591451432605 l -4.5365172889446095 -5.812203840224137" fill="#ff4c07" stroke="none" /><path d="M 112.63410532772338 116.77436683061366 l 6.556635555783208 8.705278857064167 a31.898226910401938,31.898226910401938 0 0,0 -0.4414335312934194,0.3265619732656091 l -6.405817054071225 -8.816850779069544" fill="#ff7d0b" stroke="none" /><path d="M 112.34349029814194 116.9893568818739 l 4.528461288716412 6.232892245342859 a28.70427851167507,28.70427851167507 0 0,0 -0.402232606657165,0.2869822849118026 l -4.420501354210362 -6.30991879209888" fill="#ff5107" stroke="none" /><path d="M 111.7513745106137 117.40417183066458 l 4.030298112409096 5.969003950458542 a28.202243472382616,28.202243472382616 0 0,0 -0.4046690243106939,0.2681925633856789 l -3.926954389358438 -6.037494534935539" fill="#ff4906" stroke="none" /><line stroke="#e1ed5e" stroke-width="0.3" x1="143.8653032363475" x2="146.44561519142675" y1="172.8068346515853" y2="177.08958963109032" /><path d="M 144.38136562736335 173.6633856474863 a86.0,86.0 0 0,1 -40.68145358897372,12.25698825130547" fill="none" id="id6" stroke="none" /><text fill="#e1ed5e" style="font-size:6.75px; font-family:Arial;" text-anchor="middle"><textPath startOffset="21.466115282336833" xlink:href="#id6">June</textPath></text><path d="M 110.5260780823613 118.17145234162733 l 31.15915384910574 53.790887236838984 a83.16391572543165,83.16391572543165 0 0,0 -1.2448894979024248,0.7068807465291365 l -30.228615584282114 -54.31927114916275" fill="#4cdaff" stroke="none" /><path d="M 109.57404056367764 118.69057910512821 l 4.821807517641831 9.413201692511757 a31.576303410979353,31.576303410979353 0 0,0 -0.48589328843245233,0.24363698179923587 l -4.659060321526619 -9.494806515220295" fill="#ff790b" stroke="none" /><path d="M 108.59647513512805 119.15986991738527 l 4.625844554518035 10.310107169441652 a32.30029856631834,32.30029856631834 0 0,0 -0.5092362408423714,0.2232342029116715 l -4.44768763901791 -10.388205925647778" fill="#ff830c" stroke="none" /><path d="M 107.93186726928326 119.44442032107085 l 2.8632179803486184 7.018979515245578 a28.58050728107484,28.58050728107484 0 0,0 -0.4571233348450011,0.1818988088852846 l -2.741973569461751 -7.067225168536932" fill="#ff4f07" stroke="none" /><path d="M 105.88484417918355 120.15858648285463 l 2.8325256951800717 9.702842157346176 a31.107835957524713,31.107835957524713 0 0,0 -0.5153069789208412,0.14563089950531719 l -2.665087548154625 -9.750161850190011" fill="#ff720a" stroke="none" /><path d="M 105.53697534728816 120.25689768951611 l 2.8827268771448695 10.546390358364528 a31.93327324451455,31.93327324451455 0 0,0 -0.5314754376795113,0.14036749359624293 l -2.700760996653861 -10.594449201264355" fill="#ff7e0b" stroke="none" /><path d="M 105.18746579009965 120.34920634021253 l 1.8280253640519608 7.1709128953158565 a28.400247866377487,28.400247866377487 0 0,0 -0.4747530345700211,0.11668274521336693 l -1.7043190447387284 -7.201316898843253" fill="#ff4c07" stroke="none" /><path d="M 104.83641907484287 120.43548508189849 l 1.8441546693430217 7.792169092645718 a29.007421908007775,29.007421908007775 0 0,0 -0.48688246383965716,0.11081286361669627 l -1.7097520561105026 -7.822758689840099" fill="#ff5507" stroke="none" /><path d="M 104.48393922423573 120.51570834832081 l 1.6309424322498967 7.46217502059096 a28.638326338619272,28.638326338619272 0 0,0 -0.4824992566178779,0.10111241047667574 l -1.5022517142026406 -7.489143411794177" fill="#ff5007" stroke="none" /><path d="M 103.7750983002368 120.6578951692458 l 0.3877655332334901 2.1219102388093174 a23.157050108441542,23.157050108441542 0 0,0 -0.3927336768473682,0.06828178380833277 l -0.35118288491407196 -2.1282706011386563" fill="#ff0000" stroke="none" /><path d="M 103.41894727170886 120.7198165907248 l 1.782998865889912 10.805492611251715 a31.95160972312199,31.95160972312199 0 0,0 -0.543427099670313,0.08487213682573418 l -1.5967359026110821 -10.834583055424556" fill="#ff7e0b" stroke="none" /><path d="M 103.06178313531738 120.77559828337769 l 1.0829603617088124 7.348381135214358 a28.42775258428865,28.42775258428865 0 0,0 -0.48472216272611707,0.06717807495543401 l -0.9563096077958648 -7.365933775662395" fill="#ff4d07" stroke="none" /><path d="M 102.70371172650421 120.8252237178851 l 0.9907504614789769 7.63121297534731 a28.695258147198828,28.695258147198828 0 0,0 -0.4903781541662437,0.05937796527981387 l -0.8592448842613529 -7.647136469352475" fill="#ff5007" stroke="none" /><path d="M 101.98527174616119 120.90594882070398 l 0.7167064183462802 7.547293074809536 a28.581246655212237,28.581246655212237 0 0,0 -0.4901761137573925,0.04229445764850813 l -0.586685986847346 -7.558511784736707" fill="#ff4f07" stroke="none" /><path d="M 101.62511606390274 120.93702456842531 l 0.5896613000364758 7.596843942496547 a28.61969411035687,28.61969411035687 0 0,0 -0.49149178434812424,0.03389615104581423 l -0.4588067549094212 -7.605868438058647" fill="#ff4f07" stroke="none" /><path d="M 100.90346689309514 120.98055641714683 l 0.6510519390740536 15.118907004373842 a36.1329183449286,36.1329183449286 0 0,0 -0.6216232396487766,0.021409961258068586 l -0.3907083477506247 -15.127873764058004" fill="#ffb610" stroke="none" /><line stroke="#e1ed5e" stroke-width="0.3" x1="102.19456741930631" x2="102.32365962044197" y1="184.97166512339345" y2="189.96999836594603" /><path d="M 102.22038585953345 185.97133177190398 a86.0,86.0 0 0,1 -42.740103519485714,-10.115201625700543" fill="none" id="id7" stroke="none" /><text fill="#e1ed5e" style="font-size:6.75px; font-family:Arial;" text-anchor="middle"><textPath startOffset="22.20632615414155" xlink:href="#id7">July</textPath></text><path d="M 100.18074693466247 120.99922214144158 l 0.08911852776572143 10.35381189155662 a31.35419542010534,31.35419542010534 0 0,0 -0.5397309248563467,0.0 l 0.0891185277657143 -10.35381189155662" fill="#ff760a" stroke="none" /><path d="M 99.81925306533755 120.99922214144158 l -0.06533067738094996 7.590133738840351 a28.590414894515956,28.590414894515956 0 0,0 -0.49208230597957775,-0.008471643156160839 l 0.19597267325319562 -7.587884618405031" fill="#ff4f07" stroke="none" /><path d="M 99.45781275523022 120.99299961872073 l -0.28667064375393436 11.09962798475668 a32.103329296115824,32.103329296115824 0 0,0 -0.5522990246749454,-0.01902229512500276 l 0.47769002010352285 -11.093048891205584" fill="#ff800b" stroke="none" /><path d="M 98.73552117531835 120.96189622390904 l -0.8961280902489585 14.855562358553334 a35.88256626200602,35.88256626200602 0 0,0 -0.6162185539474743,-0.04249803933048491 l 1.1517094049753627 -14.837935974706564" fill="#ffb310" stroke="none" /><path d="M 98.37488393609728 120.93702456842531 l -0.5388749926004773 6.942543495811255 a27.963425626003435,27.963425626003435 0 0,0 -0.47958031593413925,-0.041380207627525784 l 0.6582996262761582 -6.932239035905066" fill="#ff4606" stroke="none" /><path d="M 98.01472825383883 120.90594882070398 l -0.7344884766309061 7.734547439933156 a28.769343435765993,28.769343435765993 0 0,0 -0.49259610078858557,-0.05105959995067204 l 0.867517174025085 -7.7207584715267235" fill="#ff5107" stroke="none" /><path d="M 97.65516085044442 120.86867818915974 l -0.866509969083792 7.711794515174169 a28.76032307128975,28.76032307128975 0 0,0 -0.4914900597365873,-0.05951260155957403 l 0.9991274518717685 -7.695736384889247" fill="#ff5107" stroke="none" /><path d="M 97.2962882734958 120.8252237178851 l -1.0210789744238018 7.8648170467116385 a28.930822747373462,28.930822747373462 0 0,0 -0.49330002187029004,-0.06836688807118275 l 1.1563075874809228 -7.846075593147851" fill="#ff5407" stroke="none" /><path d="M 96.22490169976321 120.6578951692458 l -2.579529995775554 14.115568920500419 a35.34932963411543,35.34932963411543 0 0,0 -0.5976265153948319,-0.11453654403851113 l 2.822124125742081 -14.069075178113438" fill="#ffac0f" stroke="none" /><path d="M 95.86986931433489 120.58985236759428 l -2.952881157279911 14.720935416999618 a36.01417485846267,36.01417485846267 0 0,0 -0.606767741642819,-0.12715407975350343 l 3.205840360352117 -14.667925356519573" fill="#ffb410" stroke="none" /><path d="M 95.51606077576429 120.51570834832081 l -1.6161656277760283 7.394565582606749 a28.56912091935893,28.56912091935893 0 0,0 -0.4795256892206132,-0.10913848566500069 l 1.7432114663895042 -7.365650363364062" fill="#ff4f07" stroke="none" /><path d="M 95.16358092515715 120.4354850818985 l -1.6994489779295636 7.180739240851601 a28.379101766047942,28.379101766047942 0 0,0 -0.4743995455671087,-0.11659586621679556 l 1.822801808239883 -7.150422116320775" fill="#ff4c07" stroke="none" /><path d="M 94.46302465271185 120.25689768951611 l -1.9369198469325188 7.086176966874502 a28.346125679520043,28.346125679520043 0 0,0 -0.46955874423306876,-0.13270199141578767 l 2.0586097592702015 -7.0517861821201935" fill="#ff4b07" stroke="none" /><path d="M 94.11515582081647 120.15858648285463 l -2.1055187783026477 7.212473447270964 a28.513519984226686,28.513519984226686 0 0,0 -0.4699639444447154,-0.1415962812881713 l 2.229357697187609 -7.175161796877068" fill="#ff4e07" stroke="none" /><path d="M 93.76903079525671 120.05430185196036 l -4.495483781508522 14.468662219729001 a36.15095907388108,36.15095907388108 0 0,0 -0.5926668363632497,-0.1897532052016839 l 4.743871962962713 -14.389136167867612" fill="#ffb610" stroke="none" /><path d="M 92.40401165467489 119.57807347666478 l -3.8636243848961294 9.958193543080354 a31.681442413317185,31.681442413317185 0 0,0 -0.5067204184393721,-0.20163451201463445 l 4.034465879377359 -9.890212186659653" fill="#ff7a0b" stroke="none" /><path d="M 92.06813273071674 119.44442032107085 l -2.8236178487124035 6.921902549864911 a28.475664028391968,28.475664028391968 0 0,0 -0.45225936491572316,-0.1890444512140935 l 2.942348673125589 -6.872273055630845" fill="#ff4d07" stroke="none" /><path d="M 91.40352486487194 119.15986991738527 l -4.3350419001708325 9.661964652730958 a31.589907895107455,31.589907895107455 0 0,0 -0.49420455972867966,-0.22686507416847188 l 4.500714455666932 -9.585912508228413" fill="#ff790b" stroke="none" /><path d="M 91.07499286063937 119.00905698771935 l -4.443460973538961 9.463970341962098 a31.455193927273754,31.455193927273754 0 0,0 -0.4881356774521063,-0.23433478913328162 l 4.60570931899131 -9.386081276329254" fill="#ff770b" stroke="none" /><path d="M 90.7491055286396 118.85261126421891 l -3.272325105444031 6.668746825949726 a28.428344083598567,28.428344083598567 0 0,0 -0.437452776269752,-0.21934790339232113 l 3.3866317893965436 -6.611431081648103" fill="#ff4d07" stroke="none" /><line stroke="#e1ed5e" stroke-width="0.3" x1="58.666819895761336" x2="56.23545636021788" y1="174.27360380694188" y2="178.64263932499728" /><path d="M 58.180547188652646 175.14741091055294 a86.0,86.0 0 0,1 -31.652253787137756,-30.449443065178592" fill="none" id="id8" stroke="none" /><text fill="#e1ed5e" style="font-size:6.75px; font-family:Arial;" text-anchor="middle"><textPath startOffset="22.20632615414155" xlink:href="#id8">August</textPath></text><path d="M 88.54995079064634 117.60387380957326 l -4.053297424531926 6.231740586393172 a28.433963327042786,28.433963327042786 0 0,0 -0.40799393169228787,-0.2703961306965392 l 4.159966054964176 -6.161046434605313" fill="#ff4d07" stroke="none" /><path d="M 88.24862548938628 117.40417183066458 l -4.225255146652725 6.257741724963837 a28.55063656592401,28.55063656592401 0 0,0 -0.40493383527592536,-0.2785171842866225 l 4.332345866551542 -6.184083751312112" fill="#ff4e07" stroke="none" /><path d="M 87.36589467227662 116.77436683061367 l -6.922192964957187 9.190631315356365 a32.50584457651466,32.50584457651466 0 0,0 -0.44404728405037425,-0.34047652226226116 l 7.079368977501048 -9.070115451266737" fill="#ff850c" stroke="none" /><path d="M 86.79598089348748 116.32954008644616 l -9.298284164343752 11.499279330937162 a35.78822212207419,35.78822212207419 0 0,0 -0.4756934209785092,-0.39146330042208893 l 9.49484771386695 -11.337520911657892" fill="#ffb110" stroke="none" /><path d="M 84.9287848128048 114.62390073753433 l -5.023278514882615 4.874187347616484 a27.99935920908092,27.99935920908092 0 0,0 -0.33265031848823545,-0.348782529016467 l 5.106435384749808 -4.7869977020175165" fill="#ff4706" stroke="none" /><path d="M 84.67929136418377 114.36230785411682 l -3.366495176327674 3.155901026587299 a25.614433991493677,25.614433991493677 0 0,0 -0.2987784577796511,-0.324265006457733 l 3.4203200421030537 -3.097484765328222" fill="#ff2403" stroke="none" /><path d="M 83.06392112726016 112.41649034213515 l -8.516815992287379 6.244005138886722 a31.56048080443906,31.56048080443906 0 0,0 -0.31743863372567965,-0.440894498277469 l 8.623034418388666 -6.096477035158116" fill="#ff780b" stroke="none" /><path d="M 82.85270091963577 112.12312394758628 l -6.214525456075445 4.393663516705425 a28.61082162070811,28.61082162070811 0 0,0 -0.2808480387732751,-0.4045825464894291 l 6.289234402010854 -4.286039708028983" fill="#ff4f07" stroke="none" /><path d="M 82.6465618267979 111.8261652097733 l -7.460859090098213 5.084488233726153 a30.02864546658029,30.02864546658029 0 0,0 -0.2874125946430851,-0.42964283233848105 l 7.547274790152028 -4.955308487181851" fill="#ff6309" stroke="none" /><path d="M 82.05923443525364 110.91462005526583 l -6.190683427944585 3.766224872321998 a28.24631017097147,28.24631017097147 0 0,0 -0.24913127783921246,-0.4175583516628488 l 6.254595581482029 -3.659104426773038" fill="#ff4a06" stroke="none" /><line stroke="#e1ed5e" stroke-width="0.3" x1="26.63291911575756" x2="22.317208475507996" y1="142.92168965132927" y2="145.44649492493687" /><path d="M 25.769776987707644 143.4266507060508 a86.0,86.0 0 0,1 -11.730757126820373,-40.83630448921669" fill="none" id="id9" stroke="none" /><text fill="#e1ed5e" style="font-size:6.75px; font-family:Arial;" text-anchor="middle"><textPath startOffset="21.46611528233685" xlink:href="#id9">September</textPath></text><path d="M 79.86692584326677 105.97154293290107 l -10.716978901811759 3.17869487416362 a32.17844970847534,32.17844970847534 0 0,0 -0.1529355340236208,-0.5323886571933844 l 10.770107072721483 -2.9937487414656396" fill="#ff810b" stroke="none" /><path d="M 79.76711848015287 105.62410040840567 l -7.366426119639012 2.0476332106878776 a28.64572007999324,28.64572007999324 0 0,0 -0.12796714787043864,-0.4762133621733889 l 7.4005813438512265 -1.9205289153389495" fill="#ff5007" stroke="none" /><path d="M 79.29508885075956 103.50808413554451 l -9.750605919492028 1.652069197088596 a30.88957271216517,30.88957271216517 0 0,0 -0.08431124363765015,-0.5250061946130228 l 9.777598917490968 -1.4839837727823595" fill="#ff6f0a" stroke="none" /><line stroke="#e1ed5e" stroke-width="0.3" x1="15.007084014347285" x2="10.007500721073583" y1="101.09737516637583" y2="101.16192664675087" /><path d="M 14.007167355692545 101.11028546245083 a86.0,86.0 0 0,1 10.666146001902534,-42.60595125391555" fill="none" id="id10" stroke="none" /><text fill="#e1ed5e" style="font-size:6.75px; font-family:Arial;" text-anchor="middle"><textPath startOffset="22.20632615414155" xlink:href="#id10">October</textPath></text><path d="M 79.00175016825051 100.2711162175752 l -7.461289783679629 0.09633548893799389 a28.461911669436386,28.461911669436386 0 0,0 -0.002108489196669905,-0.48993863336692667 l 7.4618425701658015 0.032112622632608154" fill="#ff4d07" stroke="none" /><path d="M 79.00019446554 99.90962569577889 l -7.56269226860327 -0.032546637191087746 a28.562762301777315,28.562762301777315 0 0,0 0.006347724207656062,-0.49163823532046264 l 7.561011537277898 0.16272113057202234" fill="#ff4f07" stroke="none" /><path d="M 79.05617556472873 98.46500227214037 l -7.399624307912716 -0.5423272399348593 a28.419471593949808,28.419471593949808 0 0,0 0.03995712230421467,-0.48757809979090433 l 7.389192701789004 0.669619256933542" fill="#ff4d07" stroke="none" /><path d="M 79.12142395522702 97.74499172005258 l -8.818982790508606 -0.9525017017762322 a29.87027152634989,29.87027152634989 0 0,0 0.05961202549315587,-0.5107194299748817 l 8.801280412011861 1.1041648700759756" fill="#ff6108" stroke="none" /><path d="M 79.26566170972629 96.67025291283419 l -7.589002588878736 -1.218725136584968 a28.686237782722586,28.686237782722586 0 0,0 0.08249088093746962,-0.4868658488339896 l 7.566899846421043 1.3491767737347857" fill="#ff5007" stroke="none" /><path d="M 79.32604984820605 96.31383870115002 l -9.9309555354824 -1.770687444185345 a31.08757710616004,31.08757710616004 0 0,0 0.09846512793393306,-0.5260046506852998 l 9.899004683638607 1.9413701723332177" fill="#ff720a" stroke="none" /><path d="M 79.3925641242962 95.95851677861259 l -11.860173428956868 -2.3259901040083637 a33.0861053995437,33.0861053995437 0 0,0 0.11441601283550301,-0.5579331126058056 l 11.81837812020637 2.529798872777572" fill="#ff8d0d" stroke="none" /><path d="M 79.46518482838121 95.60439243477599 l -7.429649172837124 -1.5903635770834494 a28.597956510717406,28.597956510717406 0 0,0 0.10718189036500399,-0.48047539824961794 l 7.401172895470082 1.7180171448830266" fill="#ff4f07" stroke="none" /><path d="M 79.54389044137918 95.25157060432595 l -9.94471838871098 -2.3084444768606924 a31.209130214348082,31.209130214348082 0 0,0 0.1259766940269469,-0.5222547268755644 l 9.903508894423217 2.4792844353956536" fill="#ff740a" stroke="none" /><path d="M 79.81627453868168 94.20196356495316 l -7.336448501449103 -2.1074898088942 a28.633150719657493,28.633150719657493 0 0,0 0.1401580495758321,-0.47254326687097475 l 7.299084554761564 2.2334624625117137" fill="#ff5007" stroke="none" /><path d="M 80.95270993114464 91.15688171328213 l -57.141870206566075 -26.529354860153617 a84.0,84.0 0 0,0 0.6201672246329939,-1.3062303374378712 l 56.676744788091334 27.50902761323202" fill="#4dd2ff" stroke="none" /><line stroke="#e1ed5e" stroke-width="0.3" x1="26.266209847984243" x2="21.928928074336255" y1="57.711370442889674" y2="55.22380399835377" /><path d="M 25.398753493254645 57.213857153982495 a86.0,86.0 0 0,1 29.58750427330803,-30.492523968695096" fill="none" id="id11" stroke="none" /><text fill="#e1ed5e" style="font-size:6.75px; font-family:Arial;" text-anchor="middle"><textPath startOffset="21.46611528233685" xlink:href="#id11">November</textPath></text><path d="M 81.96595687620814 89.24020034530311 l -6.158359302652498 -3.6743126232608927 a28.17118975861195,28.17118975861195 0 0,0 0.2520438809106813,-0.414293869740866 l 6.0941996234556 3.779774266208833" fill="#ff4906" stroke="none" /><path d="M 82.15384107792192 88.93136811851018 l -6.393663025923785 -3.9655089208407666 a28.52357547249528,28.52357547249528 0 0,0 0.2623794113181721,-0.41502121815343046 l 6.32445601835965 4.074977786708413" fill="#ff4e07" stroke="none" /><path d="M 82.34701348167596 88.62581576622439 l -6.491275075253372 -4.182462754469778 a28.722023490972596,28.722023490972596 0 0,0 0.27135933809227697,-0.4132988888086203 l 6.418319101803175 4.2935797072560655" fill="#ff5107" stroke="none" /><path d="M 82.54541684631803 88.32363383020206 l -6.181473048391173 -4.13513987393775 a28.437068698419854,28.437068698419854 0 0,0 0.2756710216712171,-0.4045132082850935 l 6.1093775610512155 4.240931105493259" fill="#ff4d07" stroke="none" /><path d="M 83.39014120810768 87.1503855733568 l -12.008030114266464 -9.289576686055954 a36.18186491282427,36.18186491282427 0 0,0 0.38532983067872967,-0.489329754105021 l 11.846346202993765 9.494898834114021" fill="#ffb710" stroke="none" /><path d="M 83.6137871275137 86.86637796730984 l -8.78769108354001 -7.043373238794255 a32.26199898600118,32.26199898600118 0 0,0 0.3510435912824364,-0.4303379350508062 l 8.665149000181179 7.193595343453143" fill="#ff820c" stroke="none" /><path d="M 83.84228863543731 86.58626213691792 l -5.692608883074423 -4.725865043120198 a28.398621243275215,28.398621243275215 0 0,0 0.3154808060788189,-0.3734297666287105 l 5.61041746350848 4.823153759378024" fill="#ff4c07" stroke="none" /><path d="M 84.07557802195018 86.31012108654704 l -5.491779331148 -4.721163139638614 a28.242169675802046,28.242169675802046 0 0,0 0.32008886538361825,-0.36591690608870026 l 5.409698602186538 4.814995601930258" fill="#ff4a06" stroke="none" /><path d="M 84.5562425177563 85.77008943001954 l -5.1875765387290445 -4.779843914663606 a28.05392502042081,28.05392502042081 0 0,0 0.3302784291446985,-0.35231800021404946 l 5.10453078761389 4.868431331755706" fill="#ff4706" stroke="none" /><path d="M 85.57189188830299 84.74124197986013 l -5.3649739243604255 -5.673844294929342 a28.808678139875504,28.808678139875504 0 0,0 0.3632528976062144,-0.33760397959404365 l 5.266513142959354 5.765352860598034" fill="#ff5207" stroke="none" /><path d="M 86.93701828274178 83.55741782278169 l -7.911818603109701 -9.958731503161012 a33.7190096611554,33.7190096611554 0 0,0 0.45756285836638544,-0.3571350686967586 l 7.739223189583891 10.093444961080992" fill="#ff960d" stroke="none" /><path d="M 87.80319425747018 82.90503203632743 l -4.509087248180143 -6.319908972909147 a28.763576317494298,28.763576317494298 0 0,0 0.40552377437233117,-0.2840953192649722 l 4.399632334224152 6.396589134938061" fill="#ff5107" stroke="none" /><path d="M 89.00827224532344 82.1063720568725 l -32.965740464927684 -53.66551172977779 a83.98195927104751,83.98195927104751 0 0,0 1.2382857306514616,-0.7460532974439076 l 32.03709266805858 54.22501163668032" fill="#4dd2ff" stroke="none" /><line stroke="#e1ed5e" stroke-width="0.3" x1="56.762969772571076" x2="54.21961505331055" y1="26.818313649435495" y2="22.513508569990535" /><path d="M 56.25429882871897 25.957352633546506 a86.0,86.0 0 0,1 42.265352541879196,-11.944610805530505" fill="none" id="id12" stroke="none" /><text fill="#e1ed5e" style="font-size:6.75px; font-family:Arial;" text-anchor="middle"><textPath startOffset="22.20632615414155" xlink:href="#id12">December</textPath></text><path d="M 94.28887869178378 79.79150937346287 l -2.9597597028475744 -10.47294795257621 a31.883143677999044,31.883143677999044 0 0,0 0.5294152142238855,-0.14470917682296677 l 2.7790465993999667 10.522343670225471" fill="#ff7d0b" stroke="none" /><path d="M 94.63758080256005 79.69619591428918 l -1.9419379664108787 -7.35278734557598 a28.604906627608933,28.604906627608933 0 0,0 0.47714497769747427,-0.12163487889118599 l 1.815084100028405 7.385125220636029" fill="#ff4f07" stroke="none" /><path d="M 94.98787191387505 79.60689891045804 l -1.7515907443476264 -7.126786567141354 a28.338879812973552,28.338879812973552 0 0,0 0.47471174553427187,-0.1123489328465999 l 1.6286553118508205 7.155881412128825" fill="#ff4b07" stroke="none" /><path d="M 95.33964822691252 79.52364482259891 l -1.780760278109027 -7.824190472259334 a29.02427963834042,29.02427963834042 0 0,0 0.4881016919277492,-0.10668012455099125 l 1.645815862027757 7.853684094906193" fill="#ff5507" stroke="none" /><path d="M 97.47563105711357 79.15227682838746 l -1.6157262418926694 -13.343617424469215 a34.44108244373715,34.44108244373715 0 0,0 0.5891611229027274,-0.06619911687056952 l 1.385798415480224 13.369452494810384" fill="#ff9f0e" stroke="none" /><path d="M 97.83486435360386 79.11191278185805 l -0.7883324568924133 -7.605415921108533 a28.646163704475676,28.646163704475676 0 0,0 0.49090640583335565,-0.0466174783966407 l 0.6573009239688213 7.617858944020354" fill="#ff5007" stroke="none" /><path d="M 98.55514903715128 79.0497635885617 l -0.2780085665988869 -4.031104483723569 a25.040679660873728,25.040679660873728 0 0,0 0.4302679783091905,-0.025954939462489456 l 0.2085785394500734 4.035292692566364" fill="#ff1c02" stroke="none" /><path d="M 98.91598698831166 79.02799685794201 l -0.39271541436879714 -7.597721443628708 a28.607864124158525,28.607864124158525 0 0,0 0.49199963781906714,-0.021186539353221782 l 0.2618749441604059 7.603355709506122" fill="#ff4f07" stroke="none" /><path d="M 99.27714615592234 79.0124445844662 l -0.31032750973074674 -9.010142037425352 a30.015484606934624,30.015484606934624 0 0,0 0.5165141270792514,-0.01334003603734883 l 0.15518674745661634 9.01414886560506" fill="#ff6309" stroke="none" /></svg>