<?xml version="1.0" encoding="utf-8" ?>
<svg baseProfile="full" height="200mm" version="1.1" viewBox="0,0,200,200" width="200mm" xmlns="http://www.w3.org/2000/svg" xmlns:ev="http://www.w3.org/2001/xml-events" xmlns:xlink="http://www.w3.org/1999/xlink"><defs /><rect fill="#1a1a1a" height="200" width="200" x="0" y="0" /><text alignment-baseline="middle" fill="#e1ed5e" style="dominant-baseline: central; font-size:9.0px; font-family:Arial;" text-anchor="middle" x="100.0" y="100.0">2023</text><line stroke="#e1ed5e" stroke-width="0.3" x1="100.0" x2="100.0" y1="15.0" y2="10.0" /><path d="M 100.0 14.0 a86.0,86.0 0 0,1 42.46469731375804,11.215312516191453" fill="none" id="id49" stroke="none" /><text fill="#e1ed5e" style="font-size:6.75px; font-family:Arial;" text-anchor="middle"><textPath startOffset="22.20632615414155" xlink:href="#id49">January</textPath></text><path d="M 100.0 79.0 l 0.0 -17.35126190841413 a38.35126190841413,38.35126190841413 0 0,0 0.6601539302552286,0.00568215329574069 l -0.29867345098270026 17.348691131726948" fill="#ff9a0e" stroke="none" /><path d="M 100.36148047927253 79.00311137660856 l 0.3661995301799672 -21.270998546314566 a42.27415054128414,42.27415054128414 0 0,0 0.7274643821610739,0.01878825876223736 l -0.7322905475359088 21.26154349540997" fill="#ffd313" stroke="none" /><path d="M 102.52436894288641 79.15227682838746 l 2.3277835291762274 -19.224205224223834 a40.36462348360482,40.36462348360482 0 0,0 0.6890534765808878,0.0894589172273921 l -2.658351734264961 19.181287983832306" fill="#ffb711" stroke="none" /><path d="M 102.88285421437855 79.19881850522331 l 1.4400204972074275 -10.390441378967646 a31.489753623519505,31.489753623519505 0 0,0 0.5362720330680815,0.07903255754150441 l -1.6186615107041649 10.364114337265171" fill="#ff3204" stroke="none" /><path d="M 103.2404852339499 79.25152402106235 l 3.630336333306178 -23.244650343693642 a44.52643431320394,44.52643431320394 0 0,0 0.7562513654426514,0.12478795510977994 l -4.029916904887704 23.178716125644236" fill="#fff216" stroke="none" /><path d="M 103.95276090670814 79.375362276772 l 2.0457019005170833 -10.674022938316647 a31.868286983397574,31.868286983397574 0 0,0 0.537866256174175,0.10789091100551258 l -2.2291345661583835 10.637228071233926" fill="#ff3805" stroke="none" /><path d="M 105.01212808612495 79.60689891045804 l 7.8581045823636035 -31.97267076313477 a53.92417779315342,53.92417779315342 0 0,0 0.899483817424286,0.22929845290408915 l -8.407297288472915 31.832669314061814" fill="#93ff23" stroke="none" /><path d="M 105.36241919743992 79.69619591428918 l 2.7004347888740026 -10.224694653806923 a31.575288592400156,31.575288592400156 0 0,0 0.5243033228828771,0.14331190381665376 l -2.8760360009805908 10.176696209163977" fill="#ff3304" stroke="none" /><path d="M 106.40334571778207 80.00007090966166 l 7.088254870196298 -22.139144288975615 a44.24618392237623,44.24618392237623 0 0,0 0.7233559519415776,0.23847908447212504 l -7.468293644380293 22.013851480244256" fill="#ffee16" stroke="none" /><path d="M 107.08798089147638 80.2323363322302 l 11.311214678215332 -31.54583665734572 a54.512436317113846,54.512436317113846 0 0,0 0.8805515173315189,0.3243145551131444 l -11.852548521319427 31.34645883442625" fill="#8cff24" stroke="none" /><path d="M 107.4271985657038 80.35727306442388 l 7.48001779826071 -19.78241806580291 a42.149343507364534,42.149343507364534 0 0,0 0.6764303974378014,0.2624444852291201 l -7.819431360698178 19.650730876683244" fill="#ffd113" stroke="none" /><path d="M 108.09893153111575 80.62456947434976 l 6.365517374898764 -15.228507511555579 a37.50537041328194,37.50537041328194 0 0,0 0.5935068456392449,0.25410865744438726 l -6.626707978328325 15.116679326148402" fill="#ff8e0d" stroke="none" /><path d="M 108.43124777332544 80.76684994638697 l 9.415862405213486 -21.479228151329366 a44.45241366705723,44.45241366705723 0 0,0 0.6981524240336744,0.31324064200921703 l -9.78419694771394 21.31396717880362" fill="#fff116" stroke="none" /><path d="M 109.08828744355905 81.06846463323043 l 10.069457414758528 -20.975380714524206 a44.26715643878447,44.26715643878447 0 0,0 0.6840935329585586,0.3356817256371702 l -10.42902221472752 20.798943828752204" fill="#ffee16" stroke="none" /><path d="M 109.41281617654863 81.2277094730956 l 19.054992197138592 -38.002000974350395 a63.511701985306836,63.511701985306836 0 0,0 0.9730582871028993,0.49843824844302215 l -19.706310971830245 37.66837020059487" fill="#31ff3c" stroke="none" /><path d="M 110.05341064243156 81.56283822128135 l 10.197649052828814 -18.701683641177482 a42.30129144487127,42.30129144487127 0 0,0 0.6362837604084781,0.3540912237775075 l -10.518056902309326 18.523377019839796" fill="#ffd313" stroke="none" /><path d="M 110.36928655335952 81.73862282372117 l 5.593507919727313 -9.85074116092871 a32.328037441131066,32.328037441131066 0 0,0 0.4815388449794764,0.27893838019389383 l -5.7622434971721175 9.752998623344766" fill="#ff3f05" stroke="none" /><line stroke="#e1ed5e" stroke-width="0.3" x1="143.23703022742887" x2="145.7803849466894" y1="26.81831364943548" y2="22.513508569990506" /><path d="M 143.74570117128098 25.957352633546492 a86.0,86.0 0 0,1 28.547481713284135,27.462654790039103" fill="none" id="id50" stroke="none" /><text fill="#e1ed5e" style="font-size:6.75px; font-family:Arial;" text-anchor="middle"><textPath startOffset="19.985693538727396" xlink:href="#id50">February</textPath></text><path d="M 110.99172775467656 82.1063720568725 l 7.946089213535094 -12.935579115794747 a36.18122329887957,36.18122329887957 0 0,0 0.5278682791675782,0.3305510679880085 l -8.167576645074936 12.796883706483795" fill="#ff7a0b" stroke="none" /><path d="M 111.60114157652 82.49532879139004 l 13.018187619590494 -19.642816399563774 a44.565089539525005,44.565089539525005 0 0,0 0.6357853152092294,0.42928508291376444 l -13.354377629206265 19.41581940435134" fill="#fff216" stroke="none" /><path d="M 111.90073688211348 82.69761687909136 l 24.752131353225046 -35.98691946346916 a64.67752716211761,64.67752716211761 0 0,0 0.9118572267350298,0.6388142602843072 l -25.36791971954373 35.555520360420914" fill="#32ff4b" stroke="none" /><path d="M 112.48926042617603 83.11751280151076 l 9.871456396978013 -13.34384347556219 a37.59830744677727,37.59830744677727 0 0,0 0.5169836136872271,0.3893813396348961 l -10.099686164423623 13.171945546421448" fill="#ff8f0d" stroke="none" /><path d="M 113.06298171725822 83.55741782278167 l 20.523991927620912 -25.833874009685374 a53.994291794086834,53.994291794086834 0 0,0 0.722743424773095,0.5844082527303512 l -20.965638750958497 25.47675965969089" fill="#92ff23" stroke="none" /><path d="M 113.6212207817346 84.01681056812373 l 31.7505885898632 -37.25625479074921 a69.95026452263536,69.95026452263536 0 0,0 0.9097071917824268,0.7888891123101944 l -32.38718958029239 36.704200685019345" fill="#3aff8f" stroke="none" /><path d="M 113.89432698308785 84.25364557470407 l 13.606374344739383 -15.420019489702948 a41.56478601571144,41.56478601571144 0 0,0 0.5324033686262012,0.47799700109935034 l -13.869788700961575 15.1835234798343" fill="#ffc912" stroke="none" /><path d="M 114.42810811169701 84.74124197986012 l 16.425669393175525 -17.371322189226646 a44.90743502795357,44.90743502795357 0 0,0 0.5571018719604065,0.5359315594346763 l -16.72225450874835 17.086007543029666" fill="#fff717" stroke="none" /><path d="M 114.94478906791727 85.2469230424477 l 11.304544935209249 -11.159529963342095 a36.8848306630853,36.8848306630853 0 0,0 0.4421538097694247,0.45567836738454026 l -11.494963008681783 10.96328740040744" fill="#ff850c" stroke="none" /><path d="M 115.19652480421416 85.50635884689758 l 7.442652281470326 -7.098407878427315 a31.28496316918026,31.28496316918026 0 0,0 0.36831739173199374,0.3928953133122137 l -7.563736995172783 6.969243148237046" fill="#ff2e04" stroke="none" /><path d="M 115.4437574822437 85.77008943001954 l 24.222980757436147 -22.3191053286727 a53.93774824494698,53.93774824494698 0 0,0 0.6232541724994117,0.6882128239614437 l -24.603578570551594 21.898839717441703" fill="#92ff23" stroke="none" /><path d="M 115.68641384162765 86.03803664274999 l 32.209211843002414 -28.668364870274303 a64.11969934823972,64.11969934823972 0 0,0 0.7267147690391998,0.8307606063619055 l -32.69791847561946 28.109688707709452" fill="#31ff44" stroke="none" /><path d="M 116.15771136456269 86.58626213691792 l 25.63166801911629 -21.278785593115174 a54.313197411235606,54.313197411235606 0 0,0 0.5909832146961439,0.7244755425755909 l -25.994149725888843 20.834425880931484" fill="#8eff24" stroke="none" /><path d="M 116.38621287248628 86.86637796730983 l 14.392973490204781 -11.536031859092846 a39.445533793949764,39.445533793949764 0 0,0 0.42008727008617885,0.5334681724792474 l -14.589414840884924 11.28657129266056" fill="#ffaa0f" stroke="none" /><path d="M 116.82858285166822 87.43820079747576 l 18.541918128177716 -13.840728860465125 a44.138031533839644,44.138031533839644 0 0,0 0.4492355975635267,0.6127568502155316 l -18.77741633825487 13.519509566578101" fill="#ffed16" stroke="none" /><path d="M 117.04232023915458 87.72973835380427 l 19.39380790646225 -13.963303939191572 a44.89756560846733,44.89756560846733 0 0,0 0.44616930209592065,0.6310748365349631 l -19.631289828362053 13.627402602324816" fill="#fff717" stroke="none" /><path d="M 117.2510076193507 88.02491185347247 l 34.72643525159539 -24.105961363443402 a63.27319101438964,63.27319101438964 0 0,0 0.6133749366475557,0.9000520330384586 l -35.13623465391168 23.504631307134538" fill="#30ff39" stroke="none" /><path d="M 117.65298651832404 88.62581576622439 l 7.214079111704681 -4.648180340951821 a29.581871469087893,29.581871469087893 0 0,0 0.2721143437727091,0.43041954344741984 l -7.293021051723346 4.523313149790196" fill="#ff1302" stroke="none" /><line stroke="#e1ed5e" stroke-width="0.3" x1="172.23445277983987" x2="176.4835382374775" y1="55.19839476539836" y2="52.563006222186495" /><path d="M 173.08426987136738 54.67131705675599 a86.0,86.0 0 0,1 12.851231095245387,41.99856678651699" fill="none" id="id51" stroke="none" /><text fill="#e1ed5e" style="font-size:6.75px; font-family:Arial;" text-anchor="middle"><textPath startOffset="22.20632615414155" xlink:href="#id51">March</textPath></text><path d="M 118.89224826269711 90.83032412892265 l 21.4536686801532 -10.412905087157885 a44.847190446506374,44.847190446506374 0 0,0 0.331104257521385,0.6973900084533218 l -21.62973113151634 10.042072663064022" fill="#fff617" stroke="none" /><path d="M 119.04729006885535 91.15688171328212 l 28.975906272285616 -13.452694094770555 a52.94648842529888,52.94648842529888 0 0,0 0.37667060455555335,0.8299437475574696 l -29.203179193804516 12.951928338371024" fill="#9fff22" stroke="none" /><path d="M 119.34039704204932 91.81776055985345 l 25.067382997138044 -10.605125084790322 a48.21841965267738,48.21841965267738 0 0,0 0.3168141049852311,0.7671904846911296 l -25.246218789009472 10.17206002964589" fill="#dbff1b" stroke="none" /><path d="M 119.61058180528143 92.48833698450437 l 47.09884429809148 -18.040803189800314 a71.43581776821878,71.43581776821878 0 0,0 0.4299599801208059,1.152078984070693 l -47.40240886671391 17.22740106870029" fill="#3cffa1" stroke="none" /><path d="M 119.7369772167798 92.82701384747503 l 16.162560469578885 -5.873940125901003 a38.196846616035856,38.196846616035856 0 0,0 0.21926248487349398,0.6198845709411217 l -16.26127603526219 5.5948579285332665" fill="#ff980e" stroke="none" /><path d="M 119.85752413597 93.16781622104841 l 23.139124831218513 -7.961251979274733 a45.47040316448054,45.47040316448054 0 0,0 0.2482742609584766,0.7423084393214407 l -23.27273638594876 7.561770437030979" fill="#ffff18" stroke="none" /><path d="M 120.08093135843002 93.85539295169968 l 20.225115120847722 -6.188726145516908 a42.15078279770628,42.15078279770628 0 0,0 0.2063262811299861,0.6956296496816611 l -20.32864729908941 5.839667109088717" fill="#ffd113" stroke="none" /><path d="M 120.18372546131832 94.20196356495316 l 22.30505179847398 -6.407414887851547 a44.20711747024324,44.20711747024324 0 0,0 0.203801609821257,0.7331828249198238 l -22.4120401788616 6.022520759512771" fill="#ffed16" stroke="none" /><path d="M 120.37134235888165 94.90015583598534 l 49.16172614244151 -12.30734517851285 a71.67885222306717,71.67885222306717 0 0,0 0.2893340754032353,1.199476535661372 l -49.366293018105566 11.459283411192072" fill="#3cffa4" stroke="none" /><path d="M 120.45610955862082 95.25157060432595 l 18.799797660030993 -4.3639535457999425 a40.29964980532048,40.29964980532048 0 0,0 0.15103850673956976,0.6770760100385054 l -18.8721305537726 4.039699366211473" fill="#ffb710" stroke="none" /><path d="M 120.53481517161879 95.60439243477599 l 23.361761032611582 -5.000733275351315 a44.89098599547651,44.89098599547651 0 0,0 0.15523881000292944,0.7569995695155043 l -23.444379138529506 4.597858049672399" fill="#fff717" stroke="none" /><path d="M 120.67395015179393 96.31383870115 l 28.239889487569467 -5.035166813723141 a49.685262123818134,49.685262123818134 0 0,0 0.14287621378748322,0.8432635015324571 l -28.322377562877172 4.548317523874846" fill="#c8ff1d" stroke="none" /><path d="M 120.73433829027371 96.67025291283417 l 16.259214105058618 -2.611082642136723 a37.46753763858473,37.46753763858473 0 0,0 0.09678062401116344,0.6376633908815835 l -16.30175062250908 2.330820138863057" fill="#ff8d0d" stroke="none" /><path d="M 120.83666639777658 97.38593545837742 l 61.52848932188966 -7.7190582776291805 a83.01079630941152,83.01079630941152 0 0,0 0.16566443667706768,1.419311723882591 l -61.65224411157031 6.658802815421737" fill="#4cdcff" stroke="none" /><path d="M 120.87857604477298 97.74499172005257 l 27.14914697426781 -2.932266601381113 a48.307038815147465,48.307038815147465 0 0,0 0.08217458458367685,0.8274868524294848 l -27.195598684533717 2.4645042182471935" fill="#daff1c" stroke="none" /><path d="M 120.94382443527127 98.46500227214037 l 7.379598075255371 -0.540859493596476 a28.399391646894102,28.399391646894102 0 0,0 0.03153604900189092,0.4878487198735768 l -7.387814715261677 0.413751709469864" fill="#ff0000" stroke="none" /><path d="M 120.96714384426684 98.82574320788733 l 33.97035741221027 -1.9024967452918078 a55.02359000133812,55.02359000133812 0 0,0 0.044821670807731244,0.9461146296768075 l -33.9980726912515 1.3174710089920005" fill="#85ff25" stroke="none" /><line stroke="#e1ed5e" stroke-width="0.3" x1="184.98032266829074" x2="189.97916517819016" y1="98.17113171792111" y2="98.06355123074" /><path d="M 185.9800911702706 98.14961562048488 a86.0,86.0 0 0,1 -9.607161424134198,41.387399972396054" fill="none" id="id52" stroke="none" /><text fill="#e1ed5e" style="font-size:6.75px; font-family:Arial;" text-anchor="middle"><textPath startOffset="21.466115282336823" xlink:href="#id52">April</textPath></text><path d="M 120.99980553446 99.90962569577887 l 59.80072624630289 -0.25735709873881313 a80.80128002193206,80.80128002193206 0 0,0 -0.0059858462067497965,1.3908998512827813 l -59.796296102806636 -0.7720522307476528" fill="#49f3ff" stroke="none" /><path d="M 120.9904718944345 100.63252640178507 l 26.245471447563517 0.7908804385804111 a47.257384930205845,47.257384930205845 0 0,0 -0.03150012362155112,0.8128782230194177 l -26.22796919109076 -1.242535908613835" fill="#e7ff1a" stroke="none" /><path d="M 120.9764740272857 100.99374915477107 l 34.400141294436025 1.6296881587860663 a55.43872245847761,55.43872245847761 0 0,0 -0.05336280395330074,0.9528287116902451 l -34.3669921395952 -2.221588586811735" fill="#80ff25" stroke="none" /><path d="M 120.92983693683757 101.71520430193887 l 30.96799714969292 2.537833528941468 a52.07181112333184,52.07181112333184 0 0,0 -0.08089827907059907,0.8927057683991918 l -30.919724274345246 -3.0705206858892304" fill="#a9ff21" stroke="none" /><path d="M 120.89721153311464 102.0752229133903 l 24.793805821388634 2.462178930866509 a45.915760718796605,45.915760718796605 0 0,0 -0.08487353123486152,0.7858234897996816 l -24.74774998865272 -2.888598742550982" fill="#f9ff18" stroke="none" /><path d="M 120.8583938346157 102.4346265915055 l 42.317757968845264 4.939399440855511 a63.605050244614084,63.605050244614084 0 0,0 -0.13629196501362034,1.0863810600191077 l -42.226464494584796 -5.6670982551620135" fill="#31ff3d" stroke="none" /><path d="M 120.76222939487914 103.15116336523771 l 19.927609470477055 3.0244898910335314 a41.15582194575083,41.15582194575083 0 0,0 -0.11233235770236298,0.6994936986422232 l -19.872595358413403 -3.3670628193689596" fill="#ffc312" stroke="none" /><path d="M 120.49622156327973 104.57218783832717 l 13.388390588746846 2.986610797295018 a34.71746502132826,34.71746502132826 0 0,0 -0.13513266396043808,0.5821479795911692 l -13.334997358855855 -3.216627434234752" fill="#ff6409" stroke="none" /><path d="M 120.41448212921028 104.9243191809786 l 42.296017179276205 10.202516397753332 a64.50913019213385,64.50913019213385 0 0,0 -0.26967484550172566,1.0772169553842978 l -42.114131019479416 -10.929061192535025" fill="#32ff49" stroke="none" /><path d="M 120.32669344350535 105.2749913415812 l 16.22454923027121 4.210441651447447 a37.76197531992389,37.76197531992389 0 0,0 -0.16869159742363773,0.6277641888279337 l -16.149669556505795 -4.489096773450929" fill="#ff920d" stroke="none" /><path d="M 120.23288151984713 105.62410040840565 l 16.4470206274353 4.571750955842797 a38.070600291774504,38.070600291774504 0 0,0 -0.18093934415644322,0.6298735940204825 l -16.365888646392758 -4.854182025367861" fill="#ff960d" stroke="none" /><path d="M 120.02730092923936 106.31721596034902 l 28.07447164311857 8.855536797938877 a50.43801097254905,50.43801097254905 0 0,0 -0.26830079376006144,0.8257449359663999 l -27.917878598342263 -9.337480633883072" fill="#beff1f" stroke="none" /><path d="M 119.9155931802556 106.66101706037122 l 16.6118514491058 5.556039677319118 a38.51636907190251,38.51636907190251 0 0,0 -0.2157084838871571,0.6269498250792052 l -16.513752134275414 -5.841162205487623" fill="#ff9d0e" stroke="none" /><path d="M 119.79798401119884 107.00284435728193 l 41.488400996572004 14.67507068634616 a65.00733026328243,65.00733026328243 0 0,0 -0.3822299116350517,1.0517325556047716 l -41.22964682393172 -15.387051038957063" fill="#33ff50" stroke="none" /><path d="M 119.67450827220406 107.3425965602758 l 27.734801808729596 10.350726815796301 a50.60332374894338,50.60332374894338 0 0,0 -0.3115856777295301,0.8134518827407605 l -27.55252185140656 -10.826602265370207" fill="#bcff1f" stroke="none" /><path d="M 119.54520255179757 107.68017299344265 l 14.80008428449242 5.815606531638615 a36.90169092137428,36.90169092137428 0 0,0 -0.23739628442663716,0.5891981092193288 l -14.697785385808391 -6.069504008700757" fill="#ff850c" stroke="none" /><path d="M 119.41010516605496 108.01547362559984 l 15.501870440598468 6.401553860789157 a37.771639126504155,37.771639126504155 0 0,0 -0.25333801474887163,0.5988162320265664 l -15.389381444657287 -6.667444618481888" fill="#ff920d" stroke="none" /><path d="M 119.12269723197855 108.67885076344098 l 23.925823785002425 10.858753422878841 a47.27465641430675,47.27465641430675 0 0,0 -0.34268584221110326,0.7381148173590141 l -23.73536332595149 -11.268988307516686" fill="#e7ff1a" stroke="none" /><path d="M 118.97047184881838 109.00673069616215 l 15.096892452049197 7.167646948802683 a37.71201138377486,37.71201138377486 0 0,0 -0.28346277063988967,0.5840172664174685 l -14.971276424794594 -7.426453171185427" fill="#ff910d" stroke="none" /><line stroke="#e1ed5e" stroke-width="0.3" x1="174.80103733775053" x2="179.2010983576182" y1="140.37084112569926" y2="142.7455964860345" /><path d="M 175.68104954172406 140.8457921977663 a86.0,86.0 0 0,1 -30.038265399797805,32.042727171017184" fill="none" id="id53" stroke="none" /><text fill="#e1ed5e" style="font-size:6.75px; font-family:Arial;" text-anchor="middle"><textPath startOffset="22.206326154141568" xlink:href="#id53">May</textPath></text><path d="M 118.48025628344425 109.97397251340804 l 14.871973894819368 8.02654771513834 a37.89973596691917,37.89973596691917 0 0,0 -0.3147908584852288,0.5714368453364609 l -14.73160662688263 -8.281355078872608" fill="#ff940d" stroke="none" /><path d="M 118.30583269289576 110.29060199501025 l 38.69340935644195 21.751453877958642 a65.3881253651261,65.3881253651261 0 0,0 -0.5599963724883756,0.9764008776681933 l -38.31326098780119 -22.41427460148515" fill="#33ff55" stroke="none" /><path d="M 117.94076556474637 110.91462005526583 l 20.205077186295597 12.29215887582184 a44.65041889549968,44.65041889549968 0 0,0 -0.40511826920144905,0.6531796424178483 l -19.990494277426183 -12.638134849604963" fill="#fff417" stroke="none" /><path d="M 117.75023020441432 111.22182372390056 l 14.432732275602115 9.124477574988214 a38.07512377570569,38.07512377570569 0 0,0 -0.35499638388571503,0.5509622712263854 l -14.27353102833935 -9.371561446136052" fill="#ff960d" stroke="none" /><path d="M 115.56566222782051 114.09645910891815 l 6.487720425613084 5.875361057642145 a29.75273579394323,29.75273579394323 0 0,0 -0.34704950022288805,0.37665368938320093 l -6.385624517394473 -5.986166001826681" fill="#ff1602" stroke="none" /><path d="M 114.81725581225074 114.88116024355365 l 11.249858368985459 11.29837719125712 a36.94404718000268,36.94404718000268 0 0,0 -0.4544998261135522,0.44482373938511055 l -11.053708590496113 -11.490351033564803" fill="#ff850c" stroke="none" /><path d="M 114.29624159901734 115.38237550388516 l 29.828562820624576 32.09473978668724 a64.81569903492482,64.81569903492482 0 0,0 -0.8237780606686469,0.7525017268315097 l -29.271685210489064 -32.60343428010533" fill="#32ff4d" stroke="none" /><path d="M 113.75828350139079 115.86535959552629 l 9.06804428359851 10.456811954260406 a34.84103837781208,34.84103837781208 0 0,0 -0.456474880459054,0.3890177961382476 l -8.88670392656241 -10.6113541406216" fill="#ff6609" stroke="none" /><path d="M 112.92097659922987 116.55440617244103 l 12.025198240409768 15.40673140664395 a40.544123550510605,40.544123550510605 0 0,0 -0.5538544892881839,0.42467200481917533 l -11.75821502262809 -15.611442753290497" fill="#ffba11" stroke="none" /><path d="M 112.63410532772338 116.77436683061366 l 14.460106941076143 19.198758594109524 a45.03512064255665,45.03512064255665 0 0,0 -0.6232325198923869,0.46105251883113996 l -14.127489450765191 -19.444821061680432" fill="#fff917" stroke="none" /><path d="M 112.34349029814194 116.9893568818739 l 25.3830722175958 34.93680168631298 a64.18426180071214,64.18426180071214 0 0,0 -0.8994130585782059,0.6417073363977331 l -24.777931831168708 -35.368553284554935" fill="#32ff45" stroke="none" /><path d="M 111.45004920935366 117.60387380957326 l 13.127229305257412 20.182453711229776 a45.07603761084331,45.07603761084331 0 0,0 -0.6540709024590933,0.4174589962430636 l -12.777876600751387 -20.405427136296648" fill="#fff917" stroke="none" /><line stroke="#e1ed5e" stroke-width="0.3" x1="143.8653032363475" x2="146.44561519142675" y1="172.8068346515853" y2="177.08958963109032" /><path d="M 144.38136562736335 173.6633856474863 a86.0,86.0 0 0,1 -40.68145358897372,12.25698825130547" fill="none" id="id54" stroke="none" /><text fill="#e1ed5e" style="font-size:6.75px; font-family:Arial;" text-anchor="middle"><textPath startOffset="21.466115282336833" xlink:href="#id54">June</textPath></text><path d="M 110.8373102113329 117.98757091392108 l 17.78749083684369 29.523354648818827 a55.46771387821842,55.46771387821842 0 0,0 -0.822063556166975,0.48568963902517176 l -17.276659409648335 -29.825162860137752" fill="#80ff25" stroke="none" /><path d="M 110.5260780823613 118.17145234162733 l 8.895468860526906 15.356487686174704 a38.74686113948715,38.74686113948715 0 0,0 -0.580005884625279,0.3293424785139806 l -8.629814208980429 -15.507333330483313" fill="#ffa00e" stroke="none" /><path d="M 109.2508944713604 118.85261126421891 l 10.725598175196632 21.857943964143214 a45.34765225962056,45.34765225962056 0 0,0 -0.7037250193971887,0.33783077460965233 l -10.34776048779921 -22.039329015252427" fill="#fffd17" stroke="none" /><path d="M 108.2653958097858 119.30500536409082 l 9.474475759232472 22.128983240872927 a45.071925352724044,45.071925352724044 0 0,0 -0.7158463562158777,0.29922383495509536 l -9.092157943519133 -22.288792118847994" fill="#fff917" stroke="none" /><path d="M 107.2578585660854 119.70592522655815 l 12.127572045261283 32.927760403095675 a56.09010414456871,56.09010414456871 0 0,0 -0.9088745372684655,0.32589007285731203 l -11.558977947363083 -33.131638016992945" fill="#79ff26" stroke="none" /><path d="M 106.91757812671514 119.82793768551818 l 14.502619087227185 41.56903214837933 a65.02624665063104,65.02624665063104 0 0,0 -1.060021542000013,0.3596168599633438 l -13.784927812289945 -41.8125119952408" fill="#33ff50" stroke="none" /><path d="M 105.88484417918355 120.15858648285463 l 7.342740423351442 25.152623134673803 a47.20248628431369,47.20248628431369 0 0,0 -0.7819177983944082,0.22097778019204212 l -6.908691456852428 -25.275289708204365" fill="#e8ff1a" stroke="none" /><path d="M 105.18746579009965 120.34920634021253 l 4.022439946795855 15.779084389275539 a37.28371970065372,37.28371970065372 0 0,0 -0.6232536825461579,0.15318059148308644 l -3.750232979506486 -15.845986239072655" fill="#ff8a0c" stroke="none" /><path d="M 104.48393922423573 120.51570834832081 l 5.796116438217069 26.51941260859473 a48.14542707106048,48.14542707106048 0 0,0 -0.8111553900414462,0.16998549869931495 l -5.3387695867462455 -26.615254088020585" fill="#dcff1b" stroke="none" /><path d="M 103.7750983002368 120.6578951692458 l 7.799125572826793 42.67796642146602 a64.38473438402616,64.38473438402616 0 0,0 -1.0919375891604661,0.18984734640982617 l -7.063339012194277 -42.805892346396845" fill="#32ff47" stroke="none" /><path d="M 102.70371172650421 120.8252237178851 l 6.394910347273229 49.25652292449602 a70.66990969350623,70.66990969350623 0 0,0 -1.2076901240207056,0.1462344552742148 l -5.546092800201143 -49.359302908495586" fill="#3bff97" stroke="none" /><path d="M 101.98527174616119 120.90594882070398 l 2.270549959064318 23.91007746462739 a45.01764354554979,45.01764354554979 0 0,0 -0.7720647678483603,0.06661699684907436 l -1.8586408734744162 -23.945618713755128" fill="#fff917" stroke="none" /><path d="M 101.62511606390274 120.93702456842531 l 1.418747152148556 18.278290788402206 a39.333269147293905,39.333269147293905 0 0,0 -0.6754781711818738,0.04658492948951067 l -1.1039062201877519 -18.300004062408004" fill="#ffa90f" stroke="none" /><path d="M 101.26447882468166 120.96189622390904 l 1.3202452952803987 21.88636482444781 a42.926149066093124,42.926149066093124 0 0,0 -0.7379453328533899,0.038143344596563065 l -0.9433118940135292 -21.905847975806573" fill="#ffdc14" stroke="none" /><line stroke="#e1ed5e" stroke-width="0.3" x1="102.19456741930631" x2="102.32365962044197" y1="184.97166512339345" y2="189.96999836594603" /><path d="M 102.22038585953345 185.97133177190398 a86.0,86.0 0 0,1 -42.740103519485714,-10.115201625700543" fill="none" id="id55" stroke="none" /><text fill="#e1ed5e" style="font-size:6.75px; font-family:Arial;" text-anchor="middle"><textPath startOffset="22.20632615414155" xlink:href="#id55">July</textPath></text><path d="M 100.54218724476979 120.99299961872073 l 0.8806390956388832 34.097549098240194 a55.10891935731281,55.10891935731281 0 0,0 -0.9485040429612902,0.01632935727723033 l -0.293575362784925 -34.10765593279658" fill="#84ff25" stroke="none" /><path d="M 100.18074693466247 120.99922214144158 l 0.4465349065535089 51.87853234764911 a72.8804540455155,72.8804540455155 0 0,0 -1.254563682431893,0.0 l 0.4465349065534732 -51.87853234764911" fill="#3effb2" stroke="none" /><path d="M 99.45781275523022 120.99299961872073 l -0.5711686863931412 22.11513481983107 a43.122509391287885,43.122509391287885 0 0,0 -0.7418707156091138,-0.02555152746325995 l 0.951759753676898 -22.102026493941715" fill="#ffde14" stroke="none" /><path d="M 98.73552117531835 120.96189622390904 l -1.892180737250156 31.36762393874282 a52.42464286996452,52.42464286996452 0 0,0 -0.9002989748464073,-0.062089888396121194 l 2.4318424728754935 -31.33040570583041" fill="#a5ff21" stroke="none" /><path d="M 98.37488393609728 120.93702456842531 l -1.0788104718907994 13.898749668629373 a34.94055502429822,34.94055502429822 0 0,0 -0.5992399730126348,-0.05170494634183672 l 1.3178947626449757 -13.878120470008872" fill="#ff6709" stroke="none" /><path d="M 98.01472825383883 120.90594882070398 l -2.3622194531739433 24.875405136258095 a45.98731401007177,45.98731401007177 0 0,0 -0.7874066232230822,-0.08161791600850558 l 2.790058673002619 -24.831057851793826" fill="#f8ff18" stroke="none" /><path d="M 97.65516085044442 120.86867818915974 l -6.581958847526027 58.57833833478369 a79.94695839765538,79.94695839765538 0 0,0 -1.3662271894938074,-0.16543108605650794 l 7.589313460071224 -58.45636172000183" fill="#47fcff" stroke="none" /><path d="M 96.93821686468263 120.77559828337769 l -4.092203700408602 27.767472879697742 a49.06739534139902,49.06739534139902 0 0,0 -0.8345292324804882,-0.13033630315295117 l 4.569568796497607 -27.692918269197687" fill="#d0ff1d" stroke="none" /><path d="M 96.58105272829116 120.7198165907248 l -2.2200767921096602 13.454312188571862 a34.63624792347284,34.63624792347284 0 0,0 -0.5874159677282822,-0.10212979552953744 l 2.4513417313099923 -13.414103814521319" fill="#ff6309" stroke="none" /><path d="M 96.22490169976321 120.6578951692458 l -5.547602197962214 30.357298150088585 a51.860029830189845,51.860029830189845 0 0,0 -0.876761433285493,-0.16803341539895875 l 6.069331245819402 -30.25730753634116" fill="#acff20" stroke="none" /><path d="M 95.86986931433489 120.58985236759428 l -3.500031701322964 17.448633347672036 a38.79620823691829,38.79620823691829 0 0,0 -0.6536395113516784,-0.13697651482167578 l 3.7998626741040296 -17.38580085212382" fill="#ffa10e" stroke="none" /><path d="M 95.51606077576429 120.51570834832081 l -3.957429306155968 18.106727454146565 a39.53415295641986,39.53415295641986 0 0,0 -0.6635710632361234,-0.15102661359063588 l 4.268520518784954 -18.035924106978243" fill="#ffab0f" stroke="none" /><path d="M 95.16358092515715 120.4354850818985 l -9.643131521121 40.74544974146114 a62.87101217032582,62.87101217032582 0 0,0 -1.050983919393453,-0.25830627707519144 l 10.343068725257663 -40.57342220607192" fill="#30ff33" stroke="none" /><path d="M 94.46302465271185 120.25689768951611 l -8.767493553442858 32.07567467183476 a54.252335991070524,54.252335991070524 0 0,0 -0.8986998451814151,-0.25398155311838616 l 9.318324566728887 -31.920004325377857" fill="#8fff24" stroke="none" /><path d="M 93.76903079525671 120.05430185196036 l -9.011794505357248 29.004355710937542 a51.37211040433941,51.37211040433941 0 0,0 -0.8422057652307466,-0.26964769004540967 l 9.509721615678934 -28.844935174232425" fill="#b2ff20" stroke="none" /><path d="M 93.42475214034765 119.94407469862007 l -4.166019669445888 12.636391700638082 a34.305416757778204,34.305416757778204 0 0,0 -0.5592277371614277,-0.1897204112125446 l 4.382917139544542 -12.562808302527415" fill="#ff5d08" stroke="none" /><path d="M 93.08242187328487 119.8279376855182 l -17.96128397775338 51.48264507305309 a75.52586969363678,75.52586969363678 0 0,0 -1.2238083868177494,-0.4388141464960168 l 18.844811925200855 -51.165843385517114" fill="#41ffd1" stroke="none" /><path d="M 92.7421414339146 119.70592522655815 l -6.8298026454202265 18.54370390623239 a40.7614563921136,40.7614563921136 0 0,0 -0.6563172500645107,-0.2481630251397088 l 7.147990116245021 -18.423392630986047" fill="#ffbd11" stroke="none" /><path d="M 92.06813273071674 119.44442032107085 l -12.663894076054005 31.044654550625662 a54.528268510873005,54.528268510873005 0 0,0 -0.8660349434553314,-0.3620026766018434 l 13.1964004790068 -30.822066831003845" fill="#8bff24" stroke="none" /><path d="M 91.7346041902142 119.30500536409082 l -9.66109397592268 22.56485658041419 a45.54606871387496,45.54606871387496 0 0,0 -0.7180648429419898,-0.31477852516522936 l 10.048079493522414 -22.395213501954508" fill="#feff18" stroke="none" /><path d="M 91.07499286063937 119.00905698771935 l -12.735221234217851 27.124297203621403 a50.96520246343844,50.96520246343844 0 0,0 -0.7909006597922592,-0.3796803796542339 l 13.200234562010353 -26.901062547467607" fill="#b7ff1f" stroke="none" /><path d="M 90.7491055286396 118.85261126421891 l -8.256486945573185 16.826085226124015 a39.74264444306644,39.74264444306644 0 0,0 -0.6115562023871606,-0.30664697557542775 l 8.544897055643105 -16.681470409639285" fill="#ffaf10" stroke="none" /><path d="M 90.42595943632237 118.69057910512821 l -28.72212169103289 56.07173731538464 a84.0,84.0 0 0,0 -1.2812363898940176,-0.6702823242211329 l 29.683048983453403 -55.569025572218784" fill="#4dd2ff" stroke="none" /><line stroke="#e1ed5e" stroke-width="0.3" x1="58.666819895761336" x2="56.23545636021788" y1="174.27360380694188" y2="178.64263932499728" /><path d="M 58.180547188652646 175.14741091055294 a86.0,86.0 0 0,1 -31.652253787137756,-30.449443065178592" fill="none" id="id56" stroke="none" /><text fill="#e1ed5e" style="font-size:6.75px; font-family:Arial;" text-anchor="middle"><textPath startOffset="22.20632615414155" xlink:href="#id56">August</textPath></text><path d="M 89.7882731507175 118.34994917583269 l -11.480456447744919 20.629791164682594 a44.6090907014011,44.6090907014011 0 0,0 -0.6677582223099593,-0.37917054604667455 l 11.833863436976085 -20.429117452841286" fill="#fff316" stroke="none" /><line stroke="#e1ed5e" stroke-width="0.3" x1="26.63291911575756" x2="22.317208475507996" y1="142.92168965132927" y2="145.44649492493687" /><path d="M 25.769776987707644 143.4266507060508 a86.0,86.0 0 0,1 -11.730757126820373,-40.83630448921669" fill="none" id="id57" stroke="none" /><text fill="#e1ed5e" style="font-size:6.75px; font-family:Arial;" text-anchor="middle"><textPath startOffset="21.46611528233685" xlink:href="#id57">September</textPath></text><line stroke="#e1ed5e" stroke-width="0.3" x1="15.007084014347285" x2="10.007500721073583" y1="101.09737516637583" y2="101.16192664675087" /><path d="M 14.007167355692545 101.11028546245083 a86.0,86.0 0 0,1 10.666146001902534,-42.60595125391555" fill="none" id="id58" stroke="none" /><text fill="#e1ed5e" style="font-size:6.75px; font-family:Arial;" text-anchor="middle"><textPath startOffset="22.20632615414155" xlink:href="#id58">October</textPath></text><line stroke="#e1ed5e" stroke-width="0.3" x1="26.266209847984243" x2="21.928928074336255" y1="57.711370442889674" y2="55.22380399835377" /><path d="M 25.398753493254645 57.213857153982495 a86.0,86.0 0 0,1 29.58750427330803,-30.492523968695096" fill="none" id="id59" stroke="none" /><text fill="#e1ed5e" style="font-size:6.75px; font-family:Arial;" text-anchor="middle"><textPath startOffset="21.46611528233685" xlink:href="#id59">November</textPath></text><line stroke="#e1ed5e" stroke-width="0.3" x1="56.762969772571076" x2="54.21961505331055" y1="26.818313649435495" y2="22.513508569990535" /><path d="M 56.25429882871897 25.957352633546506 a86.0,86.0 0 0,1 42.265352541879196,-11.944610805530505" fill="none" id="id60" stroke="none" /><text fill="#e1ed5e" style="font-size:6.75px; font-family:Arial;" text-anchor="middle"><textPath startOffset="22.20632615414155" xlink:href="#id60">December</textPath></text></svg>