<?xml version="1.0" encoding="utf-8" ?>
<svg baseProfile="full" height="200mm" version="1.1" viewBox="0,0,200,200" width="200mm" xmlns="http://www.w3.org/2000/svg" xmlns:ev="http://www.w3.org/2001/xml-events" xmlns:xlink="http://www.w3.org/1999/xlink"><defs /><rect fill="#1a1a1a" height="200" width="200" x="0" y="0" /><text alignment-baseline="middle" fill="#e1ed5e" style="dominant-baseline: central; font-size:9.0px; font-family:Arial;" text-anchor="middle" x="100.0" y="100.0">2021</text><line stroke="#e1ed5e" stroke-width="0.3" x1="100.0" x2="100.0" y1="15.0" y2="10.0" /><path d="M 100.0 14.0 a86.0,86.0 0 0,1 42.46469731375804,11.215312516191453" fill="none" id="id25" stroke="none" /><text fill="#e1ed5e" style="font-size:6.75px; font-family:Arial;" text-anchor="middle"><textPath startOffset="22.20632615414155" xlink:href="#id25">January</textPath></text><path d="M 102.88285421437855 79.19881850522331 l 5.884386515346592 -42.458682537828736 a63.86450428396572,63.86450428396572 0 0,0 1.0876156086425306,0.16028626867097245 l -6.614371104417779 42.3511017849968" fill="#32ff4e" stroke="none" /><path d="M 104.307194497241 79.44645832069477 l 8.852857494390454 -42.24503342220967 a64.16266829865361,64.16266829865361 0 0,0 1.0790244355901573,0.23583294851466924 l -9.57872465413414 42.08638697559913" fill="#33ff51" stroke="none" /><path d="M 105.36241919743992 79.69619591428918 l 11.24160845380899 -42.56426199640938 a65.02374541003672,65.02374541003672 0 0,0 1.0797103464314215,0.29512562397433395 l -11.972616689464122 42.36444983160875" fill="#34ff5c" stroke="none" /><path d="M 106.40334571778207 80.00007090966166 l 1.7634673029387586 -5.507936407987916 a26.783353733170134,26.783353733170134 0 0,0 0.43786597212166584,0.14435752670976237 l -1.858016097302842 5.476765157018917" fill="#ff1402" stroke="none" /><path d="M 107.76421540070413 80.48803036053334 l 2.534219633032765 -6.368655941074388 a27.854345165238676,27.854345165238676 0 0,0 0.44396660137419514,0.18110512403801862 l -2.6434701039953477 6.32408993085279" fill="#ff2403" stroke="none" /><path d="M 108.09893153111575 80.62456947434976 l 19.038767339619 -45.54728144886384 a70.36627906976744,70.36627906976744 0 0,0 1.113517020892529,0.47674987626421444 l -19.819968118301844 45.212812044636834" fill="#3bff9c" stroke="none" /><path d="M 109.08828744355905 81.06846463323043 l 4.171490564669088 -8.68950521730549 a30.63892288861689,30.63892288861689 0 0,0 0.4734862297718057,0.2323376366209061 l -4.320448061451326 8.616412420549752" fill="#ff4e07" stroke="none" /><path d="M 109.41281617654863 81.2277094730956 l 18.77148273739372 -37.43658868480456 a62.87919216646266,62.87919216646266 0 0,0 0.9633676489738399,0.4934743272068909 l -19.413110873956313 37.10792183228517" fill="#31ff41" stroke="none" /><path d="M 109.73455568895987 81.39251694778311 l 21.12470074509351 -40.37960474593384 a66.57154222766218,66.57154222766218 0 0,0 1.0107936190257045,0.5399309452836988 l -21.816639410647525 40.009995074148385" fill="#36ff6f" stroke="none" /><line stroke="#e1ed5e" stroke-width="0.3" x1="143.23703022742887" x2="145.7803849466894" y1="26.81831364943548" y2="22.513508569990506" /><path d="M 143.74570117128098 25.957352633546492 a86.0,86.0 0 0,1 28.547481713284135,27.462654790039103" fill="none" id="id26" stroke="none" /><text fill="#e1ed5e" style="font-size:6.75px; font-family:Arial;" text-anchor="middle"><textPath startOffset="19.985693538727396" xlink:href="#id26">February</textPath></text><path d="M 110.68208982089419 81.91981866633111 l 16.18046783723043 -27.38656924495271 a52.8093023255814,52.8093023255814 0 0,0 0.7786553931705302,0.46913116195058474 l -16.649485296618597 27.103991473543513" fill="#8dff24" stroke="none" /><path d="M 110.99172775467656 82.1063720568725 l 24.091885049892145 -39.219605611861425 a67.0282129742962,67.0282129742962 0 0,0 0.9779124145732062,0.6123686642918844 l -24.763416616837613 38.799092606246596" fill="#37ff75" stroke="none" /><path d="M 111.60114157652 82.49532879139004 l 23.880081387947275 -36.03205515368381 a64.22692778457773,64.22692778457773 0 0,0 0.916289812235692,0.6186829714511257 l -24.496775894589508 35.61566026993401" fill="#33ff52" stroke="none" /><path d="M 111.90073688211348 82.69761687909136 l 25.892963936389478 -37.64556653938211 a66.6906364749082,66.6906364749082 0 0,0 0.9402390829317654,0.6586975643150618 l -26.537134158904895 37.19428413230311" fill="#36ff71" stroke="none" /><path d="M 113.89432698308785 84.25364557470407 l 28.922705419854484 -32.77792231561858 a64.7140146878825,64.7140146878825 0 0,0 0.8289218523615289,0.7442142235067556 l -29.482638259812003 32.27520908334253" fill="#34ff58" stroke="none" /><path d="M 114.68862486808459 84.99185889309783 l 17.23501275321276 -17.609919628453685 a45.640514075887396,45.640514075887396 0 0,0 0.5567364651524641,0.5543456618408334 l -17.535585018532547 17.310638115962732" fill="#e4ff1b" stroke="none" /><path d="M 114.94478906791727 85.2469230424477 l 32.2355624662634 -31.822043902627335 a66.29651162790697,66.29651162790697 0 0,0 0.7947238651698358,0.8190328012574878 l -32.778550595136345 31.262446905819733" fill="#36ff6c" stroke="none" /><path d="M 115.19652480421416 85.50635884689758 l 36.63441300873927 -34.93996442239027 a71.62490820073438,71.62490820073438 0 0,0 0.8432389460993959,0.8995085145635939 l -37.23041927680914 34.304186490948624" fill="#3dffaa" stroke="none" /><path d="M 115.68641384162765 86.03803664274999 l 4.960004376687654 -4.414737495662491 a27.64014687882497,27.64014687882497 0 0,0 0.3132657070982708,0.3581168566663772 l -5.035261947363773 4.328705082793166" fill="#ff2103" stroke="none" /><path d="M 115.9244219780498 86.31012108654704 l 15.308170886814391 -13.160101265578216 a41.187331701346395,41.187331701346395 0 0,0 0.45755082593855756,0.5415958589516281 l -15.532432326240066 12.894646456997483" fill="#ffe115" stroke="none" /><path d="M 116.15771136456269 86.58626213691792 l 39.16382682993157 -32.51285376739744 a71.90079559363525,71.90079559363525 0 0,0 0.7823542959072168,0.9590738601690162 l -39.717679617915195 31.83389573762032" fill="#3dffae" stroke="none" /><path d="M 116.60985879189232 87.15038557335679 l 41.36912015016168 -32.00371837950421 a73.30336597307222,73.30336597307222 0 0,0 0.763486180993711,1.0046583193435428 l -41.9138822713795 31.28687528427963" fill="#3fffbd" stroke="none" /><path d="M 117.04232023915458 87.72973835380427 l 37.20141732335242 -26.784564411488674 a66.8405752753978,66.8405752753978 0 0,0 0.6642278354773392,0.9395031678035898 l -37.65695777863365 26.140234743353293" fill="#36ff72" stroke="none" /><path d="M 117.2510076193507 88.02491185347247 l 3.69513627097475 -2.5650433606393106 a25.49816401468788,25.49816401468788 0 0,0 0.24718106494077904,0.36270771225918824 l -3.738741801584262 2.501057625109716" fill="#ff0000" stroke="none" /><line stroke="#e1ed5e" stroke-width="0.3" x1="172.23445277983987" x2="176.4835382374775" y1="55.19839476539836" y2="52.563006222186495" /><path d="M 173.08426987136738 54.67131705675599 a86.0,86.0 0 0,1 12.851231095245387,41.99856678651699" fill="none" id="id27" stroke="none" /><text fill="#e1ed5e" style="font-size:6.75px; font-family:Arial;" text-anchor="middle"><textPath startOffset="22.20632615414155" xlink:href="#id27">March</textPath></text><path d="M 118.03404312379186 89.2402003453031 l 4.4146984391167345 -2.633977883646732 a26.14075887392901,26.14075887392901 0 0,0 0.22722583973522292,0.3884026164456407 l -4.459383953322285 2.5575958548471958" fill="#ff0a01" stroke="none" /><path d="M 118.3937258080291 89.86733742301442 l 39.8860927364724 -21.97229226047356 a66.5376988984088,66.5376988984088 0 0,0 0.5439992379760603,1.0079479688039406 l -40.25840007366693 21.28246330833716" fill="#36ff6f" stroke="none" /><path d="M 118.73160827565052 90.50648371742162 l 40.20341163381206 -20.37581276226755 a66.07203182374542,66.07203182374542 0 0,0 0.5054195398242128,1.0188949511672474 l -40.54819118658968 19.680758222601355" fill="#35ff69" stroke="none" /><path d="M 119.04729006885535 91.15688171328212 l 5.828424133676668 -2.705972547955288 a27.42594859241126,27.42594859241126 0 0,0 0.19511300832326653,0.42990565063099023 l -5.874139458963282 2.605244888482235" fill="#ff1e03" stroke="none" /><path d="M 119.34039704204932 91.81776055985345 l 29.65251367787232 -12.544932060446634 a53.197001223990206,53.197001223990206 0 0,0 0.34952535674281243,0.846403375455328 l -29.864060721501332 12.032654114538003" fill="#89ff24" stroke="none" /><path d="M 119.61058180528143 92.48833698450437 l 4.800632020876727 -1.8388403954701678 a26.14075887392901,26.14075887392901 0 0,0 0.15733676070238325,0.4215842957664236 l -4.8315733700807355 1.755932962674411" fill="#ff0a01" stroke="none" /><path d="M 119.97218684219823 93.5106431181261 l 46.84989377391945 -15.222453253565838 a70.2608935128519,70.2608935128519 0 0,0 0.36383270833660286,1.1534491116803227 l -47.10498196602426 14.413753975459096" fill="#3bff9b" stroke="none" /><path d="M 120.08093135843002 93.85539295169968 l 6.554363560483073 -2.0055836958956554 a27.854345165238676,27.854345165238676 0 0,0 0.13634582965722392,0.45969035646145706 l -6.587915287251999 1.8924639526876683" fill="#ff2403" stroke="none" /><path d="M 120.37134235888165 94.90015583598534 l 17.872091992779776 -4.4741717282255005 a39.42362301101592,39.42362301101592 0 0,0 0.15913476791509246,0.6597163498839554 l -17.946459560955688 4.165870146682139" fill="#ffca12" stroke="none" /><path d="M 120.45610955862082 95.25157060432595 l 47.647879345428095 -11.060392020144006 a69.91474908200735,69.91474908200735 0 0,0 0.2620325325761009,1.1746404641223245 l -47.83120626500623 10.238573386471717" fill="#3aff97" stroke="none" /><path d="M 120.53481517161879 95.60439243477599 l 17.963983659823104 -3.84530475763977 a39.37093023255814,39.37093023255814 0 0,0 0.13614974637951938,0.6639145159447973 l -18.027512702117622 3.535514585531561" fill="#ffc912" stroke="none" /><path d="M 120.67395015179393 96.31383870115 l 6.326178137023847 -1.1279563337974272 a27.42594859241126,27.42594859241126 0 0,0 0.07886676102560836,0.46547608796450546 l -6.344656759569679 1.0188944575170837" fill="#ff1e03" stroke="none" /><path d="M 120.78858239683441 97.02765380044208 l 45.20986566701203 -6.4640950418211105 a66.66964504283966,66.66964504283966 0 0,0 0.15265444166922043,1.137452902852806 l -45.314436107739084 5.68492379690364" fill="#36ff70" stroke="none" /><path d="M 120.83666639777658 97.38593545837742 l 53.69330938462549 -6.736095568516538 a75.11419828641371,75.11419828641371 0 0,0 0.14990521593342976,1.284296344545022 l -53.801304953562514 5.8108554856466625" fill="#41ffd1" stroke="none" /><path d="M 120.87857604477298 97.74499172005257 l 32.315793558650775 -3.4902946394216916 a53.50373317013464,53.50373317013464 0 0,0 0.09101462550325203,0.9165048580932477 l -32.37108530983625 2.933514250624009" fill="#85ff25" stroke="none" /><path d="M 120.94382443527127 98.46500227214037 l 5.98150840664622 -0.4383918439419597 a26.997552019583843,26.997552019583843 0 0,0 0.029979378924963985,0.4637677227820016 l -5.988168376575599 0.3353650569069228" fill="#ff1702" stroke="none" /><path d="M 120.98425023603335 99.18683210126433 l 35.094895697689154 -1.3599743745827475 a56.121236230110156,56.121236230110156 0 0,0 0.02909834131430293,0.9656322863501192 l -35.1131057334591 0.7556719408076292" fill="#68ff28" stroke="none" /><line stroke="#e1ed5e" stroke-width="0.3" x1="184.98032266829074" x2="189.97916517819016" y1="98.17113171792111" y2="98.06355123074" /><path d="M 185.9800911702706 98.14961562048488 a86.0,86.0 0 0,1 -9.607161424134198,41.387399972396054" fill="none" id="id28" stroke="none" /><text fill="#e1ed5e" style="font-size:6.75px; font-family:Arial;" text-anchor="middle"><textPath startOffset="21.466115282336823" xlink:href="#id28">April</textPath></text><path d="M 120.99513854157772 99.54816195383933 l 45.467623672691715 -0.9785123448055953 a66.4781517747858,66.4781517747858 0 0,0 0.01477395529335003,1.1442591189399318 l -45.47773063510278 0.19571696780520084" fill="#36ff6e" stroke="none" /><path d="M 120.95626037817324 101.35467743843564 l 38.46427113965236 2.4864493644595744 a59.54455324357405,59.54455324357405 0 0,0 -0.07492247664237146,1.0222576676003245 l -38.41577210434565 -3.1481801685566695" fill="#43ff2d" stroke="none" /><path d="M 120.89721153311464 102.0752229133903 l 31.515058282508498 3.1296410509629684 a52.670073439412484,52.670073439412484 0 0,0 -0.09735862050897948,0.9014199105106191 l -31.456517360498466 -3.6716572833583787" fill="#8fff24" stroke="none" /><path d="M 120.8583938346157 102.4346265915055 l 30.085956639541774 3.5116831452262036 a51.290208078335375,51.290208078335375 0 0,0 -0.10990390256858143,0.876042238885911 l -30.021051227726346 -4.029043138399509" fill="#9fff22" stroke="none" /><path d="M 120.81339534386255 102.79330883721812 l 27.239563000520235 3.6557472144375374 a48.48378212974296,48.48378212974296 0 0,0 -0.11812946299869732,0.8261971890782778 l -27.172599486504936 -4.1240898754962245" fill="#c1ff1e" stroke="none" /><path d="M 120.64145759157962 103.86396538481128 l 45.43268190215184 8.504743884010875 a67.22184822521419,67.22184822521419 0 0,0 -0.22269659459656596,1.1355251380484173 l -45.279555374579616 -9.285532749127237" fill="#37ff77" stroke="none" /><path d="M 120.5718875245553 104.21870165774334 l 6.924441945229751 1.4200036179674635 a28.06854345165239,28.06854345165239 0 0,0 -0.10113492008923887,0.4724686771083763 l -6.8989729864160685 -1.538986114492009" fill="#ff2703" stroke="none" /><path d="M 120.49622156327973 104.57218783832717 l 36.28859790854852 8.095066962227966 a58.180538555691555,58.180538555691555 0 0,0 -0.22645925216180376,0.975580531323774 l -36.143878090456155 -8.718516150900303" fill="#52ff2b" stroke="none" /><path d="M 120.02730092923936 106.31721596034902 l 33.81435309484751 10.66606887340365 a56.45667074663403,56.45667074663403 0 0,0 -0.300316552582066,0.9242793098230575 l -33.6257442912492 -11.246547083204504" fill="#64ff29" stroke="none" /><path d="M 119.67450827220406 107.3425965602758 l 33.79022544750836 12.610632484896348 a57.06670746634027,57.06670746634027 0 0,0 -0.3513834152457969,0.9173512170982642 l -33.568147752669056 -13.190407268827755" fill="#5eff2a" stroke="none" /><path d="M 118.97047184881838 109.00673069616215 l 44.36930983147441 21.06549736935306 a70.11609547123624,70.11609547123624 0 0,0 -0.5270284442393532,1.0858346958018648 l -44.00012813062035 -21.8261210211202" fill="#3bff99" stroke="none" /><path d="M 118.81262510543309 109.33194174019688 l 4.8179048464628105 2.389906091522472 a26.378090575275397,26.378090575275397 0 0,0 -0.2052734595385612,0.4050240099677336 l -4.77605271713798 -2.4724843131929" fill="#ff0e01" stroke="none" /><path d="M 118.64920377521936 109.65438752849418 l 28.579086837989664 14.794925449367842 a53.18157894736842,53.18157894736842 0 0,0 -0.4278521129427489,0.8093349574090616 l -28.320182216822023 -15.284675421863037" fill="#89ff24" stroke="none" /><line stroke="#e1ed5e" stroke-width="0.3" x1="174.80103733775053" x2="179.2010983576182" y1="140.37084112569926" y2="142.7455964860345" /><path d="M 175.68104954172406 140.8457921977663 a86.0,86.0 0 0,1 -30.038265399797805,32.042727171017184" fill="none" id="id29" stroke="none" /><text fill="#e1ed5e" style="font-size:6.75px; font-family:Arial;" text-anchor="middle"><textPath startOffset="22.206326154141568" xlink:href="#id29">May</textPath></text><path d="M 118.30583269289576 110.29060199501025 l 26.867973288218362 15.103799109281866 a51.822276621787026,51.822276621787026 0 0,0 -0.44381585739369545,0.7738303567158575 l -26.60400543467229 -15.564049311856039" fill="#99ff23" stroke="none" /><path d="M 118.12598468904814 110.60418214915192 l 39.55657821461247 23.141648179719017 a66.82858017135864,66.82858017135864 0 0,0 -0.5894252903652316,0.9879106903314856 l -39.15237204854901 -23.819120963936605" fill="#36ff72" stroke="none" /><path d="M 117.94076556474637 110.91462005526583 l 38.77869759645585 23.591788710235527 a66.39118727050183,66.39118727050183 0 0,0 -0.6023747042598486,0.9712198235482531 l -38.36685825252804 -24.255804865149056" fill="#36ff6d" stroke="none" /><path d="M 117.75023020441432 111.22182372390056 l 4.888374291301376 3.090465529837973 a26.783353733170134,26.783353733170134 0 0,0 -0.249716685876516,0.38756584196064386 l -4.83445274204781 -3.1741529717200696" fill="#ff1402" stroke="none" /><path d="M 117.55443506779139 111.5257021239791 l 37.710163818415005 24.759333669185942 a66.11187270501836,66.11187270501836 0 0,0 -0.6327752909138287,0.9459132038372716 l -37.27838542209045 -25.40478378722902" fill="#35ff69" stroke="none" /><path d="M 117.35343817320211 111.8261652097733 l 17.15130000109075 11.688410408982172 a41.75538555691554,41.75538555691554 0 0,0 -0.4098770142760862,0.590458409136952 l -16.947562079652524 -11.981910080306145" fill="#ffe915" stroke="none" /><path d="M 116.93607887273984 112.41649034213515 l 36.564241110971096 26.806650466928733 a66.33806609547125,66.33806609547125 0 0,0 -0.6830885420181887,0.9151087307675145 l -36.09739130225782 -27.432072077205564" fill="#36ff6c" stroke="none" /><path d="M 116.71984013943494 112.70617746262583 l 7.844886234332997 5.961690771937863 a30.8531211750306,30.8531211750306 0 0,0 -0.3249761938791251,0.42007553782055373 l -7.741103223235803 -6.09584430387167" fill="#ff5107" stroke="none" /><path d="M 116.498646956653 112.99209946851258 l 34.658265409248116 27.29215509526891 a65.1141370869033,65.1141370869033 0 0,0 -0.7010066698739794,0.8746136053707434 l -34.18334082731928 -27.884696534217905" fill="#34ff5d" stroke="none" /><path d="M 112.34349029814194 116.9893568818739 l 21.10580721765934 29.049651471336308 a56.90734394124846,56.90734394124846 0 0,0 -0.7974417222197034,0.5689534954128437 l -20.60263816759075 -29.40864922859337" fill="#60ff29" stroke="none" /><path d="M 111.7513745106137 117.40417183066458 l 7.5564070981039295 11.191287235299434 a34.503488372093024,34.503488372093024 0 0,0 -0.49508447753538454,0.32811499557903145 l -7.362647921828581 -11.319700251969785" fill="#ff860c" stroke="none" /><line stroke="#e1ed5e" stroke-width="0.3" x1="143.8653032363475" x2="146.44561519142675" y1="172.8068346515853" y2="177.08958963109032" /><path d="M 144.38136562736335 173.6633856474863 a86.0,86.0 0 0,1 -40.68145358897372,12.25698825130547" fill="none" id="id30" stroke="none" /><text fill="#e1ed5e" style="font-size:6.75px; font-family:Arial;" text-anchor="middle"><textPath startOffset="21.466115282336833" xlink:href="#id30">June</textPath></text><path d="M 110.8373102113329 117.98757091392108 l 18.56956081601199 30.821420214500222 a56.983170134638925,56.983170134638925 0 0,0 -0.8445234931693136,0.4989593656945514 l -18.036269451814295 -31.13649815248852" fill="#5fff29" stroke="none" /><path d="M 109.89434966115114 118.52300852407294 l 23.429747334083295 43.86234815311835 a70.72784577723378,70.72784577723378 0 0,0 -1.0787986879595697,0.5643764863656916 l -22.67125774359723 -44.259154058428756" fill="#3cffa0" stroke="none" /><path d="M 109.2508944713604 118.85261126421891 l 6.833621780955349 13.926395481204217 a36.51266829865361,36.51266829865361 0 0,0 -0.5666198121924145,0.2720119432816401 l -6.592889300762702 -14.041961700985418" fill="#ffa20e" stroke="none" /><path d="M 105.88484417918355 120.15858648285463 l 9.830522955952743 33.674544498602955 a56.080110159118725,56.080110159118725 0 0,0 -0.9289772577913172,0.26253825235484474 l -9.24941453005682 -33.83877154429632" fill="#69ff28" stroke="none" /><path d="M 101.62511606390274 120.93702456842531 l 1.7960483043246518 23.13921344388025 a44.20881272949816,44.20881272949816 0 0,0 -0.7592068653336904,0.05235935045486406 l -1.397478678212031 -23.1667011388514" fill="#f6ff19" stroke="none" /><line stroke="#e1ed5e" stroke-width="0.3" x1="102.19456741930631" x2="102.32365962044197" y1="184.97166512339345" y2="189.96999836594603" /><path d="M 102.22038585953345 185.97133177190398 a86.0,86.0 0 0,1 -42.740103519485714,-10.115201625700543" fill="none" id="id31" stroke="none" /><text fill="#e1ed5e" style="font-size:6.75px; font-family:Arial;" text-anchor="middle"><textPath startOffset="22.20632615414155" xlink:href="#id31">July</textPath></text><path d="M 98.01472825383883 120.90594882070398 l -4.0800533821962786 42.96509400230522 a64.15838433292534,64.15838433292534 0 0,0 -1.098536364789064,-0.11386778585457873 l 4.819022343590936 -42.88849684799488" fill="#33ff51" stroke="none" /><path d="M 93.08242187328487 119.8279376855182 l -8.50571407608379 24.38003092731381 a46.82117503059975,46.82117503059975 0 0,0 -0.7586823814878549,-0.2720365093753335 l 8.92411601820137 -24.23000687689852" fill="#d5ff1c" stroke="none" /><path d="M 91.7346041902142 119.30500536409082 l -17.01589043117408 39.74302787286727 a64.23249694002449,64.23249694002449 0 0,0 -1.0126691310453275,-0.44392438744777074 l 17.697480236877148 -39.44423893212505" fill="#33ff52" stroke="none" /><line stroke="#e1ed5e" stroke-width="0.3" x1="58.666819895761336" x2="56.23545636021788" y1="174.27360380694188" y2="178.64263932499728" /><path d="M 58.180547188652646 175.14741091055294 a86.0,86.0 0 0,1 -31.652253787137756,-30.449443065178592" fill="none" id="id32" stroke="none" /><text fill="#e1ed5e" style="font-size:6.75px; font-family:Arial;" text-anchor="middle"><textPath startOffset="22.20632615414155" xlink:href="#id32">August</textPath></text><path d="M 84.19399662182784 113.82643327865904 l -24.06014210681006 21.0468099718535 a52.96652386780906,52.96652386780906 0 0,0 -0.5943789567355873,-0.6913970080939934 l 24.418863573116422 -20.629535864597973" fill="#8cff24" stroke="none" /><path d="M 82.44556493220864 111.52570212397912 l -47.90298073670436 31.45162374578365 a78.30532435740514,78.30532435740514 0 0,0 -0.7300857943268044,-1.133109365874301 l 48.43727139440821 -30.6223927799879" fill="#46fff3" stroke="none" /><line stroke="#e1ed5e" stroke-width="0.3" x1="26.63291911575756" x2="22.317208475507996" y1="142.92168965132927" y2="145.44649492493687" /><path d="M 25.769776987707644 143.4266507060508 a86.0,86.0 0 0,1 -11.730757126820373,-40.83630448921669" fill="none" id="id33" stroke="none" /><text fill="#e1ed5e" style="font-size:6.75px; font-family:Arial;" text-anchor="middle"><textPath startOffset="21.46611528233685" xlink:href="#id33">September</textPath></text><path d="M 80.0844068197444 106.66101706037122 l -25.15653875400708 8.413916286784705 a47.526315789473685,47.526315789473685 0 0,0 -0.2528122740158568,-0.7780761737344449 l 25.297643279039185 -7.9796412130724566" fill="#ccff1d" stroke="none" /><line stroke="#e1ed5e" stroke-width="0.3" x1="15.007084014347285" x2="10.007500721073583" y1="101.09737516637583" y2="101.16192664675087" /><path d="M 14.007167355692545 101.11028546245083 a86.0,86.0 0 0,1 10.666146001902534,-42.60595125391555" fill="none" id="id34" stroke="none" /><text fill="#e1ed5e" style="font-size:6.75px; font-family:Arial;" text-anchor="middle"><textPath startOffset="22.20632615414155" xlink:href="#id34">October</textPath></text><path d="M 79.00019446554 99.90962569577889 l -39.559058393893075 -0.17024549927970023 a60.559424724602195,60.559424724602195 0 0,0 0.013458590673569491,-1.0423826795552324 l 39.550266796101795 0.8511644368954046" fill="#39ff2e" stroke="none" /><path d="M 79.00486145842228 99.54816195383935 l -37.72914625185887 -0.8119719568408337 a58.737882496940024,58.737882496940024 0 0,0 0.030455048174052424,-1.01065478205654 l 37.70957950922917 1.461296886322368" fill="#4cff2c" stroke="none" /><path d="M 79.01574976396665 99.18683210126434 l -39.13977902042028 -1.5167190395185295 a60.169155446756434,60.169155446756434 0 0,0 0.0490131973967488,-1.0345911312236868 l 39.10787221479003 2.1902212773652256" fill="#3dff2e" stroke="none" /><path d="M 79.03285615573316 98.82574320788736 l -39.53987579052869 -2.214415470756367 a60.60183598531212,60.60183598531212 0 0,0 0.06729519043928403,-1.041026810539381 l 39.495900009085 2.89470134554876" fill="#38ff2e" stroke="none" /><path d="M 79.05617556472873 98.46500227214037 l -36.756796409441506 -2.693949194726481 a57.85538555691555,57.85538555691555 0 0,0 0.08134333916142596,-0.9925947728921323 l 36.704978586460584 3.3262578848263917" fill="#55ff2b" stroke="none" /><path d="M 79.08570108090925 98.10471618934814 l -39.45728667146781 -3.5756759970768024 a60.61897184822522,60.61897184822522 0 0,0 0.10311828155269846,-1.038387022730757 l 39.38989126423289 4.2543385505119895" fill="#38ff2e" stroke="none" /><path d="M 79.12142395522702 97.74499172005258 l -40.20126799547101 -4.341971981219861 a61.43506731946145,61.43506731946145 0 0,0 0.12260580878854194,-1.050411695594585 l 40.12057183367887 5.033327415139308" fill="#30ff2f" stroke="none" /><path d="M 79.16333360222342 97.38593545837743 l -39.6717036224171 -4.977014641660046 a60.9826805385557,60.9826805385557 0 0,0 0.1396329175462728,-1.0404274232711888 l 39.580154705812994 5.659160406995894" fill="#34ff2f" stroke="none" /><path d="M 79.21141760316559 97.0276538004421 l -39.91984574008195 -5.707729344283652 a61.32582619339046,61.32582619339046 0 0,0 0.15840784052176682,-1.0437097483240971 l 39.81568200612089 6.394038204999841" fill="#31ff2f" stroke="none" /><line stroke="#e1ed5e" stroke-width="0.3" x1="26.266209847984243" x2="21.928928074336255" y1="57.711370442889674" y2="55.22380399835377" /><path d="M 25.398753493254645 57.213857153982495 a86.0,86.0 0 0,1 29.58750427330803,-30.492523968695096" fill="none" id="id35" stroke="none" /><text fill="#e1ed5e" style="font-size:6.75px; font-family:Arial;" text-anchor="middle"><textPath startOffset="21.46611528233685" xlink:href="#id35">November</textPath></text><line stroke="#e1ed5e" stroke-width="0.3" x1="56.762969772571076" x2="54.21961505331055" y1="26.818313649435495" y2="22.513508569990535" /><path d="M 56.25429882871897 25.957352633546506 a86.0,86.0 0 0,1 42.265352541879196,-11.944610805530505" fill="none" id="id36" stroke="none" /><text fill="#e1ed5e" style="font-size:6.75px; font-family:Arial;" text-anchor="middle"><textPath startOffset="22.20632615414155" xlink:href="#id36">December</textPath></text><path d="M 90.26544431104013 81.39251694778311 l -18.50598214308794 -35.37395645932461 a60.92227662178703,60.92227662178703 0 0,0 0.9333858845369627,-0.47811650296427244 l 17.894335770962215 35.68726548760139" fill="#35ff2f" stroke="none" /><path d="M 92.57280143429618 80.3572730644239 l -9.18127196013778 -24.28172835812129 a46.95954712362301,46.95954712362301 0 0,0 0.758548017049944,-0.2793796363295463 l 8.761941617315266 24.436171262257155" fill="#d3ff1c" stroke="none" /><path d="M 93.94186890950719 79.89281104454417 l -7.504321421397473 -24.907154788926725 a47.01309669522644,47.01309669522644 0 0,0 0.776857354683727,-0.2267859646634874 l 7.074473848990325 25.03263908250891" fill="#d3ff1c" stroke="none" /><path d="M 95.33964822691252 79.52364482259891 l -13.98105531926245 -61.42906553220327 a84.0,84.0 0 0,0 1.4126291033859162,-0.30874600761652715 l 12.921583491723013 61.66062503791566" fill="#4dd2ff" stroke="none" /></svg>