<?xml version="1.0" encoding="utf-8" ?>
<svg baseProfile="full" height="200mm" version="1.1" viewBox="0,0,200,200" width="200mm" xmlns="http://www.w3.org/2000/svg" xmlns:ev="http://www.w3.org/2001/xml-events" xmlns:xlink="http://www.w3.org/1999/xlink"><defs /><rect fill="#1a1a1a" height="200" width="200" x="0" y="0" /><text alignment-baseline="middle" fill="#e1ed5e" style="dominant-baseline: central; font-size:9.0px; font-family:Arial;" text-anchor="middle" x="100.0" y="100.0">2023</text><line stroke="#e1ed5e" stroke-width="0.3" x1="100.0" x2="100.0" y1="15.0" y2="10.0" /><path d="M 100.0 14.0 a86.0,86.0 0 0,1 42.46469731375804,11.215312516191453" fill="none" id="id49" stroke="none" /><text fill="#e1ed5e" style="font-size:6.75px; font-family:Arial;" text-anchor="middle"><textPath startOffset="22.20632615414155" xlink:href="#id49">January</textPath></text><path d="M 100.0 79.0 l 0.0 -12.373837431223407 a33.37383743122341,33.37383743122341 0 0,0 0.5744757499905755,0.0049446941486359485 l -0.21299527071804708 12.37200411368333" fill="#ff740a" stroke="none" /><path d="M 100.36148047927253 79.00311137660856 l 0.26115065738474885 -15.16914904524901 a36.171396851405326,36.171396851405326 0 0,0 0.6224466376140051,0.016075960253112566 l -0.5222239301936217 15.16240629285354" fill="#ff9b0e" stroke="none" /><path d="M 102.52436894288641 79.15227682838746 l 1.6600299803634693 -13.70950374933064 a34.809641291091395,34.809641291091395 0 0,0 0.5942258908943518,0.07714757503534757 l -1.8957705997656673 13.678897851131156" fill="#ff880c" stroke="none" /><path d="M 102.88285421437855 79.19881850522331 l 1.0269327743495966 -7.409814521885304 a28.480637818513586,28.480637818513586 0 0,0 0.4850266448131999,0.07148031941187498 l -1.1543283995914524 7.39103971831246" fill="#ff2b04" stroke="none" /><path d="M 103.2404852339499 79.25152402106235 l 2.5889293727513105 -16.57663436911285 a37.777585115395716,37.777585115395716 0 0,0 0.6416267272983049,0.10587390767416421 l -2.8738853061884906 16.52961419849906" fill="#ffb210" stroke="none" /><path d="M 103.95276090670814 79.375362276772 l 1.4588669621468882 -7.612047197087779 a28.75058419371957,28.75058419371957 0 0,0 0.4852463231284638,0.09733584745917173 l -1.5896796947424772 7.585807393551399" fill="#ff2f04" stroke="none" /><path d="M 105.01212808612495 79.60689891045804 l 5.603909913466691 -22.800913982700553 a44.479469431074456,44.479469431074456 0 0,0 0.7419410846529298,0.1891373024853991 l -5.995559886804647 22.701073684046285" fill="#f4ff19" stroke="none" /><path d="M 105.36241919743992 79.69619591428918 l 1.9257816087107318 -7.2916142985976915 a28.541636021710595,28.541636021710595 0 0,0 0.473929939322812,0.1295429552241 l -2.051009437257255 7.257384802547298" fill="#ff2c04" stroke="none" /><path d="M 106.40334571778207 80.00007090966166 l 5.0549011304102285 -15.788256424470076 a37.57772802174783,37.57772802174783 0 0,0 0.614337120522309,0.20253728978957028 l -5.325921073174955 15.698905410421268" fill="#ffaf10" stroke="none" /><path d="M 107.08798089147638 80.2323363322302 l 8.066452590980274 -22.496522529040682 a44.898978708350015,44.898978708350015 0 0,0 0.7252631967920524,0.2671205561264121 l -8.452498113544902 22.354338705107946" fill="#eeff19" stroke="none" /><path d="M 107.4271985657038 80.35727306442388 l 5.334282008241273 -14.107586320510734 a36.08239226164431,36.08239226164431 0 0,0 0.5790654113933272,0.2246683832996794 l -5.576330584634268 14.013675233320507" fill="#ff9a0e" stroke="none" /><path d="M 108.09893153111575 80.62456947434976 l 4.539489841048932 -10.860021436064862 a32.77060039287609,32.77060039287609 0 0,0 0.5185810846436096,0.22202935680196012 l -4.725754683482857 10.780272551300111" fill="#ff6b09" stroke="none" /><path d="M 108.43124777332544 80.76684994638697 l 6.714805602719917 -15.317645407900976 a37.72479820878293,37.72479820878293 0 0,0 0.5924910964994757,0.26583348429839293 l -6.977478817686173 15.199791593086053" fill="#ffb110" stroke="none" /><path d="M 109.08828744355905 81.06846463323043 l 7.180908785108478 -14.958332851495936 a37.59268431195479,37.59268431195479 0 0,0 0.580947914735024,0.28506861873138356 l -7.4373279668539345 14.83250907262972" fill="#ffaf10" stroke="none" /><path d="M 109.41281617654863 81.2277094730956 l 13.588831575776352 -27.10065611364997 a51.31669351009654,51.31669351009654 0 0,0 0.7862194261188444,0.4027321269862573 l -14.053311489483951 26.86273146135121" fill="#a0ff22" stroke="none" /><path d="M 110.05341064243156 81.56283822128135 l 7.272327063381065 -13.33687395692426 a36.190752050496684,36.190752050496684 0 0,0 0.5443707986247026,0.3029417600568887 l -7.500821951077802 13.20971679930719" fill="#ff9c0e" stroke="none" /><path d="M 110.36928655335952 81.73862282372117 l 3.9889408640303503 -7.024933998793714 a29.078449535903474,29.078449535903474 0 0,0 0.4331349537939364,0.2508997221642359 l -4.109272550289615 6.955230119239429" fill="#ff3405" stroke="none" /><line stroke="#e1ed5e" stroke-width="0.3" x1="143.23703022742887" x2="145.7803849466894" y1="26.81831364943548" y2="22.513508569990506" /><path d="M 143.74570117128098 25.957352633546492 a86.0,86.0 0 0,1 28.547481713284135,27.462654790039103" fill="none" id="id50" stroke="none" /><text fill="#e1ed5e" style="font-size:6.75px; font-family:Arial;" text-anchor="middle"><textPath startOffset="19.985693538727396" xlink:href="#id50">February</textPath></text><path d="M 110.99172775467656 82.1063720568725 l 5.666655062972747 -9.224847962208083 a31.826301285691677,31.826301285691677 0 0,0 0.4643318649888545,0.29076457125813354 l -5.824606080333865 9.125939049627004" fill="#ff5d08" stroke="none" /><path d="M 111.60114157652 82.49532879139004 l 9.283759193091491 -14.008031122030708 a37.80515161107128,37.80515161107128 0 0,0 0.5393450452345675,0.3641681821267838 l -9.5235089327326 13.846151027605254" fill="#ffb210" stroke="none" /><path d="M 111.90073688211348 82.69761687909136 l 17.651675771925902 -25.663625702955912 a52.14808728924804,52.14808728924804 0 0,0 0.7352107036485698,0.5150620821266378 l -18.090817615158123 25.35597877806534" fill="#96ff23" stroke="none" /><path d="M 112.48926042617603 83.11751280151076 l 7.039706812700646 -9.515996631589585 a32.83687728673438,32.83687728673438 0 0,0 0.45151307690993076,0.34007028868080813 l -7.20246604336896 9.39340975340293" fill="#ff6c09" stroke="none" /><path d="M 113.06298171725822 83.55741782278167 l 14.636430531255469 -18.423107143552475 a44.52947036206046,44.52947036206046 0 0,0 0.5960515610713529,0.48196557644542815 l -14.951385490891314 18.168435469842915" fill="#f3ff19" stroke="none" /><path d="M 113.6212207817346 84.01681056812373 l 22.642538832642874 -26.568836463324622 a55.90827460363271,55.90827460363271 0 0,0 0.7270903095815103,0.630525551602199 l -23.09652294087115 26.175145918302754" fill="#6bff28" stroke="none" /><path d="M 113.89432698308785 84.25364557470407 l 9.70321726793426 -10.99659583026373 a35.665522329699385,35.665522329699385 0 0,0 0.45683969658757156,0.41015519025634084 l -9.891067952117822 10.827941631238092" fill="#ff940d" stroke="none" /><path d="M 114.42810811169701 84.74124197986012 l 11.71376259795922 -12.388143171918747 a38.04929105415546,38.04929105415546 0 0,0 0.47202275658455295,0.45408551785120005 l -11.925268598156192 12.184674567305246" fill="#ffb510" stroke="none" /><path d="M 114.94478906791727 85.2469230424477 l 8.06169614639999 -7.9582805160873935 a32.32807015910551,32.32807015910551 0 0,0 0.3875300259314273,0.39938375657332764 l -8.197490436034528 7.818332563963952" fill="#ff6409" stroke="none" /><path d="M 115.19652480421416 85.50635884689758 l 5.3076352529367705 -5.062141622424678 a28.334594043551526,28.334594043551526 0 0,0 0.33358274125081017,0.35584280998235424 l -5.3939853161580436 4.970029395564269" fill="#ff2904" stroke="none" /><path d="M 115.4437574822437 85.77008943001954 l 17.274318581221998 -15.91659341004032 a44.48914703062013,44.48914703062013 0 0,0 0.5140749738356281,0.5676544258861849 l -17.54573719567366 15.616886196884586" fill="#f3ff19" stroke="none" /><path d="M 115.68641384162765 86.03803664274999 l 22.96960032283752 -20.444489178723522 a51.75027929580219,51.75027929580219 0 0,0 0.5865232159295116,0.670497426597164 l -23.318115402344876 20.046076195923412" fill="#9bff22" stroke="none" /><path d="M 116.15771136456269 86.58626213691792 l 18.278906446904124 -15.174702281185898 a44.756893951383915,44.756893951383915 0 0,0 0.48700084561273715,0.5970054530930511 l -18.537405784593272 14.857812658484747" fill="#f0ff19" stroke="none" /><path d="M 116.38621287248628 86.86637796730983 l 10.264170701805725 -8.226778177822762 a34.15420386731587,34.15420386731587 0 0,0 0.36373563454700225,0.46190731794267903 l -10.404260416946691 8.048878465927045" fill="#ff7f0b" stroke="none" /><path d="M 116.82858285166822 87.43820079747576 l 13.222939160976283 -9.870344286947054 a37.5006004859747,37.5006004859747 0 0,0 0.3816800179544031,0.5206111155491743 l -13.390881791444313 9.641270727726386" fill="#ffae10" stroke="none" /><path d="M 117.04232023915458 87.72973835380427 l 13.830453800629208 -9.957757185518131 a38.042252799940414,38.042252799940414 0 0,0 0.3780446701703793,0.5347173759152882 l -13.999811090603469 9.71821330927105" fill="#ffb510" stroke="none" /><path d="M 117.2510076193507 88.02491185347247 l 24.764727005865392 -17.190867650378497 a51.14660236656643,51.14660236656643 0 0,0 0.49581890028583747,0.7275530553306301 l -25.05697037181996 16.76203657177746" fill="#a2ff22" stroke="none" /><path d="M 117.65298651832404 88.62581576622439 l 5.144631129159009 -3.3147922147411846 a27.120055300568833,27.120055300568833 0 0,0 0.24946887011207106,0.3945998424385532 l -5.200927595517036 3.225744724588425" fill="#ff1702" stroke="none" /><line stroke="#e1ed5e" stroke-width="0.3" x1="172.23445277983987" x2="176.4835382374775" y1="55.19839476539836" y2="52.563006222186495" /><path d="M 173.08426987136738 54.67131705675599 a86.0,86.0 0 0,1 12.851231095245387,41.99856678651699" fill="none" id="id51" stroke="none" /><text fill="#e1ed5e" style="font-size:6.75px; font-family:Arial;" text-anchor="middle"><textPath startOffset="22.20632615414155" xlink:href="#id51">March</textPath></text><path d="M 118.89224826269711 90.83032412892265 l 15.299417987738035 -7.425834237034307 a38.00632837738449,38.00632837738449 0 0,0 0.2805985617653813,0.5910121326329076 l -15.424974743345173 7.161379688760859" fill="#ffb510" stroke="none" /><path d="M 119.04729006885535 91.15688171328212 l 20.66380851883521 -9.593622101914558 a43.782242372897144,43.782242372897144 0 0,0 0.31147455088857173,0.6862928853666762 l -20.82588538668713 9.236507207705818" fill="#fcff18" stroke="none" /><path d="M 119.34039704204932 91.81776055985345 l 17.87649357551249 -7.562913546555909 a40.41047871300495,40.41047871300495 0 0,0 0.26551284214007864,0.6429604075319252 l -18.00402810453877 7.25407856857068" fill="#ffd513" stroke="none" /><path d="M 119.61058180528143 92.48833698450437 l 33.58795721136996 -12.865575251966721 a56.96767849329225,56.96767849329225 0 0,0 0.34287872215556126,0.9187445068014161 l -33.80444052202714 12.28550760813597" fill="#60ff29" stroke="none" /><path d="M 119.7369772167798 92.82701384747503 l 11.52612972926796 -4.1889276170393535 a33.26371807881728,33.26371807881728 0 0,0 0.19094470167678398,0.5398263845303267 l -11.596527511754555 3.9899036060824127" fill="#ff720a" stroke="none" /><path d="M 119.85752413597 93.16781622104841 l 16.501380157453433 -5.677468201478772 a38.45076480500498,38.45076480500498 0 0,0 0.2099461309089071,0.6277122089697025 l -16.59666358213411 5.3925828895867545" fill="#ffbb11" stroke="none" /><path d="M 120.08093135843002 93.85539295169968 l 14.423290239875211 -4.413413366428008 a36.08341867371734,36.08341867371734 0 0,0 0.17662679293845823,0.5954977399062825 l -14.497122929925371 4.164486239775195" fill="#ff9a0e" stroke="none" /><path d="M 120.18372546131832 94.20196356495316 l 15.906571309115815 -4.569368533260877 a37.54986826547997,37.54986826547997 0 0,0 0.1731106672185121,0.6227711749987658 l -15.98286874690069 4.294886054843159" fill="#ffae10" stroke="none" /><path d="M 120.37134235888165 94.90015583598534 l 35.05907583758535 -8.776830714255993 a57.14099550333759,57.14099550333759 0 0,0 0.23065153233938268,0.9561995094074427 l -35.20496017018555 8.172045973189144" fill="#5eff2a" stroke="none" /><path d="M 120.45610955862082 95.25157060432595 l 13.406842753742929 -3.112099397620977 a34.76330611750905,34.76330611750905 0 0,0 0.13028891989592223,0.5840596808035468 l -13.458426060640889 2.880861547267467" fill="#ff870c" stroke="none" /><path d="M 120.53481517161879 95.60439243477599 l 16.660150405801023 -3.566210971439487 a38.03756063046372,38.03756063046372 0 0,0 0.13153878260287,0.6414298190194003 l -16.719068484318893 3.278905496256675" fill="#ffb510" stroke="none" /><path d="M 120.67395015179393 96.31383870115 l 20.138927268768143 -3.5907668226648166 a41.456539245715135,41.456539245715135 0 0,0 0.11921348727916926,0.7036047502102424 l -20.197752617567538 3.243576284138736" fill="#ffe315" stroke="none" /><path d="M 120.73433829027371 96.67025291283417 l 11.595057071779175 -1.862061232423762 a32.74362041838511,32.74362041838511 0 0,0 0.08457849691228563,0.5572666190965515 l -11.625391462130759 1.6621955009351281" fill="#ff6b09" stroke="none" /><path d="M 120.83666639777658 97.38593545837742 l 43.87827976296238 -5.504750764162296 a65.22223101486784,65.22223101486784 0 0,0 0.13016384181673743,1.1151643069672046 l -43.96653395778271 4.748642718870238" fill="#34ff5e" stroke="none" /><path d="M 120.87857604477298 97.74499172005257 l 19.361077760752035 -2.091109593181865 a40.47367637064415,40.47367637064415 0 0,0 0.06884933591269866,0.6933034168033532 l -19.39420422234696 1.757530645674077" fill="#ffd614" stroke="none" /><path d="M 120.94382443527127 98.46500227214037 l 5.262668927076613 -0.3857072460909151 a26.276784467429454,26.276784467429454 0 0,0 0.029179004004038535,0.45138627700961004 l -5.2685285220850675 0.2950619048282698" fill="#ff0a01" stroke="none" /><path d="M 120.96714384426684 98.82574320788733 l 24.225539463236853 -1.3567419801470846 a45.26350162457059,45.26350162457059 0 0,0 0.0368711995958892,0.7782927481897259 l -24.24530427106624 0.9395381253343589" fill="#eaff1a" stroke="none" /><line stroke="#e1ed5e" stroke-width="0.3" x1="184.98032266829074" x2="189.97916517819016" y1="98.17113171792111" y2="98.06355123074" /><path d="M 185.9800911702706 98.14961562048488 a86.0,86.0 0 0,1 -9.607161424134198,41.387399972396054" fill="none" id="id52" stroke="none" /><text fill="#e1ed5e" style="font-size:6.75px; font-family:Arial;" text-anchor="middle"><textPath startOffset="21.466115282336823" xlink:href="#id52">April</textPath></text><path d="M 120.99980553446 99.90962569577887 l 42.64614693424783 -0.18353102606451516 a63.64654185247596,63.64654185247596 0 0,0 -0.004715004651126512,1.0956010297515502 l -42.642987632307204 -0.5505794818907198" fill="#32ff4a" stroke="none" /><path d="M 120.9904718944345 100.63252640178507 l 18.716632756288593 0.5640065850071139 a39.725128708815504,39.725128708815504 0 0,0 -0.026479384482612067,0.6833152549962511 l -18.70415123895478 -0.8860990870173713" fill="#ffcc13" stroke="none" /><path d="M 120.9764740272857 100.99374915477107 l 24.532034513412004 1.1621919170403245 a45.55954819249067,45.55954819249067 0 0,0 -0.043853558137414525,0.7830347396975821 l -24.50839460438706 -1.58429837307333" fill="#e6ff1a" stroke="none" /><path d="M 120.92983693683757 101.71520430193887 l 22.084443444143307 1.80982453497527 a43.15847709308929,43.15847709308929 0 0,0 -0.06705060662993495,0.7398978569243967 l -22.050018241236298 -2.1897037804482373" fill="#fff917" stroke="none" /><path d="M 120.89721153311464 102.0752229133903 l 17.681395402510173 1.7558723957910805 a38.76836602645862,38.76836602645862 0 0,0 -0.07166184493866352,0.6634996830679011 l -17.64855125607046 -2.059968400743773" fill="#ffbf11" stroke="none" /><path d="M 120.8583938346157 102.4346265915055 l 30.178384737909187 3.5224715073537873 a51.38326366454712,51.38326366454712 0 0,0 -0.11010330070837564,0.8776316382496506 l -30.113279927953965 -4.0414208998908325" fill="#9fff22" stroke="none" /><path d="M 120.76222939487914 103.15116336523771 l 14.211127771693459 2.156877489462553 a35.373874670663696,35.373874670663696 0 0,0 -0.09655087797933806,0.6012224093423483 l -14.171895139352833 -2.4011791284981063" fill="#ff900d" stroke="none" /><path d="M 120.49622156327973 104.57218783832717 l 9.547764853375808 2.1298644831212026 a30.782440207423683,30.782440207423683 0 0,0 -0.11981615437292419,0.5161648571584582 l -9.50968813307233 -2.2938979976282257" fill="#ff4e07" stroke="none" /><path d="M 120.41448212921028 104.9243191809786 l 30.162880563217218 7.275798150102915 a52.02799707670394,52.02799707670394 0 0,0 -0.2174985468202026,0.8687985784149399 l -30.033170702101955 -7.7939245679152505" fill="#97ff23" stroke="none" /><path d="M 120.32669344350535 105.2749913415812 l 11.570336245855549 3.0026242923229707 a32.95359500246711,32.95359500246711 0 0,0 -0.147211435173116,0.5478285142772481 l -11.516936734340655 -3.2013437397757674" fill="#ff6e0a" stroke="none" /><path d="M 120.23288151984713 105.62410040840565 l 11.728988966109327 3.2602875457840046 a33.173687076983235,33.173687076983235 0 0,0 -0.15766563009139892,0.5488547421356228 l -11.671130699131828 -3.4616997634242095" fill="#ff710a" stroke="none" /><path d="M 120.02730092923936 106.31721596034902 l 20.020961582683597 6.315216338863242 a41.99335275990802,41.99335275990802 0 0,0 -0.2233801385280951,0.6874933748798507 l -19.909289193139255 -6.658908613720888" fill="#ffea16" stroke="none" /><path d="M 119.9155931802556 106.66101706037122 l 11.846536024171812 3.9622208512243753 a33.49158155902917,33.49158155902917 0 0,0 -0.18756747988354458,0.5451588949327227 l -11.776577713345036 -4.165552449246398" fill="#ff750a" stroke="none" /><path d="M 119.79798401119884 107.00284435728193 l 29.58693908966014 10.46534482177937 a52.38328228426727,52.38328228426727 0 0,0 -0.3080030710010341,0.8474921693395003 l -29.402411757653883 -10.973084788125002" fill="#93ff23" stroke="none" /><path d="M 119.67450827220406 107.3425965602758 l 19.778730249123843 7.381492573261157 a42.11124351800993,42.11124351800993 0 0,0 -0.25929641334807346,0.6769411134776515 l -19.648739556182264 -7.720857253571953" fill="#ffec16" stroke="none" /><path d="M 119.54520255179757 107.68017299344265 l 10.5544967202591 4.147327737100266 a32.34009384338954,32.34009384338954 0 0,0 -0.20805057775773925,0.5163644718910118 l -10.48154352824397 -4.3283915768340915" fill="#ff6509" stroke="none" /><path d="M 119.41010516605496 108.01547362559984 l 11.054966821683157 4.565188814435076 a32.96048662638601,32.96048662638601 0 0,0 -0.22106915241669015,0.5225421735411255 l -10.974746688074159 -4.754805513642364" fill="#ff6e0a" stroke="none" /><path d="M 119.12269723197855 108.67885076344098 l 17.06240476839053 7.743785453165584 a39.73744565369183,39.73744565369183 0 0,0 -0.28804989954474364,0.6204338574973144 l -16.926580252005955 -8.03633937794173" fill="#ffcc13" stroke="none" /><path d="M 118.97047184881838 109.00673069616215 l 10.766161787214594 5.11151860752444 a32.917963840503475,32.917963840503475 0 0,0 -0.24742825671895552,0.5097754946698784 l -10.676580273880925 -5.296083058159593" fill="#ff6d0a" stroke="none" /><line stroke="#e1ed5e" stroke-width="0.3" x1="174.80103733775053" x2="179.2010983576182" y1="140.37084112569926" y2="142.7455964860345" /><path d="M 175.68104954172406 140.8457921977663 a86.0,86.0 0 0,1 -30.038265399797805,32.042727171017184" fill="none" id="id53" stroke="none" /><text fill="#e1ed5e" style="font-size:6.75px; font-family:Arial;" text-anchor="middle"><textPath startOffset="22.206326154141568" xlink:href="#id53">May</textPath></text><path d="M 118.48025628344425 109.97397251340804 l 10.6057639050826 5.724033046433167 a33.05183730088537,33.05183730088537 0 0,0 -0.2745247683926168,0.4983421957418773 l -10.505662727238473 -5.90574576057285" fill="#ff6f0a" stroke="none" /><path d="M 118.30583269289576 110.29060199501025 l 27.593725434126146 15.51177981170902 a52.65484159273086,52.65484159273086 0 0,0 -0.45094610254120504,0.7862625401406925 l -27.322627335432564 -15.984462197708028" fill="#90ff24" stroke="none" /><path d="M 117.94076556474637 110.91462005526583 l 14.40900043513857 8.76600079066474 a37.86600318397214,37.86600318397214 0 0,0 -0.3435625029043903,0.5539321473643083 l -14.255973292566216 -9.012729269394324" fill="#ffb310" stroke="none" /><path d="M 117.75023020441432 111.22182372390056 l 10.292524186962387 6.507008121582032 a33.17691294349846,33.17691294349846 0 0,0 -0.3093275334523804,0.4800832011816929 l -10.178991790132956 -6.683212922685178" fill="#ff710a" stroke="none" /><path d="M 115.56566222782051 114.09645910891815 l 4.626637432452949 4.189940936903845 a27.241905076666697,27.241905076666697 0 0,0 -0.31776202388424213,0.344867918164428 l -4.553829000572985 -4.268960109869608" fill="#ff1902" stroke="none" /><path d="M 114.81725581225074 114.88116024355365 l 8.022697099316456 8.057297696224792 a32.37029968439575,32.37029968439575 0 0,0 -0.39823183167016446,0.389753663979284 l -7.8828153152704985 -8.194201463126648" fill="#ff6509" stroke="none" /><path d="M 114.29624159901734 115.38237550388516 l 21.271869971051434 22.88796599429482 a52.24662284825859,52.24662284825859 0 0,0 -0.6640308179540504,0.6065764081822929 l -20.87473960363052 -23.250735169063695" fill="#95ff23" stroke="none" /><path d="M 113.75828350139079 115.86535959552629 l 6.466763419090026 7.45714587526031 a30.87056501540782,30.87056501540782 0 0,0 -0.4044551520624528,0.3446854550547578 l -6.337442790450526 -7.567355720538015" fill="#ff4f07" stroke="none" /><path d="M 112.92097659922987 116.55440617244103 l 8.575621121418711 10.987119598482288 a34.937649539627415,34.937649539627415 0 0,0 -0.47726704508960094,0.36594801846386094 l -8.385225347835616 -11.133106958773519" fill="#ff8a0c" stroke="none" /><path d="M 112.63410532772338 116.77436683061366 l 10.312046090446854 13.69135680037275 a38.14034846806253,38.14034846806253 0 0,0 -0.5278170713472503,0.3904664510586588 l -10.07484404868104 -13.866833200171179" fill="#ffb710" stroke="none" /><path d="M 112.34349029814194 116.9893568818739 l 18.10162343138999 24.91474722214254 a51.796321208792236,51.796321208792236 0 0,0 -0.725821040462323,0.5178540406259949 l -17.67007506307878 -25.222645524612755" fill="#9aff23" stroke="none" /><path d="M 111.45004920935366 117.60387380957326 l 9.361520920093877 14.392866784221912 a38.1695278969957,38.1695278969957 0 0,0 -0.5538547503567594,0.3534963064082272 l -9.112384367690188 -14.551877519453948" fill="#ffb711" stroke="none" /><line stroke="#e1ed5e" stroke-width="0.3" x1="143.8653032363475" x2="146.44561519142675" y1="172.8068346515853" y2="177.08958963109032" /><path d="M 144.38136562736335 173.6633856474863 a86.0,86.0 0 0,1 -40.68145358897372,12.25698825130547" fill="none" id="id54" stroke="none" /><text fill="#e1ed5e" style="font-size:6.75px; font-family:Arial;" text-anchor="middle"><textPath startOffset="21.466115282336833" xlink:href="#id54">June</textPath></text><path d="M 110.8373102113329 117.98757091392108 l 12.6849286862385 21.054214545149886 a45.58022306424735,45.58022306424735 0 0,0 -0.6755252315850926,0.39911221391538904 l -12.320635583625025 -21.269445331359023" fill="#e6ff1a" stroke="none" /><path d="M 110.5260780823613 118.17145234162733 l 6.343693394501374 10.951288911797489 a33.655954121009565,33.655954121009565 0 0,0 -0.5037995561134718,0.2860705363219731 l -6.154245071466702 -11.05886261391409" fill="#ff780b" stroke="none" /><path d="M 109.2508944713604 118.85261126421891 l 7.6488274382021375 15.587721897157346 a38.36322651820544,38.36322651820544 0 0,0 -0.5953375969962234,0.2857982251643768 l -7.379377173205681 -15.717074398821284" fill="#ffba11" stroke="none" /><path d="M 108.2653958097858 119.30500536409082 l 6.756604989862932 15.781010198920766 a38.166595291072774,38.166595291072774 0 0,0 -0.6061737534944084,0.25338067812280973 l -6.483959776871063 -15.89497592006355" fill="#ffb711" stroke="none" /><path d="M 107.2578585660854 119.70592522655815 l 8.64862773183903 23.482024324962804 a46.02407297068325,46.02407297068325 0 0,0 -0.7457662748606306,0.2674052530718748 l -8.243141896348664 -23.62741711907464" fill="#e0ff1b" stroke="none" /><path d="M 106.91757812671514 119.82793768551818 l 10.342363100708239 29.6444401964743 a52.39677227151276,52.39677227151276 0 0,0 -0.8541429069016316,0.28977164894251145 l -9.83055046086938 -29.81807483231493" fill="#93ff23" stroke="none" /><path d="M 105.88484417918355 120.15858648285463 l 5.236384349322955 17.937281523389142 a39.68597841974436,39.68597841974436 0 0,0 -0.6574054740715378,0.18578935361840768 l -4.926847707146811 -18.024759670346068" fill="#ffcc13" stroke="none" /><path d="M 105.18746579009965 120.34920634021253 l 2.868553206171964 11.252658514235739 a32.61253293363001,32.61253293363001 0 0,0 -0.5451677410740315,0.13398896689075498 l -2.6744321803547213 -11.300368739440524" fill="#ff6909" stroke="none" /><path d="M 104.48393922423573 120.51570834832081 l 4.133428618477623 18.91199050088451 a40.358424957872884,40.358424957872884 0 0,0 -0.6799597787312914,0.1424921827582366 l -3.8072773783169542 -18.980338664369288" fill="#ffd513" stroke="none" /><path d="M 103.7750983002368 120.6578951692458 l 5.561849763621962 30.43526293256778 a51.93928574753522,51.93928574753522 0 0,0 -0.8808680971424651,0.15315020971862026 l -5.037132695007446 -30.52649172080741" fill="#98ff23" stroke="none" /><path d="M 102.70371172650421 120.8252237178851 l 4.560451075090689 35.12667898808455 a56.42148064014598,56.42148064014598 0 0,0 -0.9641962929802783,0.11675074332144726 l -3.95512735905903 -35.199975260131346" fill="#66ff29" stroke="none" /><path d="M 101.98527174616119 120.90594882070398 l 1.61921456901694 17.051175475127074 a38.127884892890066,38.127884892890066 0 0,0 -0.653903542698609,0.0564215491466482 l -1.3254667085767895 -17.076521276552388" fill="#ffb610" stroke="none" /><path d="M 101.62511606390274 120.93702456842531 l 1.0117619519179935 13.03493659021074 a34.074143725619805,34.074143725619805 0 0,0 -0.5851621486680695,0.04035620779267616 l -0.7872370424709937 -13.050421142519703" fill="#ff7e0b" stroke="none" /><path d="M 101.26447882468166 120.96189622390904 l 0.9415165732248645 15.607989881521869 a36.636361520486346,36.636361520486346 0 0,0 -0.629817316133945,0.032554361214386006 l -0.6727111886774398 -15.621884049498457" fill="#ffa20e" stroke="none" /><line stroke="#e1ed5e" stroke-width="0.3" x1="102.19456741930631" x2="102.32365962044197" y1="184.97166512339345" y2="189.96999836594603" /><path d="M 102.22038585953345 185.97133177190398 a86.0,86.0 0 0,1 -42.740103519485714,-10.115201625700543" fill="none" id="id55" stroke="none" /><text fill="#e1ed5e" style="font-size:6.75px; font-family:Arial;" text-anchor="middle"><textPath startOffset="22.20632615414155" xlink:href="#id55">July</textPath></text><path d="M 100.54218724476979 120.99299961872073 l 0.62801685909259 24.31624463810222 a45.324353197471446,45.324353197471446 0 0,0 -0.7800975369099203,0.013430086551364694 l -0.2093596322900017 -24.323452201932742" fill="#e9ff1a" stroke="none" /><path d="M 100.18074693466247 120.99922214144158 l 0.3184408356132445 36.99653251899686 a57.9979029540186,57.9979029540186 0 0,0 -0.9983755405513743,0.0 l 0.31844083561321895 -36.99653251899686" fill="#54ff2b" stroke="none" /><path d="M 99.45781275523022 120.99299961872073 l -0.407321871373914 15.771134369049976 a36.7763934533064,36.7763934533064 0 0,0 -0.6326934520707379,-0.02179124175717983 l 0.6787356751192949 -15.761786328866703" fill="#ffa40f" stroke="none" /><path d="M 98.73552117531835 120.96189622390904 l -1.3493852468374061 22.369432336995384 a43.410094681276945,43.410094681276945 0 0,0 -0.7454903190562366,-0.05141337711562677 l 1.7342383266725727 -22.342890615363473" fill="#fffd17" stroke="none" /><path d="M 98.37488393609728 120.93702456842531 l -0.769340320533392 9.911721107355977 a30.941534078742798,30.941534078742798 0 0,0 -0.530655681726331,-0.045787205102007136 l 0.9398403200012646 -9.897009649975306" fill="#ff5007" stroke="none" /><path d="M 98.01472825383883 120.90594882070398 l -1.684587532868343 17.739586942815617 a38.819393369517655,38.819393369517655 0 0,0 -0.66467564167731,-0.06889634795457987 l 1.9896957711512464 -17.707961226405278" fill="#ffc011" stroke="none" /><path d="M 97.65516085044442 120.86867818915974 l -4.693842395335811 41.77441614170551 a63.03729297198664,63.03729297198664 0 0,0 -1.0772550367962566,-0.13044058269918946 l 5.4122248551834575 -41.687430030280964" fill="#31ff43" stroke="none" /><path d="M 96.93821686468263 120.77559828337769 l -2.918304362621135 19.802029218558896 a41.01591520579446,41.01591520579446 0 0,0 -0.6975911396563746,-0.10894938932794274 l 3.2587313658860264 -19.748861521883846" fill="#ffdd14" stroke="none" /><path d="M 96.58105272829116 120.7198165907248 l -1.5832202554141304 9.594776025459224 a30.724521240445757,30.724521240445757 0 0,0 -0.5210747543244574,-0.09059552521285427 l 1.7481439812106379 -9.566101921725364" fill="#ff4d07" stroke="none" /><path d="M 96.22490169976321 120.6578951692458 l -3.956203767369453 21.64893101972129 a43.00744788805824,43.00744788805824 0 0,0 -0.7270969911848015,-0.1393498688659876 l 4.328268373125949 -21.577623952506833" fill="#fff717" stroke="none" /><path d="M 95.86986931433489 120.58985236759428 l -2.4960042390517394 12.443276666604744 a33.69114539208476,33.69114539208476 0 0,0 -0.5676292816163601,-0.1189522349188398 l 2.7098249820974862 -12.398468450959363" fill="#ff780b" stroke="none" /><path d="M 95.51606077576429 120.51570834832081 l -2.8221916733437626 12.912588324220438 a34.21740152495508,34.21740152495508 0 0,0 -0.5743306941752667,-0.13071579613408282 l 3.044042516911892 -12.862095794508669" fill="#ff800b" stroke="none" /><path d="M 95.16358092515715 120.4354850818985 l -6.876879756647228 29.05711260795582 a50.859793507303586,50.859793507303586 0 0,0 -0.8501982594941672,-0.20895804696278203 l 7.3760313008846055 -28.934433302679007" fill="#a5ff21" stroke="none" /><path d="M 94.46302465271185 120.25689768951611 l -6.252429389991074 22.874369943872818 a44.7134913837245,44.7134913837245 0 0,0 -0.7406871436962216,-0.20932558533245638 l 6.64524770179191 -22.763355565201838" fill="#f1ff19" stroke="none" /><path d="M 93.76903079525671 120.05430185196036 l -6.426649586725922 20.68409688349402 a42.659494195302244,42.659494195302244 0 0,0 -0.6993692038409283,-0.22391593371833038 l 6.781740135657791 -20.570408103115987" fill="#fff316" stroke="none" /><path d="M 93.42475214034765 119.94407469862007 l -2.9709453062894866 9.011486164307884 a30.488593093945802,30.488593093945802 0 0,0 -0.4970080102961295,-0.16861210169568472 l 3.125623049522842 -8.959011075714077" fill="#ff4906" stroke="none" /><path d="M 93.08242187328487 119.8279376855182 l -12.808867111214687 36.7142104145414 a59.88444834424139,59.88444834424139 0 0,0 -0.970357447334519,-0.3479356569498343 l 13.438944119178933 -36.488287216551605" fill="#40ff2d" stroke="none" /><path d="M 92.7421414339146 119.70592522655815 l -4.870589128781905 13.22421266646847 a35.09263776265443,35.09263776265443 0 0,0 -0.5650412314107476,-0.21365024506330535 l 5.097500580952936 -13.13841417129853" fill="#ff8c0c" stroke="none" /><path d="M 92.06813273071674 119.44442032107085 l -9.031099142554961 22.13911071975984 a44.91026924115331,44.91026924115331 0 0,0 -0.7132788835037084,-0.2981506311531814 l 9.410849485556131 -21.980375045586687" fill="#eeff19" stroke="none" /><path d="M 91.7346041902142 119.30500536409082 l -6.88968945871702 16.09184787012626 a38.50472475398695,38.50472475398695 0 0,0 -0.607053252097109,-0.26611430606876474 l 7.1656633854718725 -15.970869010763042" fill="#ffbc11" stroke="none" /><path d="M 91.07499286063937 119.00905698771935 l -9.081965221587668 19.343356454728017 a42.36931283922803,42.36931283922803 0 0,0 -0.6575058247542435,-0.31564275244521 l 9.413583714342153 -19.184159425783246" fill="#ffef16" stroke="none" /><path d="M 90.7491055286396 118.85261126421891 l -5.888011359450367 11.999314187690558 a34.36608464524778,34.36608464524778 0 0,0 -0.528822188635967,-0.2651624235506276 l 6.0936874557690945 -11.896183923230629" fill="#ff820c" stroke="none" /><path d="M 90.42595943632237 118.69057910512821 l -20.48282518934898 39.986864683909694 a65.92766936962937,65.92766936962937 0 0,0 -1.0055824892532184,-0.5260732316137805 l 21.168098581128692 -39.628362033351195" fill="#35ff67" stroke="none" /><line stroke="#e1ed5e" stroke-width="0.3" x1="58.666819895761336" x2="56.23545636021788" y1="174.27360380694188" y2="178.64263932499728" /><path d="M 58.180547188652646 175.14741091055294 a86.0,86.0 0 0,1 -31.652253787137756,-30.449443065178592" fill="none" id="id56" stroke="none" /><text fill="#e1ed5e" style="font-size:6.75px; font-family:Arial;" text-anchor="middle"><textPath startOffset="22.20632615414155" xlink:href="#id56">August</textPath></text><path d="M 89.7882731507175 118.34994917583269 l -8.187145261852592 14.711879946212076 a37.83653049444666,37.83653049444666 0 0,0 -0.5663790483977453,-0.32160480526540736 l 8.439173077171546 -14.568771975152035" fill="#ffb210" stroke="none" /><path d="M 89.4739219176387 118.17145234162733 l -10.181057559626852 17.575834112625394 a41.31166851312224,41.31166851312224 0 0,0 -0.6122627877480376,-0.36173564700572725 l 10.482088218403272 -17.397979893325918" fill="#ffe115" stroke="none" /><path d="M 88.8546689885994 117.79835938074946 l -13.234412611561044 21.13448506937485 a45.93624142329141,45.93624142329141 0 0,0 -0.6665527955829917,-0.42542553099506936 l 13.59624720919096 -20.903545109555978" fill="#e1ff1b" stroke="none" /><path d="M 88.54995079064634 117.60387380957326 l -4.145103721318834 6.372888142531245 a28.602340964315307,28.602340964315307 0 0,0 -0.4104099527530782,-0.2719973377140293 l 4.254188372811874 -6.3005927837258975" fill="#ff2d04" stroke="none" /><path d="M 88.24862548938628 117.40417183066458 l -20.272770290867932 30.02463901624313 a57.22794726895255,57.22794726895255 0 0,0 -0.8116642905343707,-0.5582701001796779 l 20.786591466025193 -29.67122812669835" fill="#5dff2a" stroke="none" /><path d="M 87.95078237400918 117.19931262002967 l -4.876145497987973 6.9603150514719845 a29.49839870406748,29.49839870406748 0 0,0 -0.4133606005154699,-0.29492181306314347 l 4.995233426352329 -6.875348976564622" fill="#ff3b05" stroke="none" /><path d="M 87.36589467227662 116.77436683061367 l -28.579086562622045 37.94460068599648 a68.50323052144526,68.50323052144526 0 0,0 -0.9357908972376566,-0.7175245558308913 l 29.228006188353188 -37.447036788338224" fill="#39ff86" stroke="none" /><path d="M 87.07902340077011 116.55440617244103 l -5.7883841175881185 7.4161005577838175 a30.407653170472848,30.407653170472848 0 0,0 -0.40984087590245766,-0.3256023787016052 l 5.915182486207934 -7.315364265077082" fill="#ff4806" stroke="none" /><path d="M 86.79598089348748 116.32954008644616 l -19.615736780974963 24.2589742945858 a52.197355068753325,52.197355068753325 0 0,0 -0.6938019528880168,-0.570951773430358 l 20.03040886240767 -23.91772740229826" fill="#95ff23" stroke="none" /><path d="M 86.51685102203217 116.09983520530335 l -7.274464718273834 8.68622629345552 a32.32997635295541,32.32997635295541 0 0,0 -0.4235758398164485,-0.36098051997318 l 7.4229060346673394 -8.55972138325939" fill="#ff6409" stroke="none" /><path d="M 86.24171649860922 115.8653595955263 l -3.0460534567191497 3.5125554312905396 a25.649353430217943,25.649353430217943 0 0,0 -0.3310692090601057,-0.2921300842386521 l 3.106065018685843 -3.4596022052795985" fill="#ff0000" stroke="none" /><path d="M 85.97065885151581 115.62618273729859 l -9.793489223796394 10.908199510376983 a35.65951048755738,35.65951048755738 0 0,0 -0.45321616261526126,-0.4140022188975402 l 9.979804935878509 -10.738004524892867" fill="#ff940d" stroke="none" /><path d="M 85.44109423537348 115.13401014063109 l -14.569749074665063 15.145281781971063 a42.01564056492231,42.01564056492231 0 0,0 -0.5168925114718662,-0.5058881139277577 l 14.828291538512723 -14.892243565120735" fill="#ffeb16" stroke="none" /><path d="M 85.18274418774928 114.88116024355367 l -17.747620487901614 17.824163108791105 a46.1531076312923,46.1531076312923 0 0,0 -0.5581435412279853,-0.565396460499213 l 18.051804654185133 -17.516026154311227" fill="#deff1b" stroke="none" /><path d="M 84.9287848128048 114.62390073753433 l -4.38906540428675 4.258797715088594 a27.115656391684432,27.115656391684432 0 0,0 -0.32215136308497916,-0.33777441625042337 l 4.461723318750687 -4.1826161822556704" fill="#ff1702" stroke="none" /><path d="M 84.43433777217949 114.09645910891817 l -38.039308922782695 34.44887566705175 a72.31972386955024,72.31972386955024 0 0,0 -0.8276859822820111,-0.9299139753327024 l 38.62665375471305 -33.788987521978186" fill="#3effb2" stroke="none" /><path d="M 83.95833913139862 113.55231037782056 l -9.831272688772879 8.305652387155654 a33.87003435338367,33.87003435338367 0 0,0 -0.37241554361617285,-0.44859851316970756 l 9.972784232282587 -8.135192616872185" fill="#ff7b0b" stroke="none" /><path d="M 83.72743513129214 113.27417163493432 l -33.87419802145186 27.632516579926836 a64.71518345079275,64.71518345079275 0 0,0 -0.6967116093479969,-0.869254856968832 l 34.344827542854716 -27.045333889379744" fill="#34ff58" stroke="none" /><path d="M 83.50135304334701 112.99209946851258 l -10.283103930332334 8.097579726321573 a34.08866012493832,34.08866012493832 0 0,0 -0.3590561538003154,-0.46412848004352114 l 10.420966901350717 -7.9193732521647995" fill="#ff7e0b" stroke="none" /><path d="M 83.28015986056508 112.70617746262583 l -21.127957899004596 16.056109403490545 a47.53656447543593,47.53656447543593 0 0,0 -0.48948792799217544,-0.6557490705194837 l 21.401207093691855 -15.690047453461753" fill="#cdff1d" stroke="none" /><path d="M 82.85270091963577 112.12312394758628 l -17.033636144358166 12.04276436121702 a41.860798972191446,41.860798972191446 0 0,0 -0.4109117678855154,-0.591949048886913 l 17.238408819405816 -11.747774050143097" fill="#ffe915" stroke="none" /><path d="M 82.24976979558568 111.22182372390057 l -18.59731277382238 11.757355441743979 a43.00216919739697,43.00216919739697 0 0,0 -0.39016351443264563,-0.6290678160329515 l 18.796940927922982 -11.435491294345763" fill="#fff717" stroke="none" /><path d="M 82.05923443525364 110.91462005526583 l -21.48773006190177 13.072486156143984 a46.15178795862698,46.15178795862698 0 0,0 -0.40705684526941793,-0.6822506865375405 l 21.709567782869424 -12.700673375720331" fill="#deff1b" stroke="none" /><line stroke="#e1ed5e" stroke-width="0.3" x1="26.63291911575756" x2="22.317208475507996" y1="142.92168965132927" y2="145.44649492493687" /><path d="M 25.769776987707644 143.4266507060508 a86.0,86.0 0 0,1 -11.730757126820373,-40.83630448921669" fill="none" id="id57" stroke="none" /><text fill="#e1ed5e" style="font-size:6.75px; font-family:Arial;" text-anchor="middle"><textPath startOffset="21.46611528233685" xlink:href="#id57">September</textPath></text><path d="M 81.87401531095188 110.60418214915194 l -12.890546301873902 7.54131173186631 a35.934442292832344,35.934442292832344 0 0,0 -0.3077494150354043,-0.5365870453896258 l 13.018447713061684 -7.318304840618378" fill="#ff980e" stroke="none" /><path d="M 81.69416730710424 110.29060199501025 l -7.776864382340988 4.371755028598089 a29.921427108450562,29.921427108450562 0 0,0 -0.24852394050431778,-0.451143140673621 l 7.850964732296822 -4.237241369526645" fill="#ff4106" stroke="none" /><path d="M 81.51974371655577 109.97397251340807 l -47.826069858134765 25.81219106883874 a75.34705296379396,75.34705296379396 0 0,0 -0.6061759814704596,-1.1466565135589972 l 48.263298347830116 -24.985119540193615" fill="#42ffd4" stroke="none" /><path d="M 81.18737489456691 109.33194174019688 l -18.92187049388247 9.38613256123761 a42.12194752962863,42.12194752962863 0 0,0 -0.3166101067903601,-0.6523105968040962 l 19.08063385728755 -9.059033008468228" fill="#ffec16" stroke="none" /><path d="M 80.87730276802145 108.67885076344099 l -45.29955172398429 20.55923619424259 a70.746674052489,70.746674052489 0 0,0 -0.49374075276202356,-1.113255053726382 l 45.64673356147759 -19.77643280402351" fill="#3cffa0" stroke="none" /><path d="M 80.73074385275274 108.34839909993369 l -12.139103954175166 5.259262929021514 a34.2294252092391,34.2294252092391 0 0,0 -0.22958004547965016,-0.5426594106647937 l 12.227834980847122 -5.049528992690561" fill="#ff800b" stroke="none" /><path d="M 80.45479744820244 107.68017299344265 l -51.911479698839834 20.398312239338185 a76.77537867855847,76.77537867855847 0 0,0 -0.4727378880720069,-1.2341694518733997 l 52.25491186650535 -19.501719220631628" fill="#43ffe3" stroke="none" /><path d="M 80.20201598880116 107.00284435728193 l -20.30789550018975 7.183207711013976 a42.540870285719606,42.540870285719606 0 0,0 -0.2382474478693041,-0.6924586046664944 l 20.428533779002283 -6.832576403258185" fill="#fff116" stroke="none" /><path d="M 80.0844068197444 106.66101706037122 l -15.283924057901933 5.111897897173071 a37.116135849478184,37.116135849478184 0 0,0 -0.19743618984382377,-0.6076461111249469 l 15.369652498762004 -4.84805288607032" fill="#ffa80f" stroke="none" /><path d="M 79.86692584326677 105.97154293290107 l -29.714058009670726 8.813297548805776 a51.99353895710948,51.99353895710948 0 0,0 -0.24711133439374855,-0.8602269729861073 l 29.86136198095058 -8.300513100315072" fill="#98ff23" stroke="none" /><path d="M 79.50377843672027 104.57218783832718 l -20.605655086843374 4.59659968535948 a42.11212329978681,42.11212329978681 0 0,0 -0.1517359186111069,-0.7088596962627246 l 20.681725044178922 -4.2412261696805915" fill="#ffec16" stroke="none" /><path d="M 79.4281124754447 104.21870165774334 l -32.463450895838456 6.6573188263289325 a54.13903345032725,54.13903345032725 0 0,0 -0.1793550564653287,-0.9145275688720195 l 32.57323588527945 -6.097527530388958" fill="#7fff26" stroke="none" /><path d="M 79.29508885075956 103.50808413554451 l -24.805876439289975 4.202920793897871 a46.15941273402662,46.15941273402662 0 0,0 -0.12598935988702387,-0.7845358642827458 l 24.874547553538292 -3.7753056999219115" fill="#deff1b" stroke="none" /><path d="M 79.18660465613746 102.79330883721812 l -45.388056242357365 6.091406832538535 a66.7949875713368,66.7949875713368 0 0,0 -0.14312731574217588,-1.1408655306872246 l 45.48618506734639 -5.309223547563902" fill="#36ff71" stroke="none" /><path d="M 79.10278846688536 102.07522291339032 l -57.347732032693784 5.694986020341824 a78.62981203392513,78.62981203392513 0 0,0 -0.12215854106021369,-1.3480093212924271 l 57.437265170031075 -4.706995310500831" fill="#46fff6" stroke="none" /><path d="M 79.04373962182676 101.35467743843564 l -22.52261953810885 1.4559317355363697 a43.5696284434845,43.5696284434845 0 0,0 -0.041938151491296045,-0.7488338673337885 l 22.544344040487676 -1.0680261518671437" fill="#ffff18" stroke="none" /><line stroke="#e1ed5e" stroke-width="0.3" x1="15.007084014347285" x2="10.007500721073583" y1="101.09737516637583" y2="101.16192664675087" /><path d="M 14.007167355692545 101.11028546245083 a86.0,86.0 0 0,1 10.666146001902534,-42.60595125391555" fill="none" id="id58" stroke="none" /><text fill="#e1ed5e" style="font-size:6.75px; font-family:Arial;" text-anchor="middle"><textPath startOffset="22.20632615414155" xlink:href="#id58">October</textPath></text><path d="M 79.00175016825051 100.2711162175752 l -50.49541191688407 0.6519650539212057 a71.49962062320203,71.49962062320203 0 0,0 -0.005296769219191508,-1.2307826270152646 l 50.49915298339276 0.21732705129773422" fill="#3dffa9" stroke="none" /><path d="M 79.08570108090925 98.10471618934814 l -14.56989446171919 -1.3203447652264408 a35.62959790714346,35.62959790714346 0 0,0 0.06060912609664829,-0.6103256284934154 l 14.545008209940313 1.5709459244242865" fill="#ff940d" stroke="none" /><path d="M 79.12142395522702 97.74499172005258 l -30.24840389568731 -3.267004468776762 a51.42432014746819,51.42432014746819 0 0,0 0.10262738592432487,-0.8792487691112105 l 30.187686156759398 3.7871969762128344" fill="#9eff22" stroke="none" /><path d="M 79.21141760316559 97.0276538004421 l -17.34214033645411 -2.4795747943404023 a38.51850800182473,38.51850800182473 0 0,0 0.0994953358385748,-0.6555499499611649 l 17.296889107176234 2.777723856693659" fill="#ffbc11" stroke="none" /><path d="M 79.32604984820605 96.31383870115002 l -8.511526464209823 -1.5176035163161692 a29.64576215169486,29.64576215169486 0 0,0 0.09389840041240033,-0.5016090096584531 l 8.48414233988756 1.663890603437195" fill="#ff3d05" stroke="none" /><path d="M 79.3925641242962 95.95851677861259 l -5.214690611737278 -1.0226932035202991 a26.314028562650705,26.314028562650705 0 0,0 0.09099729912060178,-0.44373514754505555 l 5.196314016701682 1.112304007228757" fill="#ff0a01" stroke="none" /><path d="M 79.54389044137918 95.25157060432595 l -61.3683286758625 -14.245288187022146 a84.0,84.0 0 0,0 0.3390687989567409,-1.4056590733624128 l 61.114027076644945 15.299532492043955" fill="#4dd2ff" stroke="none" /><path d="M 79.71946130924805 94.55025226153421 l -8.871661826144951 -2.383976072367044 a30.186388053587557,30.186388053587557 0 0,0 0.13916389106689708,-0.5006465595082864 l 8.829311164511694 2.5363339352942726" fill="#ff4506" stroke="none" /><path d="M 79.81627453868168 94.20196356495316 l -50.249702658796984 -14.43487761584652 a73.28191187286455,73.28191187286455 0 0,0 0.35871182804333634,-1.2093979589602255 l 49.99378493364194 15.297704961553286" fill="#3fffbd" stroke="none" /><path d="M 79.91906864156998 93.8553929516997 l -18.07233345580211 -5.529991888804356 a39.89947213093387,39.89947213093387 0 0,0 0.2066118473705922,-0.6550160179434936 l 17.974466124663312 5.840258073174264" fill="#ffce13" stroke="none" /><path d="M 80.14247586403 93.16781622104843 l -33.302112311007626 -11.45793151140871 a56.21810441939058,56.21810441939058 0 0,0 0.32271044240333163,-0.9123458773297588 l 33.09994878779448 12.02947501516508" fill="#68ff28" stroke="none" /><path d="M 80.2630227832202 92.82701384747504 l -12.42369519582848 -4.5151287668866305 a34.2187211976204,34.2187211976204 0 0,0 0.20595663555815757,-0.5518613880989358 l 12.344133971768695 4.728313292014908" fill="#ff800b" stroke="none" /><path d="M 80.52162464483688 92.15188598940014 l -11.796047391637948 -4.752794990136298 a33.71753884539116,33.71753884539116 0 0,0 0.22153757772552882,-0.5364708166654041 l 11.71248812702622 4.955140377255013" fill="#ff790b" stroke="none" /><path d="M 80.65960295795068 91.81776055985345 l -19.3600682026802 -8.190561613988033 a42.02135914647203,42.02135914647203 0 0,0 0.28756474735167953,-0.663739084500881 l 19.21621274548584 8.522599843075513" fill="#ffeb16" stroke="none" /><path d="M 80.95270993114464 91.15688171328213 l -28.97231613789575 -13.451027296871203 a52.9425302337706,52.9425302337706 0 0,0 0.3908716909538795,-0.8232754658580103 l 28.736486253100118 13.947745178369747" fill="#8dff24" stroke="none" /><line stroke="#e1ed5e" stroke-width="0.3" x1="26.266209847984243" x2="21.928928074336255" y1="57.711370442889674" y2="55.22380399835377" /><path d="M 25.398753493254645 57.213857153982495 a86.0,86.0 0 0,1 29.58750427330803,-30.492523968695096" fill="none" id="id59" stroke="none" /><text fill="#e1ed5e" style="font-size:6.75px; font-family:Arial;" text-anchor="middle"><textPath startOffset="21.46611528233685" xlink:href="#id59">November</textPath></text><path d="M 82.15384107792192 88.93136811851018 l -8.76474304503036 -5.436111755189531 a31.31368177036299,31.31368177036299 0 0,0 0.2880447227604761,-0.4556175773172809 l 8.669870726023921 5.586176980221028" fill="#ff5607" stroke="none" /><path d="M 82.34701348167596 88.62581576622439 l -22.911099136603575 -14.76209491847314 a48.25505292655451,48.25505292655451 0 0,0 0.45590308864809775,-0.6943716817241138 l 22.653599412597558 15.154284664174922" fill="#c4ff1e" stroke="none" /><path d="M 82.54541684631803 88.32363383020206 l -24.768858356221504 -16.56930201246852 a50.79996834647576,50.79996834647576 0 0,0 0.4924586047688037,-0.7226222362980737 l 24.479975285783958 16.99320227203701" fill="#a6ff21" stroke="none" /><path d="M 83.17141714833178 87.43820079747576 l -17.235811901943315 -12.865777832458798 a42.50817172967891,42.50817172967891 0 0,0 0.44274094735076835,-0.5825951892031116 l 17.011795014368435 13.160557797542937" fill="#fff116" stroke="none" /><path d="M 83.6137871275137 86.86637796730984 l -22.90165199181297 -18.355775280431796 a50.34995996760169,50.34995996760169 0 0,0 0.5478591322138218,-0.6716105165011698 l 22.582294367522753 18.74726996654105" fill="#abff21" stroke="none" /><path d="M 83.84228863543731 86.58626213691792 l -11.521129783283742 -9.564560927759736 a35.97388584249579,35.97388584249579 0 0,0 0.3996345599371462,-0.4730412677366221 l 11.354784609859472 9.761461145125473" fill="#ff990e" stroke="none" /><path d="M 84.07557802195018 86.31012108654704 l -33.59779804987836 -28.883295588089442 a65.30639680485604,65.30639680485604 0 0,0 0.7401644666652218,-0.8461359357637689 l 33.09564171963529 29.457347080056156" fill="#34ff5f" stroke="none" /><path d="M 84.5562425177563 85.77008943001954 l -15.639441002239735 -14.410213776163548 a42.26608511074079,42.26608511074079 0 0,0 0.4975979719882421,-0.530802822501792 l 15.389075708281037 14.67728601554339" fill="#ffee16" stroke="none" /><path d="M 85.05521093208273 85.24692304244772 l -20.30127010958337 -20.040844932746783 a49.5267774850344,49.5267774850344 0 0,0 0.6041422535593031,-0.6015478747267435 l 19.953292055856757 20.387328658123636" fill="#b5ff20" stroke="none" /><path d="M 85.57189188830299 84.74124197986013 l -28.649727165321867 -30.299139067599892 a62.69945676966476,62.69945676966476 0 0,0 0.7905867544263079,-0.7347642269821616 l 28.123932527100703 30.7878078806567" fill="#31ff3e" stroke="none" /><path d="M 85.83668400450813 84.49514656593479 l -11.214663475590296 -12.276907015047735 a37.62802221332613,37.62802221332613 0 0,0 0.48197735875616415,-0.43272403155094563 l 11.00167512923816 12.46813005536796" fill="#ffb010" stroke="none" /><path d="M 86.65592168130627 83.78471172551755 l -20.031025258274298 -24.34104785950874 a52.52346084738346,52.52346084738346 0 0,0 0.7030555399919054,-0.5684886857712489 l 19.609066319717893 24.68224264254412" fill="#92ff23" stroke="none" /><path d="M 86.93701828274178 83.55741782278169 l -12.872229323939738 -16.20247911571769 a41.69334717399198,41.69334717399198 0 0,0 0.565773648143975,-0.4415953065292729 l 12.591423120636337 16.421652811470185" fill="#ffe615" stroke="none" /><path d="M 87.22198572758235 83.33499621200491 l -13.014688226175348 -16.97367243179255 a42.38896129891168,42.38896129891168 0 0,0 0.5828559815832144,-0.43899504145674584 l 12.720586090833745 17.19518406275515" fill="#ffef16" stroke="none" /><path d="M 87.80319425747018 82.90503203632743 l -24.03748855757407 -33.69079622101473 a62.3868409782801,62.3868409782801 0 0,0 0.8795619482578473,-0.616189353855756 l 23.45399546973256 34.09957041763443" fill="#30ff3a" stroke="none" /><path d="M 88.09926311788651 82.69761687909137 l -6.658204855230096 -9.680309080342079 a32.749045739342534,32.749045739342534 0 0,0 0.46721239838916867,-0.3154638969835781 l 6.490587762434388 9.793484889624324" fill="#ff6b09" stroke="none" /><path d="M 88.70189139769569 82.29822771554957 l -17.16576115695222 -26.895156152743798 a52.90631255062237,52.90631255062237 0 0,0 0.7718800421008932,-0.48335121155117033 l 16.700261962479086 27.1866517056179" fill="#8dff24" stroke="none" /><line stroke="#e1ed5e" stroke-width="0.3" x1="56.762969772571076" x2="54.21961505331055" y1="26.818313649435495" y2="22.513508569990535" /><path d="M 56.25429882871897 25.957352633546506 a86.0,86.0 0 0,1 42.265352541879196,-11.944610805530505" fill="none" id="id60" stroke="none" /><text fill="#e1ed5e" style="font-size:6.75px; font-family:Arial;" text-anchor="middle"><textPath startOffset="22.20632615414155" xlink:href="#id60">December</textPath></text><path d="M 89.94658935756843 81.56283822128135 l -30.105408160303714 -55.210942873773504 a83.88548173870947,83.88548173870947 0 0,0 1.2736810179403286,-0.6803562894167257 l 29.15058209583508 55.72097788969198" fill="#4dd3ff" stroke="none" /><path d="M 95.33964822691252 79.52364482259891 l -2.099865660598171 -9.226255266724257 a30.462199640639405,30.462199640639405 0 0,0 0.5122832114942765,-0.11196526812220267 l 1.940739724950374 9.261034032942328" fill="#ff4906" stroke="none" /><path d="M 96.04723909329186 79.375362276772 l -2.6744146322606586 -13.95450780199413 a35.20847569661028,35.20847569661028 0 0,0 0.5962050350592772,-0.1089526593104058 l 2.433814476098488 13.998475942655272" fill="#ff8e0d" stroke="none" /><path d="M 96.75951476605007 79.25152402106235 l -3.2746208510746104 -20.967042638189024 a42.221216240119915,42.221216240119915 0 0,0 0.7190293624522179,-0.1059662372041331 l 2.9132225081937437 21.020303359554127" fill="#ffed16" stroke="none" /><path d="M 97.83486435360386 79.11191278185805 l -2.000724179443074 -19.301932065648536 a40.405346652639814,40.405346652639814 0 0,0 0.6924223329282714,-0.06575384383473039 l 1.6681767194245665 19.333511453998444" fill="#ffd513" stroke="none" /><path d="M 98.55514903715128 79.0497635885617 l -1.459122856116592 -21.15717785085938 a42.20743299228213,42.20743299228213 0 0,0 0.725240173555904,-0.04374846781389394 l 1.094720633721065 21.17915958805358" fill="#ffed16" stroke="none" /><path d="M 98.91598698831166 79.02799685794201 l -0.7324906613222253 -14.17122883686795 a35.19014690959195,35.19014690959195 0 0,0 0.6052021031412204,-0.026061275637705644 l 0.4884477257916808 14.181737839029848" fill="#ff8e0d" stroke="none" /></svg>