<?xml version="1.0" encoding="utf-8" ?>
<svg baseProfile="full" height="200mm" version="1.1" viewBox="0,0,200,200" width="200mm" xmlns="http://www.w3.org/2000/svg" xmlns:ev="http://www.w3.org/2001/xml-events" xmlns:xlink="http://www.w3.org/1999/xlink"><defs /><rect fill="#1a1a1a" height="200" width="200" x="0" y="0" /><text alignment-baseline="middle" fill="#e1ed5e" style="dominant-baseline: central; font-size:9.0px; font-family:Arial;" text-anchor="middle" x="100.0" y="100.0">2022</text><line stroke="#e1ed5e" stroke-width="0.3" x1="100.0" x2="100.0" y1="15.0" y2="10.0" /><path d="M 100.0 14.0 a86.0,86.0 0 0,1 42.46469731375804,11.215312516191453" fill="none" id="id37" stroke="none" /><text fill="#e1ed5e" style="font-size:6.75px; font-family:Arial;" text-anchor="middle"><textPath startOffset="22.20632615414155" xlink:href="#id37">January</textPath></text><path d="M 100.0 79.0 l 0.0 -13.614377849156405 a34.614377849156405,34.614377849156405 0 0,0 0.5958296140301641,0.005128493598080167 l -0.23434913475763577 13.612360732166884" fill="#ffa90f" stroke="none" /><line stroke="#e1ed5e" stroke-width="0.3" x1="143.23703022742887" x2="145.7803849466894" y1="26.81831364943548" y2="22.513508569990506" /><path d="M 143.74570117128098 25.957352633546492 a86.0,86.0 0 0,1 28.547481713284135,27.462654790039103" fill="none" id="id38" stroke="none" /><text fill="#e1ed5e" style="font-size:6.75px; font-family:Arial;" text-anchor="middle"><textPath startOffset="19.985693538727396" xlink:href="#id38">February</textPath></text><path d="M 111.60114157652 82.49532879139004 l 7.540885139394712 -11.378252227708229 a34.65025906138383,34.65025906138383 0 0,0 0.49433595011370385,0.33377784018490536 l -7.7356257839149585 11.246762475224653" fill="#ffa90f" stroke="none" /><path d="M 113.06298171725822 83.55741782278167 l 8.59664386511959 -10.820731917106034 a34.81993216211916,34.81993216211916 0 0,0 0.46608402823746026,0.3768742035298246 l -8.781631291921542 10.67115161631208" fill="#ffab0f" stroke="none" /><path d="M 114.42810811169701 84.74124197986012 l 9.657807568892995 -10.213823431177538 a35.056864377272696,35.056864377272696 0 0,0 0.43490002841364017,0.41837348276308095 l -9.832190840919052 10.046066861652156" fill="#ffae10" stroke="none" /><path d="M 116.38621287248628 86.86637796730983 l 10.845525957831825 -8.692736984703934 a34.8992485259903,34.8992485259903 0 0,0 0.3716702153892784,0.4719834298430695 l -10.993550253815068 8.504761160907826" fill="#ffac0f" stroke="none" /><path d="M 117.65298651832404 88.62581576622439 l 11.732199564297138 -7.559298772092796 a34.95662941194104,34.95662941194104 0 0,0 0.3215550538401893,0.508622873561969 l -11.860582214383284 7.3562282508166215" fill="#ffad10" stroke="none" /><line stroke="#e1ed5e" stroke-width="0.3" x1="172.23445277983987" x2="176.4835382374775" y1="55.19839476539836" y2="52.563006222186495" /><path d="M 173.08426987136738 54.67131705675599 a86.0,86.0 0 0,1 12.851231095245387,41.99856678651699" fill="none" id="id39" stroke="none" /><text fill="#e1ed5e" style="font-size:6.75px; font-family:Arial;" text-anchor="middle"><textPath startOffset="22.20632615414155" xlink:href="#id39">March</textPath></text><path d="M 119.34039704204932 91.81776055985345 l 12.49831478393939 -5.287595902926693 a34.57079742944699,34.57079742944699 0 0,0 0.22714382439590852,0.5500467876612295 l -12.587480295221496 5.07167454481216" fill="#ffa80f" stroke="none" /><path d="M 120.53481517161879 95.60439243477599 l 10.86768779024122 -2.3262975716138965 a32.113878634295716,32.113878634295716 0 0,0 0.11105392749156631,0.5415383904484666 l -10.906121013647784 2.138883525002018" fill="#ff870c" stroke="none" /><path d="M 120.6074358757038 95.95851677861258 l 8.980379388502463 -1.761211479159179 a30.151452334780636,30.151452334780636 0 0,0 0.0955000964340151,0.5101653338519122 l -9.009365208846338 1.606368067844704" fill="#ff6d0a" stroke="none" /><line stroke="#e1ed5e" stroke-width="0.3" x1="184.98032266829074" x2="189.97916517819016" y1="98.17113171792111" y2="98.06355123074" /><path d="M 185.9800911702706 98.14961562048488 a86.0,86.0 0 0,1 -9.607161424134198,41.387399972396054" fill="none" id="id40" stroke="none" /><text fill="#e1ed5e" style="font-size:6.75px; font-family:Arial;" text-anchor="middle"><textPath startOffset="21.466115282336823" xlink:href="#id40">April</textPath></text><line stroke="#e1ed5e" stroke-width="0.3" x1="174.80103733775053" x2="179.2010983576182" y1="140.37084112569926" y2="142.7455964860345" /><path d="M 175.68104954172406 140.8457921977663 a86.0,86.0 0 0,1 -30.038265399797805,32.042727171017184" fill="none" id="id41" stroke="none" /><text fill="#e1ed5e" style="font-size:6.75px; font-family:Arial;" text-anchor="middle"><textPath startOffset="22.206326154141568" xlink:href="#id41">May</textPath></text><path d="M 117.14729908036423 112.12312394758627 l 7.474051077084888 5.284146918615832 a30.153340819634707,30.153340819634707 0 0,0 -0.303285471832974,0.4212369942790222 l -7.381985812876311 -5.412017518345985" fill="#ff6d0a" stroke="none" /><path d="M 111.45004920935366 117.60387380957326 l 4.663096241953961 7.169275546710646 a29.552366831841837,29.552366831841837 0 0,0 -0.4288163793450908,0.2736909020428136 l -4.53899806056194 -7.248480877577269" fill="#ff6409" stroke="none" /><line stroke="#e1ed5e" stroke-width="0.3" x1="143.8653032363475" x2="146.44561519142675" y1="172.8068346515853" y2="177.08958963109032" /><path d="M 144.38136562736335 173.6633856474863 a86.0,86.0 0 0,1 -40.68145358897372,12.25698825130547" fill="none" id="id42" stroke="none" /><text fill="#e1ed5e" style="font-size:6.75px; font-family:Arial;" text-anchor="middle"><textPath startOffset="21.466115282336833" xlink:href="#id42">June</textPath></text><path d="M 107.59598834532513 119.57807347666477 l 1.6991098005291911 4.37932432323366 a25.69738817241244,25.69738817241244 0 0,0 -0.4137643899893021,0.1564502878824808 l -1.6234751897796142 -4.407922861222771" fill="#ff2e04" stroke="none" /><path d="M 106.2309692047433 120.05430185196036 l 2.603544307042111 8.379477044859895 a29.77462697235987,29.77462697235987 0 0,0 -0.49074969151620024,0.1478588563727265 l -2.458919641085665 -8.423051270338348" fill="#ff6709" stroke="none" /><path d="M 104.83641907484287 120.43548508189849 l 2.386755265731886 10.084837743013681 a31.36342380689954,31.36342380689954 0 0,0 -0.5264273779992525,0.1198131573322332 l -2.2128077383397713 -10.124427633923599" fill="#ff7d0b" stroke="none" /><path d="M 104.48393922423573 120.51570834832081 l 1.972668160119607 9.025698747718993 a30.238758442265166,30.238758442265166 0 0,0 -0.5094633777451378,0.1067630042261321 l -1.8170133209450912 -9.058317732671666" fill="#ff6e0a" stroke="none" /><path d="M 104.13013068566511 120.58985236759428 l 1.8328698320480274 9.137366859084963 a30.31938221872759,30.31938221872759 0 0,0 -0.5125886949441479,0.09823884335742208 l -1.6753135225321751 -9.167562900790854" fill="#ff6f0a" stroke="none" /><path d="M 103.41894727170886 120.7198165907248 l 1.678723836270634 10.173555550805636 a31.31112730324824,31.31112730324824 0 0,0 -0.5325338925099257,0.08317084189740183 l -1.5033540801521912 -10.200944700050144" fill="#ff7c0b" stroke="none" /><path d="M 101.98527174616119 120.90594882070398 l 1.3138661820115751 13.835697410946553 a34.89794111339902,34.89794111339902 0 0,0 -0.5985091329100822,0.05164188638257372 l -1.0755127313599513 -13.85626354960779" fill="#ffac0f" stroke="none" /><path d="M 101.62511606390274 120.93702456842531 l 0.7181813803862244 9.252619883420195 a30.28045037712051,30.28045037712051 0 0,0 -0.5200122869702541,0.03586309188911735 l -0.5588063326370398 -9.263611319825598" fill="#ff6e0a" stroke="none" /><path d="M 101.26447882468166 120.96189622390904 l 0.7813142059973123 12.952235327866974 a33.975779432347736,33.975779432347736 0 0,0 -0.5840791314299727,0.030190219505353104 l -0.5582470061538599 -12.96376535413453" fill="#ffa00e" stroke="none" /><path d="M 100.90346689309514 120.98055641714683 l 0.5675466439308822 13.179724097649107 a34.19193831410645,34.19193831410645 0 0,0 -0.5882310214134457,0.020259865744999696 l -0.3405952708427842 -13.1875407618202" fill="#ffa30f" stroke="none" /><line stroke="#e1ed5e" stroke-width="0.3" x1="102.19456741930631" x2="102.32365962044197" y1="184.97166512339345" y2="189.96999836594603" /><path d="M 102.22038585953345 185.97133177190398 a86.0,86.0 0 0,1 -42.740103519485714,-10.115201625700543" fill="none" id="id43" stroke="none" /><text fill="#e1ed5e" style="font-size:6.75px; font-family:Arial;" text-anchor="middle"><textPath startOffset="22.20632615414155" xlink:href="#id43">July</textPath></text><path d="M 100.18074693466247 120.99922214144158 l 0.10727385857278952 12.463102571262725 a33.463564232696385,33.463564232696385 0 0,0 -0.5760415864704813,0.0 l 0.10727385857278093 -12.463102571262725" fill="#ff990e" stroke="none" /><path d="M 99.81925306533755 120.99922214144158 l -0.17547015993687515 20.38616519051961 a41.38692034006563,41.38692034006563 0 0,0 -0.7123286343857509,-0.012263383436269886 l 0.526358484215294 -20.38012432980418" fill="#ffff18" stroke="none" /><path d="M 99.45781275523022 120.99299961872073 l -0.37165019637578517 14.389959384100225 a35.39475789808638,35.39475789808638 0 0,0 -0.6089240802848476,-0.02097257653264276 l 0.6192946283352757 -14.38143000914149" fill="#ffb310" stroke="none" /><path d="M 99.09653310690486 120.98055641714683 l -0.6013015791685781 13.963590477838768 a34.976531136941674,34.976531136941674 0 0,0 -0.601283098378241,-0.03107946808586638 l 0.8415727459603081 -13.951171202990698" fill="#ffad10" stroke="none" /><path d="M 98.73552117531835 120.96189622390904 l -0.8878534739243451 14.71838991619719 a35.745144472550095,35.745144472550095 0 0,0 -0.6138585818161312,-0.04233528183508951 l 1.1410748165194062 -14.700926289845814" fill="#ffb711" stroke="none" /><path d="M 98.37488393609728 120.93702456842531 l -1.1311595628996112 14.57318408530365 a35.617018038604414,35.617018038604414 0 0,0 -0.6108414967478757,-0.0527059746263793 l 1.3818453773890285 -14.551553858398607" fill="#ffb610" stroke="none" /><path d="M 98.01472825383883 120.90594882070398 l -3.1590962079715745 33.266933744077924 a54.416594224787346,54.416594224787346 0 0,0 -0.9317349279511358,-0.0965781349164013 l 3.7312637325283036 -33.207626240705764" fill="#6bff28" stroke="none" /><path d="M 97.65516085044442 120.86867818915974 l -1.8295088395274932 16.282324194202612 a37.3847851300841,37.3847851300841 0 0,0 -0.6388749608715896,-0.0773588605497264 l 2.1095112234504723 -16.248419804927536" fill="#ffcc13" stroke="none" /><path d="M 97.2962882734958 120.8252237178851 l -4.315716950183495 33.241624877977024 a54.52060615982715,54.52060615982715 0 0,0 -0.9296319169998689,-0.12883851287085638 l 4.887277458370194 -33.16241179961356" fill="#6aff28" stroke="none" /><path d="M 96.93821686468263 120.77559828337769 l -4.2588678280783485 28.898365177318727 a50.21050265056574,50.21050265056574 0 0,0 -0.8539709912843607,-0.13337270603815188 l 4.755674682971226 -28.820774163933468" fill="#99ff23" stroke="none" /><path d="M 96.58105272829116 120.7198165907248 l -2.413502536541912 14.626528555207292 a35.824315568355544,35.824315568355544 0 0,0 -0.6075650874276038,-0.10563297826212494 l 2.6649165954415657 -14.582816998424162" fill="#ffb811" stroke="none" /><path d="M 96.22490169976321 120.6578951692458 l -2.351178864397008 12.865997820987387 a34.07906502705906,34.07906502705906 0 0,0 -0.5761510357010999,-0.11042071724313506 l 2.5722975146698035 -12.823619905395782" fill="#ffa20e" stroke="none" /><path d="M 95.51606077576429 120.51570834832081 l -4.677417736559572 21.400945308948852 a42.90613377113593,42.90613377113593 0 0,0 -0.7201689343704687,-0.16390810479396425 l 5.045106820322903 -21.3172604705772" fill="#edff1a" stroke="none" /><path d="M 94.81253420990036 120.34920634021253 l -0.5023820808017531 1.9707265623555725 a23.03375291977283,23.03375291977283 0 0,0 -0.3833579420656842,-0.10124831678566269 l 0.5362304656789266 -1.9617868962663283" fill="#ff0701" stroke="none" /><path d="M 94.46302465271185 120.25689768951611 l -3.448306613900574 12.615550891711507 a34.07833868673057,34.07833868673057 0 0,0 -0.564513898661348,-0.15953726653862055 l 3.664951680666536 -12.554324831834366" fill="#ffa20e" stroke="none" /><path d="M 93.42475214034765 119.94407469862007 l -4.6851716886237815 14.211086202112098 a35.963482375294284,35.963482375294284 0 0,0 -0.5862565964781841,-0.19889006780041302 l 4.929098018039192 -14.12833314741356" fill="#ffba11" stroke="none" /><path d="M 93.08242187328487 119.8279376855182 l -5.663682252694646 16.233880806248443 a38.19349245182519,38.19349245182519 0 0,0 -0.6188808758377283,-0.22190866334852397 l 5.942282689162101 -16.13398460185996" fill="#ffd714" stroke="none" /><path d="M 92.7421414339146 119.70592522655815 l -7.666823426845794 20.81631211176041 a43.183305240487826,43.183305240487826 0 0,0 -0.6953124508479746,-0.26290767338932214 l 8.024006098454052 -20.681256188264456" fill="#eaff1a" stroke="none" /><path d="M 92.40401165467489 119.57807347666478 l -8.985587906645668 23.159659055507646 a45.8417108427623,45.8417108427623 0 0,0 -0.7332030719174899,-0.29175663390284834 l 9.382912054605015 -23.001555577198733" fill="#caff1d" stroke="none" /><path d="M 92.06813273071674 119.44442032107085 l -5.846007536916201 14.331080423918692 a36.47758605979972,36.47758605979972 0 0,0 -0.5793483828371769,-0.2421676710124859 l 6.09182737925084 -14.228327709886234" fill="#ffc111" stroke="none" /><path d="M 91.7346041902142 119.30500536409082 l -7.01087598119441 16.374896198400105 a38.812624947830315,38.812624947830315 0 0,0 -0.6119075086899858,-0.2682422695056305 l 7.291704164542139 -16.251789375600023" fill="#ffdf14" stroke="none" /><path d="M 91.40352486487194 119.15986991738527 l -7.269166418529194 16.201557126329092 a38.757568350930754,38.757568350930754 0 0,0 -0.6063381718815483,-0.2783401157014869 l 7.546972586178161 -16.07402994029353" fill="#ffde14" stroke="none" /><path d="M 91.07499286063937 119.00905698771935 l -9.288382180138743 19.782996632832145 a42.854999412010216,42.854999412010216 0 0,0 -0.6650429248205335,-0.31926101850584604 l 9.627537772959519 -19.620181337826736" fill="#eeff19" stroke="none" /><path d="M 90.7491055286396 118.85261126421891 l -9.927474424926741 20.231429160503264 a43.53587083593701,43.53587083593701 0 0,0 -0.6699260255362437,-0.3359148166400296 l 10.274254358145745 -20.057546502953933" fill="#e5ff1a" stroke="none" /><path d="M 90.42595943632237 118.69057910512821 l -18.746492466810164 36.597171075700416 a62.11914287229554,62.11914287229554 0 0,0 -0.9474917423453647,-0.49568289836984375 l 19.373675111682022 -36.26905875838585" fill="#32ff45" stroke="none" /><path d="M 90.10565033884886 118.52300852407294 l -4.69843636340569 8.795846092935895 a30.97207163790897,30.97207163790897 0 0,0 -0.4680870955734561,-0.25523840625268424 l 4.849146270847786 -8.713667034923445" fill="#ff780b" stroke="none" /><line stroke="#e1ed5e" stroke-width="0.3" x1="58.666819895761336" x2="56.23545636021788" y1="174.27360380694188" y2="178.64263932499728" /><path d="M 58.180547188652646 175.14741091055294 a86.0,86.0 0 0,1 -31.652253787137756,-30.449443065178592" fill="none" id="id44" stroke="none" /><text fill="#e1ed5e" style="font-size:6.75px; font-family:Arial;" text-anchor="middle"><textPath startOffset="22.20632615414155" xlink:href="#id44">August</textPath></text><path d="M 89.7882731507175 118.34994917583269 l -0.8829986945429793 1.586703346685067 a22.81585082122574,22.81585082122574 0 0,0 -0.34153289711400464,-0.193931292442415 l 0.9101803585781912 -1.5712688884480188" fill="#ff0400" stroke="none" /><path d="M 88.54995079064634 117.60387380957326 l -3.2027747802838378 4.924104869919855 a26.87405950456672,26.87405950456672 0 0,0 -0.385611146490179,-0.25556204116055414 l 3.2870606255139787 -4.868244807667983" fill="#ff3f05" stroke="none" /><path d="M 88.24862548938628 117.40417183066458 l -12.411669737000466 18.382090759945857 a43.179964074976766,43.179964074976766 0 0,0 -0.6124216677125123,-0.42122920741157294 l 12.726248289335869 -18.16572076316918" fill="#eaff1a" stroke="none" /><path d="M 86.51685102203217 116.09983520530335 l -1.119240555170372 1.336452524761104 a22.74321678837671,22.74321678837671 0 0,0 -0.29797352915117675,-0.25393950594029696 l 1.1420795608986052 -1.3169886285978556" fill="#ff0300" stroke="none" /><path d="M 85.97065885151581 115.62618273729859 l -12.635112270210712 14.073260543808825 a39.913030545493115,39.913030545493115 0 0,0 -0.5072764683207288,-0.46338502640200774 l 12.875488287998296 -13.85368275082024" fill="#ffec16" stroke="none" /><path d="M 85.70375840098266 115.38237550388516 l -1.0383936819206883 1.1172839676453024 a22.52531468982962,22.52531468982962 0 0,0 -0.28174252324230337,-0.2664051412072264 l 1.0574720395538084 -1.0992441896921452" fill="#ff0000" stroke="none" /><path d="M 85.44109423537348 115.13401014063109 l -7.909991567485307 8.222451228820079 a32.40949914799127,32.40949914799127 0 0,0 -0.3987140784933429,-0.39022564399526943 l 8.050355598354445 -8.08507548190224" fill="#ff8b0c" stroke="none" /><path d="M 85.18274418774928 114.88116024355367 l -10.949943196193134 10.997168532761437 a36.51898745852366,36.51898745852366 0 0,0 -0.44163520136054707,-0.4473741273288619 l 11.137619022609215 -10.80705391145191" fill="#ffc112" stroke="none" /><path d="M 84.67929136418377 114.36230785411682 l -5.247775730163947 4.919496374324323 a28.1930935411051,28.1930935411051 0 0,0 -0.3288571206002908,-0.3569094543414819 l 5.331679258759967 -4.828435665181496" fill="#ff5107" stroke="none" /><path d="M 84.43433777217949 114.09645910891817 l -17.62901937317146 15.965061241023308 a44.783723520283345,44.783723520283345 0 0,0 -0.5125415060902699,-0.5758458155076238 l 17.901219728910068 -15.65924125577482" fill="#d7ff1c" stroke="none" /><path d="M 83.95833913139862 113.55231037782056 l -12.834297820839499 10.84266703891289 a37.801268674440436,37.801268674440436 0 0,0 -0.41564114981083117,-0.5006665404101821 l 13.019034970543867 -10.620139241388946" fill="#ffd213" stroke="none" /><path d="M 83.06392112726016 112.41649034213515 l -5.9032455346645225 4.327896186548447 a28.319767294393806,28.319767294393806 0 0,0 -0.2848431965617305,-0.39562228693424223 l 5.976868523601861 -4.225640294163067" fill="#ff5307" stroke="none" /><path d="M 82.6465618267979 111.8261652097733 l -25.246937515144804 17.205492716480638 a51.552198505353005,51.552198505353005 0 0,0 -0.49342056232502574,-0.7375967924948778 l 25.53936118288056 -16.76835900977994" fill="#8aff24" stroke="none" /><path d="M 82.44556493220864 111.52570212397912 l -13.935197188528896 9.14942185343154 a37.670382147246485,37.670382147246485 0 0,0 -0.35122274376947743,-0.5451054979644238 l 14.09062479567542 -8.908194755545669" fill="#ffd013" stroke="none" /><line stroke="#e1ed5e" stroke-width="0.3" x1="26.63291911575756" x2="22.317208475507996" y1="142.92168965132927" y2="145.44649492493687" /><path d="M 25.769776987707644 143.4266507060508 a86.0,86.0 0 0,1 -11.730757126820373,-40.83630448921669" fill="none" id="id45" stroke="none" /><text fill="#e1ed5e" style="font-size:6.75px; font-family:Arial;" text-anchor="middle"><textPath startOffset="21.46611528233685" xlink:href="#id45">September</textPath></text><path d="M 81.51974371655577 109.97397251340807 l -20.772087430514276 11.210895882632514 a44.60431745914624,44.60431745914624 0 0,0 -0.35884702652684186,-0.6788033391559471 l 20.961986965266004 -10.851677528390441" fill="#d9ff1c" stroke="none" /><path d="M 81.35079622478065 109.6543875284942 l -7.82771948138598 4.052282244782055 a29.814430422361134,29.814430422361134 0 0,0 -0.23201494662795497,-0.45778750096065174 l 7.896313097800202 -3.9169405321187187" fill="#ff6809" stroke="none" /><path d="M 81.02952815118164 109.00673069616217 l -15.630393959862603 7.420940828109715 a38.30258876916443,38.30258876916443 0 0,0 -0.277648869114886,-0.5980309632704945 l 15.755817445817316 -7.150789797560393" fill="#ffd814" stroke="none" /><path d="M 80.0844068197444 106.66101706037122 l -18.71339544997479 6.258927124165906 a40.732342436030166,40.732342436030166 0 0,0 -0.2166722992554397,-0.6668487683803795 l 18.818360000246482 -5.935879455807723" fill="#fff617" stroke="none" /><path d="M 79.97269907076064 106.31721596034903 l -14.598588608345285 4.60483603262614 a36.30762242293299,36.30762242293299 0 0,0 -0.18287497172868633,-0.5976459886844 l 14.675690352580101 -4.352863071389692" fill="#ffbf11" stroke="none" /><path d="M 79.76711848015287 105.62410040840567 l -10.287170466601696 2.859507656672648 a31.67720282880735,31.67720282880735 0 0,0 -0.14150949207058036,-0.5266094628178148 l 10.33486803501405 -2.682007260679294" fill="#ff810b" stroke="none" /><path d="M 79.50377843672027 104.57218783832718 l -20.1133597572884 4.486781067732458 a41.60772779992668,41.60772779992668 0 0,0 -0.14991851049872676,-0.7003693706079992 l 20.187612306511568 -4.139897877708296" fill="#fdff18" stroke="none" /><path d="M 79.23777060512086 103.15116336523772 l -14.368216667733462 2.180719475064025 a35.53276256049954,35.53276256049954 0 0,0 -0.08657464363856286,-0.6055028559676218 l 14.403625362388624 -1.9330711471160027" fill="#ffb510" stroke="none" /><path d="M 79.1416061653843 102.43462659150553 l -36.2217524843866 4.22786349172623 a57.467659408643684,57.467659408643684 0 0,0 -0.10622677506499854,-0.9835280078161499 l 36.28916156095265 -3.6037391620252976" fill="#4cff2c" stroke="none" /><line stroke="#e1ed5e" stroke-width="0.3" x1="15.007084014347285" x2="10.007500721073583" y1="101.09737516637583" y2="101.16192664675087" /><path d="M 14.007167355692545 101.11028546245083 a86.0,86.0 0 0,1 10.666146001902534,-42.60595125391555" fill="none" id="id46" stroke="none" /><text fill="#e1ed5e" style="font-size:6.75px; font-family:Arial;" text-anchor="middle"><textPath startOffset="22.20632615414155" xlink:href="#id46">October</textPath></text><path d="M 79.00486145842228 99.54816195383935 l -16.596229519553553 -0.3571687752809296 a37.60007240344862,37.60007240344862 0 0,0 0.01949528937231508,-0.6469537437308394 l 16.587622535725593 0.6427926664367634" fill="#ffcf13" stroke="none" /><path d="M 79.12142395522702 97.74499172005258 l -21.37362747074831 -2.3084767282831815 a42.49793050652438,42.49793050652438 0 0,0 0.08481301264792604,-0.7266260979334505 l 21.330724105096795 2.6760465645414935" fill="#f2ff19" stroke="none" /><line stroke="#e1ed5e" stroke-width="0.3" x1="26.266209847984243" x2="21.928928074336255" y1="57.711370442889674" y2="55.22380399835377" /><path d="M 25.398753493254645 57.213857153982495 a86.0,86.0 0 0,1 29.58750427330803,-30.492523968695096" fill="none" id="id47" stroke="none" /><text fill="#e1ed5e" style="font-size:6.75px; font-family:Arial;" text-anchor="middle"><textPath startOffset="21.46611528233685" xlink:href="#id47">November</textPath></text><path d="M 84.5562425177563 85.77008943001954 l -10.948633040024326 -10.088093470919022 a35.887652444999894,35.887652444999894 0 0,0 0.4225047820081352,-0.45069864315227104 l 10.773360936045735 10.275061530949344" fill="#ffb911" stroke="none" /><path d="M 85.57189188830299 84.74124197986013 l -6.218164906290206 -6.576154884609337 a30.050491029120483,30.050491029120483 0 0,0 0.3789111006002145,-0.352156572784357 l 6.1040459218951355 6.682216043468341" fill="#ff6b09" stroke="none" /><path d="M 85.83668400450813 84.49514656593479 l -7.835266291062852 -8.577416157238135 a32.61737775000519,32.61737775000519 0 0,0 0.4177960108658587,-0.37510138371300594 l 7.686459292601022 8.71101654972042" fill="#ff8e0d" stroke="none" /><path d="M 86.10567301691215 84.25364557470407 l -13.018404589167842 -14.753677019581625 a40.676123694605025,40.676123694605025 0 0,0 0.528995315619407,-0.4587395248987461 l 12.762515474901662 14.975581537900052" fill="#fff617" stroke="none" /><path d="M 86.37877921826538 84.01681056812374 l -5.277362855716939 -6.192476546359138 a29.1361738236169,29.1361738236169 0 0,0 0.3845176655745087,-0.32202248678258016 l 5.169987653183321 6.2824001905355304" fill="#ff5f08" stroke="none" /><path d="M 86.93701828274178 83.55741782278169 l -6.182943670854569 -7.782569217778567 a30.939676859258306,30.939676859258306 0 0,0 0.41984765041789934,-0.3276977506642497 l 6.048063465277243 7.887845357666039" fill="#ff770b" stroke="none" /><path d="M 87.22198572758235 83.33499621200491 l -9.960304801862463 -12.990165272465134 a37.3692414470544,37.3692414470544 0 0,0 0.513833914236588,-0.3870090513087892 l 9.735224733867486 13.159690913279777" fill="#ffcc13" stroke="none" /><path d="M 87.51073957382395 83.11751280151077 l -5.187661886618276 -7.01247571132112 a29.722766272905663,29.722766272905663 0 0,0 0.4139315336872911,-0.30073886290630153 l 5.066185036577203 7.1007338090440895" fill="#ff6709" stroke="none" /><path d="M 88.39885842347998 82.49532879139004 l -2.2467128574430597 -3.390008613401862 a25.066924767282863,25.066924767282863 0 0,0 0.3617192746033925,-0.2352722780782595 l 2.1880265570553803 3.4281798156396563" fill="#ff2503" stroke="none" /><line stroke="#e1ed5e" stroke-width="0.3" x1="56.762969772571076" x2="54.21961505331055" y1="26.818313649435495" y2="22.513508569990535" /><path d="M 56.25429882871897 25.957352633546506 a86.0,86.0 0 0,1 42.265352541879196,-11.944610805530505" fill="none" id="id48" stroke="none" /><text fill="#e1ed5e" style="font-size:6.75px; font-family:Arial;" text-anchor="middle"><textPath startOffset="22.20632615414155" xlink:href="#id48">December</textPath></text><path d="M 90.26544431104013 81.39251694778311 l -29.20366706687963 -55.822449156650684 a84.0,84.0 0 0,0 1.286958049644945,-0.6592298987499792 l 28.23844852964592 56.31687158071317" fill="#4dd2ff" stroke="none" /><path d="M 95.692805502759 79.44645832069477 l -3.426678766688143 -16.351800434791024 a37.70698969980239,37.70698969980239 0 0,0 0.6364106546422221,-0.1276579902806341 l 3.1447017025787845 16.40836238114887" fill="#ffd113" stroke="none" /><path d="M 97.83486435360386 79.11191278185805 l -1.7150452825914173 -16.545852683854374 a37.63450093501906,37.63450093501906 0 0,0 0.6449386305243984,-0.061244694137962144 l 1.4299815249767827 16.572922922507516" fill="#ffd013" stroke="none" /></svg>