<?xml version="1.0" encoding="utf-8" ?>
<svg baseProfile="full" height="200mm" version="1.1" viewBox="0,0,200,200" width="200mm" xmlns="http://www.w3.org/2000/svg" xmlns:ev="http://www.w3.org/2001/xml-events" xmlns:xlink="http://www.w3.org/1999/xlink"><defs /><rect fill="#1a1a1a" height="200" width="200" x="0" y="0" /><text alignment-baseline="middle" fill="#e1ed5e" style="dominant-baseline: central; font-size:9.0px; font-family:Arial;" text-anchor="middle" x="100.0" y="100.0">2025</text><line stroke="#e1ed5e" stroke-width="0.3" x1="100.0" x2="100.0" y1="15.0" y2="10.0" /><path d="M 100.0 14.0 a86.0,86.0 0 0,1 42.46469731375804,11.215312516191453" fill="none" id="id73" stroke="none" /><text fill="#e1ed5e" style="font-size:6.75px; font-family:Arial;" text-anchor="middle"><textPath startOffset="22.20632615414155" xlink:href="#id73">January</textPath></text><path d="M 100.0 79.0 l 0.0 -9.453242619345762 a30.45324261934576,30.45324261934576 0 0,0 0.5242025113068426,0.004511976511457163 l -0.16272203203431415 9.451842019442864" fill="#ff4406" stroke="none" /><path d="M 100.72285384407766 79.0124445844662 l 0.49220723920712006 -14.290892679650044 a35.299366473645016,35.299366473645016 0 0,0 0.6070804672764558,0.026142161948609424 l -0.7381285388729074 14.28030279117724" fill="#ff8b0c" stroke="none" /><path d="M 101.08401301168833 79.027996857942 l 1.0221964936240595 -19.776061583150135 a40.80246190280703,40.80246190280703 0 0,0 0.7010988931099371,0.042292199850419335 l -1.3624574355736085 19.755536113919412" fill="#ffd714" stroke="none" /><path d="M 102.16513564639614 79.11191278185805 l 1.3404137369695368 -12.93160504415465 a34.000889123604686,34.000889123604686 0 0,0 0.5816310230225161,0.06535302241076771 l -1.5628114635017782 12.906616068273282" fill="#ff780b" stroke="none" /><path d="M 103.95276090670814 79.375362276772 l 5.429255691364128 -28.32866302414767 a49.84423627170463,49.84423627170463 0 0,0 0.8412605537690103,0.1687489529176723 l -5.916082654600263 28.231010115152788" fill="#b4ff20" stroke="none" /><path d="M 104.66035177308747 79.52364482259891 l 2.9098368635702063 -12.785054868784037 a34.11200894487227,34.11200894487227 0 0,0 0.5714188922346946,0.13523638998799384 l -3.1294794427674244 12.733072566655174" fill="#ff7a0b" stroke="none" /><path d="M 105.71112130821622 79.79150937346287 l 4.0223272786688025 -14.232785248477112 a35.790243157770966,35.790243157770966 0 0,0 0.5914078326573192,0.17264816382324463 l -4.2667253290495495 14.161438755735164" fill="#ff920d" stroke="none" /><path d="M 106.0581310904928 79.89281104454417 l 8.875532536293221 -29.458261487211757 a51.76628426787582,51.76628426787582 0 0,0 0.8509751680802743,0.26440212705740274 l -9.381293077084214 29.301119225271837" fill="#9dff22" stroke="none" /><path d="M 106.40334571778207 80.00007090966166 l 5.951205287354973 -18.587733506035402 a40.51718937920194,40.51718937920194 0 0,0 0.6623927194446241,0.2183804652054808 l -6.270280829042014 18.482539316570683" fill="#ffd313" stroke="none" /><path d="M 107.08798089147638 80.2323363322302 l 4.3938003825532075 -12.253866018470415 a34.017784535025484,34.017784535025484 0 0,0 0.5494968453495696,0.20238432553688704 l -4.604079553675353 12.176418425127203" fill="#ff780b" stroke="none" /><path d="M 107.76421540070413 80.48803036053334 l 9.74256094016693 -24.483678448430357 a47.35086344010381,47.35086344010381 0 0,0 0.7547189420152496,0.30786880631210134 l -10.162563751770568 24.312348755934675" fill="#d2ff1c" stroke="none" /><path d="M 108.09893153111575 80.62456947434976 l 5.170700648058257 -12.37009484405229 a34.40728875062662,34.40728875062662 0 0,0 0.5444809953443713,0.23311834690284344 l -5.3828654011929435 12.279256969186655" fill="#ff7e0b" stroke="none" /><path d="M 109.41281617654863 81.2277094730956 l 7.306157595899829 -14.570911664809614 a37.30004311527456,37.30004311527456 0 0,0 0.5714713183250872,0.29272980531253573 l -7.555889401813672 14.442989334184578" fill="#ffa70f" stroke="none" /><path d="M 109.73455568895987 81.39251694778311 l 11.59532827783411 -22.164326889555593 a46.01417646731182,46.01417646731182 0 0,0 0.6986594331677519,0.37319967308978885 l -11.975132757530174 21.96144848996405" fill="#e3ff1b" stroke="none" /><line stroke="#e1ed5e" stroke-width="0.3" x1="143.23703022742887" x2="145.7803849466894" y1="26.81831364943548" y2="22.513508569990506" /><path d="M 143.74570117128098 25.957352633546492 a86.0,86.0 0 0,1 28.547481713284135,27.462654790039103" fill="none" id="id74" stroke="none" /><text fill="#e1ed5e" style="font-size:6.75px; font-family:Arial;" text-anchor="middle"><textPath startOffset="19.985693538727396" xlink:href="#id74">February</textPath></text><path d="M 110.68208982089419 81.91981866633111 l 12.794258905474166 -21.65517468205645 a46.15232894685269,46.15232894685269 0 0,0 0.6805005606832089,0.40999397363889034 l -13.165121532375013 21.431734098958948" fill="#e1ff1b" stroke="none" /><path d="M 110.99172775467656 82.1063720568725 l 11.667470933731021 -18.993682211298605 a43.291026040388076,43.291026040388076 0 0,0 0.6315972025204059,0.39550611027543947 l -11.99268728862369 18.790031759700224" fill="#fff817" stroke="none" /><path d="M 111.2981086023043 82.29822771554956 l 9.165613823444739 -14.360599146368525 a38.036293159111864,38.036293159111864 0 0,0 0.5488690973403193,0.35699972869735874 l -9.411449946569338 14.200700493511638" fill="#ffb110" stroke="none" /><path d="M 111.90073688211348 82.69761687909136 l 14.104062396163142 -20.50577989892312 a45.887980740468734,45.887980740468734 0 0,0 0.6469524840303786,0.45323155907284846 l -14.454946019777172 20.259963497086336" fill="#e5ff1a" stroke="none" /><path d="M 113.06298171725822 83.55741782278167 l 21.945460038390827 -27.62309845549094 a56.27943855248202,56.27943855248202 0 0,0 0.7533313765619642,0.6091415824941543 l -22.41769481351728 27.241250775732656" fill="#69ff28" stroke="none" /><path d="M 113.6212207817346 84.01681056812373 l 8.44911500129983 -9.914221916039262 a34.02610227603265,34.02610227603265 0 0,0 0.4425114066411414,0.38374153125938726 l -8.618520206587737 9.767315391360203" fill="#ff780b" stroke="none" /><path d="M 114.42810811169701 84.74124197986012 l 9.315272848743161 -9.851568423951377 a34.55830773578795,34.55830773578795 0 0,0 0.42871515417006434,0.41242363864103043 l -9.483471246525644 9.689761698548045" fill="#ff800b" stroke="none" /><path d="M 114.68862486808459 84.99185889309783 l 13.27929599629247 -13.56815562399662 a39.985113884149875,39.985113884149875 0 0,0 0.4877502239691302,0.485655669500896 l -13.510882020428923 13.337564103845606" fill="#ffcc13" stroke="none" /><path d="M 114.94478906791727 85.2469230424477 l 9.462399159797249 -9.341015277843722 a34.29629889406227,34.29629889406227 0 0,0 0.41112400258833387,0.42369942348736994 l -9.621787426088693 9.176751658806237" fill="#ff7c0b" stroke="none" /><path d="M 115.68641384162765 86.03803664274999 l 6.8300638012883885 -6.079216160178351 a30.143666696235357,30.143666696235357 0 0,0 0.3416399016810218,0.3905534660499487 l -6.933695566547258 5.960747137925455" fill="#ff3f05" stroke="none" /><path d="M 116.15771136456269 86.58626213691792 l 13.488564257019819 -11.19787703906042 a38.530938819631686,38.530938819631686 0 0,0 0.41925607723797503,0.513958377297171 l -13.679318826334203 10.96403449215515" fill="#ffb811" stroke="none" /><path d="M 116.60985879189232 87.15038557335679 l 26.213449042144163 -20.27908347712315 a54.141909078343964,54.141909078343964 0 0,0 0.5639113408396341,0.7420412236005843 l -26.55863632320791 19.824857477641533" fill="#81ff25" stroke="none" /><path d="M 117.04232023915458 87.72973835380427 l 10.564651554781102 -7.6064196047804895 a34.018044464431966,34.018044464431966 0 0,0 0.3380541227941586,0.47815358268738356 l -10.694018297379145 7.423439521761313" fill="#ff780b" stroke="none" /><path d="M 117.65298651832404 88.62581576622439 l 15.896854002035873 -10.242671741062171 a39.91090403860158,39.91090403860158 0 0,0 0.3671278699587458,0.5807081243260619 l -16.070809468240572 9.967515969021903" fill="#ffcb12" stroke="none" /><line stroke="#e1ed5e" stroke-width="0.3" x1="172.23445277983987" x2="176.4835382374775" y1="55.19839476539836" y2="52.563006222186495" /><path d="M 173.08426987136738 54.67131705675599 a86.0,86.0 0 0,1 12.851231095245387,41.99856678651699" fill="none" id="id75" stroke="none" /><text fill="#e1ed5e" style="font-size:6.75px; font-family:Arial;" text-anchor="middle"><textPath startOffset="22.20632615414155" xlink:href="#id75">March</textPath></text><path d="M 118.03404312379186 89.2402003453031 l 23.100719829432567 -13.78277270037469 a47.89996431127991,47.89996431127991 0 0,0 0.4163654799162257,0.7117035720301428 l -23.334544983819118 13.38308971599065" fill="#ccff1d" stroke="none" /><path d="M 118.73160827565052 90.50648371742162 l 16.987693446925213 -8.609668853233266 a40.04489764763888,40.04489764763888 0 0,0 0.3063243733047051,0.6175312444156575 l -17.133377833183328 8.315978020318658" fill="#ffcd13" stroke="none" /><path d="M 119.04729006885535 91.15688171328212 l 24.10983373074769 -11.19351418408441 a47.58155078834939,47.58155078834939 0 0,0 0.33850349728905854,0.7458475859375341 l -24.2989395450001 10.776844589304813" fill="#d0ff1d" stroke="none" /><path d="M 119.47837535516314 92.15188598940014 l 10.853028146233141 -4.37283914591518 a32.70085219712551,32.70085219712551 0 0,0 0.20586969451548387,0.523915917260893 l -10.926691390630324 4.185374223758503" fill="#ff6509" stroke="none" /><path d="M 119.85752413597 93.16781622104841 l 12.30539162739331 -4.233795537381903 a34.01336573511543,34.01336573511543 0 0,0 0.18571736014851822,0.5552712682922909 l -12.3764462813136 4.021351166167298" fill="#ff780b" stroke="none" /><path d="M 119.97218684219823 93.5106431181261 l 11.969171833126959 -3.8890196761790707 a33.58513203794969,33.58513203794969 0 0,0 0.17391423504989328,0.5513556514585664 l -12.034341551945058 3.682413858294085" fill="#ff720a" stroke="none" /><path d="M 120.08093135843002 93.85539295169968 l 26.291124679492263 -8.044877358018162 a48.494422863885696,48.494422863885696 0 0,0 0.2373781282561373,0.8003210414909508 l -26.425708704860103 7.591126929780681" fill="#c4ff1e" stroke="none" /><path d="M 120.53481517161879 95.60439243477599 l 17.366270404159543 -3.717360440319562 a38.759676697328715,38.759676697328715 0 0,0 0.1340359529460523,0.6536069084647538 l -17.427685653020593 3.417877875691396" fill="#ffbb11" stroke="none" /><path d="M 120.6074358757038 95.95851677861258 l 12.789485346917024 -2.5082446332241832 a34.03312037000745,34.03312037000745 0 0,0 0.10779468402379369,0.5758435123723364 l -12.830765754850677 2.287723043389284" fill="#ff790b" stroke="none" /><path d="M 120.67395015179393 96.31383870115 l 19.069837876505446 -3.400148391555372 a40.370589193950664,40.370589193950664 0 0,0 0.11609070146449908,0.6851738915612895 l -19.125540439490166 3.0713887116782446" fill="#ffd113" stroke="none" /><path d="M 120.78858239683441 97.02765380044208 l 16.782440172952086 -2.399549007967862 a37.95311574904022,37.95311574904022 0 0,0 0.08690179302070962,0.6475192968751348 l -16.821257965030632 2.1103113690280626" fill="#ffb010" stroke="none" /><path d="M 120.91429891909075 98.10471618934814 l 17.61057427276693 -1.5958955375257897 a38.68273759301243,38.68273759301243 0 0,0 0.05438703784327273,0.663659619003154 l -17.635435794429696 1.2925220013148668" fill="#ffba11" stroke="none" /><path d="M 120.96714384426684 98.82574320788733 l 35.22631727109062 -1.9728362920543672 a56.28151798773381,56.28151798773381 0 0,0 0.04584636647198522,0.9677443356080254 l -35.2550572457961 1.366180849823342" fill="#69ff28" stroke="none" /><line stroke="#e1ed5e" stroke-width="0.3" x1="184.98032266829074" x2="189.97916517819016" y1="98.17113171792111" y2="98.06355123074" /><path d="M 185.9800911702706 98.14961562048488 a86.0,86.0 0 0,1 -9.607161424134198,41.387399972396054" fill="none" id="id76" stroke="none" /><text fill="#e1ed5e" style="font-size:6.75px; font-family:Arial;" text-anchor="middle"><textPath startOffset="21.466115282336823" xlink:href="#id76">April</textPath></text><path d="M 120.99980553446 99.90962569577887 l 13.1864865730551 -0.05674907547146357 a34.18660868453028,34.18660868453028 0 0,0 -0.0025325809425344563,0.5884826196103473 l -13.185509694823063 -0.17024302234256847" fill="#ff7b0b" stroke="none" /><path d="M 120.9904718944345 100.63252640178507 l 19.49404442252056 0.5874330904435078 a40.50289326184587,40.50289326184587 0 0,0 -0.026997815191486467,0.6966936479972298 l -19.481044474477873 -0.9229039854547436" fill="#ffd313" stroke="none" /><path d="M 120.89721153311464 102.0752229133903 l 15.557579900707129 1.5449643238614335 a36.63410397588845,36.63410397588845 0 0,0 -0.06771674299595973,0.6269729387328236 l -15.528680856210118 -1.8125335844790484" fill="#ff9e0e" stroke="none" /><path d="M 120.76222939487914 103.15116336523771 l 13.365090624257354 2.028471179430721 a34.51814864248773,34.51814864248773 0 0,0 -0.09421522489922239,0.586678295382913 l -13.328193644996844 -2.258228704506839" fill="#ff800b" stroke="none" /><path d="M 120.64145759157962 103.86396538481128 l 18.652796800606293 3.49169921008208 a39.976796143142714,39.976796143142714 0 0,0 -0.13243754224269766,0.6752961746468096 l -18.58992932538793 -3.812259111796834" fill="#ffcc13" stroke="none" /><path d="M 120.41448212921028 104.9243191809786 l 13.339214710049685 3.2176447308404295 a34.72180333246003,34.72180333246003 0 0,0 -0.1451514990410496,0.579808085457736 l -13.281851896713574 -3.4467806556955614" fill="#ff820c" stroke="none" /><path d="M 120.32669344350535 105.2749913415812 l 13.346889331769129 3.4636585560658406 a34.78899508403352,34.78899508403352 0 0,0 -0.15541059766522097,0.5783406480736849 l -13.285290657762129 -3.6928901373150738" fill="#ff830c" stroke="none" /><path d="M 120.23288151984713 105.62410040840565 l 12.520464220528531 3.480292605234165 a33.99517067666226,33.99517067666226 0 0,0 -0.16156992113545982,0.562446091454864 l -12.458701662506972 -3.695296172193611" fill="#ff780b" stroke="none" /><path d="M 120.13307415673323 105.97154293290107 l 22.696168456151934 6.731766013137141 a44.67346058871948,44.67346058871948 0 0,0 -0.22501219570423528,0.7353528746799535 l -22.576929487941566 -7.1214458603691515" fill="#f4ff19" stroke="none" /><path d="M 119.79798401119884 107.00284435728193 l 10.224522295753372 3.6165671325029045 a31.84529455571669,31.84529455571669 0 0,0 -0.18724387041777849,0.515214713347305 l -10.160754164330367 -3.7920296428563405" fill="#ff5908" stroke="none" /><path d="M 119.54520255179757 107.68017299344265 l 14.760297689618081 5.799972621954376 a36.858942912488374,36.858942912488374 0 0,0 -0.23712127755777107,0.5885155647239524 l -14.658273797802918 -6.053187554521142" fill="#ffa10e" stroke="none" /><path d="M 119.26925614724726 108.34839909993367 l 18.316142554708176 7.935462938969065 a40.96127877016258,40.96127877016258 0 0,0 -0.28586859926547464,0.6445582242374752 l -18.17683287071143 -8.249569499699229" fill="#ffd914" stroke="none" /><path d="M 119.12269723197855 108.67885076344098 l 18.223106336773338 8.270570747660571 a41.01209496912823,41.01209496912823 0 0,0 -0.2972896128988938,0.6403353780586654 l -18.078042107034612 -8.583026192998068" fill="#ffda14" stroke="none" /><line stroke="#e1ed5e" stroke-width="0.3" x1="174.80103733775053" x2="179.2010983576182" y1="140.37084112569926" y2="142.7455964860345" /><path d="M 175.68104954172406 140.8457921977663 a86.0,86.0 0 0,1 -30.038265399797805,32.042727171017184" fill="none" id="id77" stroke="none" /><text fill="#e1ed5e" style="font-size:6.75px; font-family:Arial;" text-anchor="middle"><textPath startOffset="22.206326154141568" xlink:href="#id77">May</textPath></text><path d="M 118.48025628344425 109.97397251340804 l 31.14641068483615 16.810018178166555 a56.39315766781435,56.39315766781435 0 0,0 -0.46839509727558637,0.8502731561081383 l -30.852439178109055 -17.343661852672497" fill="#68ff28" stroke="none" /><path d="M 118.30583269289576 110.29060199501025 l 4.373147937656978 2.45835989253811 a26.016767509649362,26.016767509649362 0 0,0 -0.22281255729419358,0.38849247456877267 l -4.330183384210406 -2.5332722129651972" fill="#ff0000" stroke="none" /><path d="M 118.12598468904814 110.60418214915192 l 18.52967595625137 10.840352255376917 a42.46769964538203,42.46769964538203 0 0,0 -0.3745633399727793,0.6277897026374397 l -18.340331740580364 -11.157704051900462" fill="#ffed16" stroke="none" /><path d="M 117.94076556474637 110.91462005526583 l 17.231235816977428 10.482963580693522 a41.16948222474817,41.16948222474817 0 0,0 -0.37353533954170426,0.6022579035826094 l -17.04823583776776 -10.778017815641405" fill="#ffdc14" stroke="none" /><path d="M 117.55443506779139 111.5257021239791 l 11.964068855550579 7.855239618212375 a35.31236294396871,35.31236294396871 0 0,0 -0.3379845377308209,0.5052410255633026 l -11.827081212409038 -8.060017557981485" fill="#ff8b0c" stroke="none" /><path d="M 116.93607887273984 112.41649034213515 l 15.062180549822113 11.042663460276321 a39.67644771396213,39.67644771396213 0 0,0 -0.40855165693836104,0.5473217090265197 l -14.86986762618866 -11.300298048812156" fill="#ffc812" stroke="none" /><path d="M 116.71984013943494 112.70617746262583 l 16.762541099095582 12.738627890784704 a42.053632100869116,42.053632100869116 0 0,0 -0.44295127294912606,0.5725742307192289 l -16.54078300892839 -13.025280115617186" fill="#ffe815" stroke="none" /><path d="M 116.498646956653 112.99209946851258 l 21.962549341167588 17.29472885699289 a48.95462787804773,48.95462787804773 0 0,0 -0.527036404059366,0.6575589496157861 l -21.661595025053366 -17.670215640186925" fill="#bfff1e" stroke="none" /><path d="M 116.0416608686014 113.55231037782055 l 10.937320052968325 9.240062938215614 a35.3179514262079,35.3179514262079 0 0,0 -0.3963304666762518,0.4610218712678266 l -10.776647076721295 -9.426961908644968" fill="#ff8b0c" stroke="none" /><path d="M 115.80600337817218 113.82643327865902 l 10.597538435396443 9.270285130862595 a35.079986054581056,35.079986054581056 0 0,0 -0.4014840096513458,0.4510715409460512 l -10.436395576096759 -9.451330841549513" fill="#ff880c" stroke="none" /><path d="M 115.32070863581623 114.36230785411682 l 14.000069600716316 13.124282587979494 a40.189808291748065,40.189808291748065 0 0,0 -0.4774806604822149,0.5006365635730781 l -13.772082388855136 -13.36332626813508" fill="#ffcf13" stroke="none" /><path d="M 115.07121518719521 114.62390073753431 l 14.925585462953853 14.482593311073483 a41.797081776679384,41.797081776679384 0 0,0 -0.5054647982146743,0.5120331719484905 l -14.674080039683643 -14.737366977002637" fill="#ffe415" stroke="none" /><path d="M 114.81725581225074 114.88116024355365 l 9.026492739241844 9.06542254463025 a33.79294559842557,33.79294559842557 0 0,0 -0.41573376689121144,0.4068829912621442 l -8.86910901997484 -9.219455638814965" fill="#ff750a" stroke="none" /><path d="M 114.29624159901734 115.38237550388516 l 9.834076069511593 10.581204142870394 a35.445446800083346,35.445446800083346 0 0,0 -0.45049551049002623,0.4115169676871798 l -9.650481009554701 -10.748913877144158" fill="#ff8d0d" stroke="none" /><path d="M 113.75828350139079 115.86535959552629 l 17.662765192738703 20.367811232107357 a47.95961811006566,47.95961811006566 0 0,0 -0.6283498415361776,0.5354933667158214 l -17.30954987462548 -20.668828989046126" fill="#cbff1d" stroke="none" /><path d="M 112.92097659922987 116.55440617244103 l 9.946401442310787 12.743368751242844 a37.16552964742432,37.16552964742432 0 0,0 -0.5077010831509224,0.3892835410753235 l -9.725571630666371 -12.912691634145538" fill="#ffa50f" stroke="none" /><path d="M 112.34349029814194 116.9893568818739 l 9.18262052960504 12.638792879495806 a36.62240715259713,36.62240715259713 0 0,0 -0.5131892196857561,0.3661468822269083 l -8.9637039820704 -12.794984023566935" fill="#ff9d0e" stroke="none" /><path d="M 111.7513745106137 117.40417183066458 l 8.770203860628849 12.988960129087994 a36.67257352804659,36.67257352804659 0 0,0 -0.5262082983961646,0.3487421669154778 l -8.545320863492721 -13.138000317094791" fill="#ff9e0e" stroke="none" /><path d="M 111.45004920935366 117.60387380957326 l 8.545816897575236 13.138762944506619 a36.67348328096925,36.67348328096925 0 0,0 -0.5321465589542369,0.33964111156760957 l -8.318388536574068 -13.283918484898038" fill="#ff9e0e" stroke="none" /><line stroke="#e1ed5e" stroke-width="0.3" x1="143.8653032363475" x2="146.44561519142675" y1="172.8068346515853" y2="177.08958963109032" /><path d="M 144.38136562736335 173.6633856474863 a86.0,86.0 0 0,1 -40.68145358897372,12.25698825130547" fill="none" id="id78" stroke="none" /><text fill="#e1ed5e" style="font-size:6.75px; font-family:Arial;" text-anchor="middle"><textPath startOffset="21.466115282336833" xlink:href="#id78">June</textPath></text><path d="M 110.8373102113329 117.98757091392108 l 17.67848426560925 29.34242751912271 a55.256486373304014,55.256486373304014 0 0,0 -0.8189330425454572,0.4838400763978151 l -17.17078335203541 -29.642386167814276" fill="#75ff27" stroke="none" /><path d="M 110.21172684928248 118.3499491758327 l 7.00553023273768 12.588578368557544 a35.406587353815496,35.406587353815496 0 0,0 -0.5351068159848107,0.291782901469622 l -6.787800604884221 -12.707301921786936" fill="#ff8c0c" stroke="none" /><path d="M 109.57404056367764 118.69057910512821 l 7.841854331362181 15.308980334517852 a38.20056854400337,38.20056854400337 0 0,0 -0.5878268785376928,0.29474859998462205 l -7.5771735451417275 -15.441696775411776" fill="#ffb310" stroke="none" /><path d="M 109.2508944713604 118.85261126421891 l 5.728338161960557 11.67391249481538 a34.003618382372665,34.003618382372665 0 0,0 -0.5276832606176033,0.25332003235538814 l -5.52654223334272 -11.770786803670326" fill="#ff780b" stroke="none" /><path d="M 108.59647513512805 119.15986991738527 l 15.043773851162904 33.52964389753335 a57.74985920490483,57.74985920490483 0 0,0 -0.9104659249604571,0.3991215053755342 l -14.464387251544693 -33.783629956203335" fill="#59ff2a" stroke="none" /><path d="M 105.53697534728816 120.25689768951611 l 3.4961118468422145 12.790445243227177 a34.259648847749446,34.259648847749446 0 0,0 -0.5701940332481191,0.15059342659375122 l -3.275427370782598 -12.848730019124513" fill="#ff7c0b" stroke="none" /><path d="M 105.18746579009965 120.34920634021253 l 4.816363052652955 18.893457717805607 a40.497694673716396,40.497694673716396 0 0,0 -0.6769801281276426,0.16638524464908866 l -4.490429639782101 -18.973564220768726" fill="#ffd313" stroke="none" /><path d="M 104.48393922423573 120.51570834832081 l 3.0554338342546203 13.979758932134887 a35.30976364990397,35.30976364990397 0 0,0 -0.5948998035355522,0.12466703793332169 l -2.8143425692896904 -14.030281950794748" fill="#ff8b0c" stroke="none" /><path d="M 104.13013068566511 120.58985236759428 l 3.43727833747605 17.135790342083236 a38.47713343249159,38.47713343249159 0 0,0 -0.650506117475253,0.12467104563174053 l -3.1418046054290922 -17.192418586063447" fill="#ffb711" stroke="none" /><path d="M 103.7750983002368 120.6578951692458 l 2.3385973377378555 12.797149849855682 a34.009076899908614,34.009076899908614 0 0,0 -0.576779415104219,0.10028049451575018 l -2.1179689511615862 -12.835508922892439" fill="#ff780b" stroke="none" /><path d="M 103.06178313531738 120.77559828337769 l 1.0254115716097256 6.957886285660255 a28.03303991566735,28.03303991566735 0 0,0 -0.4779919093294678,0.06624532316086704 l -0.9054910710934274 -6.974506174313725" fill="#ff1f03" stroke="none" /><path d="M 102.34483914955558 120.86867818915974 l 2.0425840056145614 18.178657711158543 a39.29305183941314,39.29305183941314 0 0,0 -0.6727857438732967,0.06973699320740721 l -1.7293656651356621 -18.211124072821708" fill="#ffc212" stroke="none" /><path d="M 101.62511606390274 120.93702456842531 l 1.121241477422666 14.445405396805509 a35.488855010964485,35.488855010964485 0 0,0 -0.6094572711557645,0.042031741683057885 l -0.8724214454879711 -14.462565483004852" fill="#ff8d0d" stroke="none" /><path d="M 101.26447882468166 120.96189622390904 l 3.7934364740449884 62.885688671727095 a84.0,84.0 0 0,0 -1.4440477263460816,0.07464077295119242 l -2.7104006792854274 -62.94166925144049" fill="#4dd2ff" stroke="none" /><line stroke="#e1ed5e" stroke-width="0.3" x1="102.19456741930631" x2="102.32365962044197" y1="184.97166512339345" y2="189.96999836594603" /><path d="M 102.22038585953345 185.97133177190398 a86.0,86.0 0 0,1 -42.740103519485714,-10.115201625700543" fill="none" id="id79" stroke="none" /><text fill="#e1ed5e" style="font-size:6.75px; font-family:Arial;" text-anchor="middle"><textPath startOffset="22.20632615414155" xlink:href="#id79">July</textPath></text><line stroke="#e1ed5e" stroke-width="0.3" x1="58.666819895761336" x2="56.23545636021788" y1="174.27360380694188" y2="178.64263932499728" /><path d="M 58.180547188652646 175.14741091055294 a86.0,86.0 0 0,1 -31.652253787137756,-30.449443065178592" fill="none" id="id80" stroke="none" /><text fill="#e1ed5e" style="font-size:6.75px; font-family:Arial;" text-anchor="middle"><textPath startOffset="22.20632615414155" xlink:href="#id80">August</textPath></text><line stroke="#e1ed5e" stroke-width="0.3" x1="26.63291911575756" x2="22.317208475507996" y1="142.92168965132927" y2="145.44649492493687" /><path d="M 25.769776987707644 143.4266507060508 a86.0,86.0 0 0,1 -11.730757126820373,-40.83630448921669" fill="none" id="id81" stroke="none" /><text fill="#e1ed5e" style="font-size:6.75px; font-family:Arial;" text-anchor="middle"><textPath startOffset="21.46611528233685" xlink:href="#id81">September</textPath></text><line stroke="#e1ed5e" stroke-width="0.3" x1="15.007084014347285" x2="10.007500721073583" y1="101.09737516637583" y2="101.16192664675087" /><path d="M 14.007167355692545 101.11028546245083 a86.0,86.0 0 0,1 10.666146001902534,-42.60595125391555" fill="none" id="id82" stroke="none" /><text fill="#e1ed5e" style="font-size:6.75px; font-family:Arial;" text-anchor="middle"><textPath startOffset="22.20632615414155" xlink:href="#id82">October</textPath></text><line stroke="#e1ed5e" stroke-width="0.3" x1="26.266209847984243" x2="21.928928074336255" y1="57.711370442889674" y2="55.22380399835377" /><path d="M 25.398753493254645 57.213857153982495 a86.0,86.0 0 0,1 29.58750427330803,-30.492523968695096" fill="none" id="id83" stroke="none" /><text fill="#e1ed5e" style="font-size:6.75px; font-family:Arial;" text-anchor="middle"><textPath startOffset="21.46611528233685" xlink:href="#id83">November</textPath></text><line stroke="#e1ed5e" stroke-width="0.3" x1="56.762969772571076" x2="54.21961505331055" y1="26.818313649435495" y2="22.513508569990535" /><path d="M 56.25429882871897 25.957352633546506 a86.0,86.0 0 0,1 42.265352541879196,-11.944610805530505" fill="none" id="id84" stroke="none" /><text fill="#e1ed5e" style="font-size:6.75px; font-family:Arial;" text-anchor="middle"><textPath startOffset="22.20632615414155" xlink:href="#id84">December</textPath></text></svg>