<?xml version="1.0" encoding="utf-8" ?>
<svg baseProfile="full" height="200mm" version="1.1" viewBox="0,0,200,200" width="200mm" xmlns="http://www.w3.org/2000/svg" xmlns:ev="http://www.w3.org/2001/xml-events" xmlns:xlink="http://www.w3.org/1999/xlink"><defs /><rect fill="#1a1a1a" height="200" width="200" x="0" y="0" /><text alignment-baseline="middle" fill="#e1ed5e" style="dominant-baseline: central; font-size:9.0px; font-family:Arial;" text-anchor="middle" x="100.0" y="100.0">2025</text><line stroke="#e1ed5e" stroke-width="0.3" x1="100.0" x2="100.0" y1="15.0" y2="10.0" /><path d="M 100.0 14.0 a86.0,86.0 0 0,1 42.46469731375804,11.215312516191453" fill="none" id="id73" stroke="none" /><text fill="#e1ed5e" style="font-size:6.75px; font-family:Arial;" text-anchor="middle"><textPath startOffset="22.20632615414155" xlink:href="#id73">January</textPath></text><path d="M 100.0 79.0 l 0.0 -16.881059037626997 a37.881059037627,37.881059037627 0 0,0 0.6520601607748738,0.005612487666529056 l -0.2905796815023454 16.878557926569027" fill="#ff0000" stroke="none" /><path d="M 100.72285384407766 79.0124445844662 l 0.8789554863215638 -25.519857337826366 a46.53498935362897,46.53498935362897 0 0,0 0.8003113342727599,0.034463089553396324 l -1.3181076529836553 25.500946521748777" fill="#ffa10e" stroke="none" /><path d="M 101.08401301168833 79.027996857942 l 1.8253799306504301 -35.31495768803288 a56.362101866246206,56.362101866246206 0 0,0 0.9684564457385413,0.05841993754678294 l -2.4329984252285835 35.278304481105785" fill="#bbff1f" stroke="none" /><path d="M 102.16513564639614 79.11191278185805 l 2.3936340512748817 -23.09251935996092 a44.216242899349425,44.216242899349425 0 0,0 0.7563784140546665,0.08498792789259792 l -2.790779168839274 23.047895478597724" fill="#ff780b" stroke="none" /><path d="M 103.95276090670814 79.375362276772 l 9.695253739571662 -50.58770331240838 a72.50838447766472,72.50838447766472 0 0,0 1.223781288293184,0.2454790136949865 l -10.564601437331971 50.41332034263618" fill="#3aff91" stroke="none" /><path d="M 104.66035177308747 79.52364482259891 l 5.196219949255 -22.830818453507614 a44.41467430945943,44.41467430945943 0 0,0 0.7440014463496173,0.17608110462830664 l -5.588445082567141 22.737991436738437" fill="#ff7b0b" stroke="none" /><path d="M 105.71112130821622 79.79150937346287 l 7.182841591403574 -25.416092416555045 a47.41156881092193,47.41156881092193 0 0,0 0.78344181764137,0.2287081499586795 l -7.61927362676837 25.288685937677663" fill="#ffb110" stroke="none" /><path d="M 106.0581310904928 79.89281104454417 l 15.849417471728284 -52.60487552639282 a75.94066766376622,75.94066766376622 0 0,0 1.2483728230307747,0.3878755128831855 l -16.752575667469777 52.32425987862711" fill="#40ffc3" stroke="none" /><path d="M 106.40334571778207 80.00007090966166 l 10.62732142252264 -33.192909494242635 a55.852678538536914,55.852678538536914 0 0,0 0.9131039983834282,0.3010360320915752 l -11.197108243148485 33.00505973789183" fill="#c3ff1e" stroke="none" /><path d="M 107.08798089147638 80.2323363322302 l 7.846196976436229 -21.882251839558375 a44.24641375702697,44.24641375702697 0 0,0 0.7147221698839508,0.2632382069567728 l -8.221701472092755 21.74395036479528" fill="#ff780b" stroke="none" /><path d="M 107.76421540070413 80.48803036053334 l 17.39770711819719 -43.72155015892664 a68.05586213502104,68.05586213502104 0 0,0 1.0847330869362108,0.44248986218706066 l -18.14772407472179 43.415599410556" fill="#32ff4d" stroke="none" /><path d="M 108.09893153111575 80.62456947434976 l 9.233540957378764 -22.08980661684784 a44.94196806825466,44.94196806825466 0 0,0 0.7111879021880968,0.3044935443348788 l -9.612412617357178 21.92759354455017" fill="#ff850c" stroke="none" /><path d="M 109.41281617654863 81.2277094730956 l 13.046917621916254 -26.01989919758584 a50.10768306969136,50.10768306969136 0 0,0 0.767696262804746,0.3932438432932097 l -13.492874372309755 25.79146282898013" fill="#ffdf14" stroke="none" /><path d="M 109.73455568895987 81.39251694778311 l 20.706272873839584 -39.57978503441247 a65.66888312568612,65.66888312568612 0 0,0 0.9970880320751629,0.5326098953892539 l -21.384505952443057 39.21749641252146" fill="#37ff2e" stroke="none" /><line stroke="#e1ed5e" stroke-width="0.3" x1="143.23703022742887" x2="145.7803849466894" y1="26.81831364943548" y2="22.513508569990506" /><path d="M 143.74570117128098 25.957352633546492 a86.0,86.0 0 0,1 28.547481713284135,27.462654790039103" fill="none" id="id74" stroke="none" /><text fill="#e1ed5e" style="font-size:6.75px; font-family:Arial;" text-anchor="middle"><textPath startOffset="19.985693538727396" xlink:href="#id74">February</textPath></text><path d="M 110.68208982089419 81.91981866633111 l 22.847254494875322 -38.67057019459216 a65.9155879080802,65.9155879080802 0 0,0 0.9719031639956014,0.5855607816086241 l -23.509519725088563 38.271562803524915" fill="#34ff2f" stroke="none" /><path d="M 110.99172775467656 82.1063720568725 l 20.83510109526222 -33.917829432907105 a60.80603711862783,60.80603711862783 0 0,0 0.8871335806328009,0.5555229668064688 l -21.415853828267288 33.55416212477769" fill="#79ff26" stroke="none" /><path d="M 111.2981086023043 82.29822771554956 l 16.36742801385637 -25.644335152197804 a51.42243621387048,51.42243621387048 0 0,0 0.7420330374908244,0.48263892857580565 l -16.80642807713147 25.35879729946247" fill="#fff517" stroke="none" /><path d="M 111.90073688211348 82.69761687909136 l 25.18622652218385 -36.61804684647596 a65.44353002718692,65.44353002718692 0 0,0 0.922656731274874,0.6463800033653371 l -25.812814393042377 36.17908200034669" fill="#3aff2e" stroke="none" /><path d="M 113.06298171725822 83.55741782278167 l 39.188945151774654 -49.32774653165496 a84.0,84.0 0 0,0 1.1243864057420354,0.9091756109434814 l -40.032234956081176 48.64586482344735" fill="#4dd2ff" stroke="none" /><line stroke="#e1ed5e" stroke-width="0.3" x1="172.23445277983987" x2="176.4835382374775" y1="55.19839476539836" y2="52.563006222186495" /><path d="M 173.08426987136738 54.67131705675599 a86.0,86.0 0 0,1 12.851231095245387,41.99856678651699" fill="none" id="id75" stroke="none" /><text fill="#e1ed5e" style="font-size:6.75px; font-family:Arial;" text-anchor="middle"><textPath startOffset="22.20632615414155" xlink:href="#id75">March</textPath></text><line stroke="#e1ed5e" stroke-width="0.3" x1="184.98032266829074" x2="189.97916517819016" y1="98.17113171792111" y2="98.06355123074" /><path d="M 185.9800911702706 98.14961562048488 a86.0,86.0 0 0,1 -9.607161424134198,41.387399972396054" fill="none" id="id76" stroke="none" /><text fill="#e1ed5e" style="font-size:6.75px; font-family:Arial;" text-anchor="middle"><textPath startOffset="21.466115282336823" xlink:href="#id76">April</textPath></text><line stroke="#e1ed5e" stroke-width="0.3" x1="174.80103733775053" x2="179.2010983576182" y1="140.37084112569926" y2="142.7455964860345" /><path d="M 175.68104954172406 140.8457921977663 a86.0,86.0 0 0,1 -30.038265399797805,32.042727171017184" fill="none" id="id77" stroke="none" /><text fill="#e1ed5e" style="font-size:6.75px; font-family:Arial;" text-anchor="middle"><textPath startOffset="22.206326154141568" xlink:href="#id77">May</textPath></text><line stroke="#e1ed5e" stroke-width="0.3" x1="143.8653032363475" x2="146.44561519142675" y1="172.8068346515853" y2="177.08958963109032" /><path d="M 144.38136562736335 173.6633856474863 a86.0,86.0 0 0,1 -40.68145358897372,12.25698825130547" fill="none" id="id78" stroke="none" /><text fill="#e1ed5e" style="font-size:6.75px; font-family:Arial;" text-anchor="middle"><textPath startOffset="21.466115282336833" xlink:href="#id78">June</textPath></text><line stroke="#e1ed5e" stroke-width="0.3" x1="102.19456741930631" x2="102.32365962044197" y1="184.97166512339345" y2="189.96999836594603" /><path d="M 102.22038585953345 185.97133177190398 a86.0,86.0 0 0,1 -42.740103519485714,-10.115201625700543" fill="none" id="id79" stroke="none" /><text fill="#e1ed5e" style="font-size:6.75px; font-family:Arial;" text-anchor="middle"><textPath startOffset="22.20632615414155" xlink:href="#id79">July</textPath></text><line stroke="#e1ed5e" stroke-width="0.3" x1="58.666819895761336" x2="56.23545636021788" y1="174.27360380694188" y2="178.64263932499728" /><path d="M 58.180547188652646 175.14741091055294 a86.0,86.0 0 0,1 -31.652253787137756,-30.449443065178592" fill="none" id="id80" stroke="none" /><text fill="#e1ed5e" style="font-size:6.75px; font-family:Arial;" text-anchor="middle"><textPath startOffset="22.20632615414155" xlink:href="#id80">August</textPath></text><line stroke="#e1ed5e" stroke-width="0.3" x1="26.63291911575756" x2="22.317208475507996" y1="142.92168965132927" y2="145.44649492493687" /><path d="M 25.769776987707644 143.4266507060508 a86.0,86.0 0 0,1 -11.730757126820373,-40.83630448921669" fill="none" id="id81" stroke="none" /><text fill="#e1ed5e" style="font-size:6.75px; font-family:Arial;" text-anchor="middle"><textPath startOffset="21.46611528233685" xlink:href="#id81">September</textPath></text><line stroke="#e1ed5e" stroke-width="0.3" x1="15.007084014347285" x2="10.007500721073583" y1="101.09737516637583" y2="101.16192664675087" /><path d="M 14.007167355692545 101.11028546245083 a86.0,86.0 0 0,1 10.666146001902534,-42.60595125391555" fill="none" id="id82" stroke="none" /><text fill="#e1ed5e" style="font-size:6.75px; font-family:Arial;" text-anchor="middle"><textPath startOffset="22.20632615414155" xlink:href="#id82">October</textPath></text><line stroke="#e1ed5e" stroke-width="0.3" x1="26.266209847984243" x2="21.928928074336255" y1="57.711370442889674" y2="55.22380399835377" /><path d="M 25.398753493254645 57.213857153982495 a86.0,86.0 0 0,1 29.58750427330803,-30.492523968695096" fill="none" id="id83" stroke="none" /><text fill="#e1ed5e" style="font-size:6.75px; font-family:Arial;" text-anchor="middle"><textPath startOffset="21.46611528233685" xlink:href="#id83">November</textPath></text><line stroke="#e1ed5e" stroke-width="0.3" x1="56.762969772571076" x2="54.21961505331055" y1="26.818313649435495" y2="22.513508569990535" /><path d="M 56.25429882871897 25.957352633546506 a86.0,86.0 0 0,1 42.265352541879196,-11.944610805530505" fill="none" id="id84" stroke="none" /><text fill="#e1ed5e" style="font-size:6.75px; font-family:Arial;" text-anchor="middle"><textPath startOffset="22.20632615414155" xlink:href="#id84">December</textPath></text></svg>