<?xml version="1.0" encoding="utf-8" ?>
<svg baseProfile="full" height="200mm" version="1.1" viewBox="0,0,200,200" width="200mm" xmlns="http://www.w3.org/2000/svg" xmlns:ev="http://www.w3.org/2001/xml-events" xmlns:xlink="http://www.w3.org/1999/xlink"><defs /><rect fill="#1a1a1a" height="200" width="200" x="0" y="0" /><text alignment-baseline="middle" fill="#e1ed5e" style="dominant-baseline: central; font-size:9.0px; font-family:Arial;" text-anchor="middle" x="100.0" y="100.0">2024</text><line stroke="#e1ed5e" stroke-width="0.3" x1="100.0" x2="100.0" y1="15.0" y2="10.0" /><path d="M 100.0 14.0 a86.0,86.0 0 0,1 42.35913384403234,11.155469271406648" fill="none" id="id61" stroke="none" /><text fill="#e1ed5e" style="font-size:6.75px; font-family:Arial;" text-anchor="middle"><textPath startOffset="22.145653131862478" xlink:href="#id61">January</textPath></text><path d="M 100.0 79.0 l 0.0 -11.061029306354833 a32.06102930635483,32.06102930635483 0 0,0 0.550370201348224,0.004724266247490912 l -0.1898772764993692 11.059399438301776" fill="#ff7f0b" stroke="none" /><path d="M 100.72087961077811 79.0123766808444 l 0.5449595337330786 -15.865902221630401 a36.875258555366685,36.875258555366685 0 0,0 0.6324532477536524,0.02716026373737748 l -0.8172385420875673 15.854209389467194" fill="#ffbf11" stroke="none" /><path d="M 101.44090949804482 79.04949213459386 l 1.4554502044930646 -21.161926545917286 a42.21191812242725,42.21191812242725 0 0,0 0.7224891506290269,0.05592522959942326 l -1.8185083498973251 21.13382354932281" fill="#fbff18" stroke="none" /><path d="M 102.51750503828377 79.15144685158666 l 1.4954404761858808 -12.384392394028469 a33.47435437956952,33.47435437956952 0 0,0 0.5698963851706291,0.07378449678345343 l -1.7078146832473016 12.356896301044618" fill="#ff920d" stroke="none" /><path d="M 103.58742460773223 79.30868818359171 l 2.4147836737787562 -13.92783052656634 a35.13561612975896,35.13561612975896 0 0,0 0.5933991741194694,0.10813709669108923 l -2.6535175814492793 13.884325255943885" fill="#ffa80f" stroke="none" /><path d="M 104.29559338865022 79.4440306129975 l 4.860572696853515 -23.259599901567157 a44.76203178439042,44.76203178439042 0 0,0 0.7508033287119614,0.16363409100284704 l -5.259138442184611 23.172734352430588" fill="#dcff1b" stroke="none" /><path d="M 104.64783097203109 79.52079915486377 l 3.5598564484832873 -15.685384349612931 a37.084273689815475,37.084273689815475 0 0,0 0.6196037733174383,0.1462248034093079 l -3.8285923755406106 15.621963402557396" fill="#ffc212" stroke="none" /><path d="M 106.04205211174951 79.88797359093562 l 6.671945541368396 -22.208736774530443 a44.18928300804849,44.18928300804849 0 0,0 0.7246187395480003,0.22448873779411335 l -7.052204913788027 22.09093144892968" fill="#e3ff1b" stroke="none" /><path d="M 106.72888874123014 80.10723608172694 l 4.292631106295822 -12.690401115202148 a34.39675193020541,34.39675193020541 0 0,0 0.5577093091730627,0.19400024824585194 l -4.509846187513903 12.614842434387706" fill="#ff9e0e" stroke="none" /><path d="M 108.4095320186766 80.7573450057729 l 9.311340616698164 -21.30616954937919 a44.25196604476847,44.25196604476847 0 0,0 0.693463282029571,0.31017730555497547 l -9.675717301583367 21.143188492914362" fill="#e2ff1b" stroke="none" /><path d="M 110.02825361518725 81.54914285379988 l 4.1208484463890755 -7.581897000522337 a29.629400561141942,29.629400561141942 0 0,0 0.444801939445281,0.24672413779001895 l -4.250394573990457 7.510039947299172" fill="#ff5d08" stroke="none" /><path d="M 110.34350942703115 81.72400993836675 l 3.5657029287484625 -6.30025541604287 a28.2392993917549,28.2392993917549 0 0,0 0.41983437964053233,0.2423914921005209 l -3.673329776249392 6.238117026666178" fill="#ff4906" stroke="none" /><line stroke="#e1ed5e" stroke-width="0.3" x1="143.13028292997686" x2="145.6673583964461" y1="26.7553504044142" y2="22.446841604673864" /><path d="M 143.63769802327073 25.89364864446614 a86.0,86.0 0 0,1 29.32050498858742,28.57503671076993" fill="none" id="id62" stroke="none" /><text fill="#e1ed5e" style="font-size:6.75px; font-family:Arial;" text-anchor="middle"><textPath startOffset="20.669276256404974" xlink:href="#id62">February</textPath></text><path d="M 111.5731344415666 82.4767994020092 l 12.869776298786707 -19.486481633266106 a44.35281799750149,44.35281799750149 0 0,0 0.6317186903052778,0.42504852754678385 l -13.202391277188987 19.262683431662204" fill="#e1ff1b" stroke="none" /><path d="M 112.7482090630111 83.31218511350987 l 12.591757686144705 -16.483015012015343 a41.74227917835712,41.74227917835712 0 0,0 0.5656875020200242,0.43988202310103763 l -12.872855132799955 16.264431937293516" fill="#fffd17" stroke="none" /><path d="M 113.31354834802062 83.75963576809568 l 12.871912845825072 -15.701640728153953 a41.303390403243974,41.303390403243974 0 0,0 0.5444685023690145,0.4542149893695515 l -13.13955568235598 15.478363554872532" fill="#fff717" stroke="none" /><path d="M 113.86319453409587 84.22622945171908 l 13.772413308752792 -15.670478178320185 a41.86248438427984,41.86248438427984 0 0,0 0.5357101722912524,0.47903533941568355 l -14.03938850786742 15.431747309021114" fill="#fffe18" stroke="none" /><path d="M 114.39649973595853 84.71141617570332 l 15.247319927095807 -16.192125383021292 a43.24108111982633,43.24108111982633 0 0,0 0.5360401503057513,0.513514338274147 l -15.523032563266872 15.927998914441567" fill="#efff19" stroke="none" /><path d="M 115.16444852881244 85.47280134310134 l 16.13813910715644 -15.459972205180247 a43.34838415695591,43.34838415695591 0 0,0 0.5101571553024374,0.5417692199809446 l -16.40115209619514 15.180661525254807" fill="#edff19" stroke="none" /><path d="M 116.1254893667686 86.54754324733833 l 17.581122817307715 -14.666797948499081 a43.895651149931396,43.895651149931396 0 0,0 0.47773765199563883,0.5827622563790332 l -17.83030728854198 14.362833410421553" fill="#e7ff1a" stroke="none" /><path d="M 116.57777611688842 87.10902102172516 l 10.285527378180852 -7.9980883007296 a34.029255155747606,34.029255155747606 0 0,0 0.35463024775910124,0.46422237810055156 l -10.42130960329426 7.820345009388166" fill="#ff990e" stroke="none" /><path d="M 117.01052211995028 87.68569379921539 l 22.168128869747814 -16.048015744347165 a48.36722029941223,48.36722029941223 0 0,0 0.4811039069820196,0.6767328954631274 l -22.440347875259796 15.665105622174533" fill="#b2ff20" stroke="none" /><path d="M 117.62189284568427 88.57770195909679 l 8.757354272939736 -5.676411236366861 a31.436134264473978,31.436134264473978 0 0,0 0.2896350392308991,0.4553543887722966 l -8.853507003796526 5.525243172915892" fill="#ff760a" stroke="none" /><line stroke="#e1ed5e" stroke-width="0.3" x1="172.87174338648825" x2="177.1583165268699" y1="56.24261187166439" y2="53.66864786411523" /><path d="M 173.72905801456457 55.72781907015455 a86.0,86.0 0 0,1 12.242430191666344,42.057860355516425" fill="none" id="id63" stroke="none" /><text fill="#e1ed5e" style="font-size:6.75px; font-family:Arial;" text-anchor="middle"><textPath startOffset="22.145653131862474" xlink:href="#id63">March</textPath></text><path d="M 118.18653347947321 89.5 l 54.55960043841963 -31.500000000000007 a84.0,84.0 0 0,0 0.7102665399144961,1.2549729196035277 l -55.092300343355504 30.558770310297362" fill="#4dd2ff" stroke="none" /><path d="M 120.16314734710363 94.1308016681162 l 10.769727947732083 -3.134910845887922 a32.21671547645866,32.21671547645866 0 0,0 0.1500094771282037,0.5323307137239198 l -10.821955916934868 2.9495722082609888" fill="#ff810b" stroke="none" /><path d="M 120.26092885502905 94.47779374421319 l 20.41404038193941 -5.563937483302947 a42.158696676155564,42.158696676155564 0 0,0 0.18431484906827306,0.6998735034067394 l -20.506544711812413 5.212683475523409" fill="#fcff18" stroke="none" /><path d="M 120.43855184770803 95.1765574152323 l 10.133468245450194 -2.391470913922746 a31.411835179913574,31.411835179913574 0 0,0 0.11934872694751852,0.5258725122487544 l -10.173027833955379 2.217164067734965" fill="#ff760a" stroke="none" /><path d="M 120.592083275326 95.88100663000786 l 14.02645636318912 -2.805684106458886 a35.304311986729196,35.304311986729196 0 0,0 0.11377017574140266,0.5952936341792578 l -14.072552831212679 2.564487907246314" fill="#ffaa0f" stroke="none" /><path d="M 120.7213421655516 96.59031103205396 l 20.626496480118753 -3.3940821465010833 a41.90387884249114,41.90387884249114 0 0,0 0.1107030796095394,0.7107931841242087 l -20.681721051866557 3.0395007804454335" fill="#ffff18" stroke="none" /><path d="M 120.82617615685814 97.30363454192243 l 11.005407235852655 -1.4248703026099252 a32.09726289704888,32.09726289704888 0 0,0 0.06605603519931222,0.547038730681206 l -11.028245357311631 1.2357378950053062" fill="#ff7f0b" stroke="none" /><path d="M 120.9064616781168 98.02013634271609 l 12.807664326698212 -1.2128991278167154 a33.86496753978169,33.86496753978169 0 0,0 0.04984016495777397,0.5792182653140948 l -12.826598114353727 0.9928598151269586" fill="#ff970d" stroke="none" /><path d="M 120.96210409425399 98.7389718711861 l 20.97487565617015 -1.261796434264201 a42.012794650719854,42.012794650719854 0 0,0 0.037128128152607937,0.7202757673014454 l -20.993445373779327 0.901548873586025" fill="#feff18" stroke="none" /><path d="M 120.99303781780057 99.45929381324524 l 21.440917093368242 -0.5522419681562193 a42.44802781134162,42.44802781134162 0 0,0 0.012509167791057827,0.7285963112204251 l -21.447237692757966 0.1840987409667278" fill="#f8ff18" stroke="none" /><line stroke="#e1ed5e" stroke-width="0.3" x1="184.99686870605535" x2="189.99668451229388" y1="99.2704041080226" y2="99.22748670261217" /><path d="M 185.99683186730306 99.26182062694052 a86.0,86.0 0 0,1 -10.086455211305974,41.156179273409016" fill="none" id="id64" stroke="none" /><text fill="#e1ed5e" style="font-size:6.75px; font-family:Arial;" text-anchor="middle"><textPath startOffset="21.40746469413373" xlink:href="#id64">April</textPath></text><path d="M 120.99303781780057 100.54070618675476 l 2.280562147586949 0.058739191210972895 a23.28131847877286,23.28131847877286 0 0,0 -0.01371969539528247,0.3994339619328414 l -2.279217765194821 -0.097879417707925" fill="#ff0100" stroke="none" /><path d="M 120.93736805541906 101.62068470465957 l 21.440874259500156 1.6596592692512366 a42.50501239017797,42.50501239017797 0 0,0 -0.06255599762704964,0.7269955157899443 l -21.409224639175367 -2.027475832416838" fill="#f8ff18" stroke="none" /><path d="M 120.9064616781168 101.97986365728391 l 21.328517108275186 2.0198327453292877 a42.42394376292777,42.42394376292777 0 0,0 -0.0748835284182894,0.7244302085861494 l -21.29070118737523 -2.3856674761983685" fill="#f9ff18" stroke="none" /><path d="M 120.7213421655516 103.40968896794604 l 13.894362459059327 2.286312055213196 a35.08121198468123,35.08121198468123 0 0,0 -0.10288013536524811,0.5933852814546924 l -13.853067506201844 -2.5244903695884764" fill="#ffa70f" stroke="none" /><path d="M 120.592083275326 104.11899336999214 l 20.93040678814892 4.186667547859307 a42.34502549714309,42.34502549714309 0 0,0 -0.14869614835047548,0.7115648984686518 l -20.85545292897408 -4.545348897613368" fill="#faff18" stroke="none" /><path d="M 120.51834098615036 104.47187691870673 l 16.444633625970255 3.584031359952658 a37.83066415449835,37.83066415449835 0 0,0 -0.14373695712327544,0.6333315543335986 l -16.380685807289314 -3.8657972482252734" fill="#ffcb13" stroke="none" /><path d="M 120.26092885502905 105.52220625578681 l 4.093969865206009 1.1158296918372383 a25.243308279915624,25.243308279915624 0 0,0 -0.11753946422078082,0.4171060927430618 l -4.074211908910648 -1.1859437084833087" fill="#ff1e03" stroke="none" /><path d="M 119.83427380445688 106.89939002012753 l 8.346569828052594 2.9033702540207758 a29.83712547871142,29.83712547871142 0 0,0 -0.17242992735590223,0.48231719533803297 l -8.295499730652748 -3.0462224057397305" fill="#ff6008" stroke="none" /><path d="M 119.4528033332814 107.91128576633889 l 17.72848794637453 7.2100217097709365 a40.13853959737041,40.13853959737041 0 0,0 -0.26505609905734173,0.6360381474528026 l -17.6021060027807 -7.513292366665016" fill="#ffe915" stroke="none" /><path d="M 119.16976305983485 108.57439118712176 l 10.058442870328363 4.49901355766962 a32.01877470355731,32.01877470355731 0 0,0 -0.2287292200875973,0.4998146249434141 l -9.97972918538571 -4.671017164827724" fill="#ff7e0b" stroke="none" /><path d="M 118.8641267826498 109.22738970284198 l 24.250538293577645 11.862153489359699 a47.9962829466096,47.9962829466096 0 0,0 -0.36838309765946603,0.7370129653729933 l -24.043335282706447 -12.276698310896437" fill="#b6ff1f" stroke="none" /><path d="M 118.5362547648365 109.86951160357373 l 11.926576093597054 6.350230002770431 a34.511796268610865,34.511796268610865 0 0,0 -0.2829222009890168,0.5205449836281768 l -11.815808542992698 -6.554029819873211" fill="#ffa00e" stroke="none" /><line stroke="#e1ed5e" stroke-width="0.3" x1="174.33088141563837" x2="178.70328620479359" y1="141.23008692659167" y2="143.65538615756765" /><path d="M 175.20536237346943 141.71514677278685 a86.0,86.0 0 0,1 -30.301960400862466,31.631185727798858" fill="none" id="id65" stroke="none" /><text fill="#e1ed5e" style="font-size:6.75px; font-family:Arial;" text-anchor="middle"><textPath startOffset="22.145653131862474" xlink:href="#id65">May</textPath></text><path d="M 118.36410011445183 110.18625677009912 l 11.720281675166802 6.501042676585305 a34.40255790616232,34.40255790616232 0 0,0 -0.29089268771687715,0.51397950639673 l -11.606955622428547 -6.701278953081158" fill="#ff9e0e" stroke="none" /><path d="M 117.81537515405839 111.11811171558189 l 18.281565237883527 11.409048807158303 a42.54952487251428,42.54952487251428 0 0,0 -0.39202763297884163,0.6163325531018367 l -18.083019913278797 -11.72119503493881" fill="#f7ff18" stroke="none" /><path d="M 117.62189284568427 111.42229804090321 l 7.64427960400731 4.954929683751496 a30.109683794466406,30.109683794466406 0 0,0 -0.28485992008500555,0.4313142258201803 l -7.558095245001578 -5.085423787910737" fill="#ff6309" stroke="none" /><path d="M 117.21940702142032 112.02048342749411 l 9.400955522922409 6.562597069999282 a32.46497470765324,32.46497470765324 0 0,0 -0.3229258591921651,0.4542356620670707 l -9.286914565200284 -6.723009958775857" fill="#ff840c" stroke="none" /><path d="M 116.35404254752997 113.17365903436017 l 18.222169292281766 14.678489702178524 a44.39883573286367,44.39883573286367 0 0,0 -0.483214053754651,0.5894425760745625 l -17.96750841928849 -14.98913455995158" fill="#e1ff1b" stroke="none" /><path d="M 116.1254893667686 113.45245675266167 l 17.819393938529192 14.865572192228122 a44.205948309406295,44.205948309406295 0 0,0 -0.4911184793289509,0.578536333749653 l -17.561580895693126 -15.16927530842733" fill="#e3ff1b" stroke="none" /><path d="M 115.41159269507618 114.26474011684316 l 10.65616837267476 9.86319035839128 a35.52020827786766,35.52020827786766 0 0,0 -0.41802915525466666,0.44393247652745393 l -10.485283383683832 -10.044664294863232" fill="#ffad10" stroke="none" /><path d="M 114.65682725009322 115.03919595460226 l 19.651296696821614 20.163961595689056 a49.155972884965905,49.155972884965905 0 0,0 -0.6093643917150141,0.5837573028827767 l -19.30225981924129 -20.498331028877413" fill="#a9ff21" stroke="none" /><path d="M 113.86319453409587 115.77377054828091 l 10.982682831126256 12.496276998541594 a37.63659403223494,37.63659403223494 0 0,0 -0.4889540554204067,0.4223468675114074 l -10.766549295942994 -12.68296799851772" fill="#ffc912" stroke="none" /><path d="M 113.59037401385872 116.0094264158162 l 7.088751220636739 8.35053111349867 a31.95361875115198,31.95361875115198 0 0,0 -0.4212181803202192,0.3513951871668453 l -6.944358706154626 -8.470988484577386" fill="#ff7d0b" stroke="none" /><path d="M 112.7482090630111 116.68781488649013 l 6.54080324511289 8.562121410457664 a31.77460115914723,31.77460115914723 0 0,0 -0.43629101299012396,0.32740090986258275 l -6.3928592432119995 -8.673141347584263" fill="#ff7b0b" stroke="none" /><path d="M 112.45986205192187 116.90419585922612 l 12.769514975389626 17.324299520476 a42.521892727682314,42.521892727682314 0 0,0 -0.5912952453011577,0.42805215820899073 l -12.470238719714501 -17.540952450058068" fill="#f7ff18" stroke="none" /><path d="M 111.8722381534696 117.32195027204791 l 6.631010568320049 9.67484258933066 a32.729146613692684,32.729146613692684 0 0,0 -0.46616234474156554,0.3136548297065677 l -6.46395193548148 -9.787247093094349" fill="#ff880c" stroke="none" /><path d="M 111.27062007382361 117.71928675628689 l 6.3887582249963195 10.044189074229987 a32.90386348276639,32.90386348276639 0 0,0 -0.47919913116362595,0.299055699260605 l -6.215394965042979 -10.15238057033214" fill="#ff8a0c" stroke="none" /><line stroke="#e1ed5e" stroke-width="0.3" x1="143.1302829299769" x2="145.66735839644613" y1="173.24464959558577" y2="177.55315839532614" /><path d="M 143.63769802327073 174.10635135553383 a86.0,86.0 0 0,1 -40.68552437913181,11.842963189579606" fill="none" id="id66" stroke="none" /><text fill="#e1ed5e" style="font-size:6.75px; font-family:Arial;" text-anchor="middle"><textPath startOffset="21.407464694133747" xlink:href="#id66">June</textPath></text><path d="M 110.65571695917076 118.09573695890943 l 14.949515457781096 25.38754552356367 a50.462102439124294,50.462102439124294 0 0,0 -0.750221355671179,0.4331405016485628 l -14.511501634249518 -25.640432922488404" fill="#9aff23" stroke="none" /><path d="M 110.34350942703117 118.27599006163325 l 6.8945255319367575 12.181965994255318 a34.99767044174568,34.99767044174568 0 0,0 -0.5253913813218092,0.2914257427037957 l -6.684389962458853 -12.298524652392258" fill="#ffa60f" stroke="none" /><path d="M 109.71004243097381 118.62028667847754 l 5.632208406108324 10.800502253227583 a33.18083003952569,33.18083003952569 0 0,0 -0.5073076803161876,0.2590349162797775 l -5.445973504078554 -10.895595121180197" fill="#ff8e0d" stroke="none" /><path d="M 109.06512990194946 118.94263497670748 l 4.503185754042917 9.409926266230332 a31.43194105961621,31.43194105961621 0 0,0 -0.4887087381376334,0.22874036579921075 l -4.340988302033777 -9.485842863600077" fill="#ff760a" stroke="none" /><path d="M 108.4095320186766 119.2426549942271 l 13.482307640624816 30.850158353449327 a54.66756435724672,54.66756435724672 0 0,0 -0.8631355650821965,0.368421247520306 l -12.950737000372188 -31.077054250629036" fill="#6cff28" stroke="none" /><path d="M 108.07796709384702 119.3841803445677 l 8.238107013707022 19.768457855340827 a42.416309979725156,42.416309979725156 0 0,0 -0.674511309071076,0.2743178773395076 l -7.897541243445505 -19.906962989259625" fill="#f9ff18" stroke="none" /><path d="M 107.407793817531 119.65005319985036 l 4.531582733173016 12.020561584157576 a33.846366913104916,33.846366913104916 0 0,0 -0.545427511451882,0.20028853716337305 l -4.324566070067007 -12.09658097032967" fill="#ff970d" stroke="none" /><path d="M 106.72888874123015 119.89276391827305 l 7.093727933972299 20.971346163939103 a43.13861639599418,43.13861639599418 0 0,0 -0.7035235830935549,0.2312621755167986 l -6.73268161323101 -21.09002926085792" fill="#f0ff19" stroke="none" /><path d="M 106.0420521117495 120.11202640906438 l 8.151492882091913 27.13366867510557 a49.33165741669909,49.33165741669909 0 0,0 -0.813126632733859,0.23668931215430358 l -7.684506236976447 -27.269601681562392" fill="#a7ff21" stroke="none" /><path d="M 105.69591212413111 120.21278271476187 l 5.74613003089632 20.39098834991117 a42.18514612218149,42.18514612218149 0 0,0 -0.6987037345515402,0.19043480984952227 l -5.395244895410085 -20.486623653904832" fill="#fcff18" stroke="none" /><path d="M 104.9986988182912 120.39639698878246 l 2.880248232143348 11.752395674264099 a33.1001914845686,33.1001914845686 0 0,0 -0.5530377569994369,0.13051540480812665 l -2.678078321404032 -11.80010722271845" fill="#ff8d0d" stroke="none" /><path d="M 104.29559338865022 120.5559693870025 l 2.2445440950330506 10.740956028842062 a31.972972004341685,31.972972004341685 0 0,0 -0.5382170462645264,0.10765848290040189 l -2.0598305632375653 -10.777903908405325" fill="#ff7d0b" stroke="none" /><path d="M 103.58742460773223 120.69131181640829 l 4.8086102755438445 27.734786230882968 a49.14855413790984,49.14855413790984 0 0,0 -0.8325355428223117,0.13699340675447738 l -4.33179722966846 -27.813245636133114" fill="#a9ff21" stroke="none" /><path d="M 103.2317021107853 120.74984581791261 l 3.4914084140624877 22.4173465856836 a43.68760367814209,43.68760367814209 0 0,0 -0.74201292515022,0.10905034737866691 l -3.106070383304582 -22.473978006361147" fill="#e9ff1a" stroke="none" /><path d="M 101.80034050326958 120.92268563240118 l 0.7422086140601379 8.625589146852159 a29.657462778267014,29.657462778267014 0 0,0 -0.5076100789908828,0.039292230464403256 l -0.5940295402940192 -8.637059144311614" fill="#ff5d08" stroke="none" /><path d="M 101.08105385017728 120.97215588758144 l 2.866013701143776 55.59990014047375 a76.67371848696472,76.67371848696472 0 0,0 -1.315042773235649,0.05647359496353473 l -1.9111451673072974 -55.64090630386312" fill="#44ffe5" stroke="none" /><line stroke="#e1ed5e" stroke-width="0.3" x1="101.45913802915013" x2="101.54496967792366" y1="184.9874750549273" y2="189.98673829345242" /><path d="M 101.47630435890484 185.9873277026323 a86.0,86.0 0 0,1 -42.54439059252881,-10.42667462771756" fill="none" id="id67" stroke="none" /><text fill="#e1ed5e" style="font-size:6.75px; font-family:Arial;" text-anchor="middle"><textPath startOffset="22.145653131862474" xlink:href="#id67">July</textPath></text><path d="M 100.0 121.0 l 1.593345642383861e-15 13.010654529070834 a34.010654529070834,34.010654529070834 0 0,0 -0.5838381108194574,-0.005011547998395539 l 0.22334518597060365 -13.008737379266874" fill="#ff990e" stroke="none" /><path d="M 99.27912038922189 120.98762331915562 l -0.7191855163805799 20.938301609190773 a41.95064920436626,41.95064920436626 0 0,0 -0.7195020556896975,-0.03089851409812397 l 1.078513332671116 -20.92287052666682" fill="#feff18" stroke="none" /><path d="M 98.55909050195518 120.95050786540614 l -2.36961873835472 34.45373639585106 a55.535127690511786,55.535127690511786 0 0,0 -0.9505260367183939,-0.07357672678880318 l 2.96071376984835 -34.407981902067206" fill="#63ff29" stroke="none" /><path d="M 98.19965949673042 120.92268563240118 l -0.722584390077153 8.397525917462948 a29.428556800262136,29.428556800262136 0 0,0 -0.5029486611696647,-0.04762976112651897 l 0.8666326146318329 -8.383884400831246" fill="#ff5a08" stroke="none" /><path d="M 97.48249496171623 120.84855314841334 l -1.861576625387628 15.416524941970412 a36.528512769051176,36.528512769051176 0 0,0 -0.62189302134672,-0.08051650234537115 l 2.1259474686251423 -15.382296843424644" fill="#ffba11" stroke="none" /><path d="M 96.76829788921471 120.74984581791261 l -3.3177414059586687 21.302279813351525 a42.55909398103586,42.55909398103586 0 0,0 -0.7209155799396862,-0.11862638433852116 l 3.6829344889514184 -21.242187430517337" fill="#f7ff18" stroke="none" /><path d="M 96.05791012581884 120.62667999033965 l -6.7565881680988005 35.353324357892156 a56.993180282209345,56.993180282209345 0 0,0 -0.9593947395489859,-0.1919058173265395 l 7.362479393178745 -35.23212914390275" fill="#54ff2b" stroke="none" /><path d="M 95.70440661134978 120.55596938700252 l -2.4515426254861374 11.731518931371639 a32.98493211001659,32.98493211001659 0 0,0 -0.5532634654482901,-0.12058119722115489 l 2.652568507553564 -11.687706276016765" fill="#ff8b0c" stroke="none" /><path d="M 95.00130118170881 120.39639698878247 l -3.1865694047872974 13.002290591007927 a34.38707530361056,34.38707530361056 0 0,0 -0.5721267663115158,-0.1454323867120726 l 3.4093014643241917 -12.94567297246059" fill="#ff9e0e" stroke="none" /><path d="M 94.30408787586889 120.21278271476187 l -5.837962892919348 20.716870780274196 a42.52372053492802,42.52372053492802 0 0,0 -0.7009123856879999,-0.20402538026721848 l 6.1927352909889555 -20.61360170570446" fill="#f7ff18" stroke="none" /><path d="M 93.61358852112213 120.00534299687104 l -11.259011021009096 35.268691662882645 a58.02223576153515,58.02223576153515 0 0,0 -0.9462522123413214,-0.3110518971537286 l 11.86278597099816 -35.070218844326895" fill="#49ff2c" stroke="none" /><path d="M 93.27111125876986 119.89276391827306 l -4.586121671259975 13.558053820662876 a35.31269839644473,35.31269839644473 0 0,0 -0.5725604751192592,-0.19916625468131124 l 4.818187918424257 -13.477329133412972" fill="#ffaa0f" stroke="none" /><path d="M 92.59220618246901 119.65005319985036 l -5.182869035547842 13.748175878674314 a35.69266726740257,35.69266726740257 0 0,0 -0.5714697505185747,-0.22105677606905122 l 5.418111048559945 -13.657179214467222" fill="#ffaf10" stroke="none" /><path d="M 91.92203290615298 119.3841803445677 l -8.246999080538087 19.78979557869213 a42.43942636547953,42.43942636547953 0 0,0 -0.6700678672704877,-0.2860121278394486 l 8.585502022979007 -19.645308801193277" fill="#f8ff18" stroke="none" /><path d="M 91.26138138417905 119.09545874513695 l -2.0993784498462316 4.58752079040151 a26.0450705523357,26.0450705523357 0 0,0 -0.4049528325405198,-0.18953837289616424 l 2.177819996258241 -4.550806185934819" fill="#ff2a04" stroke="none" /><path d="M 90.93487009805054 118.94263497670748 l -14.451780132449036 30.198662211530383 a54.47854758442728,54.47854758442728 0 0,0 -0.8401104414431153,-0.4109401153809151 l 14.96805082315422 -29.946128346052248" fill="#6eff28" stroke="none" /><path d="M 90.28995756902619 118.62028667847754 l -6.9515325067103415 13.330480175535214 a36.034144668127546,36.034144668127546 0 0,0 -0.5460222784268197,-0.2907261084351421 l 7.1793436009237235 -13.209183599377498" fill="#ffb410" stroke="none" /><line stroke="#e1ed5e" stroke-width="0.3" x1="58.13341422392154" x2="55.67067388415222" y1="173.97424548756322" y2="178.32567169271397" /><path d="M 57.64086615596768 174.84453072859336 a86.0,86.0 0 0,1 -31.369924170532247,-30.572349798747897" fill="none" id="id68" stroke="none" /><text fill="#e1ed5e" style="font-size:6.75px; font-family:Arial;" text-anchor="middle"><textPath startOffset="22.145653131862474" xlink:href="#id68">August</textPath></text><path d="M 89.65649057296885 118.27599006163327 l -10.539718147397888 18.622672070164825 a42.39835446148805,42.39835446148805 0 0,0 -0.6303374101524378,-0.3639254734318043 l 10.857848025410725 -18.43899969945685" fill="#f9ff18" stroke="none" /><path d="M 89.03521579738668 117.91015095944536 l -19.544853030434968 31.925048572486528 a58.43273976530341,58.43273976530341 0 0,0 -0.850991803491694,-0.5310818244604688 l 20.09000896271637 -31.58483095118451" fill="#45ff2d" stroke="none" /><path d="M 88.72937992617639 117.7192867562869 l -5.935027421373086 9.330848888250937 a32.0584488725962,32.0584488725962 0 0,0 -0.46181625673878196,-0.29934371811235705 l 6.094329310368877 -9.227591328434686" fill="#ff7e0b" stroke="none" /><path d="M 88.1277618465304 117.32195027204791 l -8.355960773726464 12.191596489780064 a35.78029449712261,35.78029449712261 0 0,0 -0.5036586044094168,-0.3515928219762126 l 8.564014469309646 -12.046358851998722" fill="#ffb110" stroke="none" /><path d="M 87.54013794807813 116.9041958592261 l -12.766644274615828 17.320404863542286 a42.517054414384894,42.517054414384894 0 0,0 -0.5837935981288663,-0.4380895996215911 l 13.062090861655461 -17.098696236656682" fill="#f7ff18" stroke="none" /><path d="M 87.2517909369889 116.68781488649013 l -3.949206094567522 5.169637549007617 a27.505488541645335,27.505488541645335 0 0,0 -0.37275183366199705,-0.28985408042487787 l 4.037367872864747 -5.101082416961946" fill="#ff3f05" stroke="none" /><path d="M 86.96720088162412 116.46651593811092 l -7.599107573353531 9.601224175673387 a33.24458825697843,33.24458825697843 0 0,0 -0.4444472639525335,-0.35801525506910564 l 7.762805607661326 -9.469360626810872" fill="#ff8f0d" stroke="none" /><path d="M 86.68645165197938 116.24036423190432 l -21.17757771255189 25.833201383343894 a54.40425259579348,54.40425259579348 0 0,0 -0.7171663547264338,-0.598285680018072 l 21.617918401440217 -25.46585351941395" fill="#6fff28" stroke="none" /><path d="M 86.13680546590413 115.77377054828092 l -9.285875971820841 10.565622271191035 a35.06626697249585,35.06626697249585 0 0,0 -0.44873963401229466,-0.401265747799689 l 9.465880632656507 -10.404660993507964" fill="#ffa70f" stroke="none" /><path d="M 85.60350026404147 115.28858382429668 l -14.756345891475478 15.670727971372274 a42.52490323373405,42.52490323373405 0 0,0 -0.5271620165550495,-0.5050092869724848 l 15.023180393895842 -15.415106554094207" fill="#f7ff18" stroke="none" /><path d="M 85.34317274990678 115.03919595460226 l -5.4225818361987015 5.564046667326355 a28.769363493006207,28.769363493006207 0 0,0 -0.35072330985369876,-0.34772569273918164 l 5.517297066182363 -5.470140964358515" fill="#ff5107" stroke="none" /><path d="M 85.08716467003676 114.78537596483092 l -7.647069479573967 7.581710304110473 a31.76847262897049,31.76847262897049 0 0,0 -0.38063652479658183,-0.3905666066889225 l 7.776092805521359 -7.449321005353814" fill="#ff7a0b" stroke="none" /><path d="M 84.83555147118756 114.52719865689866 l -25.29972815464803 24.236567269148598 a56.03551680353888,56.03551680353888 0 0,0 -0.659469099122324,-0.7003333300720384 l 25.712053087506607 -23.798692479132068" fill="#5eff2a" stroke="none" /><path d="M 84.3458050057657 113.99807769240083 l -10.464929859290445 9.357804810137292 a35.038634827663884,35.038634827663884 0 0,0 -0.39708606776091104,-0.45181105302784524 l 10.624026991009949 -9.176781479298146" fill="#ffa70f" stroke="none" /><path d="M 83.8745106332314 113.45245675266167 l -16.69045446812639 13.923770733894472 a42.73574617542854,42.73574617542854 0 0,0 -0.4651138438383214,-0.5673632630296065 l 16.92701513120334 -13.63520518916637" fill="#f5ff19" stroke="none" /><path d="M 83.64595745247003 113.17365903436017 l -7.9512819656277065 6.4049899097918805 a31.210131274447562,31.210131274447562 0 0,0 -0.33251209857988473,-0.4201181742424295 l 8.060060494849152 -6.26755179163477" fill="#ff730a" stroke="none" /><path d="M 83.4222238831116 112.89097897827486 l -8.522468716832032 6.627123221899784 a31.7958897376559,31.7958897376559 0 0,0 -0.33135559987365976,-0.43375511689226887 l 8.634976294059987 -6.479847191766646" fill="#ff7b0b" stroke="none" /><path d="M 83.20337586046588 112.60449989151573 l -30.030729327193615 22.5356191459821 a58.54595629646316,58.54595629646316 0 0,0 -0.5963267530165142,-0.8090317683358818 l 30.41315809979396 -22.016781068377338" fill="#44ff2d" stroke="none" /><path d="M 82.78059297857968 112.02048342749411 l -12.353758157465563 8.6238826351197 a36.06607753589056,36.06607753589056 0 0,0 -0.35003032164898806,-0.5107047000687703 l 12.499978215929877 -8.41054319998088" fill="#ffb410" stroke="none" /><path d="M 82.37810715431573 111.42229804090323 l -18.064975418362163 11.709498811341259 a42.52802125785906,42.52802125785906 0 0,0 -0.3918295106454188,-0.6160210718864509 l 18.263322620633474 -11.397664064776135" fill="#f7ff18" stroke="none" /><path d="M 81.99639281039703 110.81064883170644 l -4.165101653061705 2.5010238695728337 a25.85831165905507,25.85831165905507 0 0,0 -0.22524595305233594,-0.3825168717517383 l 4.207421316243811 -2.4291558295275366" fill="#ff2703" stroke="none" /><line stroke="#e1ed5e" stroke-width="0.3" x1="26.387840678322732" x2="22.057713659400548" y1="142.50000000000003" y2="145.00000000000006" /><path d="M 25.521815274538298 143.00000000000003 a86.0,86.0 0 0,1 -11.493303480769221,-40.785679425670985" fill="none" id="id69" stroke="none" /><text fill="#e1ed5e" style="font-size:6.75px; font-family:Arial;" text-anchor="middle"><textPath startOffset="21.40746469413373" xlink:href="#id69">September</textPath></text><path d="M 81.81346652052679 110.50000000000001 l -28.893734483682298 16.681805382047568 a54.36361076409511,54.36361076409511 0 0,0 -0.45967444898418786,-0.8122007062000648 l 29.175842297687865 -16.18334790574838" fill="#6fff27" stroke="none" /><path d="M 81.4637452351635 109.86951160357371 l -18.142213673560818 9.659706916922149 a41.55358495975752,41.55358495975752 0 0,0 -0.32984034847407084,-0.632512359279177 l 18.305362091009837 -9.346848314538468" fill="#fffb17" stroke="none" /><path d="M 81.1358732173502 109.22738970284198 l -20.298764698793292 9.929142998250516 a43.59707346044359,43.59707346044359 0 0,0 -0.32307661536621235,-0.675105868375499 l 20.46622057211942 -9.57922462780991" fill="#eaff1a" stroke="none" /><path d="M 80.9802524753101 108.90220220490708 l -7.809240579343125 3.655118902805291 a29.62230436830572,29.62230436830572 0 0,0 -0.21160980200179966,-0.46240560686288407 l 7.870834846199981 -3.520524313727718" fill="#ff5d08" stroke="none" /><path d="M 80.83023694016515 108.57439118712176 l -11.820876236081572 5.287327584923639 a33.94947674537672,33.94947674537672 0 0,0 -0.23338829358501223,-0.5340380895362229 l 11.909898411683551 -5.083627425611567" fill="#ff980e" stroke="none" /><path d="M 80.68587082218212 108.24405325689762 l -37.67469516746019 16.081087091135217 a61.96320321939831,61.96320321939831 0 0,0 -0.40917594648877054,-0.9818733162999569 l 37.94519695848545 -15.43198126539398" fill="#31ff40" stroke="none" /><path d="M 80.41425534168474 107.57618678355246 l -14.077216369208214 5.445369704660372 a36.09370968072252,36.09370968072252 0 0,0 -0.21857201803322646,-0.5797882457510175 l 14.168619071055875 -5.202913178715209" fill="#ffb510" stroke="none" /><path d="M 80.16572619554312 106.89939002012753 l -22.071514410377496 7.677618437325453 a44.36873067234635,44.36873067234635 0 0,0 -0.24405881995167927,-0.7215165347768183 l 22.200058651901543 -7.297600228074473" fill="#e1ff1b" stroke="none" /><path d="M 80.05021161711548 106.5578916946017 l -9.330486078908628 3.067116101139537 a30.821668475700914,30.821668475700914 0 0,0 -0.16091154207393782,-0.5040531137073112 l 9.381762336759822 -2.906493953740834" fill="#ff6d0a" stroke="none" /><path d="M 79.94057633289273 106.21446072829308 l -11.171762618836107 3.461040616755743 a32.695600974830526,32.695600974830526 0 0,0 -0.16149085965725407,-0.5375505497434031 l 11.22952979849699 -3.2687524634216163" fill="#ff870c" stroke="none" /><path d="M 79.83685265289637 105.86919833188381 l -40.42756672285576 11.767875475352827 a63.10547522988388,63.10547522988388 0 0,0 -0.29383564411088564,-1.0427190411002614 l 40.62362085904122 -11.072148510349571" fill="#33ff4e" stroke="none" /><path d="M 79.64726062577567 105.17358676015961 l -14.686221452339053 3.7331800631623335 a36.1532746933175,36.1532746933175 0 0,0 -0.14773342504616493,-0.6028027883432627 l 14.748142403901513 -3.480521450210971" fill="#ffb510" stroke="none" /><path d="M 79.48165901384964 104.47187691870673 l -20.33229385285626 4.431328811930893 a41.80958549222798,41.80958549222798 0 0,0 -0.14681593065148732,-0.7025673761325469 l 20.405367494332115 -4.081644984512937" fill="#fffe18" stroke="none" /><path d="M 79.407916724674 104.11899336999214 l -11.009905304015126 2.202289411184486 a32.22800487415265,32.22800487415265 0 0,0 -0.10385659915155376,-0.5434216123824425 l 11.046088195448837 -2.0129652337687287" fill="#ff810b" stroke="none" /><path d="M 79.34024301695615 103.76489593502545 l -2.1886124625538117 0.39883809719435015 a23.224656454156342,23.224656454156342 0 0,0 -0.06810927173377983,-0.3928361800258122 l 2.195136551779826 -0.3612088842479453" fill="#ff0000" stroke="none" /><path d="M 79.2786578344484 103.40968896794605 l -42.929130526404904 7.06397209166987 a64.50643572467182,64.50643572467182 0 0,0 -0.17041527626112124,-1.0941883212670196 l 43.04406729480429 -6.3259955884714" fill="#34ff5f" stroke="none" /><path d="M 79.17382384314188 102.69636545807758 l -11.171640461131398 1.4463925217273776 a32.26488357328637,32.26488357328637 0 0,0 -0.06640099786249336,-0.5498955163909305 l 11.194823545253554 -1.254403328413048" fill="#ff810b" stroke="none" /><path d="M 79.13060592940153 102.33845913500099 l -15.265037088083155 1.7104792455401254 a36.360569538593865,36.360569538593865 0 0,0 -0.06418092003808028,-0.6208921811312742 l 15.2921504006029 -1.4481825421259198" fill="#ffb811" stroke="none" /><path d="M 79.0935383218832 101.97986365728391 l -7.518002838601098 0.7119626852536042 a28.55163939462205,28.55163939462205 0 0,0 -0.04202036855848746,-0.4883403777841969 l 7.529116829857326 -0.5828012600937452" fill="#ff4e07" stroke="none" /><path d="M 79.06263194458094 101.62068470465958 l -22.668606121399407 1.7546934800812102 a43.73641688340945,43.73641688340945 0 0,0 -0.05151741459661312,-0.7490519017164385 l 22.695387497161086 -1.3652981542104283" fill="#e9ff1a" stroke="none" /><path d="M 79.01933749520258 100.90099992219065 l -42.562979204281255 1.827837464259802 a63.60220872841959,63.60220872841959 0 0,0 -0.03748082098599953,-1.0912132078445158 l 42.588084712264106 -1.0969179918511665" fill="#33ff54" stroke="none" /><line stroke="#e1ed5e" stroke-width="0.3" x1="15.003131293944662" x2="10.003315487706104" y1="100.72959589197737" y2="100.7725132973878" /><path d="M 14.003168132696942 100.73817937305945 a86.0,86.0 0 0,1 10.791469493833604,-42.45332614584628" fill="none" id="id70" stroke="none" /><text fill="#e1ed5e" style="font-size:6.75px; font-family:Arial;" text-anchor="middle"><textPath startOffset="22.145653131862435" xlink:href="#id70">October</textPath></text><path d="M 79.00077361379809 100.18025310272382 l -14.615360931587281 0.12545529568071004 a35.615899363083415,35.615899363083415 0 0,0 0.0,-0.6114167968090498 l 14.615360931587281 0.12545529568070465" fill="#ffae10" stroke="none" /><path d="M 79.00696218219943 99.45929381324524 l -16.328837874613864 -0.42057294127449923 a37.334253210182474,37.334253210182474 0 0,0 0.022001098534040402,-0.6405379785145212 l 16.31921208908297 0.700817184353159" fill="#ffc512" stroke="none" /><path d="M 79.06263194458094 98.37931529534042 l -45.05989256003156 -3.487920662824006 a66.19468451125356,66.19468451125356 0 0,0 0.09742085213850768,-1.1321779739071098 l 44.9933780851953 4.2609196841067964" fill="#36ff73" stroke="none" /><path d="M 79.13060592940154 97.66154086499901 l -7.080053809754425 -0.7933347969620294 a28.12436257142272,28.12436257142272 0 0,0 0.05787982264826476,-0.47932796175285886 l 7.065391900846492 0.9147564356383245" fill="#ff4706" stroke="none" /><path d="M 79.17382384314186 97.30363454192245 l -10.673473925850926 -1.3818948900938142 a31.762559134940304,31.762559134940304 0 0,0 0.0746503076927989,-0.5401324394559023 l 10.648179101602919 1.5649156377497835" fill="#ff7a0b" stroke="none" /><path d="M 79.2786578344484 96.59031103205396 l -9.626306614580939 -1.584005090190009 a30.75575989678265,30.75575989678265 0 0,0 0.09019519459087524,-0.5202219139599348 l 9.59769660249783 1.7490200370705364" fill="#ff6c0a" stroke="none" /><path d="M 79.407916724674 95.88100663000787 l -24.360030930289636 -4.872688428513446 a45.8425884208155,45.8425884208155 0 0,0 0.16097797199463384,-0.7703378706761804 l 24.272795247470633 5.290142750475035" fill="#cfff1d" stroke="none" /><path d="M 79.56144815229197 95.17655741523228 l -9.57362546562039 -2.2593495422557734 a30.836613487886297,30.836613487886297 0 0,0 0.12600790844078114,-0.5141552667425783 l 9.533430030663311 2.4233606336064692" fill="#ff6e0a" stroke="none" /><path d="M 79.73907114497095 94.47779374421319 l -6.855475256724001 -1.8684902661644873 a28.105546908599397,28.105546908599397 0 0,0 0.13086679799006753,-0.46440009865029314 l 6.822389966659351 1.9858982887177936" fill="#ff4706" stroke="none" /><path d="M 80.05021161711548 93.44210830539832 l -43.35572469789782 -14.251887862314824 a66.6380890454443,66.6380890454443 0 0,0 0.3665557506337001,-1.0836569440600448 l 43.104683525691755 14.99404648084903" fill="#37ff78" stroke="none" /><line stroke="#e1ed5e" stroke-width="0.3" x1="26.387840678322718" x2="22.05771365940052" y1="57.49999999999999" y2="54.99999999999999" /><path d="M 25.521815274538284 56.99999999999999 a86.0,86.0 0 0,1 29.574782752854787,-30.34633250058573" fill="none" id="id71" stroke="none" /><text fill="#e1ed5e" style="font-size:6.75px; font-family:Arial;" text-anchor="middle"><textPath startOffset="21.40746469413373" xlink:href="#id71">November</textPath></text><line stroke="#e1ed5e" stroke-width="0.3" x1="56.869717070023135" x2="54.33264160355391" y1="26.7553504044142" y2="22.446841604673864" /><path d="M 56.362301976729285 25.89364864446614 a86.0,86.0 0 0,1 42.16139366436587,-11.88097634709845" fill="none" id="id72" stroke="none" /><text fill="#e1ed5e" style="font-size:6.75px; font-family:Arial;" text-anchor="middle"><textPath startOffset="22.145653131862474" xlink:href="#id72">December</textPath></text></svg>