<?xml version="1.0" encoding="utf-8" ?>
<svg baseProfile="full" height="200mm" version="1.1" viewBox="0,0,200,200" width="200mm" xmlns="http://www.w3.org/2000/svg" xmlns:ev="http://www.w3.org/2001/xml-events" xmlns:xlink="http://www.w3.org/1999/xlink"><defs /><rect fill="#1a1a1a" height="200" width="200" x="0" y="0" /><text alignment-baseline="middle" fill="#e1ed5e" style="dominant-baseline: central; font-size:9.0px; font-family:Arial;" text-anchor="middle" x="100.0" y="100.0">2025</text><line stroke="#e1ed5e" stroke-width="0.3" x1="100.0" x2="100.0" y1="15.0" y2="10.0" /><path d="M 100.0 14.0 a86.0,86.0 0 0,1 42.46469731375804,11.215312516191453" fill="none" id="id73" stroke="none" /><text fill="#e1ed5e" style="font-size:6.75px; font-family:Arial;" text-anchor="middle"><textPath startOffset="22.20632615414155" xlink:href="#id73">January</textPath></text><path d="M 100.0 79.0 l 0.0 -6.423134284424734 a27.423134284424734,27.423134284424734 0 0,0 0.47204417734708365,0.004063033264091804 l -0.1105636980745553 6.4221826277692005" fill="#ff2d04" stroke="none" /><path d="M 100.72285384407766 79.0124445844662 l 0.33443690387501124 -9.710141421510174 a30.715899056103925,30.715899056103925 0 0,0 0.5282537397864672,0.022747717246464575 l -0.5015314760508099 9.702945977739516" fill="#ff5d08" stroke="none" /><path d="M 101.08401301168833 79.027996857942 l 0.6945453119101098 -13.437114044410043 a34.455052100708414,34.455052100708414 0 0,0 0.592032876530669,0.035713039883986095 l -0.9257402372803908 13.423167735145753" fill="#ff920d" stroke="none" /><path d="M 102.16513564639614 79.11191278185805 l 0.9107623464168279 -8.786554948009789 a29.833630958221313,29.833630958221313 0 0,0 0.5103444569236265,0.05734314610183661 l -1.0618735068501794 8.769575848437352" fill="#ff5007" stroke="none" /><path d="M 103.95276090670814 79.375362276772 l 3.688981630360663 -19.248295429331854 a40.598608685413765,40.598608685413765 0 0,0 0.6852147927147786,0.13744764125249564 l -4.0197628325425665 19.181943832002148" fill="#ffe415" stroke="none" /><path d="M 104.66035177308747 79.52364482259891 l 1.977128237693982 -8.68697943792132 a29.909132832276928,29.909132832276928 0 0,0 0.501015451137453,0.11857417012422922 l -2.1263673757939587 8.651659355656221" fill="#ff5207" stroke="none" /><path d="M 105.71112130821622 79.79150937346287 l 2.7330249827632653 -9.670659536999677 a31.049431896230303,31.049431896230303 0 0,0 0.5130693620058169,0.14977901605776375 l -2.8990845624925092 9.62218219202321" fill="#ff6209" stroke="none" /><path d="M 106.0581310904928 79.89281104454417 l 6.030601310255766 -20.015816470301665 a41.90457034086226,41.90457034086226 0 0,0 0.6888605062827741,0.21403231250318164 l -6.374247189249258 19.909044022915964" fill="#fff517" stroke="none" /><path d="M 106.40334571778207 80.00007090966166 l 4.043627383119568 -12.629688368310296 a34.26121980415628,34.26121980415628 0 0,0 0.5601173947473871,0.18466189866515 l -4.260427600109373 12.55821274538591" fill="#ff8f0d" stroke="none" /><path d="M 107.08798089147638 80.2323363322302 l 2.9854274361202413 -8.326055948136846 a29.845110775329182,29.845110775329182 0 0,0 0.4820947173460468,0.17755955296323214 l -3.1283044792388646 8.273433127367287" fill="#ff5107" stroke="none" /><path d="M 107.76421540070413 80.48803036053334 l 6.619715552927842 -16.635768358373916 a38.904452599148335,38.904452599148335 0 0,0 0.6200927537985206,0.25295140387622184 l -6.905092176314751 16.519356068314117" fill="#ffce13" stroke="none" /><path d="M 108.09893153111575 80.62456947434976 l 3.5133028892194775 -8.405029204668477 a30.109764712808335,30.109764712808335 0 0,0 0.476474469675154,0.20400150172703208 l -3.6574611166849467 8.343308174978654" fill="#ff5407" stroke="none" /><path d="M 109.41281617654863 81.2277094730956 l 4.964268159752594 -9.900404129904803 a32.07528601424674,32.07528601424674 0 0,0 0.49142318488928355,0.25172604228034645 l -5.133951832230633 9.813485562311957" fill="#ff700a" stroke="none" /><path d="M 109.73455568895987 81.39251694778311 l 7.878603522573117 -15.059853392967735 a37.99622245334484,37.99622245334484 0 0,0 0.5769182734505337,0.30816976173220656 l -8.136666842551962 14.922004904733775" fill="#ffc212" stroke="none" /><line stroke="#e1ed5e" stroke-width="0.3" x1="143.23703022742887" x2="145.7803849466894" y1="26.81831364943548" y2="22.513508569990506" /><path d="M 143.74570117128098 25.957352633546492 a86.0,86.0 0 0,1 28.547481713284135,27.462654790039103" fill="none" id="id74" stroke="none" /><text fill="#e1ed5e" style="font-size:6.75px; font-family:Arial;" text-anchor="middle"><textPath startOffset="19.985693538727396" xlink:href="#id74">February</textPath></text><path d="M 110.68208982089419 81.91981866633111 l 8.69323324584734 -14.713902999894616 a38.09009203477305,38.09009203477305 0 0,0 0.5616255902489119,0.3383731340533491 l -8.945220902313888 14.562083256382651" fill="#ffc312" stroke="none" /><path d="M 110.99172775467656 82.1063720568725 l 7.92762183143495 -12.905515737974735 a36.145940854412366,36.145940854412366 0 0,0 0.5273535236798524,0.3302287281488183 l -8.148594507487065 12.767142668502974" fill="#ffa90f" stroke="none" /><path d="M 111.2981086023043 82.29822771554956 l 6.227700986610199 -9.757504428496725 a32.57554112129359,32.57554112129359 0 0,0 0.4700696720320039,0.30574639052821434 l -6.394737684426483 9.648859113808983" fill="#ff780b" stroke="none" /><path d="M 111.90073688211348 82.69761687909136 l 9.583197044056279 -13.93293107997646 a37.91047705017759,37.91047705017759 0 0,0 0.5344815113374397,0.3744384551550855 l -9.821609694977369 13.765907782057438" fill="#ffc111" stroke="none" /><path d="M 113.06298171725822 83.55741782278167 l 14.91114133383117 -18.76888998579231 a44.97109440923095,44.97109440923095 0 0,0 0.6019629429176301,0.4867455027893992 l -15.232007675313291 18.509438385738783" fill="#e3ff1b" stroke="none" /><path d="M 113.6212207817346 84.01681056812373 l 5.740866115806108 -6.7363529379841545 a29.850762377597675,29.850762377597675 0 0,0 0.3882108724020851,0.3366526430536274 l -5.855970786854957 6.636535301510856" fill="#ff5107" stroke="none" /><path d="M 114.42810811169701 84.74124197986012 l 6.329388847069913 -6.693782170547689 a30.21237661649561,30.21237661649561 0 0,0 0.3748014456614028,0.36055869377147326 l -6.443673536343733 6.583840390013914" fill="#ff5607" stroke="none" /><path d="M 114.68862486808459 84.99185889309783 l 9.022798294868403 -9.219067898093831 a33.89969387154379,33.89969387154379 0 0,0 0.413518474056035,0.41174269431270005 l -9.180152569091762 9.062389353131014" fill="#ff8a0c" stroke="none" /><path d="M 114.94478906791727 85.2469230424477 l 6.4293558203853465 -6.3468798906808965 a30.03435114503817,30.03435114503817 0 0,0 0.36003426189026444,0.37104695478301536 l -6.53765434597872 6.235268740347768" fill="#ff5307" stroke="none" /><path d="M 115.68641384162765 86.03803664274999 l 4.640779754989504 -4.130606111913464 a27.21278871249436,27.21278871249436 0 0,0 0.308422148967169,0.3525798324288442 l -4.711193767534521 4.050110723281672" fill="#ff2a04" stroke="none" /><path d="M 116.15771136456269 86.58626213691792 l 9.164988461168482 -7.608549872100851 a32.911634843697875,32.911634843697875 0 0,0 0.3581122947626461,0.4390033297046377 l -9.294599248007538 7.449662372788112" fill="#ff7c0b" stroke="none" /><path d="M 116.60985879189232 87.15038557335679 l 17.811084517290166 -13.778899112570908 a43.51872093251437,43.51872093251437 0 0,0 0.4532662532673046,0.59644525802678 l -18.045626710781583 13.470269078663096" fill="#f5ff19" stroke="none" /><path d="M 117.04232023915458 87.72973835380427 l 7.178296203426108 -5.168285265968058 a29.84528738790008,29.84528738790008 0 0,0 0.2965873731514801,0.41950180604237436 l -7.266196196381471 5.04395695959389" fill="#ff5107" stroke="none" /><path d="M 117.65298651832404 88.62581576622439 l 10.801333686920412 -6.959522639299189 a33.8492709825546,33.8492709825546 0 0,0 0.31136881147724255,0.492510684375182 l -10.91953009464361 6.772564307209802" fill="#ff890c" stroke="none" /><line stroke="#e1ed5e" stroke-width="0.3" x1="172.23445277983987" x2="176.4835382374775" y1="55.19839476539836" y2="52.563006222186495" /><path d="M 173.08426987136738 54.67131705675599 a86.0,86.0 0 0,1 12.851231095245387,41.99856678651699" fill="none" id="id75" stroke="none" /><text fill="#e1ed5e" style="font-size:6.75px; font-family:Arial;" text-anchor="middle"><textPath startOffset="22.20632615414155" xlink:href="#id75">March</textPath></text><path d="M 118.03404312379186 89.2402003453031 l 15.69609831315083 -9.364892389944474 a39.27754665515414,39.27754665515414 0 0,0 0.3414160072589878,0.5835906280304042 l -15.854973994880146 9.093322349560175" fill="#ffd313" stroke="none" /><path d="M 118.73160827565052 90.50648371742162 l 11.54251938577603 -5.849956614418682 a33.94031476284856,33.94031476284856 0 0,0 0.2596272249457735,0.5233926428226687 l -11.641506623675212 5.650404383097063" fill="#ff8b0c" stroke="none" /><path d="M 119.04729006885535 91.15688171328212 l 16.381754479762094 -7.605585470942137 a39.0611962558135,39.0611962558135 0 0,0 0.2778882008218344,0.6122898150340298 l -16.510244997547275 7.322473647066045" fill="#ffd013" stroke="none" /><path d="M 119.47837535516314 92.15188598940014 l 7.37423760109959 -2.9711850387635796 a28.950303184913363,28.950303184913363 0 0,0 0.18225794352028085,0.4638265864348973 l -7.424289094501571 2.843809447432898" fill="#ff4406" stroke="none" /><path d="M 119.85752413597 93.16781622104841 l 8.361065723991032 -2.876709967619999 a29.84210836162405,29.84210836162405 0 0,0 0.1629417573476144,0.4871751148510305 l -8.409344775110416 2.7323617498466546" fill="#ff5107" stroke="none" /><path d="M 119.97218684219823 93.5106431181261 l 8.132616611383375 -2.6424473189493742 a29.551139151082243,29.551139151082243 0 0,0 0.1530249681468029,0.48513096686882534 l -8.176897063298384 2.50206618565413" fill="#ff4c07" stroke="none" /><path d="M 120.08093135843002 93.85539295169968 l 17.863862285660794 -5.46620135047956 a39.681459604780315,39.681459604780315 0 0,0 0.19423904958912463,0.6548775138105484 l -17.955307232361623 5.157894449922481" fill="#ffd814" stroke="none" /><path d="M 120.53481517161879 95.60439243477599 l 11.79974864892101 -2.52581111616844 a33.067053906081355,33.067053906081355 0 0,0 0.11435013031792285,0.5576118460523881 l -11.841478075153931 2.32232361395264" fill="#ff7e0b" stroke="none" /><path d="M 120.6074358757038 95.95851677861258 l 8.689989786553875 -1.7042609341704995 a29.855530917011716,29.855530917011716 0 0,0 0.0945628107729452,0.5051583163718333 l -8.71803832123668 1.5544245403361034" fill="#ff5107" stroke="none" /><path d="M 120.67395015179393 96.31383870115 l 12.95726074059872 -2.310277074793029 a34.16161031417414,34.16161031417414 0 0,0 0.09823600258783455,0.5797944480946627 l -12.995108604706777 2.086896838382528" fill="#ff8e0d" stroke="none" /><path d="M 120.78858239683441 97.02765380044208 l 11.403057256839533 -1.6304062130696055 a32.51902509860868,32.51902509860868 0 0,0 0.07445927778474992,0.5548081060366814 l -11.42943253368212 1.4338797649682598" fill="#ff770a" stroke="none" /><path d="M 120.91429891909075 98.10471618934814 l 11.965744235563253 -1.0843529309683329 a33.01477658509782,33.01477658509782 0 0,0 0.04641801525043198,0.5664173585764557 l -11.98263673463318 0.8782216551841084" fill="#ff7e0b" stroke="none" /><path d="M 120.96714384426684 98.82574320788733 l 23.935000432013084 -1.3404704539286183 a44.972507309798075,44.972507309798075 0 0,0 0.03663415851254045,0.7732891855659068 l -23.95452819875912 0.9282701617397119" fill="#e3ff1b" stroke="none" /><line stroke="#e1ed5e" stroke-width="0.3" x1="184.98032266829074" x2="189.97916517819016" y1="98.17113171792111" y2="98.06355123074" /><path d="M 185.9800911702706 98.14961562048488 a86.0,86.0 0 0,1 -9.607161424134198,41.387399972396054" fill="none" id="id76" stroke="none" /><text fill="#e1ed5e" style="font-size:6.75px; font-family:Arial;" text-anchor="middle"><textPath startOffset="21.466115282336823" xlink:href="#id76">April</textPath></text><path d="M 120.99980553446 99.90962569577887 l 8.959737669819635 -0.038558931252246985 a29.95982064012245,29.95982064012245 0 0,0 -0.0022194559131353364,0.5157233902915181 l -8.959073916616996 -0.1156739372429559" fill="#ff5207" stroke="none" /><path d="M 120.9904718944345 100.63252640178507 l 13.245493648512351 0.39913940379691654 a34.25150611275731,34.25150611275731 0 0,0 -0.022830858676789453,0.5891630158079425 l -13.236660656984359 -0.6270796666188652" fill="#ff8f0d" stroke="none" /><path d="M 120.89721153311464 102.0752229133903 l 10.570809283833334 1.0497470250577614 a31.62280460762574,31.62280460762574 0 0,0 -0.05845354737856968,0.541207251823774 l -10.551173434953713 -1.2315505987663269" fill="#ff6a09" stroke="none" /><path d="M 120.76222939487914 103.15116336523771 l 9.081092621851289 1.3782723349240193 a30.185089974293057,30.185089974293057 0 0,0 -0.08238840008443521,0.5130326459716473 l -9.056022467405565 -1.5343842105888716" fill="#ff5607" stroke="none" /><path d="M 120.64145759157962 103.86396538481128 l 12.673896508822912 2.3724825237511067 a33.894042269275296,33.894042269275296 0 0,0 -0.11228622820948361,0.5725450585335359 l -12.631180347637764 -2.5902913093525877" fill="#ff8a0c" stroke="none" /><path d="M 120.41448212921028 104.9243191809786 l 9.063510879968568 2.186272480033957 a30.32346592358563,30.32346592358563 0 0,0 -0.12676462949762338,0.5063616815420577 l -9.024534936175884 -2.341962000973411" fill="#ff5808" stroke="none" /><path d="M 120.32669344350535 105.2749913415812 l 9.068725506089056 2.353429919959811 a30.369120273160775,30.369120273160775 0 0,0 -0.13566598060157828,0.5048635828020333 l -9.0268714491457 -2.5091844359373927" fill="#ff5808" stroke="none" /><path d="M 120.23288151984713 105.62410040840565 l 8.507199722898436 2.364732150930082 a29.829745481661725,29.829745481661725 0 0,0 -0.14177277328016416,0.49352962262877803 l -8.465234312732173 -2.510819249063442" fill="#ff5007" stroke="none" /><path d="M 120.13307415673323 105.97154293290107 l 15.421220379709009 4.573989985745107 a37.085254812692554,37.085254812692554 0 0,0 -0.18679176637956985,0.6104463002277061 l -15.340201840823307 -4.83876325852487" fill="#ffb510" stroke="none" /><path d="M 119.79798401119884 107.00284435728193 l 6.94719075180826 2.4573257321423463 a28.36898290782786,28.36898290782786 0 0,0 -0.1668038632892446,0.4589725923633299 l -6.9038626275137895 -2.5765461215118073" fill="#ff3b05" stroke="none" /><path d="M 119.54520255179757 107.68017299344265 l 10.029085040563833 3.9408702914871574 a31.775574481445865,31.775574481445865 0 0,0 -0.20441890680537375,0.5073509624184077 l -9.959763519501067 -4.112920621748379" fill="#ff6c0a" stroke="none" /><path d="M 119.26925614724726 108.34839909993367 l 12.445152202144472 5.391858235158849 a34.5629623815224,34.5629623815224 0 0,0 -0.24121477500522587,0.5438756387959397 l -12.350496342407974 -5.605282210447476" fill="#ff930d" stroke="none" /><path d="M 119.12269723197855 108.67885076344098 l 12.381937478353557 5.619551794042015 a34.59749013913146,34.59749013913146 0 0,0 -0.25079124727664015,0.5401820351971307 l -12.283371614237085 -5.831853896517976" fill="#ff940d" stroke="none" /><line stroke="#e1ed5e" stroke-width="0.3" x1="174.80103733775053" x2="179.2010983576182" y1="140.37084112569926" y2="142.7455964860345" /><path d="M 175.68104954172406 140.8457921977663 a86.0,86.0 0 0,1 -30.038265399797805,32.042727171017184" fill="none" id="id77" stroke="none" /><text fill="#e1ed5e" style="font-size:6.75px; font-family:Arial;" text-anchor="middle"><textPath startOffset="22.206326154141568" xlink:href="#id77">May</textPath></text><path d="M 118.48025628344425 109.97397251340804 l 21.162852405494426 11.42179550760934 a45.048362408995466,45.048362408995466 0 0,0 -0.3741665295098397,0.679220935075621 l -20.96310946653308 -11.784386961082767" fill="#e2ff1b" stroke="none" /><path d="M 118.30583269289576 110.29060199501025 l 2.9713948515128505 1.6703660685595574 a24.40871092446869,24.40871092446869 0 0,0 -0.20904085410758572,0.3644803492426057 l -2.9422020012528853 -1.7212662636604783" fill="#ff0000" stroke="none" /><path d="M 118.12598468904814 110.60418214915192 l 12.590240376387994 7.365624794634894 a35.58652053611727,35.58652053611727 0 0,0 -0.31387162717365213,0.5260669010053048 l -12.461587873516116 -7.581253789526303" fill="#ffa10e" stroke="none" /><path d="M 117.94076556474637 110.91462005526583 l 11.70799756186676 7.122792198280469 a34.70442905080555,34.70442905080555 0 0,0 -0.31487718544346915,0.5076822820133831 l -11.583655736755329 -7.323270811659126" fill="#ff950d" stroke="none" /><path d="M 117.55443506779139 111.5257021239791 l 8.129149323856403 5.337349408641675 a30.724729684648445,30.724729684648445 0 0,0 -0.2940750120813987,0.43960224244009133 l -8.036071206364284 -5.476488565287573" fill="#ff5d08" stroke="none" /><path d="M 116.93607887273984 112.41649034213515 l 10.234203456258419 7.5030878947200765 a33.68996644361153,33.68996644361153 0 0,0 -0.34690836518340057,0.4647404461179823 l -10.103533824379927 -7.678141220347373" fill="#ff870c" stroke="none" /><path d="M 116.71984013943494 112.70617746262583 l 11.389536560432735 8.655433996201724 a35.30517671068898,35.30517671068898 0 0,0 -0.3718697335864677,0.48069175920506046 l -11.238860009628198 -8.850203749520036" fill="#ff9d0e" stroke="none" /><path d="M 116.498646956653 112.99209946851258 l 14.922752893058234 11.751138771562477 a39.994152161541635,39.994152161541635 0 0,0 -0.43056959172748616,0.537201768781293 l -14.718265389275894 -12.00626837392202" fill="#ffdc14" stroke="none" /><path d="M 116.0416608686014 113.55231037782055 l 7.431510883702355 6.2782864503272995 a30.728526854922585,30.728526854922585 0 0,0 -0.344828929677047,0.40111394856972704 l -7.3223394444545296 -6.405277498058554" fill="#ff5d08" stroke="none" /><path d="M 115.80600337817218 113.82643327865902 l 7.200641641800436 6.298821330215395 a30.566838046272494,30.566838046272494 0 0,0 -0.34983185803114625,0.3930398010400572 l -7.091150934120951 -6.421835300996318" fill="#ff5b08" stroke="none" /><path d="M 115.32070863581623 114.36230785411682 l 9.512537724639177 8.917472326037029 a34.038776271119914,34.038776271119914 0 0,0 -0.4044024608915038,0.42401436346500926 l -9.357628712368708 -9.079893806084545" fill="#ff8c0c" stroke="none" /><path d="M 115.07121518719521 114.62390073753431 l 10.141392066465885 9.840395023117935 a35.130860103220236,35.130860103220236 0 0,0 -0.4248481558607254,0.430368938866134 l -9.970503285549624 -10.013504455964734" fill="#ff9b0e" stroke="none" /><path d="M 114.81725581225074 114.88116024355365 l 6.133173273569041 6.15962465937866 a29.692340901509056,29.692340901509056 0 0,0 -0.3652865564751913,0.35750977813973667 l -6.026236764718056 -6.264284540440968" fill="#ff4e07" stroke="none" /><path d="M 114.29624159901734 115.38237550388516 l 6.681896752385717 7.189543084558164 a30.815155320944285,30.815155320944285 0 0,0 -0.3916466113527902,0.3577598936192459 l -6.557150591566064 -7.3034957447639925" fill="#ff5f08" stroke="none" /><path d="M 113.75828350139079 115.86535959552629 l 12.001206066059423 13.839186392604624 a39.318079240173475,39.318079240173475 0 0,0 -0.5151314758881439,0.4390062192905796 l -11.761209113594232 -14.04371700211815" fill="#ffd313" stroke="none" /><path d="M 112.92097659922987 116.55440617244103 l 6.758217754827871 8.658655238327054 a31.983889008811005,31.983889008811005 0 0,0 -0.43691709084193253,0.3350093941570652 l -6.608171935492444 -8.773703974311491" fill="#ff6f0a" stroke="none" /><path d="M 112.34349029814194 116.9893568818739 l 6.239256424442695 8.587599739786542 a31.61485704193567,31.61485704193567 0 0,0 -0.4430184981621866,0.3160819355680517 l -6.0905105984316235 -8.693725937198812" fill="#ff6a09" stroke="none" /><path d="M 111.7513745106137 117.40417183066458 l 5.959034308853689 8.82552564063409 a31.648943268117506,31.648943268117506 0 0,0 -0.4541251126108234,0.3009693619529363 l -5.806234497502902 -8.926793023678346" fill="#ff6a09" stroke="none" /><path d="M 111.45004920935366 117.60387380957326 l 5.806571534607515 8.927311201246868 a31.64956141211562,31.64956141211562 0 0,0 -0.4592474914049942,0.29311347755767836 l -5.65204224115559 -9.025939107628355" fill="#ff6a09" stroke="none" /><line stroke="#e1ed5e" stroke-width="0.3" x1="143.8653032363475" x2="146.44561519142675" y1="172.8068346515853" y2="177.08958963109032" /><path d="M 144.38136562736335 173.6633856474863 a86.0,86.0 0 0,1 -40.68145358897372,12.25698825130547" fill="none" id="id78" stroke="none" /><text fill="#e1ed5e" style="font-size:6.75px; font-family:Arial;" text-anchor="middle"><textPath startOffset="21.466115282336833" xlink:href="#id78">June</textPath></text><path d="M 110.8373102113329 117.98757091392108 l 12.011886603938303 19.937111505064543 a44.27603563649208,44.27603563649208 0 0,0 -0.6561964206461264,0.387692411714809 l -11.666922312263793 -20.140922489073102" fill="#ecff1a" stroke="none" /><path d="M 110.21172684928248 118.3499491758327 l 4.760002808600882 8.553480807292088 a30.788751741596187,30.788751741596187 0 0,0 -0.46531654542009726,0.25372768140623175 l -4.612063451312136 -8.634149140458089" fill="#ff5e08" stroke="none" /><path d="M 109.57404056367764 118.69057910512821 l 5.32825459341939 10.401894927037315 a32.68716026609627,32.68716026609627 0 0,0 -0.5029870528064928,0.2522081501171071 l -5.148413632930137 -10.492070918063725" fill="#ff790b" stroke="none" /><path d="M 109.2508944713604 118.85261126421891 l 3.892197283244363 7.9319986377343525 a29.835485390215663,29.835485390215663 0 0,0 -0.46300032060644847,0.22226829037424264 l -3.7550842946376815 -7.9978212046081545" fill="#ff5007" stroke="none" /><path d="M 108.59647513512805 119.15986991738527 l 10.22169677447929 22.782172629533537 a45.970191722757505,45.970191722757505 0 0,0 -0.7247514314963936,0.3177097290867609 l -9.828024668325142 -22.954746911914754" fill="#d7ff1c" stroke="none" /><path d="M 105.53697534728816 120.25689768951611 l 2.3754807498201957 8.690642001158697 a30.009448772542633,30.009448772542633 0 0,0 -0.4994566262839251,0.1319110344922204 l -2.225533680724773 -8.730244384954501" fill="#ff5307" stroke="none" /><path d="M 105.18746579009965 120.34920634021253 l 3.2725433901825283 12.83741684257808 a34.2479738613395,34.2479738613395 0 0,0 -0.5725066061058856,0.1407081947643031 l -3.0510834993334317 -12.891846295656412" fill="#ff8f0d" stroke="none" /><path d="M 104.48393922423573 120.51570834832081 l 2.076056079892553 9.498737364597856 a30.72296355893954,30.72296355893954 0 0,0 -0.5176212779688988,0.10847257153579934 l -1.9122433404942762 -9.533065916860195" fill="#ff5d08" stroke="none" /><path d="M 104.13013068566511 120.58985236759428 l 2.3355055216049068 11.643145835663155 a32.87507604152358,32.87507604152358 0 0,0 -0.5557960318170821,0.1065196323034484 l -2.1347418752161205 -11.681622666315072" fill="#ff7c0b" stroke="none" /><path d="M 103.7750983002368 120.6578951692458 l 1.5889917716433268 8.695197537331122 a29.83919425420436,29.83919425420436 0 0,0 -0.506059986860961,0.08798501542895995 l -1.439082813310316 -8.721261131281087" fill="#ff5107" stroke="none" /><path d="M 103.06178313531738 120.77559828337769 l 0.6967298403802211 4.727630480687488 a25.77869463686493,25.77869463686493 0 0,0 -0.4395530240946059,0.06091804392323514 l -0.6152482250987847 -4.738923090103325" fill="#ff1502" stroke="none" /><path d="M 102.34483914955558 120.86867818915974 l 1.387861486642822 12.351736255071964 a33.429462901548305,33.429462901548305 0 0,0 -0.5723878653513839,0.0593303425964524 l -1.1750410246858354 -12.373795966124174" fill="#ff830c" stroke="none" /><path d="M 101.62511606390274 120.93702456842531 l 0.761842773400752 9.815127188923979 a30.844649620282972,30.844649620282972 0 0,0 -0.5297013944666698,0.03653130947007494 l -0.592778618155152 -9.826786842910339" fill="#ff5f08" stroke="none" /><path d="M 101.26447882468166 120.96189622390904 l 2.5775020120992025 42.72853656378333 a63.806206950685834,63.806206950685834 0 0,0 -1.0968953342131598,0.05669695959384449 l -1.8416186094725628 -42.76657333013937" fill="#33ff52" stroke="none" /><line stroke="#e1ed5e" stroke-width="0.3" x1="102.19456741930631" x2="102.32365962044197" y1="184.97166512339345" y2="189.96999836594603" /><path d="M 102.22038585953345 185.97133177190398 a86.0,86.0 0 0,1 -42.740103519485714,-10.115201625700543" fill="none" id="id79" stroke="none" /><text fill="#e1ed5e" style="font-size:6.75px; font-family:Arial;" text-anchor="middle"><textPath startOffset="22.20632615414155" xlink:href="#id79">July</textPath></text><path d="M 99.81925306533755 120.99922214144158 l -0.09557880960859365 11.104368982708937 a32.10478031358543,32.10478031358543 0 0,0 -0.5525696072604803,-0.009512986902327285 l 0.2867081067617419 -11.10107851852745" fill="#ff710a" stroke="none" /><path d="M 99.09653310690486 120.98055641714683 l -1.030590968467302 23.93266662252043 a44.95484605270904,44.95484605270904 0 0,0 -0.7728207527458444,-0.03994600544376267 l 1.4423997896266354 -23.911380810314462" fill="#e3ff1b" stroke="none" /><path d="M 97.65516085044442 120.86867818915974 l -1.2855915736068884 11.441551049410975 a32.51355010891108,32.51355010891108 0 0,0 -0.5556295958729858,-0.06727900615450551 l 1.4823485925312636 -11.417726514531122" fill="#ff770a" stroke="none" /><path d="M 96.58105272829116 120.7198165907248 l -10.256841815126537 62.1594497721744 a84.0,84.0 0 0,0 -1.4246041141118002,-0.24768568591597528 l 11.325294900710388 -61.97368550773742" fill="#4dd2ff" stroke="none" /><path d="M 94.81253420990036 120.34920634021253 l -2.3029283731943715 9.033845532494992 a30.322759473302064,30.322759473302064 0 0,0 -0.5046711541070249,-0.1332882386844072 l 2.4580899701128858 -8.992865944507002" fill="#ff5708" stroke="none" /><path d="M 94.46302465271185 120.25689768951611 l -3.8680347119517657 14.15111654016656 a35.670234894719286,35.670234894719286 0 0,0 -0.5908839498219066,-0.16698970639991592 l 4.111049829878286 -14.082438040428123" fill="#ffa20f" stroke="none" /><path d="M 92.7421414339146 119.70592522655815 l -3.663772652346372 9.947566389845894 a31.60081634254989,31.60081634254989 0 0,0 -0.5088179549381542,-0.1923914127359003 l 3.834460828044809 -9.88302672700336" fill="#ff6a09" stroke="none" /><path d="M 91.40352486487194 119.15986991738527 l -6.93021266700095 15.446095185800356 a37.929551207833754,37.929551207833754 0 0,0 -0.5933843560929486,-0.2723936542174836 l 7.195065018861318 -15.324514461248798" fill="#ffc111" stroke="none" /><path d="M 90.7491055286396 118.85261126421891 l -3.8944535167402203 7.936596668027579 a29.840607154771483,29.840607154771483 0 0,0 -0.45918455211610776,-0.23024466694595006 l 4.030491976539088 -7.868384160172327" fill="#ff5107" stroke="none" /><line stroke="#e1ed5e" stroke-width="0.3" x1="58.666819895761336" x2="56.23545636021788" y1="174.27360380694188" y2="178.64263932499728" /><path d="M 58.180547188652646 175.14741091055294 a86.0,86.0 0 0,1 -31.652253787137756,-30.449443065178592" fill="none" id="id80" stroke="none" /><text fill="#e1ed5e" style="font-size:6.75px; font-family:Arial;" text-anchor="middle"><textPath startOffset="22.20632615414155" xlink:href="#id80">August</textPath></text><path d="M 89.4739219176387 118.17145234162733 l -6.297844350188852 10.872138470663083 a33.56448321199395,33.56448321199395 0 0,0 -0.497445027042905,-0.2938992901544726 l 6.484057248260139 -10.762120608214861" fill="#ff850c" stroke="none" /><path d="M 89.1626897886671 117.98757091392108 l -7.87326046407624 13.067894907469322 a36.25641201750427,36.25641201750427 0 0,0 -0.5317966208197867,-0.3266729192920952 l 8.097036284828336 -12.930433521348847" fill="#ffaa0f" stroke="none" /><path d="M 88.54995079064634 117.60387380957326 l -5.295575135854722 8.141679981999177 a30.71236680468612,30.71236680468612 0 0,0 -0.44068634189670675,-0.29206287751738663 l 5.434936176491391 -8.049319083390472" fill="#ff5d08" stroke="none" /><path d="M 87.65650970185807 116.9893568818739 l -6.35469343860983 8.746485159039366 a31.811250220765714,31.811250220765714 0 0,0 -0.4402298773300134,-0.3256715388387871 l 6.504308286358408 -8.635803671460813" fill="#ff6d0a" stroke="none" /><path d="M 87.07902340077011 116.55440617244103 l -14.674228008189537 18.80067879149775 a44.84949665417297,44.84949665417297 0 0,0 -0.6044911420648369,-0.4802443224506602 l 14.995676642971732 -18.54530055504196" fill="#e5ff1a" stroke="none" /><path d="M 85.70375840098266 115.38237550388516 l -3.20210915542043 3.445384235566589 a25.703634294236544,25.703634294236544 0 0,0 -0.32149636452472496,-0.30399487944941955 l 3.260941354335972 -3.389754719371239" fill="#ff1402" stroke="none" /><line stroke="#e1ed5e" stroke-width="0.3" x1="26.63291911575756" x2="22.317208475507996" y1="142.92168965132927" y2="145.44649492493687" /><path d="M 25.769776987707644 143.4266507060508 a86.0,86.0 0 0,1 -11.730757126820373,-40.83630448921669" fill="none" id="id81" stroke="none" /><text fill="#e1ed5e" style="font-size:6.75px; font-family:Arial;" text-anchor="middle"><textPath startOffset="21.46611528233685" xlink:href="#id81">September</textPath></text><line stroke="#e1ed5e" stroke-width="0.3" x1="15.007084014347285" x2="10.007500721073583" y1="101.09737516637583" y2="101.16192664675087" /><path d="M 14.007167355692545 101.11028546245083 a86.0,86.0 0 0,1 10.666146001902534,-42.60595125391555" fill="none" id="id82" stroke="none" /><text fill="#e1ed5e" style="font-size:6.75px; font-family:Arial;" text-anchor="middle"><textPath startOffset="22.20632615414155" xlink:href="#id82">October</textPath></text><line stroke="#e1ed5e" stroke-width="0.3" x1="26.266209847984243" x2="21.928928074336255" y1="57.711370442889674" y2="55.22380399835377" /><path d="M 25.398753493254645 57.213857153982495 a86.0,86.0 0 0,1 29.58750427330803,-30.492523968695096" fill="none" id="id83" stroke="none" /><text fill="#e1ed5e" style="font-size:6.75px; font-family:Arial;" text-anchor="middle"><textPath startOffset="21.46611528233685" xlink:href="#id83">November</textPath></text><line stroke="#e1ed5e" stroke-width="0.3" x1="56.762969772571076" x2="54.21961505331055" y1="26.818313649435495" y2="22.513508569990535" /><path d="M 56.25429882871897 25.957352633546506 a86.0,86.0 0 0,1 42.265352541879196,-11.944610805530505" fill="none" id="id84" stroke="none" /><text fill="#e1ed5e" style="font-size:6.75px; font-family:Arial;" text-anchor="middle"><textPath startOffset="22.20632615414155" xlink:href="#id84">December</textPath></text></svg>