<?xml version="1.0" encoding="utf-8" ?>
<svg baseProfile="full" height="200mm" version="1.1" viewBox="0,0,200,200" width="200mm" xmlns="http://www.w3.org/2000/svg" xmlns:ev="http://www.w3.org/2001/xml-events" xmlns:xlink="http://www.w3.org/1999/xlink"><defs /><rect fill="#1a1a1a" height="200" width="200" x="0" y="0" /><text alignment-baseline="middle" fill="#e1ed5e" style="dominant-baseline: central; font-size:9.0px; font-family:Arial;" text-anchor="middle" x="100.0" y="100.0">2025</text><line stroke="#e1ed5e" stroke-width="0.3" x1="100.0" x2="100.0" y1="15.0" y2="10.0" /><path d="M 100.0 14.0 a86.0,86.0 0 0,1 42.46469731375804,11.215312516191453" fill="none" id="id73" stroke="none" /><text fill="#e1ed5e" style="font-size:6.75px; font-family:Arial;" text-anchor="middle"><textPath startOffset="22.20632615414155" xlink:href="#id73">January</textPath></text><path d="M 100.0 79.0 l 0.0 -16.205620862332367 a37.20562086233237,37.20562086233237 0 0,0 0.6404336029022802,0.005512414212284323 l -0.27895312362975183 16.20321982472864" fill="#ff7a0b" stroke="none" /><path d="M 100.72285384407766 79.0124445844662 l 0.8437870713232538 -24.498767023787416 a45.51329358343236,45.51329358343236 0 0,0 0.7827401536101147,0.03370643755210246 l -1.2653680573227 24.48061285971112" fill="#fff417" stroke="none" /><path d="M 101.08401301168833 79.027996857942 l 1.752343559719565 -33.90194974059044 a54.94720760482091,54.94720760482091 0 0,0 0.9441446578146702,0.05695338410660208 l -2.3356502663738468 33.866763087103536" fill="#8eff24" stroke="none" /><path d="M 102.16513564639614 79.11191278185805 l 2.297860923989885 -22.168550721223166 a43.28732388389068,43.28732388389068 0 0,0 0.7404880026215358,0.08320245501821598 l -2.6791156301211463 22.12571231273435" fill="#ffd413" stroke="none" /><path d="M 103.95276090670814 79.375362276772 l 9.30733112877584 -48.56360838201815 a70.44745162111697,70.44745162111697 0 0,0 1.1889972962839748,0.23850167212874634 l -10.141894834526939 48.3962027538122" fill="#3aff91" stroke="none" /><path d="M 104.66035177308747 79.52364482259891 l 4.988310877132728 -21.917320886657812 a43.477815735868276,43.477815735868276 0 0,0 0.7283078913565009,0.17236694719986195 l -5.364842455451751 21.828208027317082" fill="#ffd714" stroke="none" /><path d="M 105.71112130821622 79.79150937346287 l 6.895444609548695 -24.399153903000105 a46.35479969444916,46.35479969444916 0 0,0 0.7659794737830928,0.2236104129374511 l -7.314414301055216 24.27684516114395" fill="#ffff18" stroke="none" /><path d="M 106.0581310904928 79.89281104454417 l 15.215256925714826 -50.50007030902166 a73.74240366661007,73.74240366661007 0 0,0 1.2122360189135506,0.37664763193901507 l -16.082278317339096 50.23068254220012" fill="#3effba" stroke="none" /><path d="M 106.40334571778207 80.00007090966166 l 10.202105292782282 -31.864808089494357 a54.458167119334576,54.458167119334576 0 0,0 0.8903059162505107,0.2935198628526476 l -10.749094031275211 31.68447450238247" fill="#94ff23" stroke="none" /><path d="M 107.08798089147638 80.2323363322302 l 7.532258084512815 -21.006707940274282 a43.31628755729078,43.31628755729078 0 0,0 0.6996976343500221,0.2577045437223556 l -7.892738044635414 20.873940128745602" fill="#ffd513" stroke="none" /><path d="M 107.76421540070413 80.48803036053334 l 16.70159702676081 -41.97218099941037 a66.17308181972501,66.17308181972501 0 0,0 1.0547237087671135,0.43024828334127396 l -17.421604605116308 41.67847182988552" fill="#34ff5a" stroke="none" /><path d="M 108.09893153111575 80.62456947434976 l 8.864092213561278 -21.205958118916616 a43.98401162790698,43.98401162790698 0 0,0 0.6960286410234823,0.2980031398337477 l -9.227804612375076 21.050235451120077" fill="#ffde14" stroke="none" /><path d="M 109.41281617654863 81.2277094730956 l 12.524889577815223 -24.978801408863333 a48.9430381089798,48.9430381089798 0 0,0 0.7498528198622912,0.3841037387750004 l -12.95300288526627 24.759505144775833" fill="#dbff1b" stroke="none" /><path d="M 109.73455568895987 81.39251694778311 l 19.877781774087772 -37.9961345227586 a63.88160965880157,63.88160965880157 0 0,0 0.9699508416882745,0.5181141481049966 l -20.52887766230436 37.64834164815185" fill="#31ff3b" stroke="none" /><line stroke="#e1ed5e" stroke-width="0.3" x1="143.23703022742887" x2="145.7803849466894" y1="26.81831364943548" y2="22.513508569990506" /><path d="M 143.74570117128098 25.957352633546492 a86.0,86.0 0 0,1 28.547481713284135,27.462654790039103" fill="none" id="id74" stroke="none" /><text fill="#e1ed5e" style="font-size:6.75px; font-family:Arial;" text-anchor="middle"><textPath startOffset="19.985693538727396" xlink:href="#id74">February</textPath></text><path d="M 110.68208982089419 81.91981866633111 l 21.933099295719053 -37.1232988230734 a64.11844338821932,64.11844338821932 0 0,0 0.9454048727652196,0.5695958576337233 l -22.56886623470191 36.74025635598106" fill="#31ff3e" stroke="none" /><path d="M 110.99172775467656 82.1063720568725 l 20.001455372295705 -32.56072282181989 a59.21333389916822,59.21333389916822 0 0,0 0.8638967348043504,0.5409720560804454 l -20.55897125947232 32.211606424416495" fill="#5bff2a" stroke="none" /><path d="M 111.2981086023043 82.29822771554956 l 15.712541037434816 -24.618264281689246 a50.20518587676116,50.20518587676116 0 0,0 0.7244679427279994,0.47121410233716643 l -16.133976005947094 24.344151255192553" fill="#cbff1d" stroke="none" /><path d="M 111.90073688211348 82.69761687909136 l 24.17848531075969 -35.15290021736295 a63.66527329825157,63.66527329825157 0 0,0 0.8975859482623219,0.6288163176968505 l -24.780002398605664 34.731499056902166" fill="#30ff38" stroke="none" /><path d="M 113.06298171725822 83.55741782278167 l 37.620932769018545 -47.35406448750872 a81.47926922424037,81.47926922424037 0 0,0 1.0906450317325151,0.8818924330497279 l -38.43048119931555 46.69946595719486" fill="#49ecff" stroke="none" /><path d="M 113.6212207817346 84.01681056812373 l 14.48425263656103 -16.995874112821408 a43.33054659650314,43.33054659650314 0 0,0 0.5635162373109692,0.48867572801486014 l -14.774662672518762 16.744033391386875" fill="#ffd513" stroke="none" /><path d="M 114.42810811169701 84.74124197986012 l 15.96910034943735 -16.888467714894038 a44.24290230860635,44.24290230860635 0 0,0 0.5488579715528942,0.5280009337742833 l -16.25744156460266 16.61108369435745" fill="#ffe215" stroke="none" /><path d="M 114.68862486808459 84.99185889309783 l 22.76459463699848 -23.2597844673566 a53.546034204719064,53.546034204719064 0 0,0 0.6531703336316684,0.6503654126422055 l -23.16160077079747 22.864483204064275" fill="#a0ff22" stroke="none" /><path d="M 114.94478906791727 85.2469230424477 l 16.221317848958282 -16.01323039696468 a43.79374257341708,43.79374257341708 0 0,0 0.5249738110436023,0.5410316587812222 l -16.494555923704993 15.731634542633344" fill="#ffdb14" stroke="none" /><path d="M 115.68641384162765 86.03803664274999 l 11.708725660198967 -10.421553344077031 a36.674917246647425,36.674917246647425 0 0,0 0.41566327177672324,0.47517497430271344 l -11.886380795553537 10.21846281357137" fill="#ff720a" stroke="none" /><path d="M 116.15771136456269 86.58626213691792 l 23.12334160123347 -19.196434182981886 a51.053153114921066,51.053153114921066 0 0,0 0.5555105938577832,0.6809903037576612 l -23.45035068716766 18.79555970961612" fill="#bfff1e" stroke="none" /><path d="M 116.60985879189232 87.15038557335679 l 44.93751337786546 -34.76427629111151 a77.81491894415211,77.81491894415211 0 0,0 0.8104759515522137,1.0664913493195403 l -45.52926526964178 33.98560016591093" fill="#44ffe9" stroke="none" /><path d="M 117.04232023915458 87.72973835380427 l 18.110900622508463 -13.039626422220783 a43.31673315226617,43.31673315226617 0 0,0 0.43045978858098666,0.6088548437499163 l -18.332673030893332 12.725945078139073" fill="#ffd513" stroke="none" /><path d="M 117.65298651832404 88.62581576622439 l 27.251854123963398 -17.55893311288641 a53.418816839246304,53.418816839246304 0 0,0 0.49138291688258234,0.7772497686455087 l -27.550064637091936 17.087235696526694" fill="#a1ff22" stroke="none" /><line stroke="#e1ed5e" stroke-width="0.3" x1="172.23445277983987" x2="176.4835382374775" y1="55.19839476539836" y2="52.563006222186495" /><path d="M 173.08426987136738 54.67131705675599 a86.0,86.0 0 0,1 12.851231095245387,41.99856678651699" fill="none" id="id75" stroke="none" /><text fill="#e1ed5e" style="font-size:6.75px; font-family:Arial;" text-anchor="middle"><textPath startOffset="22.20632615414155" xlink:href="#id75">March</textPath></text><path d="M 118.03404312379186 89.2402003453031 l 39.601385712520326 -23.62770086497952 a67.11440120522832,67.11440120522832 0 0,0 0.5833849830348302,0.9971940430272275 l -40.00223037002549 22.942527409598398" fill="#35ff66" stroke="none" /><path d="M 118.73160827565052 90.50648371742162 l 29.121871765251562 -14.759488865777827 a53.648521049057884,53.648521049057884 0 0,0 0.4103856060185462,0.8273123396642693 l -29.371617384223516 14.256016937614607" fill="#9eff22" stroke="none" /><path d="M 119.04729006885535 91.15688171328212 l 41.331301885215986 -19.188954974368972 a66.56854736038025,66.56854736038025 0 0,0 0.4735803208931673,1.0434714616377132 l -41.655484523072495 18.474661503889198" fill="#34ff5f" stroke="none" /><path d="M 119.47837535516314 92.15188598940014 l 18.605262387547658 -7.496324398322815 a41.058680614496694,41.058680614496694 0 0,0 0.25848678145636433,0.6578206643054085 l -18.731542718885724 7.174954729121622" fill="#ffb410" stroke="none" /><path d="M 119.85752413597 93.16781622104841 l 21.095037893976787 -7.257963013351109 a43.30871244270922,43.30871244270922 0 0,0 0.23647115104482164,0.7070186430077987 l -21.216846338793378 6.893771267420996" fill="#ffd513" stroke="none" /><path d="M 119.97218684219823 93.5106431181261 l 20.51865889560628 -6.666916415467014 a42.57459472076049,42.57459472076049 0 0,0 0.22046446222256105,0.6989325925926111 l -20.630378841597047 6.312733656447985" fill="#ffca12" stroke="none" /><path d="M 120.08093135843002 93.85539295169968 l 45.07067212347166 -13.791271164584497 a68.1334769139365,68.1334769139365 0 0,0 0.33351045885850694,1.1244314703406726 l -45.30138847944187 13.013410307497296" fill="#37ff73" stroke="none" /><path d="M 120.53481517161879 95.60439243477599 l 29.770863321186006 -6.372642312296958 a51.44527669326091,51.44527669326091 0 0,0 0.1779043912053527,0.8675249929758448 l -29.876147008306354 5.859241663157701" fill="#baff1f" stroke="none" /><path d="M 120.6074358757038 95.95851677861258 l 21.92491602112681 -4.299864416134509 a43.34257766083857,43.34257766083857 0 0,0 0.13728096080911342,0.7333603820084448 l -21.99568270584578 3.921825956663502" fill="#ffd513" stroke="none" /><path d="M 120.67395015179393 96.31383870115 l 32.691275890915456 -5.828848145339259 a54.20685155321677,54.20685155321677 0 0,0 0.15587861229277944,0.9200043935342931 l -32.78676636472846 5.265257963489128" fill="#97ff23" stroke="none" /><path d="M 120.78858239683441 97.02765380044208 l 28.770007661821722 -4.113528344669118 a50.06259548463758,50.06259548463758 0 0,0 0.11462904230716567,0.8541195100372382 l -28.836552703186726 3.617690492567215" fill="#ccff1d" stroke="none" /><path d="M 120.91429891909075 98.10471618934814 l 30.189671557605354 -2.7358314028780275 a51.31338058054659,51.31338058054659 0 0,0 0.0721454308860644,0.8803569944853371 l -30.232291472310912 2.2157604911849216" fill="#bcff1f" stroke="none" /><path d="M 120.96714384426684 98.82574320788733 l 60.3882038215405 -3.382018029142188 a81.48283398404345,81.48283398404345 0 0,0 0.06637510858933403,1.4010736358342895 l -60.43747253836333 2.342033286684899" fill="#49ecff" stroke="none" /><line stroke="#e1ed5e" stroke-width="0.3" x1="184.98032266829074" x2="189.97916517819016" y1="98.17113171792111" y2="98.06355123074" /><path d="M 185.9800911702706 98.14961562048488 a86.0,86.0 0 0,1 -9.607161424134198,41.387399972396054" fill="none" id="id76" stroke="none" /><text fill="#e1ed5e" style="font-size:6.75px; font-family:Arial;" text-anchor="middle"><textPath startOffset="21.466115282336823" xlink:href="#id76">April</textPath></text><path d="M 120.99980553446 99.90962569577887 l 22.605492159044665 -0.0972845020920527 a43.605701493804105,43.605701493804105 0 0,0 -0.0032303575241444545,0.7506213231566481 l -22.603817504231017 -0.29184629926828015" fill="#ffd914" stroke="none" /><path d="M 120.9904718944345 100.63252640178507 l 33.4184898987282 1.0070320131458264 a54.43365939568834,54.43365939568834 0 0,0 -0.03628357774493811,0.93631791914345 l -33.39620418813205 -1.5821271793032825" fill="#94ff23" stroke="none" /><path d="M 120.89721153311464 102.0752229133903 l 26.67023915056895 2.6485204163797125 a47.8014237820404,47.8014237820404 0 0,0 -0.08835910743769965,0.8180955964956727 l -26.620697741630195 -3.107212334760176" fill="#ebff1a" stroke="none" /><path d="M 120.76222939487914 103.15116336523771 l 22.911671705556778 3.4773924871820845 a44.17405788490918,44.17405788490918 0 0,0 -0.12057045241456611,0.7507923222789876 l -22.848419498780924 -3.871264039154277" fill="#ffe115" stroke="none" /><path d="M 120.64145759157962 103.86396538481128 l 31.976345593219524 5.985793006951486 a53.53177516550671,53.53177516550671 0 0,0 -0.17734329458076098,0.9042696383642188 l -31.8685723656631 -6.53532637238365" fill="#a0ff22" stroke="none" /><path d="M 120.41448212921028 104.9243191809786 l 22.867312825540562 5.515983528336677 a44.523181548124256,44.523181548124256 0 0,0 -0.18612531388153458,0.7434781081134632 l -22.768976197363965 -5.908789475847535" fill="#ffe615" stroke="none" /><path d="M 120.32669344350535 105.2749913415812 l 22.880469370321574 5.937723130188877 a44.638367849261584,44.638367849261584 0 0,0 -0.1994100550905997,0.7420789973534438 l -22.774871238889197 -6.330693060717869" fill="#ffe715" stroke="none" /><path d="M 120.23288151984713 105.62410040840565 l 21.46373518046081 5.966238752296743 a43.277520794432185,43.277520794432185 0 0,0 -0.2056864396475846,0.7160214799390698 l -21.357856103927126 -6.334817707740394" fill="#ffd413" stroke="none" /><path d="M 120.13307415673323 105.97154293290107 l 38.907866415627936 11.540214520632423 a61.58323077575963,61.58323077575963 0 0,0 -0.3101836704119883,1.013698182013436 l -38.70345597270982 -12.208239675197916" fill="#40ff2d" stroke="none" /><path d="M 119.79798401119884 107.00284435728193 l 17.52781965887074 6.199853122628395 a39.59200475301307,39.59200475301307 0 0,0 -0.23279295453156498,0.6405462302752343 l -17.41850244333395 -6.50064714990976" fill="#ff9e0e" stroke="none" /><path d="M 119.54520255179757 107.68017299344265 l 25.30346440951343 9.942848301697918 a48.186863435749444,48.186863435749444 0 0,0 -0.30999615606218067,0.7693850367466096 l -25.12856563919386 -10.376932706287342" fill="#e6ff1a" stroke="none" /><path d="M 119.26925614724726 108.34839909993367 l 31.399221817769774 13.603702870467796 a55.21946613478187,55.21946613478187 0 0,0 -0.3853764313538972,0.8689221162963984 l -31.160404301684604 -14.14217332325688" fill="#8bff24" stroke="none" /><path d="M 119.12269723197855 108.67885076344098 l 31.23973054741649 14.178175600549634 a55.306579952469875,55.306579952469875 0 0,0 -0.4009078725972966,0.8635198911358951 l -30.99104805797936 -14.71381555896436" fill="#8aff24" stroke="none" /><line stroke="#e1ed5e" stroke-width="0.3" x1="174.80103733775053" x2="179.2010983576182" y1="140.37084112569926" y2="142.7455964860345" /><path d="M 175.68104954172406 140.8457921977663 a86.0,86.0 0 0,1 -30.038265399797805,32.042727171017184" fill="none" id="id77" stroke="none" /><text fill="#e1ed5e" style="font-size:6.75px; font-family:Arial;" text-anchor="middle"><textPath startOffset="22.206326154141568" xlink:href="#id77">May</textPath></text><path d="M 118.48025628344425 109.97397251340804 l 53.3940514493941 28.817284423314174 a81.67421702597183,81.67421702597183 0 0,0 -0.6783766756622217,1.2314507141523154 l -52.89009836428036 -29.732105655864295" fill="#4aeaff" stroke="none" /><path d="M 118.30583269289576 110.29060199501025 l 7.496853757622531 4.2143473901862 a29.600205822441012,29.600205822441012 0 0,0 -0.2535018062211776,0.44200176687745957 l -7.423199955248974 -4.342769002921974" fill="#ff0000" stroke="none" /><path d="M 118.12598468904814 110.60418214915192 l 31.765280479987066 18.583532205685206 a57.80191181463249,57.80191181463249 0 0,0 -0.5098104518702155,0.8544716415768843 l -31.44068915241862 -19.127565941148195" fill="#6bff28" stroke="none" /><path d="M 117.94076556474637 110.91462005526583 l 29.539374570575013 17.970863558996925 a55.57638771006621,55.57638771006621 0 0,0 -0.5042508122995458,0.8130128663808698 l -29.225659118607506 -18.476672756743067" fill="#86ff25" stroke="none" /><path d="M 117.55443506779139 111.5257021239791 l 20.509910900531807 13.466176650857221 a45.535573332201665,45.535573332201665 0 0,0 -0.4358337539578533,0.6515123274667182 l -20.27507404116323 -13.817225892529747" fill="#fff417" stroke="none" /><path d="M 116.93607887273984 112.41649034213515 l 25.820979866832943 18.930352742808818 a53.01689017144797,53.01689017144797 0 0,0 -0.5459192940209207,0.7313481071970315 l -25.49129930611693 -19.372013729515167" fill="#a6ff21" stroke="none" /><path d="M 116.71984013943494 112.70617746262583 l 28.73589483309033 21.837731476596407 a57.092079018842306,57.092079018842306 0 0,0 -0.6013513652292984,0.7773277025386701 l -28.355736650642964 -22.329137173248327" fill="#74ff27" stroke="none" /><path d="M 116.498646956653 112.99209946851258 l 37.65022882887372 29.64822019903501 a68.92240281785776,68.92240281785776 0 0,0 -0.7420057492979857,0.9257662608488402 l -37.13430516752088 -30.2919142934621" fill="#38ff7e" stroke="none" /><path d="M 116.0416608686014 113.55231037782055 l 18.749763352699865 15.840168580289154 a45.545153624172464,45.545153624172464 0 0,0 -0.5110979335374206,0.594522363361524 l -18.474322909591667 -16.160568042812205" fill="#fff417" stroke="none" /><path d="M 115.80600337817218 113.82643327865902 l 18.167278348126796 15.891978251889354 a45.13721142420642,45.13721142420642 0 0,0 -0.5165871103504732,0.5803910947811136 l -17.891032388127986 -16.202343516411332" fill="#ffee16" stroke="none" /><path d="M 115.32070863581623 114.36230785411682 l 24.000211264140326 22.49885634751915 a53.89694024783568,53.89694024783568 0 0,0 -0.6403301663121148,0.6713836193719838 l -23.609374546449246 -22.908647083473642" fill="#9bff22" stroke="none" /><path d="M 115.07121518719521 114.62390073753431 l 25.586815963653915 24.827397936693462 a56.65227677813614,56.65227677813614 0 0,0 -0.6851131809407738,0.6940160351816175 l -25.155662157657606 -25.264154465855743" fill="#79ff26" stroke="none" /><path d="M 114.81725581225074 114.88116024355365 l 15.474046836520637 15.540783901438212 a42.930847903581736,42.930847903581736 0 0,0 -0.528151742877994,0.5169076416127313 l -15.204245141266847 -15.804841645973516" fill="#ffcf13" stroke="none" /><path d="M 114.29624159901734 115.38237550388516 l 16.858480706683693 18.139276596517266 a45.76371795959939,45.76371795959939 0 0,0 -0.5816360448327832,0.5313107364972302 l -16.543745112384048 -18.42678009960108" fill="#fff717" stroke="none" /><path d="M 113.75828350139079 115.86535959552629 l 30.279142048904085 34.91638159668119 a67.21666525207945,67.21666525207945 0 0,0 -0.8806488171529061,0.7505080272457805 l -29.67362775517413 -35.43241401414992" fill="#35ff68" stroke="none" /><path d="M 112.92097659922987 116.55440617244103 l 17.051039226347495 21.8458586970899 a48.71244270921745,48.71244270921745 0 0,0 -0.6654381132467166,0.5102295695007586 l -16.672472384607282 -22.13612760841803" fill="#deff1b" stroke="none" /><path d="M 112.34349029814194 116.9893568818739 l 15.741695502547868 21.66658508726926 a47.781372008148026,47.781372008148026 0 0,0 -0.669559619994487,0.47771301095555607 l -15.366408554704497 -21.93434236006904" fill="#ebff1a" stroke="none" /><path d="M 111.7513745106137 117.40417183066458 l 15.034692789948839 22.266874100658555 a47.86737183839756,47.86737183839756 0 0,0 -0.6868404876062525,0.4552004229183661 l -14.649177603602622 -22.52237254466824" fill="#eaff1a" stroke="none" /><path d="M 111.45004920935366 117.60387380957326 l 14.650027951001887 22.52367991095438 a47.86893142081141,47.86893142081141 0 0,0 -0.6945968819280343,0.44332459376049665 l -14.260149267026923 -22.772518933538688" fill="#eaff1a" stroke="none" /><line stroke="#e1ed5e" stroke-width="0.3" x1="143.8653032363475" x2="146.44561519142675" y1="172.8068346515853" y2="177.08958963109032" /><path d="M 144.38136562736335 173.6633856474863 a86.0,86.0 0 0,1 -40.68145358897372,12.25698825130547" fill="none" id="id78" stroke="none" /><text fill="#e1ed5e" style="font-size:6.75px; font-family:Arial;" text-anchor="middle"><textPath startOffset="21.466115282336833" xlink:href="#id78">June</textPath></text><path d="M 110.8373102113329 117.98757091392108 l 30.306089134206438 50.301497031531774 a79.72563019860804,79.72563019860804 0 0,0 -1.1815798866817473,0.6980982240809812 l -29.43574137649631 -50.8157138279065" fill="#47fffe" stroke="none" /><path d="M 110.21172684928248 118.3499491758327 l 12.009526409384698 21.58050273872278 a45.697101510779156,45.697101510779156 0 0,0 -0.6906294087259054,0.37658621923443086 l -11.636274188790145 -21.784029609716985" fill="#fff617" stroke="none" /><path d="M 109.57404056367764 118.69057910512821 l 13.443230356917411 26.244066832939104 a50.486801901205226,50.486801901205226 0 0,0 -0.7768863213318594,0.3895469294112683 l -12.98949012790279 -26.471581603259676" fill="#c7ff1e" stroke="none" /><path d="M 109.2508944713604 118.85261126421891 l 9.82004589980441 20.012498090746718 a43.292002631132235,43.292002631132235 0 0,0 -0.67182453497079,0.32251660349573485 l -9.474108696833385 -20.178568970742013" fill="#ffd413" stroke="none" /><path d="M 108.59647513512805 119.15986991738527 l 25.789425405384144 57.479609752155824 a84.0,84.0 0 0,0 -1.3243173013689848,0.5805417868221818 l -24.796187429357403 -57.91501609227246" fill="#4dd2ff" stroke="none" /><line stroke="#e1ed5e" stroke-width="0.3" x1="102.19456741930631" x2="102.32365962044197" y1="184.97166512339345" y2="189.96999836594603" /><path d="M 102.22038585953345 185.97133177190398 a86.0,86.0 0 0,1 -42.740103519485714,-10.115201625700543" fill="none" id="id79" stroke="none" /><text fill="#e1ed5e" style="font-size:6.75px; font-family:Arial;" text-anchor="middle"><textPath startOffset="22.20632615414155" xlink:href="#id79">July</textPath></text><line stroke="#e1ed5e" stroke-width="0.3" x1="58.666819895761336" x2="56.23545636021788" y1="174.27360380694188" y2="178.64263932499728" /><path d="M 58.180547188652646 175.14741091055294 a86.0,86.0 0 0,1 -31.652253787137756,-30.449443065178592" fill="none" id="id80" stroke="none" /><text fill="#e1ed5e" style="font-size:6.75px; font-family:Arial;" text-anchor="middle"><textPath startOffset="22.20632615414155" xlink:href="#id80">August</textPath></text><line stroke="#e1ed5e" stroke-width="0.3" x1="26.63291911575756" x2="22.317208475507996" y1="142.92168965132927" y2="145.44649492493687" /><path d="M 25.769776987707644 143.4266507060508 a86.0,86.0 0 0,1 -11.730757126820373,-40.83630448921669" fill="none" id="id81" stroke="none" /><text fill="#e1ed5e" style="font-size:6.75px; font-family:Arial;" text-anchor="middle"><textPath startOffset="21.46611528233685" xlink:href="#id81">September</textPath></text><line stroke="#e1ed5e" stroke-width="0.3" x1="15.007084014347285" x2="10.007500721073583" y1="101.09737516637583" y2="101.16192664675087" /><path d="M 14.007167355692545 101.11028546245083 a86.0,86.0 0 0,1 10.666146001902534,-42.60595125391555" fill="none" id="id82" stroke="none" /><text fill="#e1ed5e" style="font-size:6.75px; font-family:Arial;" text-anchor="middle"><textPath startOffset="22.20632615414155" xlink:href="#id82">October</textPath></text><line stroke="#e1ed5e" stroke-width="0.3" x1="26.266209847984243" x2="21.928928074336255" y1="57.711370442889674" y2="55.22380399835377" /><path d="M 25.398753493254645 57.213857153982495 a86.0,86.0 0 0,1 29.58750427330803,-30.492523968695096" fill="none" id="id83" stroke="none" /><text fill="#e1ed5e" style="font-size:6.75px; font-family:Arial;" text-anchor="middle"><textPath startOffset="21.46611528233685" xlink:href="#id83">November</textPath></text><line stroke="#e1ed5e" stroke-width="0.3" x1="56.762969772571076" x2="54.21961505331055" y1="26.818313649435495" y2="22.513508569990535" /><path d="M 56.25429882871897 25.957352633546506 a86.0,86.0 0 0,1 42.265352541879196,-11.944610805530505" fill="none" id="id84" stroke="none" /><text fill="#e1ed5e" style="font-size:6.75px; font-family:Arial;" text-anchor="middle"><textPath startOffset="22.20632615414155" xlink:href="#id84">December</textPath></text></svg>