<?xml version="1.0" encoding="utf-8" ?>
<svg baseProfile="full" height="200mm" version="1.1" viewBox="0,0,200,200" width="200mm" xmlns="http://www.w3.org/2000/svg" xmlns:ev="http://www.w3.org/2001/xml-events" xmlns:xlink="http://www.w3.org/1999/xlink"><defs /><rect fill="#1a1a1a" height="200" width="200" x="0" y="0" /><text alignment-baseline="middle" fill="#e1ed5e" style="dominant-baseline: central; font-size:9.0px; font-family:Arial;" text-anchor="middle" x="100.0" y="100.0">2026</text><line stroke="#e1ed5e" stroke-width="0.3" x1="100.0" x2="100.0" y1="15.0" y2="10.0" /><path d="M 100.0 14.0 a86.0,86.0 0 0,1 42.46469731375804,11.215312516191453" fill="none" id="id85" stroke="none" /><text fill="#e1ed5e" style="font-size:6.75px; font-family:Arial;" text-anchor="middle"><textPath startOffset="22.20632615414155" xlink:href="#id85">January</textPath></text><path d="M 100.36148047927253 79.00311137660856 l 0.18519019212482898 -10.75692343336175 a31.758517423812,31.758517423812 0 0,0 0.5465086810793028,0.014114706874615732 l -0.37032550839899964 10.752141934344774" fill="#ff4006" stroke="none" /><path d="M 101.08401301168833 79.027996857942 l 0.6395081784624929 -12.372330759386939 a33.38884736890372,33.38884736890372 0 0,0 0.5737125369620063,0.034607906970527146 l -0.8523827642641111 12.359489583036108" fill="#ff5908" stroke="none" /><path d="M 101.80526077348638 79.07773832637324 l 0.8571131905423818 -9.933604451955464 a30.97051354892571,30.97051354892571 0 0,0 0.5307385536842624,0.05040002079142055 l -1.0279768713168882 9.917378886648864" fill="#ff3304" stroke="none" /><path d="M 102.16513564639614 79.11191278185805 l 0.7396703680271933 -7.135949743261669 a28.174182252472665,28.174182252472665 0 0,0 0.48195735078445473,0.0541535239698371 l -0.8623944223213733 7.122160265821231" fill="#ff0701" stroke="none" /><path d="M 103.2404852339499 79.25152402106235 l 2.7829240310606838 -17.81876115488066 a39.0347696203012,39.0347696203012 0 0,0 0.662979155650426,0.10939724130693018 l -3.089232392849985 17.768217650634107" fill="#ffac0f" stroke="none" /><path d="M 103.59715602781102 79.31037775812273 l 1.3396611948667572 -7.705277124373659 a28.82086872926709,28.82086872926709 0 0,0 0.48804007305620073,0.08918620387737972 l -1.4720963890258587 7.681075439145541" fill="#ff1101" stroke="none" /><path d="M 104.66035177308747 79.52364482259891 l 2.2129219894728416 -9.72299492454567 a30.971642494305204,30.971642494305204 0 0,0 0.5188138193029294,0.12278646882678532 l -2.3799594957382944 9.683462543578017" fill="#ff3304" stroke="none" /><path d="M 105.71112130821622 79.79150937346287 l 4.942069576206666 -17.487243102819008 a39.17216891384071,39.17216891384071 0 0,0 0.6472917050520476,0.18896219861194663 l -5.242351498982141 17.39958257528836" fill="#ffae10" stroke="none" /><path d="M 106.0581310904928 79.89281104454417 l 3.5665316417472765 -11.837466797106101 a33.363080850830585,33.363080850830585 0 0,0 0.5484487391019836,0.17040569295064997 l -3.769765753559978 11.774320969272932" fill="#ff5808" stroke="none" /><path d="M 108.09893153111575 80.62456947434976 l 24.296794593347244 -58.12629157695072 a84.0,84.0 0 0,0 1.329264968838739,0.5691218881488367 l -25.2937433199763 57.69945016083909" fill="#4dd2ff" stroke="none" /><path d="M 110.36928655335952 81.73862282372117 l 3.3766449013480835 -5.946618006607059 a27.838420614901025,27.838420614901025 0 0,0 0.4146642348259812,0.24020028953558129 l -3.478505868639393 5.887613559681428" fill="#ff0200" stroke="none" /><line stroke="#e1ed5e" stroke-width="0.3" x1="143.23703022742887" x2="145.7803849466894" y1="26.81831364943548" y2="22.513508569990506" /><path d="M 143.74570117128098 25.957352633546492 a86.0,86.0 0 0,1 28.547481713284135,27.462654790039103" fill="none" id="id86" stroke="none" /><text fill="#e1ed5e" style="font-size:6.75px; font-family:Arial;" text-anchor="middle"><textPath startOffset="19.985693538727396" xlink:href="#id86">February</textPath></text><path d="M 110.68208982089419 81.91981866633111 l 3.867112146986832 -6.545356763280118 a28.60238459405928,28.60238459405928 0 0,0 0.42173253652157106,0.25408913445668796 l -3.979206749726041 6.477821019364815" fill="#ff0e01" stroke="none" /><path d="M 111.60114157652 82.49532879139004 l 3.7205175181791845 -5.6137954572860345 a27.73475686564285,27.73475686564285 0 0,0 0.3956763313677396,0.26716242520058203 l -3.816598543953466 5.548921119786782" fill="#ff0000" stroke="none" /><path d="M 112.48926042617603 83.11751280151076 l 5.882731514078594 -7.9520432827574155 a30.891487372361183,30.891487372361183 0 0,0 0.4247636092806493,0.31992314423705526 l -6.018741277117625 7.849603549014513" fill="#ff3204" stroke="none" /><line stroke="#e1ed5e" stroke-width="0.3" x1="172.23445277983987" x2="176.4835382374775" y1="55.19839476539836" y2="52.563006222186495" /><path d="M 173.08426987136738 54.67131705675599 a86.0,86.0 0 0,1 12.851231095245387,41.99856678651699" fill="none" id="id87" stroke="none" /><text fill="#e1ed5e" style="font-size:6.75px; font-family:Arial;" text-anchor="middle"><textPath startOffset="22.20632615414155" xlink:href="#id87">March</textPath></text><line stroke="#e1ed5e" stroke-width="0.3" x1="184.98032266829074" x2="189.97916517819016" y1="98.17113171792111" y2="98.06355123074" /><path d="M 185.9800911702706 98.14961562048488 a86.0,86.0 0 0,1 -9.607161424134198,41.387399972396054" fill="none" id="id88" stroke="none" /><text fill="#e1ed5e" style="font-size:6.75px; font-family:Arial;" text-anchor="middle"><textPath startOffset="21.466115282336823" xlink:href="#id88">April</textPath></text><line stroke="#e1ed5e" stroke-width="0.3" x1="174.80103733775053" x2="179.2010983576182" y1="140.37084112569926" y2="142.7455964860345" /><path d="M 175.68104954172406 140.8457921977663 a86.0,86.0 0 0,1 -30.038265399797805,32.042727171017184" fill="none" id="id89" stroke="none" /><text fill="#e1ed5e" style="font-size:6.75px; font-family:Arial;" text-anchor="middle"><textPath startOffset="22.206326154141568" xlink:href="#id89">May</textPath></text><line stroke="#e1ed5e" stroke-width="0.3" x1="143.8653032363475" x2="146.44561519142675" y1="172.8068346515853" y2="177.08958963109032" /><path d="M 144.38136562736335 173.6633856474863 a86.0,86.0 0 0,1 -40.68145358897372,12.25698825130547" fill="none" id="id90" stroke="none" /><text fill="#e1ed5e" style="font-size:6.75px; font-family:Arial;" text-anchor="middle"><textPath startOffset="21.466115282336833" xlink:href="#id90">June</textPath></text><line stroke="#e1ed5e" stroke-width="0.3" x1="102.19456741930631" x2="102.32365962044197" y1="184.97166512339345" y2="189.96999836594603" /><path d="M 102.22038585953345 185.97133177190398 a86.0,86.0 0 0,1 -42.740103519485714,-10.115201625700543" fill="none" id="id91" stroke="none" /><text fill="#e1ed5e" style="font-size:6.75px; font-family:Arial;" text-anchor="middle"><textPath startOffset="22.20632615414155" xlink:href="#id91">July</textPath></text><line stroke="#e1ed5e" stroke-width="0.3" x1="58.666819895761336" x2="56.23545636021788" y1="174.27360380694188" y2="178.64263932499728" /><path d="M 58.180547188652646 175.14741091055294 a86.0,86.0 0 0,1 -31.652253787137756,-30.449443065178592" fill="none" id="id92" stroke="none" /><text fill="#e1ed5e" style="font-size:6.75px; font-family:Arial;" text-anchor="middle"><textPath startOffset="22.20632615414155" xlink:href="#id92">August</textPath></text><line stroke="#e1ed5e" stroke-width="0.3" x1="26.63291911575756" x2="22.317208475507996" y1="142.92168965132927" y2="145.44649492493687" /><path d="M 25.769776987707644 143.4266507060508 a86.0,86.0 0 0,1 -11.730757126820373,-40.83630448921669" fill="none" id="id93" stroke="none" /><text fill="#e1ed5e" style="font-size:6.75px; font-family:Arial;" text-anchor="middle"><textPath startOffset="21.46611528233685" xlink:href="#id93">September</textPath></text><line stroke="#e1ed5e" stroke-width="0.3" x1="15.007084014347285" x2="10.007500721073583" y1="101.09737516637583" y2="101.16192664675087" /><path d="M 14.007167355692545 101.11028546245083 a86.0,86.0 0 0,1 10.666146001902534,-42.60595125391555" fill="none" id="id94" stroke="none" /><text fill="#e1ed5e" style="font-size:6.75px; font-family:Arial;" text-anchor="middle"><textPath startOffset="22.20632615414155" xlink:href="#id94">October</textPath></text><line stroke="#e1ed5e" stroke-width="0.3" x1="26.266209847984243" x2="21.928928074336255" y1="57.711370442889674" y2="55.22380399835377" /><path d="M 25.398753493254645 57.213857153982495 a86.0,86.0 0 0,1 29.58750427330803,-30.492523968695096" fill="none" id="id95" stroke="none" /><text fill="#e1ed5e" style="font-size:6.75px; font-family:Arial;" text-anchor="middle"><textPath startOffset="21.46611528233685" xlink:href="#id95">November</textPath></text><line stroke="#e1ed5e" stroke-width="0.3" x1="56.762969772571076" x2="54.21961505331055" y1="26.818313649435495" y2="22.513508569990535" /><path d="M 56.25429882871897 25.957352633546506 a86.0,86.0 0 0,1 42.265352541879196,-11.944610805530505" fill="none" id="id96" stroke="none" /><text fill="#e1ed5e" style="font-size:6.75px; font-family:Arial;" text-anchor="middle"><textPath startOffset="22.20632615414155" xlink:href="#id96">December</textPath></text></svg>