<?xml version="1.0" encoding="utf-8" ?>
<svg baseProfile="full" height="200mm" version="1.1" viewBox="0,0,200,200" width="200mm" xmlns="http://www.w3.org/2000/svg" xmlns:ev="http://www.w3.org/2001/xml-events" xmlns:xlink="http://www.w3.org/1999/xlink"><defs /><rect fill="#1a1a1a" height="200" width="200" x="0" y="0" /><text alignment-baseline="middle" fill="#e1ed5e" style="dominant-baseline: central; font-size:9.0px; font-family:Arial;" text-anchor="middle" x="100.0" y="100.0">2020</text><line stroke="#e1ed5e" stroke-width="0.3" x1="100.0" x2="100.0" y1="15.0" y2="10.0" /><path d="M 100.0 14.0 a86.0,86.0 0 0,1 42.35913384403234,11.155469271406648" fill="none" id="id13" stroke="none" /><text fill="#e1ed5e" style="font-size:6.75px; font-family:Arial;" text-anchor="middle"><textPath startOffset="22.145653131862478" xlink:href="#id13">January</textPath></text><path d="M 100.0 79.0 l 0.0 -30.367234238380114 a51.367234238380114,51.367234238380114 0 0,0 0.8817868815233277,0.007569079851445645 l -0.521293956674473 30.362759556723102" fill="#94ff23" stroke="none" /><path d="M 100.36049292484886 79.00309439819443 l 0.3400893577723817 -19.808500109452464 a40.81141936756295,40.81141936756295 0 0,0 0.7003758178069129,0.018039196662645852 l -0.680078489650036 19.799743195439774" fill="#ffeb16" stroke="none" /><path d="M 100.72087961077811 79.0123766808444 l 0.5334239662424446 -15.530056760548769 a36.539215041746104,36.539215041746104 0 0,0 0.6266897136144469,0.026912752782478924 l -0.7999394404577278 15.518611439340459" fill="#ffb310" stroke="none" /><path d="M 101.08105385017728 79.02784411241856 l 0.6136838840323761 -11.905303403260536 a32.92110972322661,32.92110972322661 0 0,0 0.5641355841890477,0.033936995872579326 l -0.8179638203538863 11.893014429563264" fill="#ff820b" stroke="none" /><path d="M 101.44090949804482 79.04949213459386 l 1.425712400396456 -20.729545400903465 a41.77851554795872,41.77851554795872 0 0,0 0.7150711352476828,0.05535102829409911 l -1.7813525304193725 20.70201660561431" fill="#fff717" stroke="none" /><path d="M 101.80034050326958 79.07731436759882 l 1.7282436945133095 -20.084811429178338 a41.15902964959568,41.15902964959568 0 0,0 0.7034282719947185,0.06661538870951672 l -2.072771529893041 20.052184284963637" fill="#ffef16" stroke="none" /><path d="M 102.15924093988457 79.11130261209362 l 2.0753266766235603 -20.076903011739155 a41.183880086779304,41.183880086779304 0 0,0 0.7026050318033757,0.07872835930742202 l -2.419667610027733 20.03831889192476" fill="#ffef16" stroke="none" /><path d="M 102.51750503828377 79.15144685158666 l 2.1250913609600697 -17.59880497177222 a38.72664519098021,38.72664519098021 0 0,0 0.6593159304543686,0.08536164716209735 l -2.42688511330523 17.559731728409727" fill="#ffd013" stroke="none" /><path d="M 103.94208987418118 79.37332000966035 l 3.964599811947097 -20.74446149652528 a42.11991322069555,42.11991322069555 0 0,0 0.7090255882212851,0.14182497506397132 l -4.320121885699339 20.673347124798447" fill="#fffb17" stroke="none" /><path d="M 104.29559338865022 79.4440306129975 l 4.177973597290489 -19.99311610650244 a41.424988495167966,41.424988495167966 0 0,0 0.6948303732913398,0.15143504588578668 l -4.5205663872009625 19.918449602482934" fill="#fff316" stroke="none" /><path d="M 104.64783097203109 79.52079915486377 l 4.170070422908924 -18.374099712966693 a39.84136480178818,39.84136480178818 0 0,0 0.6656692314317606,0.15709612609454843 l -4.484871808080569 18.29980744322592" fill="#ffde14" stroke="none" /><path d="M 104.9986988182912 79.60360301121754 l 4.829926949702142 -19.707750171397738 a41.29097363749918,41.29097363749918 0 0,0 0.6869927441196187,0.17463086909097922 l -5.167524987047155 19.621934070471493" fill="#fff116" stroke="none" /><path d="M 105.3480935250658 79.69241777938227 l 5.130080245713943 -19.479750288570514 a41.14394188416278,41.14394188416278 0 0,0 0.6814584869606626,0.18573454093241754 l -5.463720133609298 19.388815253493956" fill="#ffef16" stroke="none" /><path d="M 105.69591212413111 79.78721728523813 l 5.57645936181451 -19.788887002053368 a41.559595029912565,41.559595029912565 0 0,0 0.6850208432894985,0.1993995838808338 l -5.915340217485612 19.69024372387002" fill="#fff417" stroke="none" /><path d="M 106.04205211174951 79.88797359093562 l 6.269259646291661 -20.86832639630946 a42.78969167050161,42.78969167050161 0 0,0 0.7016681496796197,0.21737858638622 l -6.626568428842911 20.757631222116594" fill="#faff18" stroke="none" /><path d="M 106.38641147887787 79.99465700312896 l 6.383922339661203 -19.99754580372725 a41.991815133784755,41.991815133784755 0 0,0 0.684821042296224,0.22511427887705404 l -6.72626611960517 19.885010603448173" fill="#fffa17" stroke="none" /><line stroke="#e1ed5e" stroke-width="0.3" x1="143.13028292997686" x2="145.6673583964461" y1="26.7553504044142" y2="22.446841604673864" /><path d="M 143.63769802327073 25.89364864446614 a86.0,86.0 0 0,1 29.32050498858742,28.57503671076993" fill="none" id="id14" stroke="none" /><text fill="#e1ed5e" style="font-size:6.75px; font-family:Arial;" text-anchor="middle"><textPath startOffset="20.669276256404974" xlink:href="#id14">February</textPath></text><path d="M 110.65571695917076 81.90426304109057 l 9.571651349130867 -16.254756553682142 a39.863552692130696,39.863552692130696 0 0,0 0.586691349732586,0.3522912985027643 l -9.849275455420887 16.088051254643457" fill="#ffdf14" stroke="none" /><path d="M 110.96478420261332 82.08984904055464 l 10.436095358109654 -17.046577464457773 a40.98744329761357,40.98744329761357 0 0,0 0.5969252585527572,0.3725255097381598 l -10.727184745452124 16.864916157878067" fill="#ffed16" stroke="none" /><path d="M 111.5731344415666 82.4767994020092 l 8.97454039563204 -13.588598008729603 a37.28472815725462,37.28472815725462 0 0,0 0.5310476471013867,0.3573125568732958 l -9.206484330830428 13.432535777799188" fill="#ffbd11" stroke="none" /><path d="M 111.8722381534696 82.67804972795209 l 11.39546203896378 -16.626319672357113 a41.15666294129248,41.15666294129248 0 0,0 0.5793386474453821,0.4044233696236536 l -11.679195777582922 16.428251486928332" fill="#ffef16" stroke="none" /><path d="M 115.16444852881244 85.47280134310134 l 10.978441492937508 -10.517098607840504 a36.203142462691474,36.203142462691474 0 0,0 0.42606645047948993,0.4524678055323557 l -11.157363777153257 10.327089342363653" fill="#ffae10" stroke="none" /><path d="M 115.41159269507618 85.73525988315684 l 11.699925600058602 -10.829276465667146 a36.942442968904075,36.942442968904075 0 0,0 0.4267772190844736,0.4691029241385906 l -11.884100519984953 10.626835965970884" fill="#ffb811" stroke="none" /><line stroke="#e1ed5e" stroke-width="0.3" x1="172.87174338648825" x2="177.1583165268699" y1="56.24261187166439" y2="53.66864786411523" /><path d="M 173.72905801456457 55.72781907015455 a86.0,86.0 0 0,1 12.242430191666344,42.057860355516425" fill="none" id="id15" stroke="none" /><text fill="#e1ed5e" style="font-size:6.75px; font-family:Arial;" text-anchor="middle"><textPath startOffset="22.145653131862474" xlink:href="#id15">March</textPath></text><path d="M 119.16976305983485 91.42560881287824 l 16.928936816381004 -7.572098110583998 a39.54523042535007,39.54523042535007 0 0,0 0.27185673339296107,0.6220614080451071 l -17.056427431790937 7.280374632763042" fill="#ffda14" stroke="none" /><path d="M 119.94978838288452 93.4421083053983 l 17.363718582319482 -5.7077991852828704 a39.27779238708829,39.27779238708829 0 0,0 0.20505866342858614,0.6423433425698483 l -17.459141961525326 5.408886809021634" fill="#ffd714" stroke="none" /><path d="M 120.16314734710363 94.1308016681162 l 19.43664383181711 -5.657723746759573 a41.24334363289724,41.24334363289724 0 0,0 0.19203982534813704,0.6814815920171646 l -19.530902149239832 5.323234230839395" fill="#fff016" stroke="none" /><path d="M 120.26092885502905 94.47779374421319 l 19.388759584604212 -5.284492642768049 a41.09601604102294,41.09601604102294 0 0,0 0.17966888426587854,0.6822320183099427 l -19.47661794967482 4.950880120085308" fill="#ffee16" stroke="none" /><path d="M 120.51834098615036 95.52812308129327 l 19.779328451219005 -4.310812576330066 a41.243639471435145,41.243639471435145 0 0,0 0.1448285899313395,0.6930572313612096 l -19.85041475197471 3.970638893683452" fill="#fff016" stroke="none" /><path d="M 120.82617615685814 97.30363454192243 l 19.817013089892406 -2.5657090949103964 a40.982414042469266,40.982414042469266 0 0,0 0.0843416397599136,0.6984697676544029 l -19.858136815911983 2.2251456503325806" fill="#ffed16" stroke="none" /><path d="M 120.98066250479742 99.09900007780936 l 19.837511274751662 -0.8519080896954644 a40.85579514824798,40.85579514824798 0 0,0 0.024076345378677245,0.7009565261031128 l -19.84921230712719 0.5112452990282317" fill="#ffeb16" stroke="none" /><line stroke="#e1ed5e" stroke-width="0.3" x1="184.99686870605535" x2="189.99668451229388" y1="99.2704041080226" y2="99.22748670261217" /><path d="M 185.99683186730306 99.26182062694052 a86.0,86.0 0 0,1 -10.086455211305974,41.156179273409016" fill="none" id="id16" stroke="none" /><text fill="#e1ed5e" style="font-size:6.75px; font-family:Arial;" text-anchor="middle"><textPath startOffset="21.40746469413373" xlink:href="#id16">April</textPath></text><path d="M 120.96210409425399 101.26102812881392 l 13.10857463222952 0.7885792984125627 a34.13227269739005,34.13227269739005 0 0,0 -0.04020462966510452,0.5845664916273093 l -13.093106041399349 -1.0134892141942156" fill="#ff920d" stroke="none" /><path d="M 120.93736805541906 101.62068470465957 l 19.907184342106884 1.5409419699120515 a40.96673459996055,40.96673459996055 0 0,0 -0.060292064589899885,0.7006851821930119 l -19.877798654819244 -1.8824481994807207" fill="#ffed16" stroke="none" /><line stroke="#e1ed5e" stroke-width="0.3" x1="174.33088141563837" x2="178.70328620479359" y1="141.23008692659167" y2="143.65538615756765" /><path d="M 175.20536237346943 141.71514677278685 a86.0,86.0 0 0,1 -30.301960400862466,31.631185727798858" fill="none" id="id17" stroke="none" /><text fill="#e1ed5e" style="font-size:6.75px; font-family:Arial;" text-anchor="middle"><textPath startOffset="22.145653131862474" xlink:href="#id17">May</textPath></text><path d="M 114.65682725009322 115.03919595460226 l 7.97131971435754 8.179276261869344 a32.421142594175265,32.421142594175265 0 0,0 -0.4019102598546616,0.3850209373628755 l -7.829736968637566 -8.314909329537798" fill="#ff7b0b" stroke="none" /><line stroke="#e1ed5e" stroke-width="0.3" x1="143.1302829299769" x2="145.66735839644613" y1="173.24464959558577" y2="177.55315839532614" /><path d="M 143.63769802327073 174.10635135553383 a86.0,86.0 0 0,1 -40.68552437913181,11.842963189579606" fill="none" id="id18" stroke="none" /><text fill="#e1ed5e" style="font-size:6.75px; font-family:Arial;" text-anchor="middle"><textPath startOffset="21.407464694133747" xlink:href="#id18">June</textPath></text><path d="M 108.4095320186766 119.2426549942271 l 8.021820187204224 18.355494449070296 a41.0318190782986,41.0318190782986 0 0,0 -0.6478434289674544,0.27652583667467445 l -7.705541683066338 -18.490494935404374" fill="#ffee16" stroke="none" /><path d="M 101.08105385017728 120.97215588758144 l 0.7582718033048474 14.710270410173274 a35.729800802051145,35.729800802051145 0 0,0 -0.6128073251315543,0.026316583288781784 l -0.5056387175724636 -14.721119561887887" fill="#ffa80f" stroke="none" /><line stroke="#e1ed5e" stroke-width="0.3" x1="101.45913802915013" x2="101.54496967792366" y1="184.9874750549273" y2="189.98673829345242" /><path d="M 101.47630435890484 185.9873277026323 a86.0,86.0 0 0,1 -42.54439059252881,-10.42667462771756" fill="none" id="id19" stroke="none" /><text fill="#e1ed5e" style="font-size:6.75px; font-family:Arial;" text-anchor="middle"><textPath startOffset="22.145653131862474" xlink:href="#id19">July</textPath></text><path d="M 100.36049292484886 120.99690560180557 l 0.41119798123660867 23.950220935121123 a44.9537505752416,44.9537505752416 0 0,0 -0.771690906085458,0.006624038314909759 l -2.9334883969543695e-15 -23.9537505752416" fill="#e0ff1b" stroke="none" /><path d="M 100.0 121.0 l 4.1135282958934796e-15 33.58950759318914 a54.58950759318914,54.58950759318914 0 0,0 -0.9371014884917799,-0.008043889225307396 l 0.5766085636429236 -33.58455810215827" fill="#71ff27" stroke="none" /><path d="M 99.27912038922189 120.98762331915562 l -0.6881723650849604 20.035387547535066 a41.04720268226941,41.04720268226941 0 0,0 -0.7040069050261712,-0.030233085657102247 l 1.0320050307119704 -20.020621893452134" fill="#ffee16" stroke="none" /><path d="M 98.55909050195518 120.95050786540614 l -1.3778070347017233 20.03301189748453 a41.080336598514236,41.080336598514236 0 0,0 -0.7031212704083634,-0.05442603317930897 l 1.7214972998853226 -20.006408097310167" fill="#ffee16" stroke="none" /><path d="M 97.84075906011543 120.88869738790638 l -2.0748704004216836 20.07248895338639 a41.17944250871081,41.17944250871081 0 0,0 -0.7025293258554761,-0.07871987629805292 l 2.4191356278779588 -20.033913316581366" fill="#ffef16" stroke="none" /><path d="M 96.76829788921471 120.74984581791261 l -3.3627888376510136 21.591516639663457 a42.851817763460645,42.851817763460645 0 0,0 -0.7258740768349194,-0.1194423031157024 l 3.7329404175389964 -21.530608338052083" fill="#faff18" stroke="none" /><path d="M 96.41257539226777 120.69131181640829 l -9.613898361432645 55.45041095467327 a77.27766090329365,77.27766090329365 0 0,0 -1.3051286759436997,-0.23783792088059794 l 10.564361770927402 -55.27720485986131" fill="#44ffea" stroke="none" /><path d="M 96.05791012581884 120.62667999033965 l -3.9472175491492294 20.65351015252174 a42.02731575833278,42.02731575833278 0 0,0 -0.7074668487747994,-0.14151318351962575 l 4.301180883454987 -20.582707572339253" fill="#fffa17" stroke="none" /><path d="M 94.6519064749342 120.30758222061772 l -5.3215984196958965 20.206975989963446 a41.895963447505096,41.895963447505096 0 0,0 -0.693914062514402,-0.1891293634370701 l 5.6676938831449934 -20.11264613238223" fill="#fff817" stroke="none" /><path d="M 93.95794788825049 120.11202640906438 l -4.610145286915158 15.345674291646251 a37.02320688975084,37.02320688975084 0 0,0 -0.6071089568389129,-0.1880839067304286 l 4.872894876625704 -15.264273797109174" fill="#ffb911" stroke="none" /><path d="M 93.27111125876986 119.89276391827306 l -6.865517848535367 20.29668359661962 a42.426401945960166,42.426401945960166 0 0,0 -0.6879021416903471,-0.23928807366450125 l 7.212925762270736 -20.175837090386526" fill="#ffff18" stroke="none" /><path d="M 92.59220618246901 119.65005319985036 l -3.20482378546132 8.501175846906909 a30.085201498915257,30.085201498915257 0 0,0 -0.4816894872574567,-0.18632784153992893 l 3.350285535212305 -8.44490811722894" fill="#ff5a08" stroke="none" /><path d="M 92.25597844496254 119.51999308798841 l -6.514128934974339 16.419860260106066 a38.66481493655907,38.66481493655907 0 0,0 -0.6148544027124337,-0.25005593287562294 l 6.795037798877214 -16.305617070651152" fill="#ffcf13" stroke="none" /><path d="M 91.59046798132341 119.24265499422711 l -10.076084749558328 23.05605378488787 a46.16165932548814,46.16165932548814 0 0,0 -0.7233896850458252,-0.3235630049756652 l 10.470387837459787 -22.879687029002348" fill="#d1ff1c" stroke="none" /><path d="M 90.93487009805054 118.94263497670748 l -3.9938607288931074 8.345632853971514 a30.252054434290976,30.252054434290976 0 0,0 -0.46651513177671894,-0.22819592832336977 l 4.136536109931896 -8.275843175550923" fill="#ff5c08" stroke="none" /><path d="M 89.97174638481275 118.45085714620012 l -19.784791163244368 36.40178733289923 a62.43100387877194,62.43100387877194 0 0,0 -0.9372255624777026,-0.5198632207077455 l 20.406760913878173 -36.05679119675834" fill="#31ff43" stroke="none" /><line stroke="#e1ed5e" stroke-width="0.3" x1="58.13341422392154" x2="55.67067388415222" y1="173.97424548756322" y2="178.32567169271397" /><path d="M 57.64086615596768 174.84453072859336 a86.0,86.0 0 0,1 -31.369924170532247,-30.572349798747897" fill="none" id="id20" stroke="none" /><text fill="#e1ed5e" style="font-size:6.75px; font-family:Arial;" text-anchor="middle"><textPath startOffset="22.145653131862474" xlink:href="#id20">August</textPath></text><path d="M 89.65649057296885 118.27599006163327 l -2.540827228591274 4.489398255557995 a26.15853658536585,26.15853658536585 0 0,0 -0.3888996262714533,-0.2245313039155701 l 2.617519322723127 -4.445120054366253" fill="#ff2103" stroke="none" /><path d="M 89.34428304082925 118.09573695890944 l -15.28254801218521 25.9531076088126 a51.11843402800605,51.11843402800605 0 0,0 -0.7523349282922305,-0.45175550810124787 l 15.725815697034868 -25.686938100175436" fill="#97ff23" stroke="none" /><path d="M 88.72937992617639 117.7192867562869 l -12.973698125212968 20.39680832681648 a45.17326277036355,45.17326277036355 0 0,0 -0.6507410012316426,-0.4218024549686223 l 13.32192475870162 -20.17109203014396" fill="#ddff1b" stroke="none" /><path d="M 88.1277618465304 117.32195027204791 l -8.879509130692838 12.955469189026212 a36.70636381565972,36.70636381565972 0 0,0 -0.5166943490033661,-0.36069278410973377 l 9.10059857086997 -12.80113158911135" fill="#ffb510" stroke="none" /><path d="M 87.83215693770417 117.11559508785305 l -25.372861698972947 35.69010751012905 a64.79002037998816,64.79002037998816 0 0,0 -0.9009483947245276,-0.6522171586215653 l 25.98179110407143 -35.24928958013442" fill="#34ff5f" stroke="none" /><path d="M 87.54013794807813 116.9041958592261 l -22.08820854583259 29.96689705570163 a58.22772993228584,58.22772993228584 0 0,0 -0.7995138994517014,-0.5999701353788689 l 22.599375434195057 -29.58330789305875" fill="#4aff2c" stroke="none" /><path d="M 86.96720088162412 116.46651593811092 l -21.099518780810048 26.658552712655947 a54.99806061402932,54.99806061402932 0 0,0 -0.7352696737782546,-0.5922812021864836 l 21.554039224943566 -26.292423216676053" fill="#6cff28" stroke="none" /><path d="M 86.68645165197938 116.24036423190432 l -14.064582168962092 17.15650337706181 a43.18463611859838,43.18463611859838 0 0,0 -0.5692674117860654,-0.47490312160903236 l 14.35702391491005 -16.912538071540904" fill="#f5ff19" stroke="none" /><path d="M 86.40962598614128 116.0094264158162 l -4.594921574602158 5.412806061115387 a28.10012490960489,28.10012490960489 0 0,0 -0.36506146174128334,-0.315331395877267 l 4.687162516106304 -5.333130532773398" fill="#ff3d05" stroke="none" /><path d="M 86.13680546590413 115.77377054828092 l -7.07937308526406 8.055027028437623 a31.723851160344488,31.723851160344488 0 0,0 -0.4059670614587881,-0.3630182496735729 l 7.2166051735462196 -7.932313248880668" fill="#ff710a" stroke="none" /><path d="M 85.60350026404147 115.28858382429668 l -26.511506411964533 28.154301081624137 a59.67201367431464,59.67201367431464 0 0,0 -0.7397269992021569,-0.7086417319339752 l 26.990905897032004 -27.69504721938458" fill="#3bff2e" stroke="none" /><path d="M 85.34317274990678 115.03919595460226 l -26.639272537617643 27.334240415417234 a59.1682006442706,59.1682006442706 0 0,0 -0.7213113064907062,-0.7151462896341614 l 27.104575764238312 -26.872914115554412" fill="#41ff2d" stroke="none" /><path d="M 85.08716467003676 114.78537596483092 l -2.100853047601348 2.0828971465430457 a23.95838537900204,23.95838537900204 0 0,0 -0.2870593325939228,-0.29454816378830617 l 2.1362991813460805 -2.0465262906870025" fill="#ff0000" stroke="none" /><path d="M 83.8745106332314 113.45245675266167 l -36.58505327262248 30.52055263253085 a68.64420485175202,68.64420485175202 0 0,0 -0.7470881599858571,-0.9113260803471214 l 37.10358825184697 -29.888024270485232" fill="#39ff8d" stroke="none" /><path d="M 82.576782715395 111.72311816256416 l -6.749886952017396 4.541625179200876 a29.135559792255606,29.135559792255606 0 0,0 -0.2756439851945285,-0.41736012577932824 l 6.8268553761326505 -4.425085175082487" fill="#ff4c07" stroke="none" /><path d="M 82.37810715431573 111.42229804090323 l -32.136118374390826 20.830243672712832 a59.29659456971928,59.29659456971928 0 0,0 -0.5463258093368099,-0.8589149145824535 l 32.488961875353525 -20.275515083451708" fill="#3fff2d" stroke="none" /><path d="M 82.18462484594161 111.11811171558189 l -28.57525806862926 17.833074451773733 a54.68328840970351,54.68328840970351 0 0,0 -0.4901498422681271,-0.800622931154287 l 28.877175875352794 -17.339914404494888" fill="#70ff27" stroke="none" /><path d="M 81.99639281039703 110.81064883170644 l -7.228361123580935 4.340423167026219 a29.431398330155808,29.431398330155808 0 0,0 -0.25637030962991825,-0.43537283365475266 l 7.301805143340623 -4.215699165077908" fill="#ff5107" stroke="none" /><line stroke="#e1ed5e" stroke-width="0.3" x1="26.387840678322732" x2="22.057713659400548" y1="142.50000000000003" y2="145.00000000000006" /><path d="M 25.521815274538298 143.00000000000003 a86.0,86.0 0 0,1 -11.493303480769221,-40.785679425670985" fill="none" id="id21" stroke="none" /><text fill="#e1ed5e" style="font-size:6.75px; font-family:Arial;" text-anchor="middle"><textPath startOffset="21.40746469413373" xlink:href="#id21">September</textPath></text><path d="M 81.81346652052679 110.50000000000001 l -29.255643070628853 16.890753402143197 a54.781506804286366,54.781506804286366 0 0,0 -0.46320799153788556,-0.8184441373149407 l 29.541284427188117 -16.386052494729135" fill="#6fff28" stroke="none" /><path d="M 81.4637452351635 109.86951160357371 l -21.96080594120774 11.692892216379303 a45.87972519886924,45.87972519886924 0 0,0 -0.36417999944277113,-0.69836316786436 l 22.158294009625465 -11.314182805410441" fill="#d4ff1c" stroke="none" /><path d="M 80.68587082218212 108.24405325689762 l -34.88504273429547 14.890350350404649 a58.93005062126093,58.93005062126093 0 0,0 -0.3891464286345484,-0.9338097649397743 l 35.1355150074665 -14.289308076023595" fill="#43ff2d" stroke="none" /><path d="M 80.5471966667186 107.91128576633889 l -6.8510582097359265 2.7862657309814205 a28.395963447505096,28.395963447505096 0 0,0 -0.17976176220594403,-0.4531170698333209 l 6.897878646907995 -2.668247643934534" fill="#ff4206" stroke="none" /><path d="M 80.28708602549918 107.23885506374661 l -27.31106048473779 10.028999707601079 a50.09424100979554,50.09424100979554 0 0,0 -0.2894965986060244,-0.8097735099740416 l 27.47919725338776 -9.558691241246116" fill="#a3ff22" stroke="none" /><path d="M 80.16572619554312 106.89939002012753 l -35.45094464917965 12.331678796411623 a58.534514496088356,58.534514496088356 0 0,0 -0.3219804650229429,-0.9518780326610518 l 35.65741053577496 -11.72129908927641" fill="#47ff2c" stroke="none" /><path d="M 79.94057633289273 106.21446072829308 l -4.803998079502945 1.4882908850876109 a26.029255144303463,26.029255144303463 0 0,0 -0.12856429195864802,-0.42794871466050965 l 4.828838691465222 -1.4056045668363777" fill="#ff1f03" stroke="none" /><path d="M 79.83685265289637 105.86919833188381 l -36.38529954019046 10.59123041111211 a58.8954375123266,58.8954375123266 0 0,0 -0.2742326042801397,-0.9731547683354094 l 36.56175063654518 -9.965067718873705" fill="#43ff2d" stroke="none" /><path d="M 79.73907114497094 105.5222062557868 l -4.281402549265606 1.1669153033538047 a25.437578068503058,25.437578068503058 0 0,0 -0.1112112975971149,-0.4222874112485235 l 4.300803327667453 -1.0932473877324786" fill="#ff1602" stroke="none" /><path d="M 79.64726062577567 105.17358676015961 l -32.578298486859104 8.28127607891434 a54.61435803037275,54.61435803037275 0 0,0 -0.22317110239576252,-0.9106142551001372 l 32.71565711577116 -7.720805999206103" fill="#70ff27" stroke="none" /><path d="M 79.56144815229197 104.8234425847677 l -5.470653076811694 1.2910592303115183 a26.62093222010387,26.62093222010387 0 0,0 -0.10114577363684985,-0.4456669412916597 l 5.492009712006211 -1.1969579550808325" fill="#ff2803" stroke="none" /><path d="M 79.407916724674 104.11899336999214 l -37.27275954027916 7.45559579256755 a59.01111038064558,59.01111038064558 0 0,0 -0.1901666969526279,-0.9950325152534546 l 37.39525252951395 -6.814660712280781" fill="#42ff2d" stroke="none" /><path d="M 79.34024301695615 103.76489593502545 l -4.802248235114954 0.8751295997434184 a25.88133587535336,25.88133587535336 0 0,0 -0.07590032349659144,-0.4377728962022726 l 4.81656337610378 -0.7925636706205531" fill="#ff1d02" stroke="none" /><path d="M 79.2786578344484 103.40968896794605 l -31.55637176264067 5.192588964934732 a52.98073762408784,52.98073762408784 0 0,0 -0.13996629851420678,-0.8986840415090076 l 31.640859553293144 -4.650116741494274" fill="#82ff25" stroke="none" /><path d="M 79.22317932658666 103.0534771498775 l -4.244070077544821 0.6237321488193274 a25.289658799552953,25.289658799552953 0 0,0 -0.05943730172407902,-0.43005870661671175 l 4.254151895824113 -0.55078513400253" fill="#ff1402" stroke="none" /><path d="M 79.17382384314188 102.69636545807758 l -24.369249008210126 3.15508717347477 a45.57264479652883,45.57264479652883 0 0,0 -0.09378831579692748,-0.7767017967619816 l 24.419819410266715 -2.736291699789389" fill="#d8ff1c" stroke="none" /><path d="M 79.13060592940153 102.33845913500099 l -3.8219820653913064 0.42826106231880257 a24.84590099270265,24.84590099270265 0 0,0 -0.04385610030651835,-0.4242679874185331 l 3.8287705581794906 -0.362588552617338" fill="#ff0d01" stroke="none" /><path d="M 79.06263194458094 101.62068470465958 l -18.12505893768844 1.4029941926612914 a39.17927815396752,39.17927815396752 0 0,0 -0.04614953075910565,-0.6710040488076429 l 18.14647242961261 -1.0916467196993052" fill="#ffd614" stroke="none" /><path d="M 79.03789590574601 101.26102812881392 l -4.872527178008267 0.29311913547662377 a25.88133587535336,25.88133587535336 0 0,0 -0.02287221221843532,-0.4437148066770452 l 4.876840979683275 -0.20943253542284776" fill="#ff1d02" stroke="none" /><path d="M 79.01933749520258 100.90099992219065 l -33.722025326969934 1.448168864484786 a54.75310630464794,54.75310630464794 0 0,0 -0.03226603944832696,-0.939390533200926 l 33.74191605341511 -0.8690720667197401" fill="#6fff27" stroke="none" /><line stroke="#e1ed5e" stroke-width="0.3" x1="15.003131293944662" x2="10.003315487706104" y1="100.72959589197737" y2="100.7725132973878" /><path d="M 14.003168132696942 100.73817937305945 a86.0,86.0 0 0,1 10.791469493833604,-42.45332614584628" fill="none" id="id22" stroke="none" /><text fill="#e1ed5e" style="font-size:6.75px; font-family:Arial;" text-anchor="middle"><textPath startOffset="22.145653131862435" xlink:href="#id22">October</textPath></text><path d="M 79.00077361379809 100.18025310272382 l -33.694768147887295 0.28922905980037833 a54.69600946683321,54.69600946683321 0 0,0 0.0,-0.9389643250483793 l 33.694768147887295 0.28922905980036595" fill="#70ff27" stroke="none" /><path d="M 79.00696218219943 99.45929381324524 l -62.97911345340172 -1.6221185602642838 a84.0,84.0 0 0,0 0.04950125201259814,-1.4411749417434458 l 62.941987514392274 2.7029997665718684" fill="#4dd2ff" stroke="none" /><path d="M 79.03789590574601 98.7389718711861 l -6.201398226555977 -0.3730607178793372 a27.21260929590428,27.21260929590428 0 0,0 0.03205391239730645,-0.46605685139005326 l 6.194080352993607 0.47946099342371545" fill="#ff3004" stroke="none" /><path d="M 79.06263194458094 98.37931529534042 l -14.163207161430815 -1.0963218086771418 a35.20557491289199,35.20557491289199 0 0,0 0.05181318006670042,-0.6021476916071218 l 14.142300358666372 1.3392905476599442" fill="#ffa10e" stroke="none" /><path d="M 79.22317932658666 96.9465228501225 l -7.756403934823298 -1.1399242719801477 a28.8397212543554,28.8397212543554 0 0,0 0.07618974773047282,-0.48919283526686386 l 7.735692694954557 1.2729052891784614" fill="#ff4806" stroke="none" /><path d="M 79.2786578344484 96.59031103205396 l -33.75768718198603 -5.554814579489237 a55.21165603839326,55.21165603839326 0 0,0 0.16191523398478247,-0.933884042325196 l 33.657357130509006 6.133491654735026" fill="#6aff28" stroke="none" /><path d="M 79.407916724674 95.88100663000787 l -11.177824592609598 -2.23587797175733 a32.39925054237065,32.39925054237065 0 0,0 0.11377118583663272,-0.5444363098611852 l 11.137795695948599 2.4274307329039244" fill="#ff7a0b" stroke="none" /><path d="M 79.48165901384962 95.52812308129327 l -4.913903426531872 -1.0709623808617954 a26.029255144303463,26.029255144303463 0 0,0 0.09889770677427497,-0.43576154389897825 l 4.894794858199936 1.155158258699782" fill="#ff1f03" stroke="none" /><path d="M 79.56144815229197 95.17655741523228 l -23.615369687049558 -5.573162944825809 a45.264085201498915,45.264085201498915 0 0,0 0.18496300529131643,-0.7547121803688924 l 23.516219155241945 5.977730949802819" fill="#dcff1b" stroke="none" /><path d="M 79.73907114497095 94.47779374421319 l -53.19899551615469 -14.49962279335306 a76.13957004799158,76.13957004799158 0 0,0 0.3545258081945526,-1.2580870230516454 l 52.942251215885555 15.41071774030772" fill="#43ffde" stroke="none" /><path d="M 80.05021161711548 93.44210830539832 l -38.38915461780635 -12.619277628372094 a61.41006508447833,61.41006508447833 0 0,0 0.337797989497483,-0.9986397331801001 l 38.1668712067365 13.276419036026356" fill="#30ff36" stroke="none" /><path d="M 80.16572619554312 93.10060997987247 l -33.226231969008076 -11.557808242109902 a56.17904805732693,56.17904805732693 0 0,0 0.32466093901573034,-0.9081344285361331 l 33.0229308599484 12.126477627026956" fill="#60ff29" stroke="none" /><path d="M 80.83023694016515 91.42560881287825 l -18.010507029497063 -8.055870709893073 a40.73006376964039,40.73006376964039 0 0,0 0.2909591577566988,-0.635798269466055 l 17.86956340688532 8.3638579615738" fill="#ffea16" stroke="none" /><path d="M 80.9802524753101 91.09779779509293 l -31.382127914961757 -14.688420440733644 a55.649497074485566,55.649497074485566 0 0,0 0.4123912394709305,-0.8617390816661054 l 31.12535741753092 15.224972024464837" fill="#65ff29" stroke="none" /><path d="M 81.29705330413844 90.45014215332179 l -4.7426163470821106 -2.4216136992994897 a26.32509368220367,26.32509368220367 0 0,0 0.20896098572867328,-0.4007102426734642 l 4.700347292378497 2.5026701850774407" fill="#ff2303" stroke="none" /><path d="M 81.46374523516351 90.13048839642627 l -15.150263844956429 -8.06666215543461 a38.16396029189403,38.16396029189403 0 0,0 0.3128620591116504,-0.5756309503773323 l 15.009556436229428 8.325547939286562" fill="#ffc812" stroke="none" /><line stroke="#e1ed5e" stroke-width="0.3" x1="26.387840678322718" x2="22.05771365940052" y1="57.49999999999999" y2="54.99999999999999" /><path d="M 25.521815274538284 56.99999999999999 a86.0,86.0 0 0,1 29.574782752854787,-30.34633250058573" fill="none" id="id23" stroke="none" /><text fill="#e1ed5e" style="font-size:6.75px; font-family:Arial;" text-anchor="middle"><textPath startOffset="21.40746469413373" xlink:href="#id23">November</textPath></text><path d="M 81.99639281039701 89.18935116829357 l -3.297147179177271 -1.979842146362833 a24.84590099270265,24.84590099270265 0 0,0 0.22270450089505672,-0.36377106531906833 l 3.2626747138268213 2.0361503278064443" fill="#ff0d01" stroke="none" /><path d="M 82.18462484594161 88.88188828441811 l -25.194374140170712 -15.723152831321363 a50.69804746564986,50.69804746564986 0 0,0 0.46710358351019693,-0.7343644171210618 l 24.920752865034626 16.153330923121096" fill="#9cff22" stroke="none" /><path d="M 82.37810715431573 88.57770195909679 l -4.468487155286826 -2.8964193873267168 a26.32509368220367,26.32509368220367 0 0,0 0.2490548932274374,-0.3771008516293392 l 4.4181078231386595 2.972700117295117" fill="#ff2303" stroke="none" /><path d="M 82.576782715395 88.27688183743585 l -24.173676954303172 -16.26512869178023 a50.13625008217737,50.13625008217737 0 0,0 0.48658487258770655,-0.7099418708705556 l 23.890902344900155 16.67770529772082" fill="#a2ff22" stroke="none" /><path d="M 82.78059297857968 87.97951657250589 l -13.10485868570005 -9.148209137234069 a36.982085332982706,36.982085332982706 0 0,0 0.3678571071874404,-0.5174370892667691 l 12.945886479982637 9.371823453210357" fill="#ffb911" stroke="none" /><path d="M 83.42222388311158 87.10902102172516 l -4.554034687481671 -3.541244917818301 a26.768851489053972,26.768851489053972 0 0,0 0.28519479482247584,-0.36033430667930005 l 4.492573462017634 3.618899168412284" fill="#ff2a04" stroke="none" /><path d="M 83.64595745247003 86.82634096563983 l -11.181900152770558 -9.007347237891807 a35.35852343698639,35.35852343698639 0 0,0 0.38482395231184247,-0.4694226503210556 l 11.025629381220085 9.197972169911356" fill="#ffa30f" stroke="none" /><path d="M 83.8745106332314 86.54754324733833 l -25.86769172019226 -21.579748449321233 a54.6871343106962,54.6871343106962 0 0,0 0.607562178138192,-0.715706718153423 l 25.49343497854695 22.020621949924212" fill="#70ff27" stroke="none" /><path d="M 84.10781606972428 86.27271002978789 l -2.68658311884222 -2.3206065109255354 a24.550062454802447,24.550062454802447 0 0,0 0.27822110682707324,-0.3165645472250607 l 2.646350948056554 2.366383335961896" fill="#ff0901" stroke="none" /><path d="M 84.58840730492382 85.73525988315684 l -43.74429122226444 -40.48906289097989 a80.60643613174676,80.60643613174676 0 0,0 0.9486385930129059,-1.0074213117244886 l 43.04279679551526 41.23402566264889" fill="#49f2ff" stroke="none" /><path d="M 85.08716467003674 85.21462403516908 l -4.516834052342898 -4.478228865067545 a27.36052856485438,27.36052856485438 0 0,0 0.33354839914844286,-0.33069757526044896 l 4.439293733064479 4.555106450556668" fill="#ff3304" stroke="none" /><path d="M 85.34317274990677 84.96080404539775 l -20.45894974607879 -20.992684774577093 a50.31316152784169,50.31316152784169 0 0,0 0.6237095366095539,-0.5974996271914413 l 20.095567723603935 21.340796532074105" fill="#a0ff22" stroke="none" /><path d="M 85.60350026404147 84.71141617570332 l -2.737953921064269 -2.907612183307265 a24.99382026165275,24.99382026165275 0 0,0 0.31488670201730556,-0.29145443040171776 l 2.68763744773301 2.9541843598413484" fill="#ff1001" stroke="none" /><path d="M 85.86807049272753 84.46653392183569 l -14.596658520765672 -16.044284672533916 a42.69058576030504,42.69058576030504 0 0,0 0.5463073056756792,-0.4885113614332063 l 14.319086188266601 16.292491563850522" fill="#fcff18" stroke="none" /><path d="M 86.13680546590413 84.22622945171909 l -2.148282819882058 -2.4443514941878055 a24.25422391690224,24.25422391690224 0 0,0 0.3150976184265538,-0.27217381802536955 l 2.106005721692655 2.4808694446778854" fill="#ff0400" stroke="none" /><path d="M 87.25179093698888 83.31218511350988 l -12.824415521388106 -16.787571586765765 a42.12553415291565,42.12553415291565 0 0,0 0.5784177077872024,-0.4340554312872114 l 12.534344824690152 17.005246045316976" fill="#fffb17" stroke="none" /><path d="M 87.54013794807813 83.09580414077388 l -3.4228139881731705 -4.643704545416979 a26.768851489053972,26.768851489053972 0 0,0 0.3722387126325165,-0.2694721217149812 l 3.342594265166686 4.701777438505039" fill="#ff2a04" stroke="none" /><path d="M 87.83215693770416 82.88440491214696 l -11.532293045006114 -16.221614396425828 a40.90312931431201,40.90312931431201 0 0,0 0.5757698005554707,-0.4019320373238846 l 11.252128153276878 16.41719124955484" fill="#ffec16" stroke="none" /><path d="M 88.12776184653039 82.6780497279521 l -3.094138722529575 -4.514440865626655 a26.47301295115377,26.47301295115377 0 0,0 0.37705602090221746,-0.25370011833857414 l 3.0161864135303684 4.566890658022339" fill="#ff2603" stroke="none" /><line stroke="#e1ed5e" stroke-width="0.3" x1="56.869717070023135" x2="54.33264160355391" y1="26.7553504044142" y2="22.446841604673864" /><path d="M 56.362301976729285 25.89364864446614 a86.0,86.0 0 0,1 42.16139366436587,-11.88097634709845" fill="none" id="id24" stroke="none" /><text fill="#e1ed5e" style="font-size:6.75px; font-family:Arial;" text-anchor="middle"><textPath startOffset="22.145653131862474" xlink:href="#id24">December</textPath></text><path d="M 89.34428304082924 81.90426304109057 l -15.14219241393173 -25.714753118313517 a50.84182499506936,50.84182499506936 0 0,0 0.7558667005325738,-0.4363998430239534 l 14.698533245538755 25.970899858613645" fill="#9aff22" stroke="none" /><path d="M 89.65649057296885 81.72400993836675 l -14.177457477376663 -25.05020890478699 a49.78390638353823,49.78390638353823 0 0,0 0.747365039223949,-0.4145507889351676 l 13.745348249996612 25.289892609155302" fill="#a6ff21" stroke="none" /><path d="M 90.28995756902619 81.37971332152246 l -16.589976417843825 -31.813467251600184 a56.87929787653671,56.87929787653671 0 0,0 0.8696378188666847,-0.44404326672811695 l 16.041411377263557 32.09356847000114" fill="#58ff2a" stroke="none" /><path d="M 90.61103034731259 81.2157712731953 l -2.3146825453670212 -4.630915635100759 a26.177174413253567,26.177174413253567 0 0,0 0.40367664938151415,-0.19745847770736458 l 2.2348456467234543 4.669967862905338" fill="#ff2103" stroke="none" /><path d="M 90.93487009805054 81.0573650232925 l -14.675273571041467 -30.66567754090096 a54.99628558280192,54.99628558280192 0 0,0 0.8550908541871284,-0.40022569582792433 l 14.146694002982816 30.913079468299426" fill="#6cff28" stroke="none" /><path d="M 91.26138138417902 80.90454125486306 l -1.6619272422248443 -3.63161095437534 a24.99382026165275,24.99382026165275 0 0,0 0.39167291712121866,-0.1751903139499422 l 1.599340922248007 3.6596050192351277" fill="#ff1001" stroke="none" /><path d="M 91.5904679813234 80.7573450057729 l -7.008548860686655 -16.03693135799488 a38.50151206363815,38.50151206363815 0 0,0 0.6078929025335678,-0.2594733325451941 l 6.732220882982656 16.154879340199482" fill="#ffcd13" stroke="none" /><path d="M 91.92203290615298 80.6158196554323 l -1.4224845084819424 -3.413444983054034 a24.697981723752548,24.697981723752548 0 0,0 0.39275146734510424,-0.15972860261225513 l 1.3636785799463973 3.4373608422455804" fill="#ff0b01" stroke="none" /><path d="M 92.93061703081487 80.22567764915836 l -1.3444688066530681 -3.7607185364402 a24.99382026165275,24.99382026165275 0 0,0 0.4052500730303515,-0.1409670118042472 l 1.2797129615777123 3.783243980813033" fill="#ff1001" stroke="none" /><path d="M 93.61358852112211 79.99465700312896 l -1.1695955355440033 -3.663741356715394 a24.84590099270265,24.84590099270265 0 0,0 0.4074247019800747,-0.1262212141390409 l 1.1065302006923126 3.6832791586610774" fill="#ff0d01" stroke="none" /><path d="M 93.95794788825049 79.88797359093562 l -5.758893870649269 -19.169484716668553 a41.01584379725199,41.01584379725199 0 0,0 0.6760582697208589,-0.1967907093369517 l 5.428975588546785 19.265519120308024" fill="#ffed16" stroke="none" /><path d="M 94.6519064749342 79.69241777938228 l -7.455044577306765 -28.308018549500694 a50.27322332522516,50.27322332522516 0 0,0 0.8364380058253393,-0.2126192702154248 l 6.968001278256048 28.43182305155138" fill="#a1ff22" stroke="none" /><path d="M 95.00130118170881 79.60360301121753 l -4.822603330369755 -19.67786730533042 a41.260206429557556,41.260206429557556 0 0,0 0.6893752269612259,-0.16269067649142346 l 4.484095949668623 19.757754125468075" fill="#fff016" stroke="none" /><path d="M 95.35216902796891 79.52079915486377 l -0.6875037595864806 -3.02926841769486 a24.10630464795214,24.10630464795214 0 0,0 0.4043403092113322,-0.0881240884575122 l 0.6354010337560301 3.040623964286086" fill="#ff0200" stroke="none" /><path d="M 95.70440661134978 79.44403061299748 l -0.9077157625086145 -4.343748520408695 a25.437578068503058,25.437578068503058 0 0,0 0.42820348794266566,-0.08565269012663311 l 0.8330157890349721 4.358690607198195" fill="#ff1602" stroke="none" /><path d="M 97.48249496171623 79.15144685158666 l -4.479005977275865 -37.09259475125263 a58.36204062849254,58.36204062849254 0 0,0 0.9956678031668762,-0.11156665410914769 l 3.841602272508189 37.16401716586875" fill="#49ff2c" stroke="none" /><path d="M 98.5590905019552 79.04949213459386 l -0.426276559148093 -6.197967615168469 a27.21260929590428,27.21260929590428 0 0,0 0.4663148165877728,-0.02805234140407962 l 0.3198173904278364 6.204371934397243" fill="#ff3004" stroke="none" /><path d="M 99.27912038922189 79.0123766808444 l -0.11170969860006262 -3.252305988768161 a24.25422391690224,24.25422391690224 0 0,0 0.416233303676119,-0.01072069342152299 l 0.0558630808531997 3.253744399539729" fill="#ff0400" stroke="none" /></svg>