<?xml version="1.0" encoding="utf-8" ?>
<svg baseProfile="full" height="200mm" version="1.1" viewBox="0,0,200,200" width="200mm" xmlns="http://www.w3.org/2000/svg" xmlns:ev="http://www.w3.org/2001/xml-events" xmlns:xlink="http://www.w3.org/1999/xlink"><defs /><rect fill="#1a1a1a" height="200" width="200" x="0" y="0" /><text alignment-baseline="middle" fill="#e1ed5e" style="dominant-baseline: central; font-size:9.0px; font-family:Arial;" text-anchor="middle" x="100.0" y="100.0">2025</text><line stroke="#e1ed5e" stroke-width="0.3" x1="100.0" x2="100.0" y1="15.0" y2="10.0" /><path d="M 100.0 14.0 a86.0,86.0 0 0,1 42.46469731375804,11.215312516191453" fill="none" id="id73" stroke="none" /><text fill="#e1ed5e" style="font-size:6.75px; font-family:Arial;" text-anchor="middle"><textPath startOffset="22.20632615414155" xlink:href="#id73">January</textPath></text><path d="M 100.0 79.0 l 0.0 -16.880064095480165 a37.880064095480165,37.880064095480165 0 0,0 0.6520430344813459,0.005612340255113698 l -0.2905625552088175 16.87756313183361" fill="#ff0b01" stroke="none" /><path d="M 100.72285384407766 79.0124445844662 l 0.8789036821156437 -25.518353238966807 a46.53348436291303,46.53348436291303 0 0,0 0.8002854513587488,0.034461974980672855 l -1.3180299658637242 25.49944353746194" fill="#ffa90f" stroke="none" /><path d="M 101.08401301168833 79.027996857942 l 1.8252723457280062 -35.31287628189957 a56.36001768151176,56.36001768151176 0 0,0 0.968420633693331,0.0584177772664174 l -2.432855028260949 35.27622523525285" fill="#b6ff1f" stroke="none" /><path d="M 102.16513564639614 79.11191278185805 l 2.3934929743793854 -23.091158324451435 a44.21487457177588,44.21487457177588 0 0,0 0.7563550069677654,0.08498529783365287 l -2.790614684856876 23.04653707314718" fill="#ff800b" stroke="none" /><path d="M 103.95276090670814 79.375362276772 l 9.694682317094657 -50.584721755503395 a72.50534865731021,72.50534865731021 0 0,0 1.2237300503546857,0.24546873584654527 l -10.563978776916468 50.410349063579645" fill="#3aff93" stroke="none" /><path d="M 104.66035177308747 79.52364482259891 l 5.195913692507706 -22.82947284222366 a44.41329428666151,44.41329428666151 0 0,0 0.7439783292385812,0.1760756335550083 l -5.588115708708811 22.736651296527782" fill="#ff840c" stroke="none" /><path d="M 105.71112130821622 79.79150937346287 l 7.18241824640979 -25.41459443343107 a47.41001215603934,47.41001215603934 0 0,0 0.7834160950474708,0.2287006408281603 l -7.618824559180688 25.287195463684206" fill="#ffb811" stroke="none" /><path d="M 106.0581310904928 79.89281104454417 l 15.848483332856413 -52.60177508064036 a75.93742955022654,75.93742955022654 0 0,0 1.2483195923565498,0.38785897385359025 l -16.751588297923682 52.321175971904246" fill="#40ffc4" stroke="none" /><path d="M 106.40334571778207 80.00007090966166 l 10.626695065493278 -33.19095315817637 a55.850624378384346,55.850624378384346 0 0,0 0.913070416075512,0.30102496053264927 l -11.196448303811207 33.003114473384485" fill="#beff1f" stroke="none" /><path d="M 107.08798089147638 80.2323363322302 l 7.84573453435562 -21.88096213524691 a44.24504365123218,44.24504365123218 0 0,0 0.7147000382600863,0.26323005569292707 l -8.221216898388283 21.74266881174766" fill="#ff810b" stroke="none" /><path d="M 107.76421540070413 80.48803036053334 l 17.396681725653295 -43.71897328191429 a68.0530887390872,68.0530887390872 0 0,0 1.0846888821573977,0.44247182994786693 l -18.146654477399082 43.41304056578284" fill="#33ff50" stroke="none" /><path d="M 108.09893153111575 80.62456947434976 l 9.232996747501733 -22.088504679595587 a44.940556967620736,44.940556967620736 0 0,0 0.7111655721090471,0.30448398376038893 l -9.611846077401095 21.92630116787241" fill="#ff8d0d" stroke="none" /><path d="M 109.41281617654863 81.2277094730956 l 13.04614865782464 -26.018365627072853 a50.10596751022212,50.10596751022212 0 0,0 0.7676699788396438,0.39323037962540963 l -13.49207912425304 25.789942722134942" fill="#ffe515" stroke="none" /><path d="M 109.73455568895987 81.39251694778311 l 20.705052479814533 -39.577452266296106 a65.66625041441044,65.66625041441044 0 0,0 0.9970480581212909,0.5325885426874811 l -21.383245584464134 39.215184997106874" fill="#34ff2f" stroke="none" /><line stroke="#e1ed5e" stroke-width="0.3" x1="143.23703022742887" x2="145.7803849466894" y1="26.81831364943548" y2="22.513508569990506" /><path d="M 143.74570117128098 25.957352633546492 a86.0,86.0 0 0,1 28.547481713284135,27.462654790039103" fill="none" id="id74" stroke="none" /><text fill="#e1ed5e" style="font-size:6.75px; font-family:Arial;" text-anchor="middle"><textPath startOffset="19.985693538727396" xlink:href="#id74">February</textPath></text><path d="M 110.68208982089419 81.91981866633111 l 22.845907914877834 -38.66829101411876 a65.91294065642613,65.91294065642613 0 0,0 0.9718641311607268,0.5855372647623536 l -23.508134112256197 38.26930713989779" fill="#31ff2f" stroke="none" /><path d="M 110.99172775467656 82.1063720568725 l 20.833873108311458 -33.915830371239416 a60.803691015581826,60.803691015581826 0 0,0 0.8870993520118553,0.5555015328471729 l -21.414591612695578 33.552184497069305" fill="#75ff27" stroke="none" /><path d="M 111.2981086023043 82.29822771554956 l 16.366463344286174 -25.642823716818448 a51.42064316499061,51.42064316499061 0 0,0 0.7420071635415395,0.48262209943946005 l -16.805437533611993 25.357302693219463" fill="#fffb17" stroke="none" /><path d="M 111.90073688211348 82.69761687909136 l 25.184742086981604 -36.615888638388356 a65.44091059785612,65.44091059785612 0 0,0 0.9226198012054971,0.6463541314916933 l -25.811293027770752 36.17694966413273" fill="#37ff2e" stroke="none" /><path d="M 113.06298171725822 83.55741782278167 l 39.186635419124904 -49.32483923455213 a83.99628688252847,83.99628688252847 0 0,0 1.1243367036133698,0.9091354219453185 l -40.02987552130276 48.64299771534268" fill="#4dd2ff" stroke="none" /><path d="M 113.6212207817346 84.01681056812373 l 15.087056210760263 -17.703205993790412 a44.25989612111835,44.25989612111835 0 0,0 0.5756024810441642,0.49915679948046343 l -15.389552490451191 17.440884200890277" fill="#ff810b" stroke="none" /><path d="M 114.42810811169701 84.74124197986012 l 16.633700105388073 -17.5913295716107 a45.2102221239916,45.2102221239916 0 0,0 0.5608581153954466,0.5395450626431172 l -16.93404146439594 17.302401422205282" fill="#ff920d" stroke="none" /><path d="M 114.68862486808459 84.99185889309783 l 23.712008311470093 -24.22780688203297 a54.90053044535308,54.90053044535308 0 0,0 0.66969287866302,0.6668170046143449 l -24.125536990300436 23.816054026768505" fill="#ccff1d" stroke="none" /><path d="M 114.94478906791727 85.2469230424477 l 16.89641435707163 -16.679666750981358 a44.74236932257708,44.74236932257708 0 0,0 0.5363453945279223,0.5527510751522224 l -17.181024015302665 16.38635148027902" fill="#ff8a0c" stroke="none" /><path d="M 115.68641384162765 86.03803664274999 l 12.196017745913515 -10.855276074696928 a37.32727373190408,37.32727373190408 0 0,0 0.42305689803095375,0.4836271672288304 l -12.381066507522318 10.64373335126515" fill="#ff0000" stroke="none" /><path d="M 116.15771136456269 86.58626213691792 l 24.085685556037813 -19.995348661190636 a52.30390098353409,52.30390098353409 0 0,0 0.5691200116677972,0.697673840797063 l -24.42630405978202 19.57779065078547" fill="#f5ff19" stroke="none" /><path d="M 116.60985879189232 87.15038557335679 l 46.807716443188035 -36.21109101663173 a80.17943419162339,80.17943419162339 0 0,0 0.8351033979488282,1.098898181980667 l -47.424095781360975 35.40000805877003" fill="#47fffd" stroke="none" /><path d="M 117.04232023915458 87.72973835380427 l 18.86463751878835 -13.5823077472963 a44.24550779091612,44.24550779091612 0 0,0 0.4396894812539607,0.6219095894876963 l -19.095639619846192 13.25557165747681" fill="#ff810b" stroke="none" /><path d="M 117.65298651832404 88.62581576622439 l 28.386017928039497 -18.2896983035498 a54.768018565587354,54.768018565587354 0 0,0 0.5037937997695541,0.7968808048927258 l -28.696639324055006 17.79836985094287" fill="#ceff1d" stroke="none" /><line stroke="#e1ed5e" stroke-width="0.3" x1="172.23445277983987" x2="176.4835382374775" y1="55.19839476539836" y2="52.563006222186495" /><path d="M 173.08426987136738 54.67131705675599 a86.0,86.0 0 0,1 12.851231095245387,41.99856678651699" fill="none" id="id75" stroke="none" /><text fill="#e1ed5e" style="font-size:6.75px; font-family:Arial;" text-anchor="middle"><textPath startOffset="22.20632615414155" xlink:href="#id75">March</textPath></text><path d="M 118.03404312379186 89.2402003453031 l 41.249510572652405 -24.611035172168304 a69.03358382141674,69.03358382141674 0 0,0 0.6000672792019695,1.0257094948226226 l -41.667037526324705 23.897346264991786" fill="#34ff5f" stroke="none" /><path d="M 118.73160827565052 90.50648371742162 l 30.33386169859157 -15.373747182371034 a55.00728257265996,55.00728257265996 0 0,0 0.4207794838066817,0.8482657630421307 l -30.59400119535166 14.849321830829952" fill="#cbff1d" stroke="none" /><path d="M 119.04729006885535 91.15688171328212 l 43.05142215154069 -19.98755818393327 a68.46501270858658,68.46501270858658 0 0,0 0.48707210798751616,1.0731988260959606 l -43.38909657649155 19.243537348995247" fill="#33ff56" stroke="none" /><path d="M 119.47837535516314 92.15188598940014 l 19.37957356172717 -7.808305365104599 a41.89347994253509,41.89347994253509 0 0,0 0.2637422983954642,0.6711953816687822 l -19.511109410004337 7.473560978540032" fill="#ff5608" stroke="none" /><path d="M 119.85752413597 93.16781622104841 l 21.97296819244862 -7.5600238897825385 a44.23715327660515,44.23715327660515 0 0,0 0.24154055764421695,0.7221755234937397 l -22.099846043864606 7.180675263366485" fill="#ff810b" stroke="none" /><path d="M 119.97218684219823 93.5106431181261 l 21.37260153458133 -6.944379198323115 a43.47248314730909,43.47248314730909 0 0,0 0.22511400710709223,0.7136729204792909 l -21.48897102545663 6.575456111417405" fill="#ff730a" stroke="none" /><path d="M 120.08093135843002 93.85539295169968 l 46.946416970603885 -14.365234334059858 a70.09507127859432,70.09507127859432 0 0,0 0.34311237947497075,1.1568043732889586 l -47.186735247190555 13.55500057402437" fill="#36ff6f" stroke="none" /><path d="M 120.53481517161879 95.60439243477599 l 31.00986289315624 -6.637858037218058 a52.71234390540391,52.71234390540391 0 0,0 0.1822860727800597,0.8888916284566543 l -31.119528261851297 6.103090752597992" fill="#eeff19" stroke="none" /><path d="M 120.6074358757038 95.95851677861258 l 22.837384069922955 -4.4788155642300165 a44.272427892584815,44.272427892584815 0 0,0 0.1402261186680111,0.7490935330568237 l -22.911095912500823 4.08504395371063" fill="#ff810b" stroke="none" /><path d="M 120.67395015179393 96.31383870115 l 34.05181677946875 -6.071432321660925 a55.588849596640515,55.588849596640515 0 0,0 0.1598527213034963,0.9434598098769563 l -34.15128136229247 5.484386723468131" fill="#c2ff1e" stroke="none" /><path d="M 120.78858239683441 97.02765380044208 l 29.96735376475487 -4.28472458454119 a51.27211846612885,51.27211846612885 0 0,0 0.11739850441105114,0.874755219519123 l -30.036668268223757 3.768251022957403" fill="#fff817" stroke="none" /><path d="M 120.91429891909075 98.10471618934814 l 31.446101031425023 -2.8496908466092536 a52.57495855895679,52.57495855895679 0 0,0 0.07391918045818437,0.9020012320081158 l -31.4904946957027 2.307975697393369" fill="#f1ff19" stroke="none" /><path d="M 120.96714384426684 98.82574320788733 l 62.90143153280055 -3.5227703763380056 a84.0,84.0 0 0,0 0.0684255670660141,1.444355573508001 l -62.95275070810006 2.4395036962070047" fill="#4dd2ff" stroke="none" /><line stroke="#e1ed5e" stroke-width="0.3" x1="184.98032266829074" x2="189.97916517819016" y1="98.17113171792111" y2="98.06355123074" /><path d="M 185.9800911702706 98.14961562048488 a86.0,86.0 0 0,1 -9.607161424134198,41.387399972396054" fill="none" id="id76" stroke="none" /><text fill="#e1ed5e" style="font-size:6.75px; font-family:Arial;" text-anchor="middle"><textPath startOffset="21.466115282336823" xlink:href="#id76">April</textPath></text><path d="M 120.99980553446 99.90962569577887 l 23.54628432912934 -0.10133327471752146 a44.54650237595314,44.54650237595314 0 0,0 -0.003300053070925274,0.7668161137182904 l -23.54453997876891 -0.3039923172044537" fill="#ff860c" stroke="none" /><path d="M 120.9904718944345 100.63252640178507 l 34.80929587683197 1.048942528799569 a55.825096695767485,55.825096695767485 0 0,0 -0.037211061291242326,0.9602521482930685 l -34.78608268268952 -1.6479719241066437" fill="#beff1f" stroke="none" /><path d="M 120.89721153311464 102.0752229133903 l 27.78019738508152 2.758746163844471 a48.91684163996022,48.91684163996022 0 0,0 -0.09042091477622698,0.8371853717705188 l -27.728594168804243 -3.236527857499781" fill="#ffd213" stroke="none" /><path d="M 120.76222939487914 103.15116336523771 l 23.865206412630787 3.6221141150606098 a45.13851254282241,45.13851254282241 0 0,0 -0.12320287379502659,0.7671844127279575 l -23.799321784474472 -4.032377757481772" fill="#ff910d" stroke="none" /><path d="M 120.64145759157962 103.86396538481128 l 33.30713261392971 6.234908892288863 a54.885677975466905,54.885677975466905 0 0,0 -0.18182858549663564,0.9271400401126719 l -33.19487409545741 -6.80731265946948" fill="#ccff1d" stroke="none" /><path d="M 120.41448212921028 104.9243191809786 l 23.81900141103052 5.745546949352436 a45.50216598519174,45.50216598519174 0 0,0 -0.1902178737413319,0.7598258503869288 l -23.716572222994127 -6.1547006391367605" fill="#ff970d" stroke="none" /><path d="M 120.32669344350535 105.2749913415812 l 23.83270550302829 6.184838450205357 a45.62214609349099,45.62214609349099 0 0,0 -0.20380482316413634,0.758433564248926 l -23.72271260352238 -6.594162947629831" fill="#ff990e" stroke="none" /><path d="M 120.23288151984713 105.62410040840565 l 22.357009870367044 6.214540831434211 a44.20466349872914,44.20466349872914 0 0,0 -0.2100929000545451,0.7313609466889957 l -22.2467243334264 -6.598459253627788" fill="#ff800b" stroke="none" /><path d="M 120.13307415673323 105.97154293290107 l 40.52712848791498 12.020493533613985 a63.27221792463255,63.27221792463255 0 0,0 -0.31869079526589084,1.0414999582549396 l -40.314210920142955 -12.716320464420981" fill="#54ff2b" stroke="none" /><path d="M 119.79798401119884 107.00284435728193 l 18.257289974212846 6.457877731533451 a40.365764172836776,40.365764172836776 0 0,0 -0.23734250292046494,0.6530646334882039 l -18.143423210287153 -6.771190162027785" fill="#ff3a05" stroke="none" /><path d="M 119.54520255179757 107.68017299344265 l 26.35654040648799 10.356648353683712 a49.31832246657089,49.31832246657089 0 0,0 -0.3172750683068874,0.7874506999987234 l -26.17436272392371 -10.80879842152525" fill="#ffd814" stroke="none" /><path d="M 119.26925614724726 108.34839909993367 l 32.70599018295622 14.16985984925199 a56.64360702840093,56.64360702840093 0 0,0 -0.3953155049043089,0.8913321033137892 l -32.45723359332064 -14.730740289058467" fill="#b2ff20" stroke="none" /><line stroke="#e1ed5e" stroke-width="0.3" x1="174.80103733775053" x2="179.2010983576182" y1="140.37084112569926" y2="142.7455964860345" /><path d="M 175.68104954172406 140.8457921977663 a86.0,86.0 0 0,1 -30.038265399797805,32.042727171017184" fill="none" id="id77" stroke="none" /><text fill="#e1ed5e" style="font-size:6.75px; font-family:Arial;" text-anchor="middle"><textPath startOffset="22.206326154141568" xlink:href="#id77">May</textPath></text><line stroke="#e1ed5e" stroke-width="0.3" x1="143.8653032363475" x2="146.44561519142675" y1="172.8068346515853" y2="177.08958963109032" /><path d="M 144.38136562736335 173.6633856474863 a86.0,86.0 0 0,1 -40.68145358897372,12.25698825130547" fill="none" id="id78" stroke="none" /><text fill="#e1ed5e" style="font-size:6.75px; font-family:Arial;" text-anchor="middle"><textPath startOffset="21.466115282336833" xlink:href="#id78">June</textPath></text><line stroke="#e1ed5e" stroke-width="0.3" x1="102.19456741930631" x2="102.32365962044197" y1="184.97166512339345" y2="189.96999836594603" /><path d="M 102.22038585953345 185.97133177190398 a86.0,86.0 0 0,1 -42.740103519485714,-10.115201625700543" fill="none" id="id79" stroke="none" /><text fill="#e1ed5e" style="font-size:6.75px; font-family:Arial;" text-anchor="middle"><textPath startOffset="22.20632615414155" xlink:href="#id79">July</textPath></text><line stroke="#e1ed5e" stroke-width="0.3" x1="58.666819895761336" x2="56.23545636021788" y1="174.27360380694188" y2="178.64263932499728" /><path d="M 58.180547188652646 175.14741091055294 a86.0,86.0 0 0,1 -31.652253787137756,-30.449443065178592" fill="none" id="id80" stroke="none" /><text fill="#e1ed5e" style="font-size:6.75px; font-family:Arial;" text-anchor="middle"><textPath startOffset="22.20632615414155" xlink:href="#id80">August</textPath></text><line stroke="#e1ed5e" stroke-width="0.3" x1="26.63291911575756" x2="22.317208475507996" y1="142.92168965132927" y2="145.44649492493687" /><path d="M 25.769776987707644 143.4266507060508 a86.0,86.0 0 0,1 -11.730757126820373,-40.83630448921669" fill="none" id="id81" stroke="none" /><text fill="#e1ed5e" style="font-size:6.75px; font-family:Arial;" text-anchor="middle"><textPath startOffset="21.46611528233685" xlink:href="#id81">September</textPath></text><line stroke="#e1ed5e" stroke-width="0.3" x1="15.007084014347285" x2="10.007500721073583" y1="101.09737516637583" y2="101.16192664675087" /><path d="M 14.007167355692545 101.11028546245083 a86.0,86.0 0 0,1 10.666146001902534,-42.60595125391555" fill="none" id="id82" stroke="none" /><text fill="#e1ed5e" style="font-size:6.75px; font-family:Arial;" text-anchor="middle"><textPath startOffset="22.20632615414155" xlink:href="#id82">October</textPath></text><line stroke="#e1ed5e" stroke-width="0.3" x1="26.266209847984243" x2="21.928928074336255" y1="57.711370442889674" y2="55.22380399835377" /><path d="M 25.398753493254645 57.213857153982495 a86.0,86.0 0 0,1 29.58750427330803,-30.492523968695096" fill="none" id="id83" stroke="none" /><text fill="#e1ed5e" style="font-size:6.75px; font-family:Arial;" text-anchor="middle"><textPath startOffset="21.46611528233685" xlink:href="#id83">November</textPath></text><line stroke="#e1ed5e" stroke-width="0.3" x1="56.762969772571076" x2="54.21961505331055" y1="26.818313649435495" y2="22.513508569990535" /><path d="M 56.25429882871897 25.957352633546506 a86.0,86.0 0 0,1 42.265352541879196,-11.944610805530505" fill="none" id="id84" stroke="none" /><text fill="#e1ed5e" style="font-size:6.75px; font-family:Arial;" text-anchor="middle"><textPath startOffset="22.20632615414155" xlink:href="#id84">December</textPath></text></svg>