<?xml version="1.0" encoding="utf-8" ?>
<svg baseProfile="full" height="200mm" version="1.1" viewBox="0,0,200,200" width="200mm" xmlns="http://www.w3.org/2000/svg" xmlns:ev="http://www.w3.org/2001/xml-events" xmlns:xlink="http://www.w3.org/1999/xlink"><defs /><rect fill="#1a1a1a" height="200" width="200" x="0" y="0" /><text alignment-baseline="middle" fill="#e1ed5e" style="dominant-baseline: central; font-size:9.0px; font-family:Arial;" text-anchor="middle" x="100.0" y="100.0">2025</text><line stroke="#e1ed5e" stroke-width="0.3" x1="100.0" x2="100.0" y1="15.0" y2="10.0" /><path d="M 100.0 14.0 a86.0,86.0 0 0,1 42.46469731375804,11.215312516191453" fill="none" id="id73" stroke="none" /><text fill="#e1ed5e" style="font-size:6.75px; font-family:Arial;" text-anchor="middle"><textPath startOffset="22.20632615414155" xlink:href="#id73">January</textPath></text><path d="M 100.0 79.0 l 0.0 -16.826819765797985 a37.826819765797985,37.826819765797985 0 0,0 0.6511265208712479,0.005604451533117911 l -0.2896460415987195 16.824326690873427" fill="#ff7f0b" stroke="none" /><path d="M 100.72285384407766 79.0124445844662 l 0.8761313799996834 -25.43786138744797 a46.452944783699124,46.452944783699124 0 0,0 0.7989003271973866,0.03440232862059852 l -1.3138725395864015 25.419011332303175" fill="#fffe18" stroke="none" /><path d="M 101.08401301168833 79.027996857942 l 1.8195149385294327 -35.20148983122354 a56.2484825339938,56.2484825339938 0 0,0 0.9665041520689142,0.05830216986114828 l -2.4251811394379588 35.16495439198209" fill="#80ff25" stroke="none" /><path d="M 102.16513564639614 79.11191278185805 l 2.3859432442184705 -23.01832250821188 a44.141648520723095,44.141648520723095 0 0,0 0.7551023766959246,0.08484455022737387 l -2.7818123244241204 22.973842004513905" fill="#ffdd14" stroke="none" /><path d="M 103.95276090670814 79.375362276772 l 9.664102642838943 -50.42516373565249 a72.34288672891981,72.34288672891981 0 0,0 1.220988052040195,0.24491871678003932 l -10.530657104346263 50.25134106279525" fill="#3cffa8" stroke="none" /><path d="M 104.66035177308747 79.52364482259891 l 5.17952436246256 -22.757462453423816 a44.33944236566799,44.33944236566799 0 0,0 0.7427412170253509,0.17578284906362923 l -5.570489266450434 22.664933692219318" fill="#ffe015" stroke="none" /><path d="M 105.71112130821622 79.79150937346287 l 7.1597629387720945 -25.334429865506554 a47.326707768911874,47.326707768911874 0 0,0 0.7820395504170047,0.22829878970318812 l -7.594792706912527 25.20743274688466" fill="#f4ff19" stroke="none" /><path d="M 106.0581310904928 79.89281104454417 l 15.798492890476338 -52.43585472403394 a75.76414190189072,75.76414190189072 0 0,0 1.2454709527882601,0.38697388767325575 l -16.698749215975315 52.156140701478165" fill="#41ffd1" stroke="none" /><path d="M 106.40334571778207 80.00007090966166 l 10.593175568630077 -33.08625983222551 a55.74069599638672,55.74069599638672 0 0,0 0.911273258843946,0.3004324660490055 l -11.16113164971644 32.899013641917264" fill="#86ff25" stroke="none" /><path d="M 107.08798089147638 80.2323363322302 l 7.820986946089177 -21.81194360811914 a44.17172243866793,44.17172243866793 0 0,0 0.7135156643935349,0.26279384080253393 l -8.19528493625529 21.67408649951028" fill="#ffdd14" stroke="none" /><path d="M 107.76421540070413 80.48803036053334 l 17.341807842951354 -43.581071706800486 a67.90467045375263,67.90467045375263 0 0,0 1.0823232633883733,0.4415068346548319 l -18.089414975928115 43.276103985962074" fill="#36ff6f" stroke="none" /><path d="M 108.09893153111575 80.62456947434976 l 9.20387335555264 -22.018831506632832 a44.86504191621164,44.86504191621164 0 0,0 0.7099705779131165,0.30397234960989367 l -9.58152769125607 21.857139629060146" fill="#ffe715" stroke="none" /><path d="M 109.41281617654863 81.2277094730956 l 13.00499754392538 -25.936296600000244 a50.01415934402873,50.01415934402873 0 0,0 0.7662633924288613,0.3925098714336942 l -13.449521423942997 25.70859420325405" fill="#d0ff1d" stroke="none" /><path d="M 109.73455568895987 81.39251694778311 l 20.639743092712312 -39.452614178921095 a65.5253608686552,65.5253608686552 0 0,0 0.9949088519519369,0.5314458528372134 l -21.31579699119256 39.09148959958213" fill="#33ff50" stroke="none" /><line stroke="#e1ed5e" stroke-width="0.3" x1="143.23703022742887" x2="145.7803849466894" y1="26.81831364943548" y2="22.513508569990506" /><path d="M 143.74570117128098 25.957352633546492 a86.0,86.0 0 0,1 28.547481713284135,27.462654790039103" fill="none" id="id74" stroke="none" /><text fill="#e1ed5e" style="font-size:6.75px; font-family:Arial;" text-anchor="middle"><textPath startOffset="19.985693538727396" xlink:href="#id74">February</textPath></text><path d="M 110.68208982089419 81.91981866633111 l 22.773845685372788 -38.54632066949469 a65.77127298231184,65.77127298231184 0 0,0 0.9697752889751791,0.5842787607177758 l -23.433983040565604 38.148595299318295" fill="#33ff53" stroke="none" /><path d="M 110.99172775467656 82.1063720568725 l 20.768157385784516 -33.808850584698526 a60.67813930943821,60.67813930943821 0 0,0 0.8852676073380749,0.5543544945004961 l -21.347044145494852 33.44635174887508" fill="#4cff2c" stroke="none" /><path d="M 111.2981086023043 82.29822771554956 l 16.314839051563983 -25.56193925143743 a51.324688152932666,51.324688152932666 0 0,0 0.7406225191275003,0.4817214881961788 l -16.752428596475763 25.277318839081723" fill="#bfff1e" stroke="none" /><path d="M 111.90073688211348 82.69761687909136 l 25.1053025360975 -36.50039213107413 a65.30073183539028,65.30073183539028 0 0,0 0.9206434885170288,0.6449695981555977 l -25.72987716419818 36.062837690154595" fill="#32ff4d" stroke="none" /><path d="M 113.06298171725822 83.55741782278167 l 39.06303007476191 -49.16925522806556 a83.7975793984482,83.7975793984482 0 0,0 1.121676894163143,0.9069847076805838 l -39.90361036748955 48.48956442312085" fill="#4dd4ff" stroke="none" /><path d="M 113.6212207817346 84.01681056812373 l 15.039467517359839 -17.64736524987894 a44.18652805981,44.18652805981 0 0,0 0.5746483252096607,0.49832936494318963 l -15.341009641216264 17.38587089151608" fill="#ffde14" stroke="none" /><path d="M 114.42810811169701 84.74124197986012 l 16.581232874977324 -17.535841716472195 a45.13385647507243,45.13385647507243 0 0,0 0.5599107567689773,0.538633704395045 l -16.880626875358722 17.24782492531485" fill="#ffeb16" stroke="none" /><path d="M 114.68862486808459 84.99185889309783 l 23.637214164906364 -24.151385765987058 a54.79359891895464,54.79359891895464 0 0,0 0.6683884963346036,0.6655182237181781 l -24.049438461408293 23.740931691618762" fill="#92ff23" stroke="none" /><path d="M 114.94478906791727 85.2469230424477 l 16.84311845420148 -16.627054529223507 a44.66747940909708,44.66747940909708 0 0,0 0.5354476579797748,0.551825878726086 l -17.126830375884364 16.33466445494731" fill="#ffe415" stroke="none" /><path d="M 115.68641384162765 86.03803664274999 l 12.157548176959274 -10.821035570938001 a37.2757730539164,37.2757730539164 0 0,0 0.4224732037265574,0.4829599037371424 l -12.34201324426368 10.61016011099791" fill="#ff770a" stroke="none" /><path d="M 116.15771136456269 86.58626213691792 l 24.009712729447052 -19.9322778736507 a52.20515993522541,52.20515993522541 0 0,0 0.5680456079329168,0.6963567488570271 l -24.349256829456376 19.516036955185573" fill="#b3ff20" stroke="none" /><path d="M 116.60985879189232 87.15038557335679 l 46.66007212905073 -36.09687135150872 a79.99276610276542,79.99276610276542 0 0,0 0.8331591692714176,1.0963398049411186 l -47.27450723854626 35.288346770686566" fill="#47fdff" stroke="none" /><path d="M 117.04232023915458 87.72973835380427 l 18.805133302826633 -13.539465441280683 a44.17218511432863,44.17218511432863 0 0,0 0.43896083757367443,0.620878974675631 l -19.03540676020419 13.213759966273258" fill="#ffdd14" stroke="none" /><path d="M 117.65298651832404 88.62581576622439 l 28.2964806793433 -18.232007602806398 a54.66150501782769,54.66150501782769 0 0,0 0.5028140151003586,0.7953310208418558 l -28.606122290689616 17.742228934250335" fill="#94ff23" stroke="none" /><line stroke="#e1ed5e" stroke-width="0.3" x1="172.23445277983987" x2="176.4835382374775" y1="55.19839476539836" y2="52.563006222186495" /><path d="M 173.08426987136738 54.67131705675599 a86.0,86.0 0 0,1 12.851231095245387,41.99856678651699" fill="none" id="id75" stroke="none" /><text fill="#e1ed5e" style="font-size:6.75px; font-family:Arial;" text-anchor="middle"><textPath startOffset="22.20632615414155" xlink:href="#id75">March</textPath></text><path d="M 118.03404312379186 89.2402003453031 l 41.11939835697979 -24.533405249490613 a68.8820727869599,68.8820727869599 0 0,0 0.5987502852233462,1.023458325203285 l -41.53560831667346 23.821967511933433" fill="#37ff7c" stroke="none" /><path d="M 118.73160827565052 90.50648371742162 l 30.238180418966223 -15.325254187391955 a54.9000143209133,54.9000143209133 0 0,0 0.4199589328271058,0.8466115823380052 l -30.497499364746737 14.802483016555" fill="#91ff24" stroke="none" /><path d="M 119.04729006885535 91.15688171328212 l 42.915626214904584 -19.924511969685067 a68.31529510261485,68.31529510261485 0 0,0 0.48600699068075565,1.070851981297163 l -43.25223552254869 19.182837979545845" fill="#37ff75" stroke="none" /><path d="M 119.47837535516314 92.15188598940014 l 19.318445096930827 -7.783675838654515 a41.827576203782925,41.827576203782925 0 0,0 0.2633273984264191,0.6701395065028655 l -19.449566045238946 7.449987327255865" fill="#ffbb11" stroke="none" /><path d="M 119.85752413597 93.16781622104841 l 21.903659453102776 -7.53617751087569 a44.163856952436205,44.163856952436205 0 0,0 0.241140350268703,0.7209789543803092 l -22.03013709714325 7.1580254535730665" fill="#ffdd14" stroke="none" /><path d="M 119.97218684219823 93.5106431181261 l 21.305186515548453 -6.922474730817417 a43.401598801449715,43.401598801449715 0 0,0 0.2247469459690501,0.712509236363196 l -21.42118894528571 6.554715328027801" fill="#ffd213" stroke="none" /><path d="M 120.08093135843002 93.85539295169968 l 46.79833515714388 -14.319922463884602 a69.94021202295752,69.94021202295752 0 0,0 0.3423543500341549,1.1542486748511482 l -47.03789540428974 13.512244402286925" fill="#39ff8a" stroke="none" /><path d="M 120.53481517161879 95.60439243477599 l 30.912049321244243 -6.616920421121459 a52.61231451663245,52.61231451663245 0 0,0 0.18194015827330848,0.8872048264726986 l -31.02136877543255 6.083839938485349" fill="#aeff20" stroke="none" /><path d="M 120.6074358757038 95.95851677861258 l 22.765348726951533 -4.4646881574181325 a44.199020302648634,44.199020302648634 0 0,0 0.139993611396386,0.7478514699146825 l -22.83882806225778 4.072158610040887" fill="#ffde14" stroke="none" /><path d="M 120.67395015179393 96.31383870115 l 33.944408054677915 -6.052281366880837 a55.47974692375766,55.47974692375766 0 0,0 0.15953898285975515,0.9416081078222812 l -34.04355889905789 5.467087470742717" fill="#8aff24" stroke="none" /><path d="M 120.78858239683441 97.02765380044208 l 29.872828551193603 -4.271209393657659 a51.176631941511914,51.176631941511914 0 0,0 0.11717986754725854,0.8731261209310164 l -29.9419244177987 3.7563649306619786" fill="#c0ff1e" stroke="none" /><path d="M 120.91429891909075 98.10471618934814 l 31.346911445350848 -2.8407021438371016 a52.47536252106826,52.47536252106826 0 0,0 0.07377915072350856,0.9002925145627594 l -31.39116507989385 2.3006957120665734" fill="#b0ff20" stroke="none" /><path d="M 120.96714384426684 98.82574320788733 l 62.70302324838473 -3.511658597007584 a83.80128080373372,83.80128080373372 0 0,0 0.06826369237921145,1.4409386547140695 l -62.75418054899744 2.4318088356705148" fill="#4dd4ff" stroke="none" /><line stroke="#e1ed5e" stroke-width="0.3" x1="184.98032266829074" x2="189.97916517819016" y1="98.17113171792111" y2="98.06355123074" /><path d="M 185.9800911702706 98.14961562048488 a86.0,86.0 0 0,1 -9.607161424134198,41.387399972396054" fill="none" id="id76" stroke="none" /><text fill="#e1ed5e" style="font-size:6.75px; font-family:Arial;" text-anchor="middle"><textPath startOffset="21.466115282336823" xlink:href="#id76">April</textPath></text><path d="M 120.99980553446 99.90962569577887 l 23.47201292124137 -0.10101364190947548 a44.47223028028597,44.47223028028597 0 0,0 -0.0032945509137565264,0.7655376061650699 l -23.47027407303811 -0.30303344245927916" fill="#ffe215" stroke="none" /><path d="M 120.9904718944345 100.63252640178507 l 34.69949785620911 1.0456338777479408 a55.715248835048776,55.715248835048776 0 0,0 -0.03713784054072232,0.9583626460712383 l -34.67635788281719 -1.6427737708331853" fill="#87ff25" stroke="none" /><path d="M 120.89721153311464 102.0752229133903 l 27.69257105974053 2.7500443254257103 a48.828784301341386,48.828784301341386 0 0,0 -0.09025814414664957,0.8356783178950595 l -27.641130614092827 -3.2263189652055613" fill="#e0ff1b" stroke="none" /><path d="M 120.76222939487914 103.15116336523771 l 23.789929037439563 3.610688978461727 a45.06237308549585,45.06237308549585 0 0,0 -0.12299505569417697,0.765890329215589 l -23.7242522273841 -4.019658537370521" fill="#ffea16" stroke="none" /><path d="M 120.64145759157962 103.86396538481128 l 33.20207282626344 6.215242287783004 a54.77879329781257,54.77879329781257 0 0,0 -0.1814744914876696,0.9253345223895937 l -33.090168401800106 -6.785840537240542" fill="#92ff23" stroke="none" /><path d="M 120.41448212921028 104.9243191809786 l 23.743869779026298 5.7274239259891715 a45.42487946564633,45.42487946564633 0 0,0 -0.18989478412354138,0.7585352679681457 l -23.641763680607696 -6.135287033354714" fill="#ffef16" stroke="none" /><path d="M 120.32669344350535 105.2749913415812 l 23.75753064457729 6.165329781540886 a45.544481123934645,45.544481123934645 0 0,0 -0.20345787553580597,0.7571424430562229 l -23.64788469269971 -6.573363157772658" fill="#fff116" stroke="none" /><path d="M 120.23288151984713 105.62410040840565 l 22.286489758742334 6.1949384733518835 a44.13146965618792,44.13146965618792 0 0,0 -0.20974502936786826,0.7301499631923271 l -22.176552092488368 -6.5776459120487925" fill="#ffdd14" stroke="none" /><path d="M 120.13307415673323 105.97154293290107 l 40.39929486251659 11.982577615935831 a63.13887981081706,63.13887981081706 0 0,0 -0.31801919513988086,1.0393051301846157 l -40.18704889487058 -12.676209718672503" fill="#30ff2f" stroke="none" /><path d="M 119.79798401119884 107.00284435728193 l 18.199701498186243 6.437507822447796 a40.30467926662236,40.30467926662236 0 0,0 -0.2369833360663577,0.6520763605617266 l -18.086193901114658 -6.749831980015654" fill="#ffa50f" stroke="none" /><path d="M 119.54520255179757 107.68017299344265 l 26.273404683854068 10.323980657860593 a49.22899874783809,49.22899874783809 0 0,0 -0.31670043016947746,0.7860244952674025 l -26.0918016394272 -10.77470452097081" fill="#daff1b" stroke="none" /><path d="M 119.26925614724726 108.34839909993367 l 32.60282656260304 14.125164243530575 a56.531177362675294,56.531177362675294 0 0,0 -0.3945308587208434,0.8895629333106175 l -32.35485461915093 -14.68427551333388" fill="#7dff26" stroke="none" /><path d="M 119.12269723197855 108.67885076344098 l 32.43722162322729 14.721657841126794 a56.621630454340156,56.621630454340156 0 0,0 -0.4104404471935907,0.8840522087586651 l -32.179006559193866 -15.277830117164289" fill="#7cff26" stroke="none" /><line stroke="#e1ed5e" stroke-width="0.3" x1="174.80103733775053" x2="179.2010983576182" y1="140.37084112569926" y2="142.7455964860345" /><path d="M 175.68104954172406 140.8457921977663 a86.0,86.0 0 0,1 -30.038265399797805,32.042727171017184" fill="none" id="id77" stroke="none" /><text fill="#e1ed5e" style="font-size:6.75px; font-family:Arial;" text-anchor="middle"><textPath startOffset="22.206326154141568" xlink:href="#id77">May</textPath></text><path d="M 118.48025628344425 109.97397251340804 l 55.44076885033275 29.921917540224147 a84.0,84.0 0 0,0 -0.6976943621939617,1.2665179264087798 l -54.91749807868728 -30.871805985030733" fill="#4dd2ff" stroke="none" /><path d="M 118.30583269289576 110.29060199501025 l 7.784225489519691 4.375893066210985 a29.929871589144014,29.929871589144014 0 0,0 -0.2563251267011028,0.44692446411260073 l -7.707748366666208 -4.509237376181901" fill="#ff0000" stroke="none" /><path d="M 118.12598468904814 110.60418214915192 l 32.9829170994091 19.295881946972937 a59.21261415420318,59.21261415420318 0 0,0 -0.5222527876790605,0.8753257120743271 l -32.64588343603181 -19.86076975293337" fill="#5dff2a" stroke="none" /><path d="M 117.94076556474637 110.91462005526583 l 30.671687071785797 18.659728295005092 a56.901780566887844,56.901780566887844 0 0,0 -0.5162762506593563,0.8324017019998158 l -30.345946181458476 -19.18492632837018" fill="#78ff26" stroke="none" /><path d="M 117.55443506779139 111.5257021239791 l 21.296103189603667 13.982366326060003 a46.47607856673362,46.47607856673362 0 0,0 -0.4448355935524192,0.6649688562749592 l -21.05226449064053 -14.34687209654077" fill="#fffe18" stroke="none" /><line stroke="#e1ed5e" stroke-width="0.3" x1="143.8653032363475" x2="146.44561519142675" y1="172.8068346515853" y2="177.08958963109032" /><path d="M 144.38136562736335 173.6633856474863 a86.0,86.0 0 0,1 -40.68145358897372,12.25698825130547" fill="none" id="id78" stroke="none" /><text fill="#e1ed5e" style="font-size:6.75px; font-family:Arial;" text-anchor="middle"><textPath startOffset="21.466115282336833" xlink:href="#id78">June</textPath></text><line stroke="#e1ed5e" stroke-width="0.3" x1="102.19456741930631" x2="102.32365962044197" y1="184.97166512339345" y2="189.96999836594603" /><path d="M 102.22038585953345 185.97133177190398 a86.0,86.0 0 0,1 -42.740103519485714,-10.115201625700543" fill="none" id="id79" stroke="none" /><text fill="#e1ed5e" style="font-size:6.75px; font-family:Arial;" text-anchor="middle"><textPath startOffset="22.20632615414155" xlink:href="#id79">July</textPath></text><line stroke="#e1ed5e" stroke-width="0.3" x1="58.666819895761336" x2="56.23545636021788" y1="174.27360380694188" y2="178.64263932499728" /><path d="M 58.180547188652646 175.14741091055294 a86.0,86.0 0 0,1 -31.652253787137756,-30.449443065178592" fill="none" id="id80" stroke="none" /><text fill="#e1ed5e" style="font-size:6.75px; font-family:Arial;" text-anchor="middle"><textPath startOffset="22.20632615414155" xlink:href="#id80">August</textPath></text><line stroke="#e1ed5e" stroke-width="0.3" x1="26.63291911575756" x2="22.317208475507996" y1="142.92168965132927" y2="145.44649492493687" /><path d="M 25.769776987707644 143.4266507060508 a86.0,86.0 0 0,1 -11.730757126820373,-40.83630448921669" fill="none" id="id81" stroke="none" /><text fill="#e1ed5e" style="font-size:6.75px; font-family:Arial;" text-anchor="middle"><textPath startOffset="21.46611528233685" xlink:href="#id81">September</textPath></text><line stroke="#e1ed5e" stroke-width="0.3" x1="15.007084014347285" x2="10.007500721073583" y1="101.09737516637583" y2="101.16192664675087" /><path d="M 14.007167355692545 101.11028546245083 a86.0,86.0 0 0,1 10.666146001902534,-42.60595125391555" fill="none" id="id82" stroke="none" /><text fill="#e1ed5e" style="font-size:6.75px; font-family:Arial;" text-anchor="middle"><textPath startOffset="22.20632615414155" xlink:href="#id82">October</textPath></text><line stroke="#e1ed5e" stroke-width="0.3" x1="26.266209847984243" x2="21.928928074336255" y1="57.711370442889674" y2="55.22380399835377" /><path d="M 25.398753493254645 57.213857153982495 a86.0,86.0 0 0,1 29.58750427330803,-30.492523968695096" fill="none" id="id83" stroke="none" /><text fill="#e1ed5e" style="font-size:6.75px; font-family:Arial;" text-anchor="middle"><textPath startOffset="21.46611528233685" xlink:href="#id83">November</textPath></text><line stroke="#e1ed5e" stroke-width="0.3" x1="56.762969772571076" x2="54.21961505331055" y1="26.818313649435495" y2="22.513508569990535" /><path d="M 56.25429882871897 25.957352633546506 a86.0,86.0 0 0,1 42.265352541879196,-11.944610805530505" fill="none" id="id84" stroke="none" /><text fill="#e1ed5e" style="font-size:6.75px; font-family:Arial;" text-anchor="middle"><textPath startOffset="22.20632615414155" xlink:href="#id84">December</textPath></text></svg>